<svg xmlns="http://www.w3.org/2000/svg" width="135.965" height="75.965" viewBox="0 0 135.965 75.965">
  <g id="Group_489" data-name="Group 489" transform="translate(-718.203 -311.916)">
    <g id="Group_267" data-name="Group 267" transform="translate(761.15 311.916)">
      <g id="Group_230" data-name="Group 230" transform="translate(0.953 19.326)">
        <g id="Group_229" data-name="Group 229">
          <g id="Group_222" data-name="Group 222" transform="translate(4.844 2.637)">
            <path id="Path_208" data-name="Path 208" d="M279.01,527.094a9.526,9.526,0,0,0-4.554,4.988q.006-2.137.012-4.275a9.525,9.525,0,0,1,4.553-4.988c6.5-3.775,17.059-3.775,23.6,0,3.267,1.886,4.91,4.359,4.923,6.833l-.012,4.274c-.013-2.473-1.656-4.946-4.923-6.833C296.068,523.319,285.505,523.319,279.01,527.094Z" transform="translate(-274.456 -519.989)" fill="#ffd025"/>
          </g>
          <g id="Group_223" data-name="Group 223" transform="translate(4.549 10.455)">
            <path id="Path_209" data-name="Path 209" d="M274.132,540.665a5.8,5.8,0,0,0-.3,1.8l.012-4.275a5.787,5.787,0,0,1,.3-1.8q0,1.069-.006,2.137v.56l0,.817c0,.154,0,.361,0,.515A1.762,1.762,0,0,1,274.132,540.665Z" transform="translate(-273.837 -536.39)" fill="#ffd025"/>
          </g>
          <g id="Group_224" data-name="Group 224" transform="translate(4.549 12.254)">
            <path id="Path_210" data-name="Path 210" d="M307.217,540.255l-.012,4.275c-.007,2.457-1.622,4.911-4.85,6.787-6.5,3.775-17.058,3.775-23.593,0-3.29-1.9-4.933-4.392-4.926-6.882l.012-4.274c-.007,2.489,1.636,4.982,4.926,6.881,6.535,3.773,17.1,3.773,23.593,0C305.595,545.167,307.211,542.713,307.217,540.255Z" transform="translate(-273.837 -540.163)" fill="#fcca0d"/>
          </g>
          <g id="Group_225" data-name="Group 225" transform="translate(37.918 12.3)">
            <path id="Path_211" data-name="Path 211" d="M343.835,544.581v-.047q.006-2.137.012-4.274v.047C343.844,541.589,343.838,543.3,343.835,544.581Z" transform="translate(-343.835 -540.26)" fill="#ffd025"/>
          </g>
          <g id="Group_226" data-name="Group 226" transform="translate(4.561 2.637)">
            <path id="Path_212" data-name="Path 212" d="M302.308,522.819c6.535,3.773,6.569,9.891.074,13.666s-17.058,3.775-23.593,0-6.572-9.893-.077-13.668S295.77,519.045,302.308,522.819Z" transform="translate(-273.863 -519.989)" fill="#fcca0d"/>
          </g>
          <path id="Path_213" data-name="Path 213" d="M278.716,525.2c6.5-3.775,17.059-3.775,23.6,0,2.755,1.591,4.35,3.6,4.792,5.672.612-2.863-.985-5.857-4.792-8.055-6.538-3.775-17.1-3.775-23.6,0-3.756,2.183-5.324,5.149-4.717,7.993C274.437,528.762,276.006,526.778,278.716,525.2Z" transform="translate(-269.306 -517.352)" fill="#d99a32"/>
          <g id="Group_227" data-name="Group 227" transform="translate(0 12.238)">
            <path id="Path_214" data-name="Path 214" d="M306.775,540.251l-.012,4.275c-.009,3.128-2.065,6.252-6.172,8.638-8.264,4.8-21.709,4.8-30.027,0-4.188-2.417-6.279-5.591-6.27-8.759l.012-4.275c-.009,3.169,2.082,6.342,6.27,8.76,8.318,4.8,21.763,4.8,30.028,0C304.711,546.5,306.767,543.379,306.775,540.251Z" transform="translate(-264.294 -540.13)" fill="#d99a32"/>
          </g>
          <g id="Group_228" data-name="Group 228" transform="translate(0.012)">
            <path id="Path_215" data-name="Path 215" d="M300.522,518.061c8.318,4.8,8.362,12.59.095,17.394s-21.71,4.8-30.028,0-8.365-12.593-.1-17.395S292.2,513.256,300.522,518.061Zm-26.727,15.532c6.535,3.773,17.1,3.773,23.593,0s6.461-9.893-.074-13.666-17.1-3.775-23.6,0-6.46,9.893.077,13.668" transform="translate(-264.319 -514.458)" fill="#ffd025"/>
          </g>
        </g>
      </g>
      <g id="Group_239" data-name="Group 239" transform="translate(0.953 14.495)">
        <g id="Group_238" data-name="Group 238">
          <g id="Group_231" data-name="Group 231" transform="translate(4.844 2.637)">
            <path id="Path_216" data-name="Path 216" d="M279.01,516.958a9.527,9.527,0,0,0-4.554,4.988q.006-2.137.012-4.275a9.523,9.523,0,0,1,4.553-4.988c6.5-3.775,17.059-3.775,23.6,0,3.267,1.887,4.91,4.359,4.923,6.833l-.012,4.275c-.013-2.473-1.656-4.946-4.923-6.833C296.068,513.184,285.505,513.184,279.01,516.958Z" transform="translate(-274.456 -509.853)" fill="#ffd025"/>
          </g>
          <g id="Group_232" data-name="Group 232" transform="translate(4.549 10.456)">
            <path id="Path_217" data-name="Path 217" d="M274.132,530.53a5.8,5.8,0,0,0-.3,1.8l.012-4.275a5.787,5.787,0,0,1,.3-1.8q0,1.068-.006,2.137v.56l0,.817c0,.154,0,.361,0,.515A1.763,1.763,0,0,1,274.132,530.53Z" transform="translate(-273.837 -526.255)" fill="#ffd025"/>
          </g>
          <g id="Group_233" data-name="Group 233" transform="translate(4.549 12.254)">
            <path id="Path_218" data-name="Path 218" d="M307.217,530.12l-.012,4.275c-.007,2.457-1.622,4.911-4.85,6.787-6.5,3.775-17.058,3.775-23.593,0-3.29-1.9-4.933-4.392-4.926-6.882l.012-4.275c-.007,2.489,1.636,4.983,4.926,6.882,6.535,3.773,17.1,3.773,23.593,0C305.595,535.031,307.211,532.577,307.217,530.12Z" transform="translate(-273.837 -530.027)" fill="#fcca0d"/>
          </g>
          <g id="Group_234" data-name="Group 234" transform="translate(37.918 12.3)">
            <path id="Path_219" data-name="Path 219" d="M343.835,534.446V534.4q.006-2.137.012-4.275v.047C343.844,531.454,343.838,533.163,343.835,534.446Z" transform="translate(-343.835 -530.124)" fill="#ffd025"/>
          </g>
          <g id="Group_235" data-name="Group 235" transform="translate(4.561 2.637)">
            <path id="Path_220" data-name="Path 220" d="M302.308,512.684c6.535,3.773,6.569,9.892.074,13.666s-17.058,3.775-23.593,0-6.572-9.893-.077-13.668S295.77,508.909,302.308,512.684Z" transform="translate(-273.863 -509.853)" fill="#fcca0d"/>
          </g>
          <path id="Path_221" data-name="Path 221" d="M278.716,515.068c6.5-3.774,17.059-3.775,23.6,0,2.755,1.591,4.35,3.6,4.792,5.672.612-2.863-.985-5.858-4.792-8.056-6.538-3.775-17.1-3.774-23.6,0-3.756,2.183-5.324,5.149-4.717,7.993C274.437,518.626,276.006,516.643,278.716,515.068Z" transform="translate(-269.306 -507.216)" fill="#d99a32"/>
          <g id="Group_236" data-name="Group 236" transform="translate(0 12.239)">
            <path id="Path_222" data-name="Path 222" d="M306.775,530.116l-.012,4.275c-.009,3.128-2.065,6.252-6.172,8.638-8.264,4.8-21.709,4.8-30.027,0-4.188-2.418-6.279-5.591-6.27-8.759l.012-4.275c-.009,3.168,2.082,6.342,6.27,8.759,8.318,4.8,21.763,4.8,30.028,0C304.711,536.368,306.767,533.244,306.775,530.116Z" transform="translate(-264.294 -529.995)" fill="#d99a32"/>
          </g>
          <g id="Group_237" data-name="Group 237" transform="translate(0.012)">
            <path id="Path_223" data-name="Path 223" d="M300.522,507.925c8.318,4.8,8.362,12.591.095,17.395s-21.71,4.8-30.028,0-8.365-12.592-.1-17.394S292.2,503.121,300.522,507.925Zm-26.727,15.532c6.535,3.773,17.1,3.773,23.593,0s6.461-9.893-.074-13.666-17.1-3.774-23.6,0-6.46,9.893.077,13.668" transform="translate(-264.319 -504.322)" fill="#ffd025"/>
          </g>
        </g>
      </g>
      <g id="Group_248" data-name="Group 248" transform="translate(0 9.663)">
        <g id="Group_247" data-name="Group 247">
          <g id="Group_240" data-name="Group 240" transform="translate(4.844 2.637)">
            <path id="Path_224" data-name="Path 224" d="M277.01,506.823a9.528,9.528,0,0,0-4.554,4.988q.006-2.137.012-4.274a9.524,9.524,0,0,1,4.553-4.988c6.5-3.775,17.059-3.775,23.6,0,3.267,1.886,4.91,4.359,4.923,6.833l-.012,4.275c-.013-2.473-1.656-4.946-4.923-6.833C294.068,503.048,283.505,503.048,277.01,506.823Z" transform="translate(-272.456 -499.717)" fill="#ffd025"/>
          </g>
          <g id="Group_241" data-name="Group 241" transform="translate(4.549 10.456)">
            <path id="Path_225" data-name="Path 225" d="M272.132,520.394a5.8,5.8,0,0,0-.3,1.8l.012-4.274a5.786,5.786,0,0,1,.3-1.8q0,1.068-.006,2.137v.559l0,.817c0,.155,0,.361,0,.516A1.755,1.755,0,0,1,272.132,520.394Z" transform="translate(-271.837 -516.12)" fill="#ffd025"/>
          </g>
          <g id="Group_242" data-name="Group 242" transform="translate(4.549 12.254)">
            <path id="Path_226" data-name="Path 226" d="M305.217,519.985l-.012,4.274c-.007,2.458-1.622,4.911-4.849,6.787-6.5,3.775-17.058,3.775-23.593,0-3.29-1.9-4.933-4.392-4.926-6.881l.012-4.275c-.007,2.489,1.636,4.982,4.926,6.882,6.535,3.773,17.1,3.773,23.593,0C303.595,524.9,305.211,522.442,305.217,519.985Z" transform="translate(-271.837 -519.892)" fill="#fcca0d"/>
          </g>
          <g id="Group_243" data-name="Group 243" transform="translate(37.918 12.3)">
            <path id="Path_227" data-name="Path 227" d="M341.835,524.31v-.047q.006-2.137.012-4.275v.047C341.844,521.319,341.838,523.028,341.835,524.31Z" transform="translate(-341.835 -519.989)" fill="#ffd025"/>
          </g>
          <g id="Group_244" data-name="Group 244" transform="translate(4.561 2.637)">
            <path id="Path_228" data-name="Path 228" d="M300.308,502.548c6.535,3.773,6.569,9.892.074,13.666s-17.058,3.775-23.593,0-6.572-9.893-.077-13.668S293.77,498.774,300.308,502.548Z" transform="translate(-271.863 -499.717)" fill="#fcca0d"/>
          </g>
          <path id="Path_229" data-name="Path 229" d="M276.716,504.932c6.5-3.775,17.059-3.775,23.6,0,2.755,1.591,4.35,3.6,4.792,5.672.612-2.864-.985-5.858-4.792-8.056-6.538-3.775-17.1-3.775-23.6,0-3.756,2.183-5.323,5.149-4.717,7.993C272.437,508.491,274.006,506.507,276.716,504.932Z" transform="translate(-267.306 -497.081)" fill="#d99a32"/>
          <g id="Group_245" data-name="Group 245" transform="translate(0 12.239)">
            <path id="Path_230" data-name="Path 230" d="M304.775,519.981l-.012,4.275c-.009,3.128-2.065,6.251-6.172,8.638-8.264,4.8-21.71,4.8-30.028,0-4.188-2.418-6.279-5.591-6.27-8.76l.012-4.274c-.009,3.168,2.082,6.342,6.27,8.759,8.318,4.8,21.763,4.8,30.028,0C302.711,526.233,304.767,523.109,304.775,519.981Z" transform="translate(-262.294 -519.86)" fill="#d99a32"/>
          </g>
          <g id="Group_246" data-name="Group 246" transform="translate(0.012)">
            <path id="Path_231" data-name="Path 231" d="M298.522,497.79c8.318,4.8,8.362,12.591.095,17.395s-21.71,4.8-30.028,0-8.365-12.592-.1-17.395S290.2,492.985,298.522,497.79Zm-26.727,15.532c6.535,3.773,17.1,3.773,23.593,0s6.461-9.893-.074-13.666-17.1-3.775-23.6,0-6.46,9.893.077,13.668" transform="translate(-262.319 -494.186)" fill="#ffd025"/>
          </g>
        </g>
      </g>
      <g id="Group_257" data-name="Group 257" transform="translate(1.907 4.832)">
        <g id="Group_256" data-name="Group 256">
          <g id="Group_249" data-name="Group 249" transform="translate(4.844 2.637)">
            <path id="Path_232" data-name="Path 232" d="M281.01,496.688a9.528,9.528,0,0,0-4.554,4.988q.006-2.137.012-4.275a9.524,9.524,0,0,1,4.553-4.988c6.5-3.775,17.059-3.775,23.6,0,3.267,1.886,4.91,4.359,4.923,6.833l-.012,4.275c-.013-2.474-1.656-4.946-4.923-6.833C298.068,492.913,287.505,492.913,281.01,496.688Z" transform="translate(-276.456 -489.582)" fill="#ffd025"/>
          </g>
          <g id="Group_250" data-name="Group 250" transform="translate(4.549 10.455)">
            <path id="Path_233" data-name="Path 233" d="M276.132,510.259a5.8,5.8,0,0,0-.3,1.8l.012-4.275a5.789,5.789,0,0,1,.3-1.8q0,1.069-.006,2.138v.559l0,.817c0,.155,0,.361,0,.516A1.755,1.755,0,0,1,276.132,510.259Z" transform="translate(-275.837 -505.984)" fill="#ffd025"/>
          </g>
          <g id="Group_251" data-name="Group 251" transform="translate(4.549 12.254)">
            <path id="Path_234" data-name="Path 234" d="M309.217,509.849l-.012,4.275c-.007,2.457-1.622,4.911-4.849,6.787-6.5,3.774-17.058,3.774-23.593,0-3.29-1.9-4.933-4.392-4.926-6.881l.012-4.275c-.007,2.489,1.636,4.982,4.926,6.881,6.535,3.773,17.1,3.773,23.593,0C307.595,514.761,309.211,512.307,309.217,509.849Z" transform="translate(-275.837 -509.757)" fill="#fcca0d"/>
          </g>
          <g id="Group_252" data-name="Group 252" transform="translate(37.918 12.3)">
            <path id="Path_235" data-name="Path 235" d="M345.835,514.175v-.047q.006-2.137.012-4.274v.047C345.844,511.183,345.838,512.893,345.835,514.175Z" transform="translate(-345.835 -509.854)" fill="#ffd025"/>
          </g>
          <g id="Group_253" data-name="Group 253" transform="translate(4.561 2.637)">
            <path id="Path_236" data-name="Path 236" d="M304.308,492.413c6.535,3.773,6.569,9.891.074,13.666s-17.058,3.775-23.593,0-6.572-9.893-.077-13.668S297.77,488.639,304.308,492.413Z" transform="translate(-275.863 -489.582)" fill="#fcca0d"/>
          </g>
          <path id="Path_237" data-name="Path 237" d="M280.716,494.8c6.5-3.775,17.059-3.775,23.6,0,2.755,1.591,4.35,3.6,4.792,5.672.612-2.863-.985-5.857-4.792-8.055-6.538-3.775-17.1-3.775-23.6,0-3.756,2.183-5.324,5.149-4.717,7.993C276.437,498.355,278.006,496.372,280.716,494.8Z" transform="translate(-271.306 -486.946)" fill="#d99a32"/>
          <g id="Group_254" data-name="Group 254" transform="translate(0 12.238)">
            <path id="Path_238" data-name="Path 238" d="M308.775,509.846l-.012,4.274c-.009,3.128-2.065,6.252-6.172,8.638-8.264,4.8-21.709,4.8-30.027,0-4.188-2.418-6.279-5.591-6.27-8.76l.012-4.275c-.009,3.169,2.082,6.342,6.27,8.76,8.318,4.8,21.763,4.8,30.028,0C306.711,516.1,308.767,512.973,308.775,509.846Z" transform="translate(-266.294 -509.724)" fill="#d99a32"/>
          </g>
          <g id="Group_255" data-name="Group 255" transform="translate(0.012)">
            <path id="Path_239" data-name="Path 239" d="M302.522,487.655c8.318,4.8,8.362,12.59.095,17.394s-21.71,4.8-30.028,0-8.365-12.593-.1-17.395S294.2,482.85,302.522,487.655Zm-26.727,15.532c6.535,3.773,17.1,3.773,23.593,0s6.461-9.893-.074-13.666-17.1-3.775-23.6,0-6.46,9.893.077,13.668" transform="translate(-266.319 -484.052)" fill="#ffd025"/>
          </g>
        </g>
      </g>
      <g id="Group_266" data-name="Group 266" transform="translate(0)">
        <g id="Group_265" data-name="Group 265">
          <g id="Group_258" data-name="Group 258" transform="translate(4.844 2.637)">
            <path id="Path_240" data-name="Path 240" d="M277.01,486.552a9.528,9.528,0,0,0-4.554,4.988q.006-2.137.012-4.275a9.523,9.523,0,0,1,4.553-4.988c6.5-3.775,17.059-3.775,23.6,0,3.267,1.887,4.91,4.359,4.923,6.833l-.012,4.275c-.013-2.473-1.656-4.946-4.923-6.833C294.068,482.778,283.505,482.778,277.01,486.552Z" transform="translate(-272.456 -479.447)" fill="#ffd025"/>
          </g>
          <g id="Group_259" data-name="Group 259" transform="translate(4.549 10.456)">
            <path id="Path_241" data-name="Path 241" d="M272.132,500.124a5.8,5.8,0,0,0-.3,1.8l.012-4.275a5.786,5.786,0,0,1,.3-1.8q0,1.068-.006,2.137v.56l0,.817c0,.154,0,.361,0,.515A1.762,1.762,0,0,1,272.132,500.124Z" transform="translate(-271.837 -495.849)" fill="#ffd025"/>
          </g>
          <g id="Group_260" data-name="Group 260" transform="translate(4.549 12.254)">
            <path id="Path_242" data-name="Path 242" d="M305.217,499.714l-.012,4.275c-.007,2.457-1.622,4.911-4.849,6.787-6.5,3.775-17.058,3.775-23.593,0-3.29-1.9-4.933-4.392-4.926-6.882l.012-4.275c-.007,2.489,1.636,4.983,4.926,6.882,6.535,3.773,17.1,3.773,23.593,0C303.595,504.625,305.211,502.171,305.217,499.714Z" transform="translate(-271.837 -499.621)" fill="#fcca0d"/>
          </g>
          <g id="Group_261" data-name="Group 261" transform="translate(37.918 12.3)">
            <path id="Path_243" data-name="Path 243" d="M341.835,504.04v-.047q.006-2.137.012-4.275v.047C341.844,501.047,341.838,502.757,341.835,504.04Z" transform="translate(-341.835 -499.718)" fill="#ffd025"/>
          </g>
          <g id="Group_262" data-name="Group 262" transform="translate(4.561 2.637)">
            <path id="Path_244" data-name="Path 244" d="M300.308,482.278c6.535,3.773,6.569,9.892.074,13.666s-17.058,3.775-23.593,0-6.572-9.893-.077-13.668S293.77,478.5,300.308,482.278Z" transform="translate(-271.863 -479.447)" fill="#fcca0d"/>
          </g>
          <path id="Path_245" data-name="Path 245" d="M276.716,484.662c6.5-3.775,17.059-3.775,23.6,0,2.755,1.591,4.35,3.6,4.792,5.672.612-2.863-.985-5.857-4.792-8.056-6.538-3.774-17.1-3.774-23.6,0-3.756,2.183-5.323,5.149-4.717,7.993C272.437,488.22,274.006,486.237,276.716,484.662Z" transform="translate(-267.306 -476.81)" fill="#d99a32"/>
          <g id="Group_263" data-name="Group 263" transform="translate(0 12.239)">
            <path id="Path_246" data-name="Path 246" d="M304.775,499.71l-.012,4.275c-.009,3.128-2.065,6.251-6.172,8.638-8.264,4.8-21.71,4.8-30.028,0-4.188-2.418-6.279-5.591-6.27-8.759l.012-4.275c-.009,3.169,2.082,6.342,6.27,8.76,8.318,4.8,21.763,4.8,30.028,0C302.711,505.962,304.767,502.838,304.775,499.71Z" transform="translate(-262.294 -499.589)" fill="#d99a32"/>
          </g>
          <g id="Group_264" data-name="Group 264" transform="translate(0.012)">
            <path id="Path_247" data-name="Path 247" d="M298.522,477.519c8.318,4.8,8.362,12.591.095,17.395s-21.71,4.8-30.028,0-8.365-12.593-.1-17.395S290.2,472.715,298.522,477.519Zm-26.727,15.532c6.535,3.773,17.1,3.773,23.593,0s6.461-9.893-.074-13.666-17.1-3.774-23.6,0-6.46,9.893.077,13.668" transform="translate(-262.319 -473.916)" fill="#ffd025"/>
          </g>
        </g>
      </g>
    </g>
    <g id="Group_286" data-name="Group 286" transform="translate(718.203 337.163)">
      <g id="Group_276" data-name="Group 276" transform="translate(1.43 5.881)">
        <g id="Group_275" data-name="Group 275">
          <g id="Group_268" data-name="Group 268" transform="translate(4.845 2.637)">
            <path id="Path_249" data-name="Path 249" d="M189.919,551.851a9.525,9.525,0,0,0-4.553,4.988q.006-2.137.012-4.274a9.526,9.526,0,0,1,4.554-4.988c6.5-3.775,17.058-3.775,23.6,0,3.268,1.886,4.91,4.359,4.923,6.833l-.012,4.275c-.013-2.473-1.656-4.946-4.923-6.833C206.978,548.076,196.415,548.076,189.919,551.851Z" transform="translate(-185.366 -544.745)" fill="#ffd025"/>
          </g>
          <g id="Group_269" data-name="Group 269" transform="translate(4.55 10.456)">
            <path id="Path_250" data-name="Path 250" d="M185.042,565.422a5.792,5.792,0,0,0-.3,1.8l.012-4.275a5.8,5.8,0,0,1,.3-1.8q0,1.068-.006,2.137c0,.168,0,.391,0,.559l0,.818c0,.154,0,.361,0,.515A1.681,1.681,0,0,1,185.042,565.422Z" transform="translate(-184.747 -561.148)" fill="#ffd025"/>
          </g>
          <g id="Group_270" data-name="Group 270" transform="translate(4.55 12.254)">
            <path id="Path_251" data-name="Path 251" d="M218.127,565.013l-.012,4.275c-.007,2.457-1.622,4.911-4.85,6.787-6.5,3.775-17.058,3.775-23.593,0-3.29-1.9-4.933-4.392-4.926-6.882l.012-4.275c-.007,2.489,1.636,4.982,4.926,6.882,6.535,3.773,17.1,3.773,23.593,0C216.5,569.924,218.12,567.47,218.127,565.013Z" transform="translate(-184.747 -564.92)" fill="#fcca0d"/>
          </g>
          <g id="Group_271" data-name="Group 271" transform="translate(37.918 12.3)">
            <path id="Path_252" data-name="Path 252" d="M254.744,569.339c0-.016,0-.031,0-.047q.006-2.137.012-4.275v.047C254.753,566.347,254.748,568.057,254.744,569.339Z" transform="translate(-254.744 -565.017)" fill="#ffd025"/>
          </g>
          <g id="Group_272" data-name="Group 272" transform="translate(4.562 2.637)">
            <path id="Path_253" data-name="Path 253" d="M213.217,547.576c6.535,3.773,6.569,9.892.074,13.666s-17.058,3.775-23.593,0-6.572-9.893-.077-13.668S206.68,543.8,213.217,547.576Z" transform="translate(-184.772 -544.745)" fill="#fcca0d"/>
          </g>
          <path id="Path_254" data-name="Path 254" d="M189.626,549.96c6.5-3.775,17.058-3.775,23.6,0,2.755,1.591,4.35,3.6,4.792,5.672.612-2.864-.985-5.858-4.792-8.056-6.538-3.775-17.1-3.775-23.6,0-3.756,2.183-5.324,5.149-4.718,7.993C185.347,553.519,186.915,551.535,189.626,549.96Z" transform="translate(-180.215 -542.109)" fill="#d99a32"/>
          <g id="Group_273" data-name="Group 273" transform="translate(0 12.239)">
            <path id="Path_255" data-name="Path 255" d="M217.685,565.009l-.012,4.275c-.009,3.128-2.065,6.252-6.172,8.638-8.264,4.8-21.71,4.8-30.028,0-4.188-2.418-6.279-5.591-6.27-8.759l.012-4.275c-.009,3.168,2.082,6.342,6.27,8.759,8.318,4.8,21.763,4.8,30.028,0C215.62,571.261,217.676,568.137,217.685,565.009Z" transform="translate(-175.203 -564.888)" fill="#d99a32"/>
          </g>
          <g id="Group_274" data-name="Group 274" transform="translate(0.012)">
            <path id="Path_256" data-name="Path 256" d="M211.431,542.818c8.318,4.8,8.362,12.591.1,17.395s-21.71,4.8-30.028,0-8.365-12.592-.1-17.395S203.11,538.013,211.431,542.818ZM184.7,558.35c6.535,3.773,17.1,3.773,23.593,0s6.461-9.893-.074-13.666-17.1-3.775-23.6,0-6.461,9.894.077,13.668" transform="translate(-175.229 -539.214)" fill="#ffd025"/>
          </g>
        </g>
      </g>
      <g id="Group_285" data-name="Group 285" transform="translate(0 0)">
        <g id="Group_284" data-name="Group 284">
          <g id="Group_277" data-name="Group 277" transform="translate(4.845 2.637)">
            <path id="Path_257" data-name="Path 257" d="M186.919,539.515a9.525,9.525,0,0,0-4.553,4.988q.006-2.137.012-4.275a9.524,9.524,0,0,1,4.554-4.988c6.5-3.775,17.058-3.775,23.6,0,3.268,1.887,4.91,4.359,4.923,6.833l-.012,4.275c-.013-2.473-1.656-4.946-4.923-6.833C203.978,535.741,193.415,535.741,186.919,539.515Z" transform="translate(-182.366 -532.41)" fill="#ffd025"/>
          </g>
          <g id="Group_278" data-name="Group 278" transform="translate(4.55 10.456)">
            <path id="Path_258" data-name="Path 258" d="M182.042,553.087a5.786,5.786,0,0,0-.3,1.8l.012-4.275a5.8,5.8,0,0,1,.3-1.8l-.006,2.137c0,.168,0,.391,0,.56l0,.817c0,.154,0,.361,0,.515A1.689,1.689,0,0,1,182.042,553.087Z" transform="translate(-181.747 -548.812)" fill="#ffd025"/>
          </g>
          <g id="Group_279" data-name="Group 279" transform="translate(4.55 12.254)">
            <path id="Path_259" data-name="Path 259" d="M215.127,552.677l-.012,4.275c-.007,2.457-1.622,4.911-4.85,6.787-6.5,3.775-17.058,3.775-23.593,0-3.29-1.9-4.933-4.392-4.926-6.882l.012-4.275c-.007,2.489,1.636,4.983,4.926,6.882,6.535,3.773,17.1,3.773,23.593,0C213.5,557.588,215.12,555.134,215.127,552.677Z" transform="translate(-181.747 -552.584)" fill="#fcca0d"/>
          </g>
          <g id="Group_280" data-name="Group 280" transform="translate(37.918 12.3)">
            <path id="Path_260" data-name="Path 260" d="M251.744,557c0-.016,0-.031,0-.047q.006-2.137.012-4.275v.047C251.753,554.01,251.748,555.72,251.744,557Z" transform="translate(-251.744 -552.681)" fill="#ffd025"/>
          </g>
          <g id="Group_281" data-name="Group 281" transform="translate(4.562 2.637)">
            <path id="Path_261" data-name="Path 261" d="M210.217,535.241c6.535,3.773,6.569,9.892.074,13.666s-17.058,3.775-23.593,0-6.572-9.893-.077-13.668S203.68,531.466,210.217,535.241Z" transform="translate(-181.772 -532.41)" fill="#fcca0d"/>
          </g>
          <path id="Path_262" data-name="Path 262" d="M186.626,537.625c6.5-3.775,17.058-3.775,23.6,0,2.755,1.591,4.35,3.6,4.792,5.672.612-2.863-.985-5.858-4.792-8.056-6.538-3.775-17.1-3.775-23.6,0-3.756,2.182-5.324,5.149-4.718,7.993C182.347,541.183,183.915,539.2,186.626,537.625Z" transform="translate(-177.215 -529.773)" fill="#d99a32"/>
          <g id="Group_282" data-name="Group 282" transform="translate(0 12.239)">
            <path id="Path_263" data-name="Path 263" d="M214.685,552.673l-.012,4.275c-.009,3.128-2.065,6.252-6.172,8.638-8.264,4.8-21.71,4.8-30.028,0-4.188-2.418-6.279-5.591-6.27-8.759l.012-4.275c-.009,3.168,2.082,6.342,6.27,8.759,8.318,4.8,21.763,4.8,30.028,0C212.62,558.925,214.676,555.8,214.685,552.673Z" transform="translate(-172.203 -552.552)" fill="#d99a32"/>
          </g>
          <g id="Group_283" data-name="Group 283" transform="translate(0.012)">
            <path id="Path_264" data-name="Path 264" d="M208.431,530.482c8.318,4.8,8.362,12.591.1,17.395s-21.71,4.8-30.028,0-8.365-12.592-.1-17.395S200.11,525.677,208.431,530.482ZM181.7,546.014c6.535,3.773,17.1,3.773,23.593,0s6.461-9.893-.074-13.666-17.1-3.774-23.6,0-6.461,9.893.077,13.668" transform="translate(-172.229 -526.879)" fill="#ffd025"/>
          </g>
        </g>
      </g>
    </g>
    <g id="Group_350" data-name="Group 350" transform="translate(760.848 348.586)">
      <g id="Group_295" data-name="Group 295" transform="translate(1.333 20.073)">
        <g id="Group_294" data-name="Group 294">
          <g id="Group_287" data-name="Group 287" transform="translate(3.225 1.755)">
            <path id="Path_265" data-name="Path 265" d="M274.253,601.36a6.343,6.343,0,0,0-3.031,3.32q0-1.422.008-2.846a6.341,6.341,0,0,1,3.031-3.32c4.324-2.513,11.356-2.513,15.707,0,2.175,1.256,3.268,2.9,3.277,4.548q0,1.423-.008,2.845c-.009-1.646-1.1-3.293-3.277-4.548C285.609,598.847,278.577,598.847,274.253,601.36Z" transform="translate(-271.222 -596.63)" fill="#def2ec"/>
          </g>
          <g id="Group_288" data-name="Group 288" transform="translate(3.029 6.96)">
            <path id="Path_266" data-name="Path 266" d="M271.006,610.393a3.859,3.859,0,0,0-.2,1.2l.008-2.845a3.858,3.858,0,0,1,.2-1.2l0,1.423c0,.112,0,.261,0,.372v.887A1.162,1.162,0,0,1,271.006,610.393Z" transform="translate(-270.81 -607.548)" fill="#def2ec"/>
          </g>
          <g id="Group_289" data-name="Group 289" transform="translate(3.028 8.157)">
            <path id="Path_267" data-name="Path 267" d="M293.031,610.121l-.008,2.845c0,1.636-1.08,3.27-3.228,4.518-4.324,2.513-11.356,2.513-15.706,0-2.19-1.264-3.284-2.924-3.279-4.581l.008-2.845c0,1.657,1.089,3.316,3.279,4.581,4.35,2.512,11.382,2.512,15.706,0C291.951,613.391,293.026,611.758,293.031,610.121Z" transform="translate(-270.81 -610.06)" fill="#def2ec"/>
          </g>
          <g id="Group_290" data-name="Group 290" transform="translate(25.241 8.188)">
            <path id="Path_268" data-name="Path 268" d="M317.406,613v-.031q0-1.422.008-2.845v.031C317.412,611.009,317.408,612.147,317.406,613Z" transform="translate(-317.406 -610.124)" fill="#def2ec"/>
          </g>
          <g id="Group_291" data-name="Group 291" transform="translate(3.036 1.755)">
            <path id="Path_269" data-name="Path 269" d="M289.762,598.514c4.35,2.511,4.373,6.585.049,9.1s-11.356,2.513-15.705,0-4.375-6.586-.051-9.1S285.41,596,289.762,598.514Z" transform="translate(-270.827 -596.63)" fill="#def2ec"/>
          </g>
          <path id="Path_270" data-name="Path 270" d="M274.058,600.1c4.324-2.513,11.356-2.513,15.707,0a6.077,6.077,0,0,1,3.19,3.776c.407-1.906-.655-3.9-3.19-5.362-4.352-2.513-11.384-2.513-15.707,0-2.5,1.453-3.544,3.428-3.141,5.321A6.016,6.016,0,0,1,274.058,600.1Z" transform="translate(-267.794 -594.875)" fill="#b3b3b3"/>
          <g id="Group_292" data-name="Group 292" transform="translate(0 8.147)">
            <path id="Path_271" data-name="Path 271" d="M292.736,610.119l-.008,2.846c-.006,2.082-1.374,4.162-4.109,5.75-5.5,3.2-14.452,3.2-19.989,0-2.787-1.609-4.18-3.722-4.174-5.831l.008-2.845c-.006,2.109,1.386,4.222,4.174,5.831,5.537,3.2,14.488,3.2,19.989,0C291.362,614.28,292.73,612.2,292.736,610.119Z" transform="translate(-264.457 -610.038)" fill="#b3b3b3"/>
          </g>
          <g id="Group_293" data-name="Group 293" transform="translate(0.008)">
            <path id="Path_272" data-name="Path 272" d="M288.573,595.346c5.537,3.2,5.566,8.381.063,11.58s-14.452,3.2-19.989,0-5.568-8.382-.067-11.579S283.034,592.149,288.573,595.346Zm-17.792,10.34c4.35,2.512,11.382,2.512,15.705,0s4.3-6.586-.049-9.1-11.384-2.513-15.707,0-4.3,6.586.051,9.1" transform="translate(-264.473 -592.948)" fill="#def2ec"/>
          </g>
        </g>
      </g>
      <g id="Group_304" data-name="Group 304" transform="translate(1.333 16.857)">
        <g id="Group_303" data-name="Group 303">
          <g id="Group_296" data-name="Group 296" transform="translate(3.225 1.755)">
            <path id="Path_273" data-name="Path 273" d="M274.253,594.613a6.342,6.342,0,0,0-3.031,3.321q0-1.423.008-2.846a6.343,6.343,0,0,1,3.031-3.32c4.324-2.513,11.356-2.513,15.707,0,2.175,1.256,3.268,2.9,3.277,4.548q0,1.423-.008,2.845c-.009-1.646-1.1-3.293-3.277-4.548C285.609,592.1,278.577,592.1,274.253,594.613Z" transform="translate(-271.222 -589.883)" fill="#def2ec"/>
          </g>
          <g id="Group_297" data-name="Group 297" transform="translate(3.029 6.96)">
            <path id="Path_274" data-name="Path 274" d="M271.006,603.647a3.854,3.854,0,0,0-.2,1.2l.008-2.845a3.858,3.858,0,0,1,.2-1.2l0,1.423c0,.112,0,.261,0,.372v.887A1.169,1.169,0,0,1,271.006,603.647Z" transform="translate(-270.81 -600.801)" fill="#def2ec"/>
          </g>
          <g id="Group_298" data-name="Group 298" transform="translate(3.028 8.157)">
            <path id="Path_275" data-name="Path 275" d="M293.031,603.375l-.008,2.845c0,1.636-1.08,3.27-3.228,4.518-4.324,2.513-11.356,2.513-15.706,0-2.19-1.264-3.284-2.924-3.279-4.581l.008-2.845c0,1.657,1.089,3.316,3.279,4.581,4.35,2.512,11.382,2.512,15.706,0C291.951,606.644,293.026,605.011,293.031,603.375Z" transform="translate(-270.81 -603.313)" fill="#def2ec"/>
          </g>
          <g id="Group_299" data-name="Group 299" transform="translate(25.241 8.188)">
            <path id="Path_276" data-name="Path 276" d="M317.406,606.254v-.031q0-1.422.008-2.845v.031C317.412,604.262,317.408,605.4,317.406,606.254Z" transform="translate(-317.406 -603.377)" fill="#def2ec"/>
          </g>
          <g id="Group_300" data-name="Group 300" transform="translate(3.036 1.755)">
            <path id="Path_277" data-name="Path 277" d="M289.762,591.767c4.35,2.511,4.373,6.585.049,9.1s-11.356,2.513-15.705,0-4.375-6.586-.051-9.1S285.41,589.255,289.762,591.767Z" transform="translate(-270.827 -589.883)" fill="#def2ec"/>
          </g>
          <path id="Path_278" data-name="Path 278" d="M274.058,593.354c4.324-2.513,11.356-2.513,15.707,0a6.077,6.077,0,0,1,3.19,3.776c.407-1.906-.655-3.9-3.19-5.362-4.352-2.513-11.384-2.513-15.707,0-2.5,1.453-3.544,3.428-3.141,5.321A6.016,6.016,0,0,1,274.058,593.354Z" transform="translate(-267.794 -588.128)" fill="#b3b3b3"/>
          <g id="Group_301" data-name="Group 301" transform="translate(0 8.147)">
            <path id="Path_279" data-name="Path 279" d="M292.736,603.372l-.008,2.846c-.006,2.082-1.374,4.161-4.109,5.75-5.5,3.2-14.452,3.2-19.989,0-2.787-1.609-4.18-3.722-4.174-5.831l.008-2.845c-.006,2.109,1.386,4.222,4.174,5.831,5.537,3.2,14.488,3.2,19.989,0C291.362,607.533,292.73,605.454,292.736,603.372Z" transform="translate(-264.457 -603.291)" fill="#b3b3b3"/>
          </g>
          <g id="Group_302" data-name="Group 302" transform="translate(0.008)">
            <path id="Path_280" data-name="Path 280" d="M288.573,588.6c5.537,3.2,5.566,8.381.063,11.58s-14.452,3.2-19.989,0-5.568-8.382-.067-11.579S283.034,585.4,288.573,588.6Zm-17.792,10.34c4.35,2.512,11.382,2.512,15.705,0s4.3-6.586-.049-9.1-11.384-2.513-15.707,0-4.3,6.586.051,9.1" transform="translate(-264.473 -586.201)" fill="#def2ec"/>
          </g>
        </g>
      </g>
      <g id="Group_313" data-name="Group 313" transform="translate(0.698 13.64)">
        <g id="Group_312" data-name="Group 312">
          <g id="Group_305" data-name="Group 305" transform="translate(3.225 1.755)">
            <path id="Path_281" data-name="Path 281" d="M272.922,587.866a6.338,6.338,0,0,0-3.031,3.321q0-1.423.008-2.845a6.338,6.338,0,0,1,3.031-3.321c4.324-2.513,11.356-2.513,15.707,0,2.175,1.256,3.268,2.9,3.277,4.548q0,1.423-.008,2.845c-.009-1.646-1.1-3.293-3.277-4.548C284.278,585.353,277.246,585.353,272.922,587.866Z" transform="translate(-269.891 -583.136)" fill="#def2ec"/>
          </g>
          <g id="Group_306" data-name="Group 306" transform="translate(3.029 6.96)">
            <path id="Path_282" data-name="Path 282" d="M269.675,596.9a3.854,3.854,0,0,0-.2,1.2l.008-2.845a3.855,3.855,0,0,1,.2-1.2l0,1.422c0,.112,0,.261,0,.372q0,.272,0,.544c0,.1,0,.24,0,.343A1.249,1.249,0,0,1,269.675,596.9Z" transform="translate(-269.478 -594.055)" fill="#def2ec"/>
          </g>
          <g id="Group_307" data-name="Group 307" transform="translate(3.028 8.157)">
            <path id="Path_283" data-name="Path 283" d="M291.7,596.628l-.008,2.845c0,1.636-1.08,3.27-3.228,4.518-4.324,2.513-11.356,2.513-15.705,0-2.19-1.264-3.284-2.924-3.279-4.581l.008-2.845c0,1.657,1.089,3.316,3.279,4.581,4.35,2.512,11.382,2.512,15.706,0C290.619,599.9,291.694,598.264,291.7,596.628Z" transform="translate(-269.478 -596.566)" fill="#def2ec"/>
          </g>
          <g id="Group_308" data-name="Group 308" transform="translate(25.241 8.188)">
            <path id="Path_284" data-name="Path 284" d="M316.075,599.507v-.031q0-1.422.008-2.845v.031C316.081,597.515,316.077,598.653,316.075,599.507Z" transform="translate(-316.075 -596.63)" fill="#def2ec"/>
          </g>
          <g id="Group_309" data-name="Group 309" transform="translate(3.037 1.755)">
            <path id="Path_285" data-name="Path 285" d="M288.431,585.02c4.35,2.512,4.373,6.585.049,9.1s-11.356,2.513-15.705,0-4.375-6.586-.051-9.1S284.079,582.508,288.431,585.02Z" transform="translate(-269.496 -583.136)" fill="#def2ec"/>
          </g>
          <path id="Path_286" data-name="Path 286" d="M272.727,586.607c4.324-2.513,11.356-2.513,15.707,0a6.076,6.076,0,0,1,3.19,3.775c.407-1.906-.655-3.9-3.19-5.362-4.352-2.513-11.384-2.513-15.707,0-2.5,1.453-3.544,3.428-3.141,5.321A6.014,6.014,0,0,1,272.727,586.607Z" transform="translate(-266.462 -581.381)" fill="#b3b3b3"/>
          <g id="Group_310" data-name="Group 310" transform="translate(0 8.147)">
            <path id="Path_287" data-name="Path 287" d="M291.4,596.625l-.008,2.845c-.006,2.082-1.375,4.161-4.109,5.75-5.5,3.2-14.452,3.2-19.989,0-2.788-1.61-4.18-3.722-4.174-5.831l.008-2.845c-.006,2.109,1.386,4.222,4.174,5.831,5.537,3.2,14.487,3.2,19.989,0C290.03,600.786,291.4,598.707,291.4,596.625Z" transform="translate(-263.125 -596.544)" fill="#b3b3b3"/>
          </g>
          <g id="Group_311" data-name="Group 311" transform="translate(0.008)">
            <path id="Path_288" data-name="Path 288" d="M287.242,581.853c5.537,3.2,5.566,8.381.063,11.579s-14.452,3.2-19.989,0-5.568-8.383-.067-11.58S281.7,578.655,287.242,581.853ZM269.45,592.192c4.35,2.512,11.382,2.512,15.705,0s4.3-6.586-.049-9.1-11.384-2.513-15.707,0-4.3,6.586.051,9.1" transform="translate(-263.142 -579.454)" fill="#def2ec"/>
          </g>
        </g>
      </g>
      <g id="Group_322" data-name="Group 322" transform="translate(1.967 10.424)">
        <g id="Group_321" data-name="Group 321">
          <g id="Group_314" data-name="Group 314" transform="translate(3.225 1.755)">
            <path id="Path_289" data-name="Path 289" d="M275.584,581.119a6.342,6.342,0,0,0-3.031,3.321q0-1.423.008-2.845a6.342,6.342,0,0,1,3.031-3.321c4.324-2.513,11.356-2.513,15.708,0,2.175,1.256,3.268,2.9,3.277,4.548q0,1.423-.008,2.846c-.009-1.647-1.1-3.293-3.277-4.549C286.94,578.606,279.908,578.607,275.584,581.119Z" transform="translate(-272.553 -576.389)" fill="#def2ec"/>
          </g>
          <g id="Group_315" data-name="Group 315" transform="translate(3.029 6.96)">
            <path id="Path_290" data-name="Path 290" d="M272.337,590.153a3.87,3.87,0,0,0-.2,1.2l.008-2.845a3.853,3.853,0,0,1,.2-1.2q0,.711,0,1.422c0,.112,0,.261,0,.372,0,.182,0,.363,0,.544,0,.1,0,.24,0,.343A1.1,1.1,0,0,1,272.337,590.153Z" transform="translate(-272.141 -587.308)" fill="#def2ec"/>
          </g>
          <g id="Group_316" data-name="Group 316" transform="translate(3.028 8.157)">
            <path id="Path_291" data-name="Path 291" d="M294.362,589.88l-.008,2.846c0,1.635-1.08,3.269-3.228,4.518-4.324,2.513-11.356,2.513-15.706,0-2.19-1.265-3.284-2.924-3.279-4.581l.008-2.845c0,1.657,1.089,3.316,3.279,4.581,4.35,2.512,11.382,2.512,15.705,0C293.282,593.15,294.357,591.517,294.362,589.88Z" transform="translate(-272.141 -589.819)" fill="#def2ec"/>
          </g>
          <g id="Group_317" data-name="Group 317" transform="translate(25.241 8.188)">
            <path id="Path_292" data-name="Path 292" d="M318.738,592.76v-.031q0-1.423.008-2.846v.031C318.743,590.768,318.74,591.907,318.738,592.76Z" transform="translate(-318.738 -589.883)" fill="#def2ec"/>
          </g>
          <g id="Group_318" data-name="Group 318" transform="translate(3.037 1.755)">
            <path id="Path_293" data-name="Path 293" d="M291.094,578.273c4.35,2.512,4.373,6.585.049,9.1s-11.356,2.513-15.705,0-4.375-6.586-.051-9.1S286.741,575.761,291.094,578.273Z" transform="translate(-272.158 -576.389)" fill="#def2ec"/>
          </g>
          <path id="Path_294" data-name="Path 294" d="M275.389,579.86c4.324-2.513,11.356-2.513,15.708,0a6.075,6.075,0,0,1,3.19,3.776c.407-1.906-.655-3.9-3.19-5.362-4.352-2.513-11.384-2.513-15.708,0-2.5,1.453-3.544,3.428-3.141,5.321A6.016,6.016,0,0,1,275.389,579.86Z" transform="translate(-269.125 -574.634)" fill="#b3b3b3"/>
          <g id="Group_319" data-name="Group 319" transform="translate(0 8.147)">
            <path id="Path_295" data-name="Path 295" d="M294.067,589.878l-.008,2.845c-.006,2.082-1.374,4.161-4.109,5.75-5.5,3.2-14.451,3.2-19.989,0-2.788-1.61-4.18-3.722-4.174-5.832l.008-2.845c-.006,2.109,1.386,4.222,4.174,5.832,5.537,3.2,14.488,3.2,19.989,0C292.693,594.039,294.062,591.96,294.067,589.878Z" transform="translate(-265.788 -589.797)" fill="#b3b3b3"/>
          </g>
          <g id="Group_320" data-name="Group 320" transform="translate(0.008)">
            <path id="Path_296" data-name="Path 296" d="M289.9,575.106c5.537,3.2,5.566,8.381.063,11.579s-14.452,3.2-19.989,0-5.568-8.383-.067-11.58S284.366,571.908,289.9,575.106Zm-17.792,10.339c4.35,2.512,11.382,2.512,15.706,0s4.3-6.586-.049-9.1-11.384-2.513-15.708,0-4.3,6.586.051,9.1" transform="translate(-265.805 -572.707)" fill="#def2ec"/>
          </g>
        </g>
      </g>
      <g id="Group_331" data-name="Group 331" transform="translate(0.698 7.208)">
        <g id="Group_330" data-name="Group 330">
          <g id="Group_323" data-name="Group 323" transform="translate(3.225 1.755)">
            <path id="Path_297" data-name="Path 297" d="M272.922,574.372a6.335,6.335,0,0,0-3.031,3.32q0-1.423.008-2.845a6.338,6.338,0,0,1,3.031-3.321c4.324-2.512,11.356-2.513,15.707,0,2.175,1.256,3.268,2.9,3.277,4.549q0,1.422-.008,2.845c-.009-1.647-1.1-3.293-3.277-4.549C284.278,571.86,277.246,571.86,272.922,574.372Z" transform="translate(-269.891 -569.642)" fill="#def2ec"/>
          </g>
          <g id="Group_324" data-name="Group 324" transform="translate(3.029 6.96)">
            <path id="Path_298" data-name="Path 298" d="M269.675,583.406a3.858,3.858,0,0,0-.2,1.2l.008-2.845a3.859,3.859,0,0,1,.2-1.2l0,1.422c0,.112,0,.261,0,.372q0,.272,0,.544c0,.1,0,.24,0,.343A1.25,1.25,0,0,1,269.675,583.406Z" transform="translate(-269.478 -580.561)" fill="#def2ec"/>
          </g>
          <g id="Group_325" data-name="Group 325" transform="translate(3.028 8.157)">
            <path id="Path_299" data-name="Path 299" d="M291.7,583.134l-.008,2.845c0,1.635-1.08,3.269-3.228,4.518-4.324,2.513-11.356,2.513-15.705,0-2.19-1.265-3.284-2.924-3.279-4.581l.008-2.845c0,1.657,1.089,3.316,3.279,4.581,4.35,2.511,11.382,2.511,15.706,0C290.619,586.4,291.694,584.77,291.7,583.134Z" transform="translate(-269.478 -583.072)" fill="#def2ec"/>
          </g>
          <g id="Group_326" data-name="Group 326" transform="translate(25.241 8.188)">
            <path id="Path_300" data-name="Path 300" d="M316.075,586.013v-.031q0-1.423.008-2.845v.031C316.081,584.022,316.077,585.16,316.075,586.013Z" transform="translate(-316.075 -583.137)" fill="#def2ec"/>
          </g>
          <g id="Group_327" data-name="Group 327" transform="translate(3.037 1.755)">
            <path id="Path_301" data-name="Path 301" d="M288.431,571.526c4.35,2.512,4.373,6.585.049,9.1s-11.356,2.513-15.705,0-4.375-6.586-.051-9.1S284.079,569.014,288.431,571.526Z" transform="translate(-269.496 -569.642)" fill="#def2ec"/>
          </g>
          <path id="Path_302" data-name="Path 302" d="M272.727,573.113c4.324-2.513,11.356-2.513,15.707,0a6.076,6.076,0,0,1,3.19,3.776c.407-1.906-.655-3.9-3.19-5.362-4.352-2.513-11.384-2.512-15.707,0-2.5,1.453-3.544,3.428-3.141,5.321A6.017,6.017,0,0,1,272.727,573.113Z" transform="translate(-266.462 -567.887)" fill="#b3b3b3"/>
          <g id="Group_328" data-name="Group 328" transform="translate(0 8.147)">
            <path id="Path_303" data-name="Path 303" d="M291.4,583.132l-.008,2.845c-.006,2.082-1.375,4.161-4.109,5.75-5.5,3.2-14.452,3.2-19.989,0-2.788-1.61-4.18-3.722-4.174-5.831l.008-2.845c-.006,2.109,1.386,4.221,4.174,5.831,5.537,3.2,14.487,3.2,19.989,0C290.03,587.293,291.4,585.214,291.4,583.132Z" transform="translate(-263.125 -583.051)" fill="#b3b3b3"/>
          </g>
          <g id="Group_329" data-name="Group 329" transform="translate(0.008)">
            <path id="Path_304" data-name="Path 304" d="M287.242,568.359c5.537,3.2,5.566,8.381.063,11.579s-14.452,3.2-19.989,0-5.568-8.383-.067-11.58S281.7,565.161,287.242,568.359ZM269.45,578.7c4.35,2.511,11.382,2.511,15.705,0s4.3-6.586-.049-9.1-11.384-2.512-15.707,0-4.3,6.586.051,9.1" transform="translate(-263.142 -565.96)" fill="#def2ec"/>
          </g>
        </g>
      </g>
      <g id="Group_340" data-name="Group 340" transform="translate(1.429 3.567)">
        <g id="Group_339" data-name="Group 339">
          <g id="Group_332" data-name="Group 332" transform="translate(3.225 1.755)">
            <path id="Path_305" data-name="Path 305" d="M274.455,566.735a6.34,6.34,0,0,0-3.031,3.32q0-1.423.008-2.845a6.339,6.339,0,0,1,3.031-3.32c4.324-2.513,11.356-2.513,15.708,0,2.175,1.256,3.268,2.9,3.277,4.549q0,1.422-.008,2.845c-.009-1.647-1.1-3.293-3.277-4.548C285.811,564.222,278.779,564.222,274.455,566.735Z" transform="translate(-271.424 -562.005)" fill="#def2ec"/>
          </g>
          <g id="Group_333" data-name="Group 333" transform="translate(3.029 6.96)">
            <path id="Path_306" data-name="Path 306" d="M271.208,575.768a3.871,3.871,0,0,0-.2,1.2l.008-2.845a3.873,3.873,0,0,1,.2-1.2q0,.712,0,1.422c0,.112,0,.261,0,.372,0,.182,0,.363,0,.544,0,.1,0,.24,0,.343A1.1,1.1,0,0,1,271.208,575.768Z" transform="translate(-271.012 -572.923)" fill="#def2ec"/>
          </g>
          <g id="Group_334" data-name="Group 334" transform="translate(3.028 8.157)">
            <path id="Path_307" data-name="Path 307" d="M293.233,575.5l-.008,2.845c0,1.636-1.08,3.269-3.228,4.518-4.324,2.513-11.356,2.513-15.705,0-2.19-1.265-3.284-2.924-3.279-4.581l.008-2.845c0,1.657,1.089,3.316,3.279,4.581,4.35,2.511,11.382,2.511,15.706,0C292.153,578.765,293.228,577.132,293.233,575.5Z" transform="translate(-271.012 -575.434)" fill="#def2ec"/>
          </g>
          <g id="Group_335" data-name="Group 335" transform="translate(25.241 8.188)">
            <path id="Path_308" data-name="Path 308" d="M317.609,578.375v-.031q0-1.423.008-2.845c0,.01,0,.021,0,.031C317.614,576.384,317.611,577.522,317.609,578.375Z" transform="translate(-317.609 -575.499)" fill="#def2ec"/>
          </g>
          <g id="Group_336" data-name="Group 336" transform="translate(3.037 1.755)">
            <path id="Path_309" data-name="Path 309" d="M289.965,563.889c4.35,2.511,4.373,6.584.049,9.1s-11.356,2.513-15.706,0-4.375-6.586-.051-9.1S285.612,561.377,289.965,563.889Z" transform="translate(-271.029 -562.005)" fill="#def2ec"/>
          </g>
          <path id="Path_310" data-name="Path 310" d="M274.26,565.476c4.324-2.513,11.356-2.513,15.708,0a6.075,6.075,0,0,1,3.19,3.776c.407-1.906-.655-3.9-3.19-5.362-4.352-2.513-11.384-2.513-15.708,0-2.5,1.453-3.544,3.427-3.141,5.321A6.018,6.018,0,0,1,274.26,565.476Z" transform="translate(-267.996 -560.249)" fill="#b3b3b3"/>
          <g id="Group_337" data-name="Group 337" transform="translate(0 8.147)">
            <path id="Path_311" data-name="Path 311" d="M292.938,575.494l-.008,2.845c-.006,2.082-1.374,4.162-4.109,5.75-5.5,3.2-14.451,3.2-19.989,0-2.788-1.609-4.18-3.722-4.174-5.831l.008-2.845c-.006,2.109,1.386,4.222,4.174,5.831,5.537,3.2,14.487,3.2,19.989,0C291.564,579.655,292.933,577.576,292.938,575.494Z" transform="translate(-264.659 -575.413)" fill="#b3b3b3"/>
          </g>
          <g id="Group_338" data-name="Group 338" transform="translate(0.008)">
            <path id="Path_312" data-name="Path 312" d="M288.776,560.721c5.537,3.2,5.566,8.381.063,11.58s-14.452,3.2-19.989,0-5.568-8.382-.067-11.58S283.237,557.523,288.776,560.721Zm-17.792,10.34c4.35,2.511,11.382,2.511,15.705,0s4.3-6.586-.049-9.1-11.384-2.512-15.708,0-4.3,6.586.051,9.1" transform="translate(-264.676 -558.322)" fill="#def2ec"/>
          </g>
        </g>
      </g>
      <g id="Group_349" data-name="Group 349">
        <g id="Group_348" data-name="Group 348">
          <g id="Group_341" data-name="Group 341" transform="translate(3.225 1.755)">
            <path id="Path_313" data-name="Path 313" d="M271.457,559.253a6.34,6.34,0,0,0-3.031,3.32q0-1.423.008-2.845a6.34,6.34,0,0,1,3.031-3.32c4.324-2.513,11.356-2.513,15.708,0,2.175,1.256,3.268,2.9,3.277,4.549q0,1.422-.008,2.845c-.009-1.647-1.1-3.293-3.277-4.549C282.813,556.74,275.781,556.74,271.457,559.253Z" transform="translate(-268.426 -554.523)" fill="#def2ec"/>
          </g>
          <g id="Group_342" data-name="Group 342" transform="translate(3.029 6.96)">
            <path id="Path_314" data-name="Path 314" d="M268.21,568.286a3.857,3.857,0,0,0-.2,1.2l.008-2.845a3.857,3.857,0,0,1,.2-1.2q0,.711,0,1.422c0,.112,0,.261,0,.372q0,.272,0,.544c0,.1,0,.24,0,.343A1.1,1.1,0,0,1,268.21,568.286Z" transform="translate(-268.014 -565.441)" fill="#def2ec"/>
          </g>
          <g id="Group_343" data-name="Group 343" transform="translate(3.028 8.157)">
            <path id="Path_315" data-name="Path 315" d="M290.235,568.014l-.008,2.846c0,1.635-1.08,3.269-3.228,4.518-4.324,2.513-11.356,2.513-15.705,0-2.19-1.265-3.284-2.924-3.279-4.581l.008-2.845c0,1.657,1.089,3.316,3.279,4.581,4.35,2.511,11.382,2.511,15.706,0C289.155,571.283,290.23,569.65,290.235,568.014Z" transform="translate(-268.014 -567.952)" fill="#def2ec"/>
          </g>
          <g id="Group_344" data-name="Group 344" transform="translate(25.241 8.188)">
            <path id="Path_316" data-name="Path 316" d="M314.61,570.893c0-.01,0-.021,0-.031q0-1.423.008-2.845v.031C314.616,568.9,314.613,570.04,314.61,570.893Z" transform="translate(-314.61 -568.017)" fill="#def2ec"/>
          </g>
          <g id="Group_345" data-name="Group 345" transform="translate(3.037 1.755)">
            <path id="Path_317" data-name="Path 317" d="M286.967,556.407c4.35,2.512,4.373,6.585.049,9.1s-11.356,2.513-15.706,0-4.375-6.586-.051-9.1S282.614,553.895,286.967,556.407Z" transform="translate(-268.031 -554.523)" fill="#def2ec"/>
          </g>
          <path id="Path_318" data-name="Path 318" d="M271.262,557.994c4.324-2.513,11.356-2.513,15.708,0a6.075,6.075,0,0,1,3.19,3.776c.407-1.906-.655-3.9-3.19-5.363-4.352-2.512-11.384-2.512-15.708,0-2.5,1.453-3.544,3.427-3.141,5.321A6.018,6.018,0,0,1,271.262,557.994Z" transform="translate(-264.998 -552.767)" fill="#b3b3b3"/>
          <g id="Group_346" data-name="Group 346" transform="translate(0 8.147)">
            <path id="Path_319" data-name="Path 319" d="M289.94,568.012l-.008,2.845c-.006,2.082-1.374,4.161-4.109,5.75-5.5,3.2-14.452,3.2-19.989,0-2.788-1.609-4.18-3.722-4.174-5.831l.008-2.845c-.006,2.109,1.386,4.222,4.174,5.831,5.537,3.2,14.488,3.2,19.989,0C288.566,572.173,289.935,570.094,289.94,568.012Z" transform="translate(-261.661 -567.931)" fill="#b3b3b3"/>
          </g>
          <g id="Group_347" data-name="Group 347" transform="translate(0.008)">
            <path id="Path_320" data-name="Path 320" d="M285.778,553.239c5.537,3.2,5.566,8.381.063,11.58s-14.452,3.2-19.989,0-5.569-8.383-.067-11.58S280.238,550.041,285.778,553.239Zm-17.792,10.34c4.35,2.511,11.382,2.511,15.705,0s4.3-6.586-.049-9.1-11.384-2.512-15.708,0-4.3,6.586.051,9.1" transform="translate(-261.678 -550.84)" fill="#def2ec"/>
          </g>
        </g>
      </g>
    </g>
    <g id="Group_432" data-name="Group 432" transform="translate(810.322 322.201)">
      <g id="Group_359" data-name="Group 359" transform="translate(0.487 20.635)">
        <g id="Group_358" data-name="Group 358">
          <g id="Group_351" data-name="Group 351" transform="translate(2.472 1.346)">
            <path id="Path_323" data-name="Path 323" d="M373.976,545.227a4.86,4.86,0,0,0-2.324,2.546q0-1.091.006-2.181a4.86,4.86,0,0,1,2.324-2.546,13.268,13.268,0,0,1,12.042,0c1.667.962,2.506,2.225,2.513,3.487q0,1.091-.006,2.182c-.007-1.262-.845-2.525-2.513-3.487A13.268,13.268,0,0,0,373.976,545.227Z" transform="translate(-371.652 -541.601)" fill="#d69f76"/>
          </g>
          <g id="Group_352" data-name="Group 352" transform="translate(2.322 5.336)">
            <path id="Path_324" data-name="Path 324" d="M371.487,552.153a2.955,2.955,0,0,0-.151.918l.006-2.181a2.954,2.954,0,0,1,.151-.918q0,.545,0,1.091v.286c0,.139,0,.278,0,.417v.263A.843.843,0,0,1,371.487,552.153Z" transform="translate(-371.336 -549.972)" fill="#d69f76"/>
          </g>
          <g id="Group_353" data-name="Group 353" transform="translate(2.322 6.254)">
            <path id="Path_325" data-name="Path 325" d="M388.371,551.944l-.006,2.181c0,1.254-.828,2.507-2.475,3.464a13.269,13.269,0,0,1-12.041,0c-1.679-.969-2.517-2.241-2.514-3.512l.006-2.181c0,1.27.835,2.543,2.514,3.512a13.268,13.268,0,0,0,12.04,0C387.543,554.451,388.368,553.2,388.371,551.944Z" transform="translate(-371.336 -551.897)" fill="#d69f76"/>
          </g>
          <g id="Group_354" data-name="Group 354" transform="translate(19.351 6.277)">
            <path id="Path_326" data-name="Path 326" d="M407.059,554.152v-.024q0-1.091.006-2.182v.024Z" transform="translate(-407.059 -551.946)" fill="#d69f76"/>
          </g>
          <g id="Group_355" data-name="Group 355" transform="translate(2.328 1.346)">
            <path id="Path_327" data-name="Path 327" d="M385.866,543.046c3.335,1.925,3.353,5.048.038,6.974a13.267,13.267,0,0,1-12.04,0c-3.336-1.926-3.354-5.049-.04-6.975A13.268,13.268,0,0,1,385.866,543.046Z" transform="translate(-371.349 -541.601)" fill="#d69f76"/>
          </g>
          <path id="Path_328" data-name="Path 328" d="M373.826,544.263a13.268,13.268,0,0,1,12.042,0,4.656,4.656,0,0,1,2.445,2.895c.312-1.461-.5-2.989-2.445-4.111a13.268,13.268,0,0,0-12.042,0c-1.917,1.114-2.717,2.628-2.407,4.079A4.613,4.613,0,0,1,373.826,544.263Z" transform="translate(-369.024 -540.256)" fill="#967257"/>
          <g id="Group_356" data-name="Group 356" transform="translate(0 6.246)">
            <path id="Path_329" data-name="Path 329" d="M388.146,551.943l-.006,2.181c0,1.6-1.053,3.191-3.15,4.409a16.887,16.887,0,0,1-15.325,0c-2.137-1.234-3.2-2.853-3.2-4.47l.006-2.181c0,1.616,1.063,3.236,3.2,4.47a16.889,16.889,0,0,0,15.325,0C387.092,555.133,388.142,553.539,388.146,551.943Z" transform="translate(-366.466 -551.881)" fill="#967257"/>
          </g>
          <g id="Group_357" data-name="Group 357" transform="translate(0.006)">
            <path id="Path_330" data-name="Path 330" d="M384.954,540.618c4.245,2.451,4.267,6.425.049,8.877a16.889,16.889,0,0,1-15.325,0c-4.247-2.452-4.269-6.427-.052-8.877A16.89,16.89,0,0,1,384.954,540.618Zm-13.64,7.927a13.268,13.268,0,0,0,12.04,0c3.315-1.926,3.3-5.049-.038-6.974a13.269,13.269,0,0,0-12.042,0c-3.315,1.926-3.3,5.049.04,6.975" transform="translate(-366.479 -538.779)" fill="#d69f76"/>
          </g>
        </g>
      </g>
      <g id="Group_368" data-name="Group 368" transform="translate(1.406 18.364)">
        <g id="Group_367" data-name="Group 367">
          <g id="Group_360" data-name="Group 360" transform="translate(2.473 1.346)">
            <path id="Path_331" data-name="Path 331" d="M375.9,540.463a4.862,4.862,0,0,0-2.324,2.546q0-1.09.006-2.181a4.862,4.862,0,0,1,2.324-2.546,13.269,13.269,0,0,1,12.042,0c1.668.963,2.506,2.225,2.512,3.487q0,1.09-.006,2.181c-.007-1.262-.845-2.524-2.512-3.487A13.269,13.269,0,0,0,375.9,540.463Z" transform="translate(-373.581 -536.837)" fill="#d69f76"/>
          </g>
          <g id="Group_361" data-name="Group 361" transform="translate(2.322 5.336)">
            <path id="Path_332" data-name="Path 332" d="M373.416,547.389a2.957,2.957,0,0,0-.151.918l.006-2.181a2.958,2.958,0,0,1,.151-.918q0,.546,0,1.091v.286c0,.139,0,.278,0,.417,0,.079,0,.184,0,.263A1,1,0,0,1,373.416,547.389Z" transform="translate(-373.265 -545.208)" fill="#d69f76"/>
          </g>
          <g id="Group_362" data-name="Group 362" transform="translate(2.322 6.254)">
            <path id="Path_333" data-name="Path 333" d="M390.3,547.181l-.006,2.181c0,1.254-.828,2.507-2.475,3.464a13.271,13.271,0,0,1-12.041,0c-1.679-.97-2.517-2.242-2.514-3.512l.006-2.181c0,1.27.835,2.543,2.514,3.512a13.268,13.268,0,0,0,12.041,0C389.472,549.687,390.3,548.435,390.3,547.181Z" transform="translate(-373.265 -547.133)" fill="#d69f76"/>
          </g>
          <g id="Group_363" data-name="Group 363" transform="translate(19.351 6.277)">
            <path id="Path_334" data-name="Path 334" d="M408.987,549.388v-.024q0-1.09.006-2.181v.024Z" transform="translate(-408.987 -547.183)" fill="#d69f76"/>
          </g>
          <g id="Group_364" data-name="Group 364" transform="translate(2.328 1.346)">
            <path id="Path_335" data-name="Path 335" d="M387.794,538.282c3.335,1.925,3.352,5.048.038,6.974a13.268,13.268,0,0,1-12.041,0c-3.336-1.926-3.354-5.049-.039-6.975A13.269,13.269,0,0,1,387.794,538.282Z" transform="translate(-373.278 -536.837)" fill="#d69f76"/>
          </g>
          <path id="Path_336" data-name="Path 336" d="M375.755,539.5a13.269,13.269,0,0,1,12.042,0,4.659,4.659,0,0,1,2.445,2.895c.312-1.461-.5-2.989-2.445-4.111a13.269,13.269,0,0,0-12.042,0c-1.917,1.114-2.717,2.628-2.408,4.08A4.612,4.612,0,0,1,375.755,539.5Z" transform="translate(-370.952 -535.492)" fill="#967257"/>
          <g id="Group_365" data-name="Group 365" transform="translate(0 6.246)">
            <path id="Path_337" data-name="Path 337" d="M390.074,547.179l-.006,2.181c0,1.6-1.054,3.19-3.15,4.408a16.887,16.887,0,0,1-15.324,0c-2.137-1.234-3.2-2.854-3.2-4.471l.006-2.181c0,1.617,1.063,3.236,3.2,4.471a16.887,16.887,0,0,0,15.324,0C389.021,550.369,390.07,548.775,390.074,547.179Z" transform="translate(-368.394 -547.117)" fill="#967257"/>
          </g>
          <g id="Group_366" data-name="Group 366" transform="translate(0.006)">
            <path id="Path_338" data-name="Path 338" d="M386.883,535.854c4.245,2.451,4.267,6.426.049,8.877a16.888,16.888,0,0,1-15.324,0c-4.247-2.452-4.269-6.427-.052-8.878A16.889,16.889,0,0,1,386.883,535.854Zm-13.64,7.927a13.268,13.268,0,0,0,12.041,0c3.315-1.926,3.3-5.049-.038-6.974a13.268,13.268,0,0,0-12.042,0c-3.315,1.926-3.3,5.049.039,6.975" transform="translate(-368.407 -534.015)" fill="#d69f76"/>
          </g>
        </g>
      </g>
      <g id="Group_377" data-name="Group 377" transform="translate(0 15.704)">
        <g id="Group_376" data-name="Group 376">
          <g id="Group_369" data-name="Group 369" transform="translate(2.473 1.345)">
            <path id="Path_339" data-name="Path 339" d="M372.956,534.882a4.86,4.86,0,0,0-2.324,2.546q0-1.09.006-2.181a4.858,4.858,0,0,1,2.324-2.546,13.269,13.269,0,0,1,12.042,0c1.667.962,2.506,2.225,2.512,3.487q0,1.09-.006,2.181c-.007-1.262-.845-2.524-2.512-3.487A13.269,13.269,0,0,0,372.956,534.882Z" transform="translate(-370.632 -531.256)" fill="#d69f76"/>
          </g>
          <g id="Group_370" data-name="Group 370" transform="translate(2.322 5.336)">
            <path id="Path_340" data-name="Path 340" d="M370.467,541.808a2.94,2.94,0,0,0-.151.918l.006-2.181a2.942,2.942,0,0,1,.151-.918q0,.546,0,1.091V541q0,.208,0,.417v.263A.919.919,0,0,1,370.467,541.808Z" transform="translate(-370.316 -539.627)" fill="#d69f76"/>
          </g>
          <g id="Group_371" data-name="Group 371" transform="translate(2.322 6.254)">
            <path id="Path_341" data-name="Path 341" d="M387.351,541.6l-.006,2.182c0,1.254-.828,2.506-2.475,3.463a13.269,13.269,0,0,1-12.041,0c-1.679-.969-2.517-2.241-2.514-3.512l.006-2.181c0,1.27.835,2.543,2.514,3.512a13.269,13.269,0,0,0,12.041,0C386.523,544.106,387.348,542.853,387.351,541.6Z" transform="translate(-370.316 -541.552)" fill="#d69f76"/>
          </g>
          <g id="Group_372" data-name="Group 372" transform="translate(19.351 6.277)">
            <path id="Path_342" data-name="Path 342" d="M406.038,543.807v-.024q0-1.091.006-2.181v.024Z" transform="translate(-406.038 -541.602)" fill="#d69f76"/>
          </g>
          <g id="Group_373" data-name="Group 373" transform="translate(2.328 1.345)">
            <path id="Path_343" data-name="Path 343" d="M384.845,532.7c3.335,1.925,3.352,5.048.038,6.974a13.268,13.268,0,0,1-12.041,0c-3.336-1.926-3.354-5.049-.039-6.975A13.269,13.269,0,0,1,384.845,532.7Z" transform="translate(-370.329 -531.256)" fill="#d69f76"/>
          </g>
          <path id="Path_344" data-name="Path 344" d="M372.806,533.918a13.269,13.269,0,0,1,12.042,0,4.658,4.658,0,0,1,2.445,2.895c.312-1.461-.5-2.989-2.445-4.111a13.269,13.269,0,0,0-12.042,0c-1.917,1.114-2.717,2.628-2.408,4.079A4.612,4.612,0,0,1,372.806,533.918Z" transform="translate(-368.003 -529.911)" fill="#967257"/>
          <g id="Group_374" data-name="Group 374" transform="translate(0 6.246)">
            <path id="Path_345" data-name="Path 345" d="M387.125,541.6l-.006,2.181c0,1.6-1.054,3.191-3.15,4.409a16.886,16.886,0,0,1-15.324,0c-2.138-1.234-3.2-2.853-3.2-4.47l.006-2.181c0,1.617,1.063,3.236,3.2,4.47a16.886,16.886,0,0,0,15.324,0C386.071,544.788,387.121,543.194,387.125,541.6Z" transform="translate(-365.445 -541.536)" fill="#967257"/>
          </g>
          <g id="Group_375" data-name="Group 375" transform="translate(0.006)">
            <path id="Path_346" data-name="Path 346" d="M383.934,530.273c4.245,2.451,4.267,6.425.049,8.877a16.886,16.886,0,0,1-15.324,0c-4.247-2.452-4.269-6.426-.051-8.877A16.889,16.889,0,0,1,383.934,530.273Zm-13.64,7.927a13.269,13.269,0,0,0,12.041,0c3.315-1.926,3.3-5.049-.038-6.974a13.268,13.268,0,0,0-12.042,0c-3.315,1.926-3.3,5.049.039,6.975" transform="translate(-365.458 -528.434)" fill="#d69f76"/>
          </g>
        </g>
      </g>
      <g id="Group_386" data-name="Group 386" transform="translate(0.075 13.238)">
        <g id="Group_385" data-name="Group 385">
          <g id="Group_378" data-name="Group 378" transform="translate(2.472 1.346)">
            <path id="Path_347" data-name="Path 347" d="M373.112,529.71a4.86,4.86,0,0,0-2.324,2.546l.006-2.182a4.861,4.861,0,0,1,2.324-2.545,13.27,13.27,0,0,1,12.042,0c1.667.963,2.506,2.225,2.513,3.487q0,1.091-.006,2.181c-.007-1.262-.845-2.524-2.513-3.487A13.269,13.269,0,0,0,373.112,529.71Z" transform="translate(-370.788 -526.084)" fill="#d69f76"/>
          </g>
          <g id="Group_379" data-name="Group 379" transform="translate(2.322 5.336)">
            <path id="Path_348" data-name="Path 348" d="M370.623,536.636a2.957,2.957,0,0,0-.151.918l.006-2.181a2.96,2.96,0,0,1,.151-.918q0,.546,0,1.091c0,.086,0,.2,0,.286,0,.139,0,.278,0,.417v.263A.843.843,0,0,1,370.623,536.636Z" transform="translate(-370.472 -534.454)" fill="#d69f76"/>
          </g>
          <g id="Group_380" data-name="Group 380" transform="translate(2.322 6.254)">
            <path id="Path_349" data-name="Path 349" d="M387.507,536.427l-.006,2.181c0,1.254-.828,2.506-2.475,3.464a13.268,13.268,0,0,1-12.04,0c-1.679-.97-2.517-2.242-2.514-3.512l.006-2.181c0,1.27.835,2.542,2.514,3.512a13.267,13.267,0,0,0,12.04,0C386.679,538.934,387.5,537.681,387.507,536.427Z" transform="translate(-370.472 -536.38)" fill="#d69f76"/>
          </g>
          <g id="Group_381" data-name="Group 381" transform="translate(19.351 6.277)">
            <path id="Path_350" data-name="Path 350" d="M406.2,538.635v-.024q0-1.09.006-2.181v.024Z" transform="translate(-406.195 -536.429)" fill="#d69f76"/>
          </g>
          <g id="Group_382" data-name="Group 382" transform="translate(2.328 1.346)">
            <path id="Path_351" data-name="Path 351" d="M385,527.528c3.335,1.925,3.353,5.048.038,6.975a13.267,13.267,0,0,1-12.04,0c-3.336-1.926-3.354-5.049-.04-6.975A13.27,13.27,0,0,1,385,527.528Z" transform="translate(-370.485 -526.084)" fill="#d69f76"/>
          </g>
          <path id="Path_352" data-name="Path 352" d="M372.962,528.745a13.269,13.269,0,0,1,12.042,0,4.658,4.658,0,0,1,2.445,2.9c.312-1.462-.5-2.989-2.445-4.112a13.27,13.27,0,0,0-12.042,0c-1.917,1.114-2.717,2.628-2.407,4.079A4.612,4.612,0,0,1,372.962,528.745Z" transform="translate(-368.16 -524.738)" fill="#967257"/>
          <g id="Group_383" data-name="Group 383" transform="translate(0 6.246)">
            <path id="Path_353" data-name="Path 353" d="M387.282,536.425l-.006,2.181c0,1.6-1.054,3.19-3.15,4.409a16.89,16.89,0,0,1-15.325,0c-2.137-1.234-3.2-2.854-3.2-4.471l.006-2.181c0,1.617,1.063,3.236,3.2,4.471a16.889,16.889,0,0,0,15.324,0C386.228,539.615,387.278,538.021,387.282,536.425Z" transform="translate(-365.602 -536.363)" fill="#967257"/>
          </g>
          <g id="Group_384" data-name="Group 384" transform="translate(0.006)">
            <path id="Path_354" data-name="Path 354" d="M384.09,525.1c4.245,2.451,4.267,6.425.048,8.878a16.889,16.889,0,0,1-15.324,0c-4.246-2.452-4.269-6.427-.052-8.877A16.888,16.888,0,0,1,384.09,525.1Zm-13.64,7.927a13.267,13.267,0,0,0,12.04,0c3.315-1.926,3.3-5.049-.038-6.975a13.27,13.27,0,0,0-12.042,0c-3.315,1.926-3.3,5.049.04,6.975" transform="translate(-365.615 -523.261)" fill="#d69f76"/>
          </g>
        </g>
      </g>
      <g id="Group_395" data-name="Group 395" transform="translate(0 10.772)">
        <g id="Group_394" data-name="Group 394">
          <g id="Group_387" data-name="Group 387" transform="translate(2.473 1.346)">
            <path id="Path_355" data-name="Path 355" d="M372.956,524.537a4.861,4.861,0,0,0-2.324,2.546q0-1.09.006-2.181a4.86,4.86,0,0,1,2.324-2.546,13.269,13.269,0,0,1,12.042,0c1.667.963,2.506,2.225,2.512,3.487q0,1.09-.006,2.181c-.007-1.262-.845-2.524-2.512-3.487A13.269,13.269,0,0,0,372.956,524.537Z" transform="translate(-370.632 -520.911)" fill="#d69f76"/>
          </g>
          <g id="Group_388" data-name="Group 388" transform="translate(2.322 5.336)">
            <path id="Path_356" data-name="Path 356" d="M370.467,531.463a2.943,2.943,0,0,0-.151.918l.006-2.181a2.943,2.943,0,0,1,.151-.918q0,.546,0,1.091v.286q0,.208,0,.417v.263A.912.912,0,0,1,370.467,531.463Z" transform="translate(-370.316 -529.282)" fill="#d69f76"/>
          </g>
          <g id="Group_389" data-name="Group 389" transform="translate(2.322 6.254)">
            <path id="Path_357" data-name="Path 357" d="M387.351,531.255l-.006,2.181c0,1.254-.828,2.507-2.475,3.463a13.268,13.268,0,0,1-12.041,0c-1.679-.969-2.517-2.241-2.514-3.512l.006-2.181c0,1.27.835,2.543,2.514,3.512a13.268,13.268,0,0,0,12.041,0C386.523,533.761,387.348,532.508,387.351,531.255Z" transform="translate(-370.316 -531.207)" fill="#d69f76"/>
          </g>
          <g id="Group_390" data-name="Group 390" transform="translate(19.351 6.277)">
            <path id="Path_358" data-name="Path 358" d="M406.038,533.462v-.024q0-1.091.006-2.181v.024Z" transform="translate(-406.038 -531.257)" fill="#d69f76"/>
          </g>
          <g id="Group_391" data-name="Group 391" transform="translate(2.328 1.346)">
            <path id="Path_359" data-name="Path 359" d="M384.845,522.356c3.335,1.925,3.352,5.048.038,6.974a13.268,13.268,0,0,1-12.041,0c-3.336-1.926-3.354-5.049-.039-6.975A13.269,13.269,0,0,1,384.845,522.356Z" transform="translate(-370.329 -520.911)" fill="#d69f76"/>
          </g>
          <path id="Path_360" data-name="Path 360" d="M372.806,523.573a13.269,13.269,0,0,1,12.042,0,4.658,4.658,0,0,1,2.445,2.895c.312-1.461-.5-2.989-2.445-4.111a13.269,13.269,0,0,0-12.042,0c-1.917,1.114-2.717,2.628-2.408,4.079A4.612,4.612,0,0,1,372.806,523.573Z" transform="translate(-368.003 -519.566)" fill="#967257"/>
          <g id="Group_392" data-name="Group 392" transform="translate(0 6.246)">
            <path id="Path_361" data-name="Path 361" d="M387.125,531.252l-.006,2.182c0,1.6-1.054,3.19-3.15,4.408a16.887,16.887,0,0,1-15.324,0c-2.138-1.234-3.2-2.854-3.2-4.471l.006-2.181c0,1.617,1.063,3.236,3.2,4.47a16.886,16.886,0,0,0,15.324,0C386.071,534.443,387.121,532.849,387.125,531.252Z" transform="translate(-365.445 -531.191)" fill="#967257"/>
          </g>
          <g id="Group_393" data-name="Group 393" transform="translate(0.006)">
            <path id="Path_362" data-name="Path 362" d="M383.934,519.927c4.245,2.451,4.267,6.426.049,8.877a16.886,16.886,0,0,1-15.324,0c-4.247-2.452-4.269-6.426-.051-8.877A16.889,16.889,0,0,1,383.934,519.927Zm-13.64,7.927a13.268,13.268,0,0,0,12.041,0c3.315-1.926,3.3-5.049-.038-6.974a13.268,13.268,0,0,0-12.042,0c-3.315,1.926-3.3,5.049.039,6.975" transform="translate(-365.458 -518.089)" fill="#d69f76"/>
          </g>
        </g>
      </g>
      <g id="Group_404" data-name="Group 404" transform="translate(0.561 7.981)">
        <g id="Group_403" data-name="Group 403">
          <g id="Group_396" data-name="Group 396" transform="translate(2.472 1.346)">
            <path id="Path_363" data-name="Path 363" d="M374.131,518.682a4.862,4.862,0,0,0-2.324,2.546q0-1.091.006-2.181a4.862,4.862,0,0,1,2.324-2.546,13.27,13.27,0,0,1,12.042,0c1.667.962,2.506,2.225,2.512,3.487l-.006,2.181c-.007-1.262-.845-2.524-2.512-3.487A13.27,13.27,0,0,0,374.131,518.682Z" transform="translate(-371.807 -515.056)" fill="#d69f76"/>
          </g>
          <g id="Group_397" data-name="Group 397" transform="translate(2.322 5.336)">
            <path id="Path_364" data-name="Path 364" d="M371.642,525.608a2.969,2.969,0,0,0-.151.918l.006-2.181a2.97,2.97,0,0,1,.151-.918q0,.545,0,1.091v.285c0,.139,0,.278,0,.417,0,.079,0,.185,0,.263A.851.851,0,0,1,371.642,525.608Z" transform="translate(-371.491 -523.427)" fill="#d69f76"/>
          </g>
          <g id="Group_398" data-name="Group 398" transform="translate(2.322 6.254)">
            <path id="Path_365" data-name="Path 365" d="M388.526,525.4l-.006,2.181c0,1.254-.828,2.507-2.475,3.464a13.268,13.268,0,0,1-12.041,0c-1.679-.969-2.517-2.241-2.514-3.512l.006-2.181c0,1.27.835,2.542,2.514,3.512a13.268,13.268,0,0,0,12.041,0C387.7,527.906,388.523,526.653,388.526,525.4Z" transform="translate(-371.491 -525.352)" fill="#d69f76"/>
          </g>
          <g id="Group_399" data-name="Group 399" transform="translate(19.351 6.277)">
            <path id="Path_366" data-name="Path 366" d="M407.214,527.607v-.024l.006-2.181v.024Z" transform="translate(-407.214 -525.401)" fill="#d69f76"/>
          </g>
          <g id="Group_400" data-name="Group 400" transform="translate(2.328 1.346)">
            <path id="Path_367" data-name="Path 367" d="M386.021,516.5c3.335,1.925,3.352,5.048.038,6.974a13.268,13.268,0,0,1-12.041,0c-3.336-1.926-3.354-5.049-.04-6.975A13.27,13.27,0,0,1,386.021,516.5Z" transform="translate(-371.504 -515.056)" fill="#d69f76"/>
          </g>
          <path id="Path_368" data-name="Path 368" d="M373.981,517.717a13.273,13.273,0,0,1,12.043,0,4.659,4.659,0,0,1,2.445,2.9c.312-1.462-.5-2.989-2.445-4.111a13.27,13.27,0,0,0-12.043,0c-1.917,1.114-2.717,2.628-2.407,4.079A4.614,4.614,0,0,1,373.981,517.717Z" transform="translate(-369.179 -513.71)" fill="#967257"/>
          <g id="Group_401" data-name="Group 401" transform="translate(0 6.246)">
            <path id="Path_369" data-name="Path 369" d="M388.3,525.4l-.006,2.181c0,1.6-1.053,3.191-3.15,4.409a16.89,16.89,0,0,1-15.325,0c-2.137-1.234-3.2-2.854-3.2-4.471l.006-2.181c0,1.617,1.063,3.237,3.2,4.471a16.89,16.89,0,0,0,15.325,0C387.247,528.587,388.3,526.993,388.3,525.4Z" transform="translate(-366.621 -525.335)" fill="#967257"/>
          </g>
          <g id="Group_402" data-name="Group 402" transform="translate(0.006)">
            <path id="Path_370" data-name="Path 370" d="M385.109,514.072c4.245,2.451,4.267,6.425.049,8.877a16.89,16.89,0,0,1-15.325,0c-4.246-2.452-4.269-6.426-.051-8.877A16.887,16.887,0,0,1,385.109,514.072ZM371.47,522a13.269,13.269,0,0,0,12.041,0c3.315-1.926,3.3-5.049-.038-6.974a13.27,13.27,0,0,0-12.042,0c-3.315,1.926-3.3,5.049.04,6.975" transform="translate(-366.634 -512.233)" fill="#d69f76"/>
          </g>
        </g>
      </g>
      <g id="Group_413" data-name="Group 413" transform="translate(1.564 4.922)">
        <g id="Group_412" data-name="Group 412">
          <g id="Group_405" data-name="Group 405" transform="translate(2.472 1.346)">
            <path id="Path_371" data-name="Path 371" d="M376.235,512.264a4.862,4.862,0,0,0-2.324,2.546q0-1.09.006-2.181a4.86,4.86,0,0,1,2.324-2.546,13.268,13.268,0,0,1,12.042,0c1.668.962,2.506,2.225,2.513,3.487q0,1.09-.006,2.181c-.007-1.262-.845-2.524-2.513-3.487A13.268,13.268,0,0,0,376.235,512.264Z" transform="translate(-373.911 -508.638)" fill="#d69f76"/>
          </g>
          <g id="Group_406" data-name="Group 406" transform="translate(2.322 5.336)">
            <path id="Path_372" data-name="Path 372" d="M373.746,519.19a2.955,2.955,0,0,0-.151.918l.006-2.181a2.955,2.955,0,0,1,.151-.918q0,.546,0,1.091v.286c0,.139,0,.278,0,.417v.263A.847.847,0,0,1,373.746,519.19Z" transform="translate(-373.595 -517.009)" fill="#d69f76"/>
          </g>
          <g id="Group_407" data-name="Group 407" transform="translate(2.322 6.254)">
            <path id="Path_373" data-name="Path 373" d="M390.63,518.981l-.006,2.182c0,1.254-.828,2.506-2.475,3.463a13.268,13.268,0,0,1-12.041,0c-1.679-.969-2.517-2.241-2.514-3.512l.006-2.181c0,1.27.835,2.543,2.514,3.512a13.268,13.268,0,0,0,12.041,0C389.8,521.488,390.627,520.235,390.63,518.981Z" transform="translate(-373.595 -518.934)" fill="#d69f76"/>
          </g>
          <g id="Group_408" data-name="Group 408" transform="translate(19.351 6.277)">
            <path id="Path_374" data-name="Path 374" d="M409.318,521.189v-.024q0-1.091.006-2.181v.024C409.322,519.662,409.32,520.535,409.318,521.189Z" transform="translate(-409.318 -518.984)" fill="#d69f76"/>
          </g>
          <g id="Group_409" data-name="Group 409" transform="translate(2.328 1.346)">
            <path id="Path_375" data-name="Path 375" d="M388.125,510.083c3.335,1.925,3.353,5.048.038,6.974a13.268,13.268,0,0,1-12.041,0c-3.336-1.926-3.354-5.049-.039-6.975A13.268,13.268,0,0,1,388.125,510.083Z" transform="translate(-373.608 -508.638)" fill="#d69f76"/>
          </g>
          <path id="Path_376" data-name="Path 376" d="M376.085,511.3a13.268,13.268,0,0,1,12.042,0,4.657,4.657,0,0,1,2.445,2.895c.312-1.461-.5-2.989-2.445-4.111a13.268,13.268,0,0,0-12.042,0c-1.917,1.114-2.717,2.628-2.408,4.079A4.614,4.614,0,0,1,376.085,511.3Z" transform="translate(-371.283 -507.293)" fill="#967257"/>
          <g id="Group_410" data-name="Group 410" transform="translate(0 6.246)">
            <path id="Path_377" data-name="Path 377" d="M390.405,518.979l-.006,2.181c0,1.6-1.054,3.191-3.15,4.409a16.886,16.886,0,0,1-15.324,0c-2.137-1.234-3.2-2.853-3.2-4.47l.006-2.181c0,1.617,1.063,3.236,3.2,4.47a16.886,16.886,0,0,0,15.324,0C389.351,522.17,390.4,520.576,390.405,518.979Z" transform="translate(-368.725 -518.918)" fill="#967257"/>
          </g>
          <g id="Group_411" data-name="Group 411" transform="translate(0.006)">
            <path id="Path_378" data-name="Path 378" d="M387.213,507.655c4.245,2.451,4.267,6.425.048,8.877a16.886,16.886,0,0,1-15.324,0c-4.246-2.452-4.269-6.426-.051-8.877A16.89,16.89,0,0,1,387.213,507.655Zm-13.64,7.927a13.268,13.268,0,0,0,12.041,0c3.315-1.926,3.3-5.049-.038-6.974a13.268,13.268,0,0,0-12.042,0c-3.315,1.926-3.3,5.049.039,6.975" transform="translate(-368.738 -505.816)" fill="#d69f76"/>
          </g>
        </g>
      </g>
      <g id="Group_422" data-name="Group 422" transform="translate(0 2.466)">
        <g id="Group_421" data-name="Group 421">
          <g id="Group_414" data-name="Group 414" transform="translate(2.472 1.346)">
            <path id="Path_379" data-name="Path 379" d="M372.954,507.112a4.863,4.863,0,0,0-2.324,2.546q0-1.09.006-2.181a4.862,4.862,0,0,1,2.324-2.546,13.268,13.268,0,0,1,12.042,0c1.668.963,2.506,2.225,2.513,3.487q0,1.09-.006,2.181c-.007-1.262-.845-2.524-2.513-3.487A13.268,13.268,0,0,0,372.954,507.112Z" transform="translate(-370.63 -503.486)" fill="#d69f76"/>
          </g>
          <g id="Group_415" data-name="Group 415" transform="translate(2.322 5.336)">
            <path id="Path_380" data-name="Path 380" d="M370.465,514.038a2.956,2.956,0,0,0-.151.918l.006-2.181a2.956,2.956,0,0,1,.151-.918q0,.546,0,1.091v.286q0,.208,0,.417v.263A.844.844,0,0,1,370.465,514.038Z" transform="translate(-370.314 -511.857)" fill="#d69f76"/>
          </g>
          <g id="Group_416" data-name="Group 416" transform="translate(2.322 6.254)">
            <path id="Path_381" data-name="Path 381" d="M387.349,513.83l-.006,2.181c0,1.254-.828,2.507-2.475,3.463a13.268,13.268,0,0,1-12.04,0c-1.679-.969-2.517-2.241-2.514-3.512l.006-2.181c0,1.27.835,2.543,2.514,3.512a13.268,13.268,0,0,0,12.04,0C386.521,516.336,387.346,515.083,387.349,513.83Z" transform="translate(-370.314 -513.782)" fill="#d69f76"/>
          </g>
          <g id="Group_417" data-name="Group 417" transform="translate(19.351 6.277)">
            <path id="Path_382" data-name="Path 382" d="M406.037,516.037v-.024q0-1.091.006-2.181v.024Z" transform="translate(-406.037 -513.832)" fill="#d69f76"/>
          </g>
          <g id="Group_418" data-name="Group 418" transform="translate(2.328 1.346)">
            <path id="Path_383" data-name="Path 383" d="M384.844,504.931c3.335,1.925,3.353,5.048.038,6.974a13.267,13.267,0,0,1-12.04,0c-3.336-1.926-3.354-5.049-.04-6.975A13.268,13.268,0,0,1,384.844,504.931Z" transform="translate(-370.327 -503.486)" fill="#d69f76"/>
          </g>
          <path id="Path_384" data-name="Path 384" d="M372.8,506.148a13.268,13.268,0,0,1,12.042,0,4.657,4.657,0,0,1,2.445,2.895c.312-1.461-.5-2.989-2.445-4.111a13.268,13.268,0,0,0-12.042,0c-1.917,1.114-2.717,2.628-2.407,4.079A4.612,4.612,0,0,1,372.8,506.148Z" transform="translate(-368.002 -502.141)" fill="#967257"/>
          <g id="Group_419" data-name="Group 419" transform="translate(0 6.246)">
            <path id="Path_385" data-name="Path 385" d="M387.124,513.828l-.006,2.182c0,1.6-1.053,3.19-3.15,4.408a16.887,16.887,0,0,1-15.325,0c-2.137-1.234-3.2-2.853-3.2-4.47l.006-2.181c0,1.617,1.063,3.236,3.2,4.47a16.886,16.886,0,0,0,15.324,0C386.07,517.018,387.12,515.424,387.124,513.828Z" transform="translate(-365.444 -513.766)" fill="#967257"/>
          </g>
          <g id="Group_420" data-name="Group 420" transform="translate(0.006)">
            <path id="Path_386" data-name="Path 386" d="M383.932,502.5c4.245,2.451,4.267,6.426.048,8.877a16.886,16.886,0,0,1-15.324,0c-4.246-2.452-4.269-6.426-.051-8.877A16.89,16.89,0,0,1,383.932,502.5Zm-13.64,7.927a13.267,13.267,0,0,0,12.04,0c3.315-1.926,3.3-5.049-.038-6.974a13.268,13.268,0,0,0-12.042,0c-3.315,1.926-3.3,5.049.04,6.975" transform="translate(-365.457 -500.664)" fill="#d69f76"/>
          </g>
        </g>
      </g>
      <g id="Group_431" data-name="Group 431" transform="translate(0.636 0)">
        <g id="Group_430" data-name="Group 430">
          <g id="Group_423" data-name="Group 423" transform="translate(2.472 1.346)">
            <path id="Path_387" data-name="Path 387" d="M374.288,501.94a4.86,4.86,0,0,0-2.324,2.546q0-1.091.006-2.181a4.86,4.86,0,0,1,2.324-2.546,13.268,13.268,0,0,1,12.042,0c1.668.962,2.506,2.225,2.513,3.487q0,1.091-.006,2.181c-.007-1.262-.845-2.524-2.513-3.487A13.269,13.269,0,0,0,374.288,501.94Z" transform="translate(-371.964 -498.314)" fill="#d69f76"/>
          </g>
          <g id="Group_424" data-name="Group 424" transform="translate(2.322 5.336)">
            <path id="Path_388" data-name="Path 388" d="M371.8,508.866a2.956,2.956,0,0,0-.151.918l.006-2.181a2.954,2.954,0,0,1,.151-.918q0,.545,0,1.091v.285q0,.209,0,.417v.263A.847.847,0,0,1,371.8,508.866Z" transform="translate(-371.648 -506.685)" fill="#d69f76"/>
          </g>
          <g id="Group_425" data-name="Group 425" transform="translate(2.322 6.254)">
            <path id="Path_389" data-name="Path 389" d="M388.683,508.657l-.006,2.181c0,1.254-.828,2.507-2.475,3.464a13.269,13.269,0,0,1-12.041,0c-1.679-.969-2.517-2.241-2.514-3.512l.006-2.181c0,1.27.835,2.542,2.514,3.512a13.268,13.268,0,0,0,12.041,0C387.855,511.164,388.68,509.911,388.683,508.657Z" transform="translate(-371.648 -508.61)" fill="#d69f76"/>
          </g>
          <g id="Group_426" data-name="Group 426" transform="translate(19.351 6.277)">
            <path id="Path_390" data-name="Path 390" d="M407.371,510.865v-.024q0-1.09.006-2.181v.024Z" transform="translate(-407.371 -508.659)" fill="#d69f76"/>
          </g>
          <g id="Group_427" data-name="Group 427" transform="translate(2.328 1.346)">
            <path id="Path_391" data-name="Path 391" d="M386.178,499.759c3.335,1.925,3.353,5.048.038,6.974a13.268,13.268,0,0,1-12.041,0c-3.336-1.926-3.354-5.049-.039-6.975A13.268,13.268,0,0,1,386.178,499.759Z" transform="translate(-371.661 -498.314)" fill="#d69f76"/>
          </g>
          <path id="Path_392" data-name="Path 392" d="M374.138,500.975a13.268,13.268,0,0,1,12.042,0,4.657,4.657,0,0,1,2.445,2.9c.312-1.462-.5-2.989-2.445-4.111a13.268,13.268,0,0,0-12.042,0c-1.917,1.114-2.717,2.628-2.408,4.079A4.615,4.615,0,0,1,374.138,500.975Z" transform="translate(-369.336 -496.968)" fill="#967257"/>
          <g id="Group_428" data-name="Group 428" transform="translate(0 6.246)">
            <path id="Path_393" data-name="Path 393" d="M388.458,508.655l-.006,2.181c0,1.6-1.053,3.191-3.15,4.409a16.889,16.889,0,0,1-15.324,0c-2.137-1.234-3.2-2.854-3.2-4.471l.006-2.181c0,1.617,1.063,3.237,3.2,4.471a16.889,16.889,0,0,0,15.324,0C387.4,511.845,388.453,510.251,388.458,508.655Z" transform="translate(-366.778 -508.593)" fill="#967257"/>
          </g>
          <g id="Group_429" data-name="Group 429" transform="translate(0.006)">
            <path id="Path_394" data-name="Path 394" d="M385.266,497.33c4.245,2.451,4.267,6.425.048,8.877a16.889,16.889,0,0,1-15.324,0c-4.246-2.452-4.269-6.426-.051-8.877A16.887,16.887,0,0,1,385.266,497.33Zm-13.64,7.927a13.268,13.268,0,0,0,12.041,0c3.315-1.926,3.3-5.049-.038-6.974a13.269,13.269,0,0,0-12.042,0c-3.315,1.926-3.3,5.049.039,6.975" transform="translate(-366.791 -495.491)" fill="#d69f76"/>
          </g>
        </g>
      </g>
    </g>
    <g id="Group_451" data-name="Group 451" transform="translate(797.476 357.59)">
      <g id="Group_441" data-name="Group 441" transform="translate(0 3.623)">
        <g id="Group_440" data-name="Group 440">
          <g id="Group_433" data-name="Group 433" transform="translate(3.225 1.755)">
            <path id="Path_396" data-name="Path 396" d="M348.294,585.74a6.34,6.34,0,0,0-3.031,3.32q0-1.423.008-2.845a6.34,6.34,0,0,1,3.031-3.32c4.324-2.513,11.356-2.513,15.707,0,2.175,1.256,3.268,2.9,3.277,4.548q0,1.423-.008,2.845c-.009-1.647-1.1-3.293-3.277-4.548C359.65,583.227,352.618,583.227,348.294,585.74Z" transform="translate(-345.263 -581.01)" fill="#def2ec"/>
          </g>
          <g id="Group_434" data-name="Group 434" transform="translate(3.029 6.96)">
            <path id="Path_397" data-name="Path 397" d="M345.047,594.773a3.857,3.857,0,0,0-.2,1.2l.008-2.845a3.856,3.856,0,0,1,.2-1.2l0,1.423c0,.112,0,.26,0,.372v.887A1.162,1.162,0,0,1,345.047,594.773Z" transform="translate(-344.851 -591.928)" fill="#def2ec"/>
          </g>
          <g id="Group_435" data-name="Group 435" transform="translate(3.029 8.157)">
            <path id="Path_398" data-name="Path 398" d="M367.072,594.5l-.008,2.845c0,1.636-1.08,3.27-3.228,4.518-4.324,2.513-11.356,2.513-15.706,0-2.19-1.264-3.284-2.924-3.279-4.581l.008-2.845c0,1.657,1.089,3.317,3.279,4.581,4.35,2.511,11.382,2.511,15.706,0C365.992,597.771,367.067,596.137,367.072,594.5Z" transform="translate(-344.851 -594.439)" fill="#def2ec"/>
          </g>
          <g id="Group_436" data-name="Group 436" transform="translate(25.241 8.188)">
            <path id="Path_399" data-name="Path 399" d="M391.447,597.381v-.031q0-1.423.008-2.845v.031Z" transform="translate(-391.447 -594.504)" fill="#def2ec"/>
          </g>
          <g id="Group_437" data-name="Group 437" transform="translate(3.037 1.755)">
            <path id="Path_400" data-name="Path 400" d="M363.8,582.894c4.35,2.511,4.373,6.584.05,9.1s-11.356,2.513-15.706,0-4.375-6.586-.051-9.1S359.451,580.382,363.8,582.894Z" transform="translate(-344.868 -581.01)" fill="#def2ec"/>
          </g>
          <path id="Path_401" data-name="Path 401" d="M348.1,584.481c4.324-2.513,11.356-2.513,15.707,0a6.076,6.076,0,0,1,3.19,3.776c.407-1.906-.655-3.9-3.19-5.362-4.352-2.513-11.384-2.513-15.707,0-2.5,1.453-3.544,3.427-3.141,5.321A6.018,6.018,0,0,1,348.1,584.481Z" transform="translate(-341.835 -579.254)" fill="#b3b3b3"/>
          <g id="Group_438" data-name="Group 438" transform="translate(0 8.147)">
            <path id="Path_402" data-name="Path 402" d="M366.777,594.5l-.008,2.846c-.006,2.082-1.374,4.162-4.109,5.75-5.5,3.2-14.452,3.2-19.989,0-2.788-1.609-4.18-3.722-4.174-5.831l.008-2.845c-.006,2.109,1.386,4.222,4.174,5.831,5.537,3.2,14.488,3.2,19.989,0C365.4,598.66,366.772,596.581,366.777,594.5Z" transform="translate(-338.498 -594.418)" fill="#b3b3b3"/>
          </g>
          <g id="Group_439" data-name="Group 439" transform="translate(0.008)">
            <path id="Path_403" data-name="Path 403" d="M362.614,579.726c5.537,3.2,5.566,8.381.063,11.58s-14.452,3.2-19.989,0-5.568-8.382-.067-11.58S357.075,576.528,362.614,579.726Zm-17.792,10.34c4.35,2.511,11.382,2.511,15.706,0s4.3-6.586-.05-9.1-11.384-2.513-15.707,0-4.3,6.586.051,9.1" transform="translate(-338.515 -577.327)" fill="#def2ec"/>
          </g>
        </g>
      </g>
      <g id="Group_450" data-name="Group 450" transform="translate(1.072 0)">
        <g id="Group_449" data-name="Group 449">
          <g id="Group_442" data-name="Group 442" transform="translate(3.225 1.755)">
            <path id="Path_404" data-name="Path 404" d="M350.542,578.14a6.343,6.343,0,0,0-3.031,3.32q0-1.422.008-2.845a6.341,6.341,0,0,1,3.031-3.32c4.324-2.513,11.356-2.513,15.708,0,2.175,1.256,3.268,2.9,3.277,4.548q0,1.423-.008,2.845c-.009-1.646-1.1-3.293-3.277-4.548C361.9,575.627,354.866,575.627,350.542,578.14Z" transform="translate(-347.511 -573.41)" fill="#def2ec"/>
          </g>
          <g id="Group_443" data-name="Group 443" transform="translate(3.029 6.96)">
            <path id="Path_405" data-name="Path 405" d="M347.3,587.173a3.858,3.858,0,0,0-.2,1.2l.008-2.845a3.857,3.857,0,0,1,.2-1.2l0,1.423v.372c0,.181,0,.363,0,.544v.343A1.092,1.092,0,0,1,347.3,587.173Z" transform="translate(-347.099 -584.328)" fill="#def2ec"/>
          </g>
          <g id="Group_444" data-name="Group 444" transform="translate(3.028 8.157)">
            <path id="Path_406" data-name="Path 406" d="M369.32,586.9l-.008,2.845c0,1.636-1.08,3.27-3.228,4.518-4.324,2.513-11.356,2.513-15.706,0-2.19-1.264-3.284-2.924-3.279-4.581l.008-2.845c0,1.657,1.089,3.316,3.279,4.581,4.35,2.512,11.382,2.512,15.705,0C368.24,590.171,369.315,588.538,369.32,586.9Z" transform="translate(-347.099 -586.84)" fill="#def2ec"/>
          </g>
          <g id="Group_445" data-name="Group 445" transform="translate(25.241 8.188)">
            <path id="Path_407" data-name="Path 407" d="M393.7,589.781c0-.01,0-.021,0-.031q0-1.423.008-2.845v.031C393.7,587.789,393.7,588.927,393.7,589.781Z" transform="translate(-393.695 -586.904)" fill="#def2ec"/>
          </g>
          <g id="Group_446" data-name="Group 446" transform="translate(3.037 1.755)">
            <path id="Path_408" data-name="Path 408" d="M366.052,575.294c4.35,2.511,4.373,6.585.049,9.1s-11.356,2.513-15.705,0-4.375-6.586-.052-9.1S361.7,572.782,366.052,575.294Z" transform="translate(-347.116 -573.41)" fill="#def2ec"/>
          </g>
          <path id="Path_409" data-name="Path 409" d="M350.347,576.881c4.324-2.513,11.356-2.513,15.708,0a6.077,6.077,0,0,1,3.19,3.776c.407-1.906-.655-3.9-3.19-5.362-4.352-2.513-11.384-2.513-15.708,0-2.5,1.453-3.544,3.428-3.141,5.321A6.016,6.016,0,0,1,350.347,576.881Z" transform="translate(-344.083 -571.655)" fill="#b3b3b3"/>
          <g id="Group_447" data-name="Group 447" transform="translate(0 8.147)">
            <path id="Path_410" data-name="Path 410" d="M369.025,586.9l-.008,2.845c-.006,2.082-1.374,4.162-4.109,5.75-5.5,3.2-14.452,3.2-19.989,0-2.788-1.609-4.18-3.722-4.174-5.831l.008-2.845c-.006,2.109,1.386,4.222,4.174,5.831,5.537,3.2,14.488,3.2,19.989,0C367.651,591.06,369.02,588.981,369.025,586.9Z" transform="translate(-340.746 -586.818)" fill="#b3b3b3"/>
          </g>
          <g id="Group_448" data-name="Group 448" transform="translate(0.008)">
            <path id="Path_411" data-name="Path 411" d="M364.863,572.126c5.537,3.2,5.566,8.381.063,11.58s-14.452,3.2-19.989,0-5.568-8.382-.067-11.579S359.324,568.929,364.863,572.126Zm-17.792,10.34c4.35,2.512,11.382,2.512,15.706,0s4.3-6.586-.049-9.1-11.384-2.513-15.708,0-4.3,6.586.051,9.1" transform="translate(-340.763 -569.728)" fill="#def2ec"/>
          </g>
        </g>
      </g>
    </g>
    <g id="Group_488" data-name="Group 488" transform="translate(831.346 343.951)">
      <g id="Group_460" data-name="Group 460" transform="translate(0.001 8.359)">
        <g id="Group_459" data-name="Group 459">
          <g id="Group_452" data-name="Group 452" transform="translate(2.472 1.346)">
            <path id="Path_412" data-name="Path 412" d="M417.061,565.1a4.86,4.86,0,0,0-2.324,2.546q0-1.091.006-2.182a4.861,4.861,0,0,1,2.324-2.545,13.27,13.27,0,0,1,12.042,0c1.668.963,2.506,2.225,2.513,3.487q0,1.091-.006,2.181c-.007-1.262-.845-2.524-2.513-3.487A13.269,13.269,0,0,0,417.061,565.1Z" transform="translate(-414.737 -561.475)" fill="#d69f76"/>
          </g>
          <g id="Group_453" data-name="Group 453" transform="translate(2.322 5.336)">
            <path id="Path_413" data-name="Path 413" d="M414.572,572.027a2.969,2.969,0,0,0-.151.918l.006-2.182a2.962,2.962,0,0,1,.151-.918q0,.546,0,1.091v.286c0,.139,0,.278,0,.417,0,.079,0,.184,0,.263A.851.851,0,0,1,414.572,572.027Z" transform="translate(-414.421 -569.845)" fill="#d69f76"/>
          </g>
          <g id="Group_454" data-name="Group 454" transform="translate(2.322 6.254)">
            <path id="Path_414" data-name="Path 414" d="M431.456,571.818,431.45,574c0,1.254-.828,2.507-2.475,3.464a13.269,13.269,0,0,1-12.041,0c-1.679-.97-2.517-2.241-2.514-3.512l.006-2.181c0,1.27.835,2.542,2.514,3.512a13.268,13.268,0,0,0,12.041,0C430.628,574.325,431.453,573.072,431.456,571.818Z" transform="translate(-414.421 -571.771)" fill="#d69f76"/>
          </g>
          <g id="Group_455" data-name="Group 455" transform="translate(19.351 6.277)">
            <path id="Path_415" data-name="Path 415" d="M450.144,574.026V574q0-1.09.006-2.181v.024Z" transform="translate(-450.144 -571.82)" fill="#d69f76"/>
          </g>
          <g id="Group_456" data-name="Group 456" transform="translate(2.328 1.346)">
            <path id="Path_416" data-name="Path 416" d="M428.951,562.919c3.335,1.925,3.353,5.048.038,6.975a13.269,13.269,0,0,1-12.041,0c-3.336-1.926-3.354-5.049-.04-6.975A13.27,13.27,0,0,1,428.951,562.919Z" transform="translate(-414.434 -561.475)" fill="#d69f76"/>
          </g>
          <path id="Path_417" data-name="Path 417" d="M416.911,564.136a13.269,13.269,0,0,1,12.042,0,4.658,4.658,0,0,1,2.445,2.895c.312-1.461-.5-2.989-2.445-4.111a13.27,13.27,0,0,0-12.042,0c-1.917,1.114-2.717,2.628-2.407,4.079A4.614,4.614,0,0,1,416.911,564.136Z" transform="translate(-412.109 -560.129)" fill="#967257"/>
          <g id="Group_457" data-name="Group 457" transform="translate(0 6.246)">
            <path id="Path_418" data-name="Path 418" d="M431.231,571.816,431.225,574c0,1.6-1.054,3.19-3.15,4.409a16.89,16.89,0,0,1-15.325,0c-2.137-1.234-3.2-2.854-3.2-4.471l.006-2.181c0,1.617,1.063,3.236,3.2,4.471a16.89,16.89,0,0,0,15.325,0C430.177,575.006,431.227,573.412,431.231,571.816Z" transform="translate(-409.551 -571.754)" fill="#967257"/>
          </g>
          <g id="Group_458" data-name="Group 458" transform="translate(0.006)">
            <path id="Path_419" data-name="Path 419" d="M428.039,560.491c4.245,2.451,4.267,6.425.049,8.878a16.89,16.89,0,0,1-15.325,0c-4.246-2.452-4.269-6.427-.051-8.877A16.889,16.889,0,0,1,428.039,560.491Zm-13.64,7.927a13.268,13.268,0,0,0,12.041,0c3.315-1.926,3.3-5.049-.038-6.975a13.27,13.27,0,0,0-12.042,0c-3.315,1.926-3.3,5.049.04,6.975" transform="translate(-409.564 -558.652)" fill="#d69f76"/>
          </g>
        </g>
      </g>
      <g id="Group_469" data-name="Group 469" transform="translate(0 5.85)">
        <g id="Group_468" data-name="Group 468">
          <g id="Group_461" data-name="Group 461" transform="translate(2.473 1.346)">
            <path id="Path_420" data-name="Path 420" d="M417.059,559.837a4.858,4.858,0,0,0-2.324,2.546l.006-2.182a4.862,4.862,0,0,1,2.324-2.545,13.268,13.268,0,0,1,12.042,0c1.668.962,2.506,2.225,2.512,3.487q0,1.091-.006,2.181c-.007-1.262-.845-2.524-2.512-3.487A13.268,13.268,0,0,0,417.059,559.837Z" transform="translate(-414.735 -556.211)" fill="#d69f76"/>
          </g>
          <g id="Group_462" data-name="Group 462" transform="translate(2.322 5.336)">
            <path id="Path_421" data-name="Path 421" d="M414.57,566.763a2.942,2.942,0,0,0-.151.918l.006-2.181a2.961,2.961,0,0,1,.151-.918q0,.546,0,1.091v.286c0,.139,0,.278,0,.417v.263A.914.914,0,0,1,414.57,566.763Z" transform="translate(-414.419 -564.581)" fill="#d69f76"/>
          </g>
          <g id="Group_463" data-name="Group 463" transform="translate(2.322 6.254)">
            <path id="Path_422" data-name="Path 422" d="M431.454,566.554l-.006,2.181c0,1.254-.828,2.507-2.475,3.464a13.268,13.268,0,0,1-12.041,0c-1.679-.969-2.517-2.241-2.514-3.512l.006-2.181c0,1.27.835,2.542,2.514,3.512a13.268,13.268,0,0,0,12.041,0C430.626,569.061,431.451,567.808,431.454,566.554Z" transform="translate(-414.419 -566.507)" fill="#d69f76"/>
          </g>
          <g id="Group_464" data-name="Group 464" transform="translate(19.351 6.277)">
            <path id="Path_423" data-name="Path 423" d="M450.141,568.762v-.024q0-1.09.006-2.181v.024Z" transform="translate(-450.141 -566.556)" fill="#d69f76"/>
          </g>
          <g id="Group_465" data-name="Group 465" transform="translate(2.328 1.346)">
            <path id="Path_424" data-name="Path 424" d="M428.948,557.656c3.335,1.925,3.352,5.048.038,6.974a13.268,13.268,0,0,1-12.041,0c-3.336-1.926-3.354-5.049-.039-6.975A13.268,13.268,0,0,1,428.948,557.656Z" transform="translate(-414.432 -556.211)" fill="#d69f76"/>
          </g>
          <path id="Path_425" data-name="Path 425" d="M416.909,558.872a13.269,13.269,0,0,1,12.042,0,4.659,4.659,0,0,1,2.445,2.9c.312-1.462-.5-2.989-2.445-4.111a13.268,13.268,0,0,0-12.042,0c-1.917,1.114-2.717,2.628-2.408,4.079A4.613,4.613,0,0,1,416.909,558.872Z" transform="translate(-412.106 -554.865)" fill="#967257"/>
          <g id="Group_466" data-name="Group 466" transform="translate(0 6.246)">
            <path id="Path_426" data-name="Path 426" d="M431.228,566.552l-.006,2.181c0,1.6-1.054,3.191-3.15,4.409a16.89,16.89,0,0,1-15.325,0c-2.137-1.234-3.2-2.854-3.2-4.471l.006-2.181c0,1.617,1.063,3.237,3.2,4.471a16.89,16.89,0,0,0,15.325,0C430.174,569.742,431.224,568.148,431.228,566.552Z" transform="translate(-409.548 -566.49)" fill="#967257"/>
          </g>
          <g id="Group_467" data-name="Group 467" transform="translate(0.006)">
            <path id="Path_427" data-name="Path 427" d="M428.036,555.227c4.245,2.451,4.267,6.425.049,8.877a16.89,16.89,0,0,1-15.325,0c-4.246-2.452-4.269-6.426-.051-8.877A16.887,16.887,0,0,1,428.036,555.227Zm-13.64,7.927a13.268,13.268,0,0,0,12.041,0c3.315-1.926,3.3-5.049-.038-6.974a13.269,13.269,0,0,0-12.042,0c-3.315,1.926-3.3,5.049.039,6.975" transform="translate(-409.561 -553.388)" fill="#d69f76"/>
          </g>
        </g>
      </g>
      <g id="Group_478" data-name="Group 478" transform="translate(0.076 2.337)">
        <g id="Group_477" data-name="Group 477">
          <g id="Group_470" data-name="Group 470" transform="translate(2.473 1.346)">
            <path id="Path_428" data-name="Path 428" d="M417.218,552.468a4.859,4.859,0,0,0-2.324,2.545q0-1.09.006-2.181a4.861,4.861,0,0,1,2.324-2.546,13.27,13.27,0,0,1,12.042,0c1.667.963,2.506,2.225,2.512,3.487q0,1.09-.006,2.181c-.007-1.262-.845-2.524-2.512-3.487A13.27,13.27,0,0,0,417.218,552.468Z" transform="translate(-414.894 -548.842)" fill="#d69f76"/>
          </g>
          <g id="Group_471" data-name="Group 471" transform="translate(2.322 5.336)">
            <path id="Path_429" data-name="Path 429" d="M414.729,559.393a2.959,2.959,0,0,0-.151.918l.006-2.181a2.957,2.957,0,0,1,.151-.918q0,.546,0,1.091v.286c0,.139,0,.278,0,.417v.263A.912.912,0,0,1,414.729,559.393Z" transform="translate(-414.578 -557.212)" fill="#d69f76"/>
          </g>
          <g id="Group_472" data-name="Group 472" transform="translate(2.322 6.254)">
            <path id="Path_430" data-name="Path 430" d="M431.613,559.185l-.006,2.181c0,1.254-.828,2.506-2.475,3.464a13.268,13.268,0,0,1-12.041,0c-1.679-.97-2.517-2.242-2.514-3.512l.006-2.181c0,1.27.835,2.542,2.514,3.512a13.27,13.27,0,0,0,12.041,0C430.785,561.692,431.61,560.439,431.613,559.185Z" transform="translate(-414.578 -559.138)" fill="#d69f76"/>
          </g>
          <g id="Group_473" data-name="Group 473" transform="translate(19.351 6.277)">
            <path id="Path_431" data-name="Path 431" d="M450.3,561.392v-.024q0-1.09.006-2.181v.024C450.3,559.865,450.3,560.738,450.3,561.392Z" transform="translate(-450.3 -559.187)" fill="#d69f76"/>
          </g>
          <g id="Group_474" data-name="Group 474" transform="translate(2.328 1.346)">
            <path id="Path_432" data-name="Path 432" d="M429.107,550.286c3.335,1.925,3.353,5.048.038,6.975a13.27,13.27,0,0,1-12.041,0c-3.336-1.926-3.354-5.049-.039-6.976A13.272,13.272,0,0,1,429.107,550.286Z" transform="translate(-414.591 -548.842)" fill="#d69f76"/>
          </g>
          <path id="Path_433" data-name="Path 433" d="M417.068,551.5a13.269,13.269,0,0,1,12.042,0,4.658,4.658,0,0,1,2.445,2.895c.312-1.461-.5-2.989-2.445-4.111a13.272,13.272,0,0,0-12.042,0c-1.917,1.114-2.717,2.628-2.408,4.08A4.612,4.612,0,0,1,417.068,551.5Z" transform="translate(-412.265 -547.496)" fill="#967257"/>
          <g id="Group_475" data-name="Group 475" transform="translate(0 6.246)">
            <path id="Path_434" data-name="Path 434" d="M431.387,559.183l-.006,2.181c0,1.6-1.054,3.19-3.15,4.409a16.889,16.889,0,0,1-15.324,0c-2.137-1.234-3.2-2.854-3.2-4.471l.006-2.181c0,1.617,1.063,3.236,3.2,4.471a16.889,16.889,0,0,0,15.324,0C430.333,562.373,431.383,560.779,431.387,559.183Z" transform="translate(-409.707 -559.121)" fill="#967257"/>
          </g>
          <g id="Group_476" data-name="Group 476" transform="translate(0.007)">
            <path id="Path_435" data-name="Path 435" d="M428.2,547.857c4.245,2.451,4.267,6.425.048,8.878a16.889,16.889,0,0,1-15.324,0c-4.247-2.452-4.269-6.426-.052-8.878A16.89,16.89,0,0,1,428.2,547.857Zm-13.64,7.927a13.27,13.27,0,0,0,12.041,0c3.315-1.926,3.3-5.049-.038-6.975a13.27,13.27,0,0,0-12.042,0c-3.315,1.926-3.3,5.049.039,6.976" transform="translate(-409.721 -546.019)" fill="#d69f76"/>
          </g>
        </g>
      </g>
      <g id="Group_487" data-name="Group 487" transform="translate(1.142)">
        <g id="Group_486" data-name="Group 486">
          <g id="Group_479" data-name="Group 479" transform="translate(2.472 1.346)">
            <path id="Path_436" data-name="Path 436" d="M419.454,547.566a4.86,4.86,0,0,0-2.324,2.546l.006-2.182a4.861,4.861,0,0,1,2.324-2.545,13.27,13.27,0,0,1,12.042,0c1.668.963,2.506,2.225,2.513,3.487q0,1.091-.006,2.181c-.007-1.262-.845-2.524-2.513-3.487A13.268,13.268,0,0,0,419.454,547.566Z" transform="translate(-417.13 -543.94)" fill="#d69f76"/>
          </g>
          <g id="Group_480" data-name="Group 480" transform="translate(2.322 5.336)">
            <path id="Path_437" data-name="Path 437" d="M416.965,554.492a2.955,2.955,0,0,0-.151.918l.006-2.182a2.961,2.961,0,0,1,.151-.918q0,.546,0,1.091v.286c0,.139,0,.278,0,.417v.263A.847.847,0,0,1,416.965,554.492Z" transform="translate(-416.814 -552.31)" fill="#d69f76"/>
          </g>
          <g id="Group_481" data-name="Group 481" transform="translate(2.322 6.254)">
            <path id="Path_438" data-name="Path 438" d="M433.849,554.283l-.006,2.181c0,1.254-.828,2.506-2.475,3.464a13.267,13.267,0,0,1-12.04,0c-1.679-.97-2.517-2.242-2.514-3.512l.006-2.181c0,1.27.835,2.542,2.514,3.512a13.267,13.267,0,0,0,12.04,0C433.021,556.79,433.846,555.537,433.849,554.283Z" transform="translate(-416.814 -554.236)" fill="#d69f76"/>
          </g>
          <g id="Group_482" data-name="Group 482" transform="translate(19.351 6.277)">
            <path id="Path_439" data-name="Path 439" d="M452.537,556.491v-.024q0-1.091.006-2.181v.024C452.541,554.963,452.539,555.836,452.537,556.491Z" transform="translate(-452.537 -554.285)" fill="#d69f76"/>
          </g>
          <g id="Group_483" data-name="Group 483" transform="translate(2.328 1.346)">
            <path id="Path_440" data-name="Path 440" d="M431.344,545.385c3.335,1.925,3.353,5.048.038,6.975a13.267,13.267,0,0,1-12.04,0c-3.336-1.926-3.354-5.049-.04-6.975A13.27,13.27,0,0,1,431.344,545.385Z" transform="translate(-416.827 -543.94)" fill="#d69f76"/>
          </g>
          <path id="Path_441" data-name="Path 441" d="M419.3,546.6a13.269,13.269,0,0,1,12.042,0,4.658,4.658,0,0,1,2.445,2.895c.312-1.461-.5-2.989-2.445-4.111a13.27,13.27,0,0,0-12.042,0c-1.917,1.114-2.717,2.628-2.407,4.079A4.614,4.614,0,0,1,419.3,546.6Z" transform="translate(-414.502 -542.594)" fill="#967257"/>
          <g id="Group_484" data-name="Group 484" transform="translate(0 6.246)">
            <path id="Path_442" data-name="Path 442" d="M433.624,554.281l-.006,2.181c0,1.6-1.053,3.19-3.15,4.409a16.89,16.89,0,0,1-15.325,0c-2.137-1.234-3.2-2.854-3.2-4.471l.006-2.181c0,1.617,1.063,3.236,3.2,4.471a16.89,16.89,0,0,0,15.325,0C432.57,557.471,433.62,555.877,433.624,554.281Z" transform="translate(-411.944 -554.219)" fill="#967257"/>
          </g>
          <g id="Group_485" data-name="Group 485" transform="translate(0.006)">
            <path id="Path_443" data-name="Path 443" d="M430.432,542.956c4.245,2.451,4.267,6.426.049,8.878a16.89,16.89,0,0,1-15.325,0c-4.246-2.452-4.269-6.426-.051-8.877A16.889,16.889,0,0,1,430.432,542.956Zm-13.64,7.927a13.267,13.267,0,0,0,12.04,0c3.315-1.926,3.3-5.049-.038-6.975a13.27,13.27,0,0,0-12.042,0c-3.315,1.926-3.3,5.049.04,6.975" transform="translate(-411.957 -541.117)" fill="#d69f76"/>
          </g>
        </g>
      </g>
    </g>
  </g>
</svg>
