<svg xmlns="http://www.w3.org/2000/svg" width="80.793" height="115.433" viewBox="0 0 80.793 115.433">
  <g id="Group_555" data-name="Group 555" transform="translate(-960.203 -344.837)">
    <g id="Group_221" data-name="Group 221" transform="translate(972.903 344.836)">
      <g id="Group_130" data-name="Group 130" transform="translate(0.882 44.696)">
        <g id="Group_129" data-name="Group 129">
          <g id="Group_122" data-name="Group 122" transform="translate(4.482 2.439)">
            <path id="Path_118" data-name="Path 118" d="M217.378,484.972a8.811,8.811,0,0,0-4.213,4.615q.006-1.977.011-3.954a8.809,8.809,0,0,1,4.212-4.614c6.009-3.492,15.781-3.492,21.829,0,3.023,1.745,4.542,4.033,4.554,6.321q-.005,1.977-.011,3.954c-.013-2.288-1.532-4.576-4.555-6.321C233.158,481.48,223.386,481.48,217.378,484.972Z" transform="translate(-213.165 -478.399)" fill="#ffd025"/>
          </g>
          <g id="Group_123" data-name="Group 123" transform="translate(4.209 9.673)">
            <path id="Path_119" data-name="Path 119" d="M212.819,498.755a5.366,5.366,0,0,0-.273,1.663l.011-3.954a5.353,5.353,0,0,1,.273-1.663q0,.988-.006,1.977c0,.155,0,.362,0,.517l0,.756c0,.143,0,.334,0,.477A1.623,1.623,0,0,1,212.819,498.755Z" transform="translate(-212.546 -494.801)" fill="#ffd025"/>
          </g>
          <g id="Group_124" data-name="Group 124" transform="translate(4.209 11.336)">
            <path id="Path_120" data-name="Path 120" d="M243.426,498.659l-.011,3.954c-.007,2.273-1.5,4.544-4.486,6.278-6.009,3.492-15.781,3.492-21.826,0-3.043-1.757-4.563-4.063-4.557-6.366l.011-3.954c-.006,2.3,1.513,4.609,4.557,6.366,6.045,3.49,15.817,3.49,21.826,0C241.925,503.2,243.42,500.932,243.426,498.659Z" transform="translate(-212.546 -498.573)" fill="#fcca0d"/>
          </g>
          <g id="Group_125" data-name="Group 125" transform="translate(35.078 11.379)">
            <path id="Path_121" data-name="Path 121" d="M282.544,502.668v-.044q.005-1.977.011-3.954v.044C282.552,499.9,282.547,501.482,282.544,502.668Z" transform="translate(-282.544 -498.67)" fill="#ffd025"/>
          </g>
          <g id="Group_126" data-name="Group 126" transform="translate(4.22 2.439)">
            <path id="Path_122" data-name="Path 122" d="M238.886,481.017c6.045,3.49,6.077,9.151.068,12.642s-15.781,3.492-21.826,0-6.08-9.152-.071-12.644S232.838,477.526,238.886,481.017Z" transform="translate(-212.571 -478.399)" fill="#fcca0d"/>
          </g>
          <path id="Path_123" data-name="Path 123" d="M217.062,483.223c6.009-3.492,15.781-3.492,21.829,0,2.549,1.472,4.024,3.329,4.433,5.247.566-2.649-.911-5.419-4.433-7.452-6.048-3.492-15.82-3.492-21.829,0-3.475,2.019-4.925,4.763-4.364,7.394C213.1,486.515,214.555,484.68,217.062,483.223Z" transform="translate(-208.357 -475.959)" fill="#d99a32"/>
          <g id="Group_127" data-name="Group 127" transform="translate(0 11.322)">
            <path id="Path_124" data-name="Path 124" d="M242.3,498.653l-.011,3.954c-.008,2.893-1.91,5.783-5.71,7.991-7.645,4.443-20.083,4.443-27.778,0-3.874-2.237-5.808-5.172-5.8-8.1l.011-3.954c-.008,2.931,1.926,5.867,5.8,8.1,7.695,4.443,20.133,4.443,27.778,0C240.392,504.436,242.294,501.547,242.3,498.653Z" transform="translate(-203.002 -498.541)" fill="#d99a32"/>
          </g>
          <g id="Group_128" data-name="Group 128" transform="translate(0.011)">
            <path id="Path_125" data-name="Path 125" d="M236.519,476.2c7.695,4.443,7.736,11.648.088,16.092s-20.083,4.443-27.778,0-7.739-11.649-.094-16.092S228.821,471.756,236.519,476.2ZM211.794,490.57c6.045,3.49,15.817,3.49,21.826,0s5.977-9.152-.068-12.642-15.82-3.492-21.829,0-5.977,9.152.071,12.644" transform="translate(-203.028 -472.867)" fill="#ffd025"/>
          </g>
        </g>
      </g>
      <g id="Group_139" data-name="Group 139" transform="translate(0.882 40.227)">
        <g id="Group_138" data-name="Group 138">
          <g id="Group_131" data-name="Group 131" transform="translate(4.482 2.439)">
            <path id="Path_126" data-name="Path 126" d="M217.378,474.837a8.812,8.812,0,0,0-4.213,4.614q.006-1.977.011-3.954a8.81,8.81,0,0,1,4.212-4.615c6.009-3.492,15.781-3.492,21.829,0,3.023,1.745,4.542,4.033,4.554,6.321q-.005,1.977-.011,3.954c-.013-2.288-1.532-4.576-4.555-6.321C233.158,471.345,223.386,471.345,217.378,474.837Z" transform="translate(-213.165 -468.263)" fill="#ffd025"/>
          </g>
          <g id="Group_132" data-name="Group 132" transform="translate(4.209 9.673)">
            <path id="Path_127" data-name="Path 127" d="M212.819,488.62a5.368,5.368,0,0,0-.273,1.663l.011-3.954a5.353,5.353,0,0,1,.273-1.663q0,.988-.006,1.977c0,.155,0,.362,0,.517l0,.756c0,.143,0,.334,0,.477A1.616,1.616,0,0,1,212.819,488.62Z" transform="translate(-212.546 -484.666)" fill="#ffd025"/>
          </g>
          <g id="Group_133" data-name="Group 133" transform="translate(4.209 11.336)">
            <path id="Path_128" data-name="Path 128" d="M243.426,488.524l-.011,3.954c-.007,2.274-1.5,4.544-4.486,6.279-6.009,3.492-15.781,3.492-21.826,0-3.043-1.757-4.563-4.063-4.557-6.366l.011-3.954c-.006,2.3,1.513,4.609,4.557,6.366,6.045,3.49,15.817,3.49,21.826,0C241.925,493.068,243.42,490.8,243.426,488.524Z" transform="translate(-212.546 -488.438)" fill="#fcca0d"/>
          </g>
          <g id="Group_134" data-name="Group 134" transform="translate(35.078 11.379)">
            <path id="Path_129" data-name="Path 129" d="M282.544,492.533v-.043q.005-1.977.011-3.954v.044C282.552,489.765,282.547,491.346,282.544,492.533Z" transform="translate(-282.544 -488.535)" fill="#ffd025"/>
          </g>
          <g id="Group_135" data-name="Group 135" transform="translate(4.22 2.439)">
            <path id="Path_130" data-name="Path 130" d="M238.886,470.882c6.045,3.49,6.077,9.151.068,12.642s-15.781,3.492-21.826,0-6.08-9.152-.071-12.644S232.838,467.391,238.886,470.882Z" transform="translate(-212.571 -468.263)" fill="#fcca0d"/>
          </g>
          <path id="Path_131" data-name="Path 131" d="M217.062,473.087c6.009-3.492,15.781-3.492,21.829,0,2.549,1.472,4.024,3.329,4.433,5.247.566-2.649-.911-5.419-4.433-7.452-6.048-3.492-15.82-3.492-21.829,0-3.475,2.019-4.925,4.764-4.364,7.395C213.1,476.38,214.555,474.545,217.062,473.087Z" transform="translate(-208.357 -465.824)" fill="#d99a32"/>
          <g id="Group_136" data-name="Group 136" transform="translate(0 11.322)">
            <path id="Path_132" data-name="Path 132" d="M242.3,488.518l-.011,3.954c-.008,2.893-1.91,5.783-5.71,7.991-7.645,4.443-20.083,4.443-27.778,0-3.874-2.237-5.808-5.172-5.8-8.1l.011-3.954c-.008,2.931,1.926,5.867,5.8,8.1,7.695,4.443,20.133,4.443,27.778,0C240.392,494.3,242.294,491.411,242.3,488.518Z" transform="translate(-203.002 -488.406)" fill="#d99a32"/>
          </g>
          <g id="Group_137" data-name="Group 137" transform="translate(0.011)">
            <path id="Path_133" data-name="Path 133" d="M236.519,466.066c7.695,4.443,7.736,11.648.088,16.092s-20.083,4.443-27.778,0-7.739-11.649-.094-16.092S228.821,461.621,236.519,466.066Zm-24.725,14.369c6.045,3.49,15.817,3.49,21.826,0s5.977-9.152-.068-12.642-15.82-3.492-21.829,0-5.977,9.152.071,12.644" transform="translate(-203.028 -462.733)" fill="#ffd025"/>
          </g>
        </g>
      </g>
      <g id="Group_148" data-name="Group 148" transform="translate(0 35.757)">
        <g id="Group_147" data-name="Group 147">
          <g id="Group_140" data-name="Group 140" transform="translate(4.482 2.439)">
            <path id="Path_134" data-name="Path 134" d="M215.378,464.7a8.812,8.812,0,0,0-4.213,4.614q.006-1.977.011-3.954a8.811,8.811,0,0,1,4.212-4.614c6.009-3.492,15.781-3.492,21.829,0,3.023,1.745,4.542,4.033,4.554,6.321q-.005,1.977-.011,3.954c-.013-2.288-1.532-4.575-4.555-6.32C231.158,461.21,221.386,461.21,215.378,464.7Z" transform="translate(-211.165 -458.129)" fill="#ffd025"/>
          </g>
          <g id="Group_141" data-name="Group 141" transform="translate(4.209 9.672)">
            <path id="Path_135" data-name="Path 135" d="M210.819,478.484a5.366,5.366,0,0,0-.273,1.663l.011-3.954a5.356,5.356,0,0,1,.273-1.663q0,.989-.006,1.977c0,.155,0,.362,0,.517l0,.756c0,.143,0,.334,0,.477A1.617,1.617,0,0,1,210.819,478.484Z" transform="translate(-210.546 -474.53)" fill="#ffd025"/>
          </g>
          <g id="Group_142" data-name="Group 142" transform="translate(4.209 11.336)">
            <path id="Path_136" data-name="Path 136" d="M241.426,478.389l-.011,3.954c-.007,2.273-1.5,4.544-4.486,6.278-6.009,3.492-15.781,3.492-21.826,0-3.043-1.757-4.563-4.063-4.557-6.366l.011-3.954c-.006,2.3,1.513,4.609,4.557,6.366,6.045,3.491,15.817,3.49,21.826,0C239.925,482.932,241.42,480.662,241.426,478.389Z" transform="translate(-210.546 -478.303)" fill="#fcca0d"/>
          </g>
          <g id="Group_143" data-name="Group 143" transform="translate(35.078 11.379)">
            <path id="Path_137" data-name="Path 137" d="M280.544,482.4v-.044q.005-1.977.011-3.954v.043C280.552,479.629,280.547,481.211,280.544,482.4Z" transform="translate(-280.544 -478.4)" fill="#ffd025"/>
          </g>
          <g id="Group_144" data-name="Group 144" transform="translate(4.22 2.439)">
            <path id="Path_138" data-name="Path 138" d="M236.886,460.747c6.045,3.49,6.077,9.15.068,12.642s-15.781,3.492-21.826,0-6.08-9.152-.071-12.644S230.838,457.256,236.886,460.747Z" transform="translate(-210.571 -458.129)" fill="#fcca0d"/>
          </g>
          <path id="Path_139" data-name="Path 139" d="M215.062,462.952c6.009-3.492,15.781-3.492,21.829,0,2.549,1.472,4.024,3.329,4.433,5.247.566-2.649-.911-5.419-4.433-7.452-6.048-3.492-15.82-3.492-21.829,0-3.475,2.019-4.925,4.764-4.364,7.395C211.1,466.244,212.555,464.409,215.062,462.952Z" transform="translate(-206.357 -455.689)" fill="#d99a32"/>
          <g id="Group_145" data-name="Group 145" transform="translate(0 11.321)">
            <path id="Path_140" data-name="Path 140" d="M240.3,478.382l-.011,3.954c-.008,2.894-1.91,5.783-5.71,7.991-7.645,4.443-20.083,4.443-27.778,0-3.874-2.237-5.808-5.172-5.8-8.1l.011-3.954c-.008,2.931,1.926,5.867,5.8,8.1,7.695,4.443,20.133,4.443,27.778,0C238.392,484.165,240.294,481.276,240.3,478.382Z" transform="translate(-201.002 -478.27)" fill="#d99a32"/>
          </g>
          <g id="Group_146" data-name="Group 146" transform="translate(0.011)">
            <path id="Path_141" data-name="Path 141" d="M234.519,455.931c7.695,4.443,7.736,11.647.088,16.091s-20.083,4.443-27.778,0-7.739-11.649-.094-16.092S226.821,451.486,234.519,455.931ZM209.794,470.3c6.045,3.49,15.817,3.49,21.826,0s5.977-9.152-.068-12.642-15.82-3.492-21.829,0-5.977,9.152.071,12.644" transform="translate(-201.028 -452.598)" fill="#ffd025"/>
          </g>
        </g>
      </g>
      <g id="Group_157" data-name="Group 157" transform="translate(1.764 31.287)">
        <g id="Group_156" data-name="Group 156">
          <g id="Group_149" data-name="Group 149" transform="translate(4.482 2.439)">
            <path id="Path_142" data-name="Path 142" d="M219.378,454.566a8.813,8.813,0,0,0-4.213,4.615q.006-1.977.011-3.954a8.809,8.809,0,0,1,4.212-4.614c6.009-3.492,15.781-3.492,21.829,0,3.023,1.745,4.542,4.033,4.554,6.321q-.005,1.977-.011,3.954c-.013-2.288-1.532-4.576-4.555-6.321C235.158,451.074,225.386,451.074,219.378,454.566Z" transform="translate(-215.165 -447.993)" fill="#ffd025"/>
          </g>
          <g id="Group_150" data-name="Group 150" transform="translate(4.209 9.673)">
            <path id="Path_143" data-name="Path 143" d="M214.819,468.349a5.366,5.366,0,0,0-.273,1.663l.011-3.954a5.353,5.353,0,0,1,.273-1.663q0,.988-.006,1.977c0,.155,0,.363,0,.518l0,.756c0,.143,0,.334,0,.477A1.623,1.623,0,0,1,214.819,468.349Z" transform="translate(-214.546 -464.395)" fill="#ffd025"/>
          </g>
          <g id="Group_151" data-name="Group 151" transform="translate(4.209 11.336)">
            <path id="Path_144" data-name="Path 144" d="M245.426,468.253l-.011,3.954c-.007,2.273-1.5,4.544-4.486,6.278-6.009,3.492-15.781,3.492-21.826,0-3.043-1.757-4.563-4.063-4.557-6.366l.011-3.954c-.006,2.3,1.513,4.609,4.557,6.366,6.045,3.49,15.817,3.49,21.826,0C243.925,472.8,245.42,470.526,245.426,468.253Z" transform="translate(-214.546 -468.167)" fill="#fcca0d"/>
          </g>
          <g id="Group_152" data-name="Group 152" transform="translate(35.078 11.379)">
            <path id="Path_145" data-name="Path 145" d="M284.544,472.262v-.044q.005-1.977.011-3.954v.044C284.552,469.494,284.547,471.076,284.544,472.262Z" transform="translate(-284.544 -468.264)" fill="#ffd025"/>
          </g>
          <g id="Group_153" data-name="Group 153" transform="translate(4.22 2.439)">
            <path id="Path_146" data-name="Path 146" d="M240.886,450.612c6.045,3.49,6.077,9.151.068,12.642s-15.781,3.492-21.826,0-6.08-9.152-.071-12.644S234.838,447.12,240.886,450.612Z" transform="translate(-214.571 -447.993)" fill="#fcca0d"/>
          </g>
          <path id="Path_147" data-name="Path 147" d="M219.062,452.817c6.009-3.492,15.781-3.492,21.829,0,2.549,1.472,4.024,3.329,4.433,5.247.566-2.649-.911-5.419-4.433-7.452-6.048-3.491-15.82-3.491-21.829,0-3.475,2.019-4.925,4.764-4.364,7.394C215.1,456.109,216.555,454.274,219.062,452.817Z" transform="translate(-210.357 -445.554)" fill="#d99a32"/>
          <g id="Group_154" data-name="Group 154" transform="translate(0 11.322)">
            <path id="Path_148" data-name="Path 148" d="M244.3,468.247l-.011,3.954c-.008,2.894-1.91,5.783-5.71,7.991-7.645,4.443-20.083,4.443-27.778,0-3.874-2.237-5.808-5.172-5.8-8.1l.011-3.954c-.008,2.931,1.926,5.867,5.8,8.1,7.695,4.443,20.133,4.443,27.778,0C242.392,474.03,244.294,471.141,244.3,468.247Z" transform="translate(-205.002 -468.135)" fill="#d99a32"/>
          </g>
          <g id="Group_155" data-name="Group 155" transform="translate(0.011)">
            <path id="Path_149" data-name="Path 149" d="M238.519,445.795c7.695,4.443,7.736,11.648.088,16.092s-20.083,4.443-27.778,0-7.739-11.649-.094-16.091S230.821,441.35,238.519,445.795Zm-24.725,14.369c6.045,3.49,15.817,3.49,21.826,0s5.977-9.152-.068-12.642-15.82-3.491-21.829,0-5.977,9.152.071,12.644" transform="translate(-205.028 -442.462)" fill="#ffd025"/>
          </g>
        </g>
      </g>
      <g id="Group_166" data-name="Group 166" transform="translate(0 26.818)">
        <g id="Group_165" data-name="Group 165">
          <g id="Group_158" data-name="Group 158" transform="translate(4.482 2.439)">
            <path id="Path_150" data-name="Path 150" d="M215.378,444.431a8.812,8.812,0,0,0-4.213,4.614q.006-1.977.011-3.954a8.812,8.812,0,0,1,4.212-4.615c6.009-3.492,15.781-3.492,21.829,0,3.023,1.745,4.542,4.033,4.554,6.321q-.005,1.977-.011,3.954c-.013-2.288-1.532-4.576-4.555-6.321C231.158,440.939,221.386,440.939,215.378,444.431Z" transform="translate(-211.165 -437.858)" fill="#ffd025"/>
          </g>
          <g id="Group_159" data-name="Group 159" transform="translate(4.209 9.673)">
            <path id="Path_151" data-name="Path 151" d="M210.819,458.214a5.371,5.371,0,0,0-.273,1.664l.011-3.954a5.354,5.354,0,0,1,.273-1.663q0,.988-.006,1.977c0,.155,0,.362,0,.517l0,.756c0,.143,0,.334,0,.477A1.617,1.617,0,0,1,210.819,458.214Z" transform="translate(-210.546 -454.26)" fill="#ffd025"/>
          </g>
          <g id="Group_160" data-name="Group 160" transform="translate(4.209 11.336)">
            <path id="Path_152" data-name="Path 152" d="M241.426,458.118l-.011,3.954c-.007,2.273-1.5,4.544-4.486,6.278-6.009,3.492-15.781,3.492-21.826,0-3.043-1.757-4.563-4.063-4.557-6.366l.011-3.954c-.006,2.3,1.513,4.609,4.557,6.366,6.045,3.49,15.817,3.49,21.826,0C239.925,462.662,241.42,460.391,241.426,458.118Z" transform="translate(-210.546 -458.032)" fill="#fcca0d"/>
          </g>
          <g id="Group_161" data-name="Group 161" transform="translate(35.078 11.379)">
            <path id="Path_153" data-name="Path 153" d="M280.544,462.127v-.044q.005-1.977.011-3.954v.044C280.552,459.359,280.547,460.941,280.544,462.127Z" transform="translate(-280.544 -458.129)" fill="#ffd025"/>
          </g>
          <g id="Group_162" data-name="Group 162" transform="translate(4.22 2.439)">
            <path id="Path_154" data-name="Path 154" d="M236.886,440.476c6.045,3.49,6.077,9.151.068,12.642s-15.781,3.492-21.826,0-6.08-9.152-.071-12.644S230.838,436.985,236.886,440.476Z" transform="translate(-210.571 -437.858)" fill="#fcca0d"/>
          </g>
          <path id="Path_155" data-name="Path 155" d="M215.062,442.681c6.009-3.492,15.781-3.492,21.829,0,2.549,1.472,4.024,3.329,4.433,5.247.566-2.649-.911-5.419-4.433-7.452-6.048-3.492-15.82-3.492-21.829,0-3.475,2.019-4.925,4.764-4.364,7.395C211.1,445.974,212.555,444.139,215.062,442.681Z" transform="translate(-206.357 -435.418)" fill="#d99a32"/>
          <g id="Group_163" data-name="Group 163" transform="translate(0 11.322)">
            <path id="Path_156" data-name="Path 156" d="M240.3,458.112l-.011,3.954c-.008,2.893-1.91,5.783-5.71,7.991-7.645,4.443-20.083,4.443-27.778,0-3.874-2.237-5.808-5.172-5.8-8.1l.011-3.954c-.008,2.931,1.926,5.867,5.8,8.1,7.695,4.443,20.133,4.443,27.778,0C238.392,463.9,240.294,461.006,240.3,458.112Z" transform="translate(-201.002 -458)" fill="#d99a32"/>
          </g>
          <g id="Group_164" data-name="Group 164" transform="translate(0.011)">
            <path id="Path_157" data-name="Path 157" d="M234.519,435.66c7.695,4.443,7.736,11.648.088,16.092s-20.083,4.443-27.778,0-7.739-11.649-.094-16.092S226.821,431.215,234.519,435.66Zm-24.725,14.369c6.045,3.49,15.817,3.49,21.826,0s5.977-9.152-.068-12.642-15.82-3.492-21.829,0-5.977,9.152.071,12.644" transform="translate(-201.028 -432.326)" fill="#ffd025"/>
          </g>
        </g>
      </g>
      <g id="Group_175" data-name="Group 175" transform="translate(0.882 22.348)">
        <g id="Group_174" data-name="Group 174">
          <g id="Group_167" data-name="Group 167" transform="translate(4.482 2.439)">
            <path id="Path_158" data-name="Path 158" d="M217.378,434.3a8.812,8.812,0,0,0-4.213,4.614q.006-1.977.011-3.954a8.811,8.811,0,0,1,4.212-4.614c6.009-3.492,15.781-3.492,21.829,0,3.023,1.745,4.542,4.033,4.554,6.321q-.005,1.977-.011,3.954c-.013-2.288-1.532-4.576-4.555-6.321C233.158,430.8,223.386,430.8,217.378,434.3Z" transform="translate(-213.165 -427.723)" fill="#ffd025"/>
          </g>
          <g id="Group_168" data-name="Group 168" transform="translate(4.209 9.672)">
            <path id="Path_159" data-name="Path 159" d="M212.819,448.078a5.368,5.368,0,0,0-.273,1.663l.011-3.954a5.356,5.356,0,0,1,.273-1.664q0,.989-.006,1.977c0,.155,0,.362,0,.517l0,.756c0,.143,0,.334,0,.477A1.617,1.617,0,0,1,212.819,448.078Z" transform="translate(-212.546 -444.124)" fill="#ffd025"/>
          </g>
          <g id="Group_169" data-name="Group 169" transform="translate(4.209 11.336)">
            <path id="Path_160" data-name="Path 160" d="M243.426,447.983l-.011,3.954c-.007,2.273-1.5,4.544-4.486,6.278-6.009,3.492-15.781,3.492-21.826,0-3.043-1.757-4.563-4.063-4.557-6.366l.011-3.954c-.006,2.3,1.513,4.609,4.557,6.366,6.045,3.49,15.817,3.49,21.826,0C241.925,452.527,243.42,450.256,243.426,447.983Z" transform="translate(-212.546 -447.897)" fill="#fcca0d"/>
          </g>
          <g id="Group_170" data-name="Group 170" transform="translate(35.078 11.379)">
            <path id="Path_161" data-name="Path 161" d="M282.544,451.992v-.043q.005-1.977.011-3.954v.044C282.552,449.224,282.547,450.805,282.544,451.992Z" transform="translate(-282.544 -447.994)" fill="#ffd025"/>
          </g>
          <g id="Group_171" data-name="Group 171" transform="translate(4.22 2.439)">
            <path id="Path_162" data-name="Path 162" d="M238.886,430.341c6.045,3.49,6.077,9.151.068,12.642s-15.781,3.492-21.826,0-6.08-9.152-.071-12.644S232.838,426.85,238.886,430.341Z" transform="translate(-212.571 -427.723)" fill="#fcca0d"/>
          </g>
          <path id="Path_163" data-name="Path 163" d="M217.062,432.546c6.009-3.492,15.781-3.492,21.829,0,2.549,1.472,4.024,3.329,4.433,5.247.566-2.649-.911-5.419-4.433-7.452-6.048-3.492-15.82-3.492-21.829,0-3.475,2.019-4.925,4.764-4.364,7.395C213.1,435.839,214.555,434,217.062,432.546Z" transform="translate(-208.357 -425.283)" fill="#d99a32"/>
          <g id="Group_172" data-name="Group 172" transform="translate(0 11.322)">
            <path id="Path_164" data-name="Path 164" d="M242.3,447.977l-.011,3.954c-.008,2.893-1.91,5.783-5.71,7.991-7.645,4.443-20.083,4.443-27.778,0-3.874-2.237-5.808-5.172-5.8-8.1l.011-3.954c-.008,2.931,1.926,5.867,5.8,8.1,7.695,4.443,20.133,4.443,27.778,0C240.392,453.76,242.294,450.87,242.3,447.977Z" transform="translate(-203.002 -447.865)" fill="#d99a32"/>
          </g>
          <g id="Group_173" data-name="Group 173" transform="translate(0.011)">
            <path id="Path_165" data-name="Path 165" d="M236.519,425.525c7.695,4.443,7.736,11.647.088,16.092s-20.083,4.443-27.778,0-7.739-11.649-.094-16.092S228.821,421.08,236.519,425.525Zm-24.725,14.369c6.045,3.49,15.817,3.49,21.826,0s5.977-9.152-.068-12.642-15.82-3.492-21.829,0-5.977,9.152.071,12.644" transform="translate(-203.028 -422.191)" fill="#ffd025"/>
          </g>
        </g>
      </g>
      <g id="Group_184" data-name="Group 184" transform="translate(1.764 18.32)">
        <g id="Group_183" data-name="Group 183">
          <g id="Group_176" data-name="Group 176" transform="translate(4.482 2.439)">
            <path id="Path_166" data-name="Path 166" d="M219.378,425.161a8.81,8.81,0,0,0-4.213,4.614q.006-1.977.011-3.954a8.811,8.811,0,0,1,4.212-4.614c6.009-3.492,15.781-3.492,21.829,0,3.023,1.745,4.542,4.032,4.554,6.321q-.005,1.977-.011,3.954c-.013-2.288-1.532-4.575-4.555-6.321C235.158,421.669,225.386,421.669,219.378,425.161Z" transform="translate(-215.165 -418.587)" fill="#ffd025"/>
          </g>
          <g id="Group_177" data-name="Group 177" transform="translate(4.209 9.672)">
            <path id="Path_167" data-name="Path 167" d="M214.819,438.943a5.366,5.366,0,0,0-.273,1.663l.011-3.954a5.353,5.353,0,0,1,.273-1.663q0,.989-.006,1.977c0,.155,0,.362,0,.518l0,.756c0,.143,0,.334,0,.477A1.622,1.622,0,0,1,214.819,438.943Z" transform="translate(-214.546 -434.989)" fill="#ffd025"/>
          </g>
          <g id="Group_178" data-name="Group 178" transform="translate(4.209 11.336)">
            <path id="Path_168" data-name="Path 168" d="M245.426,438.848l-.011,3.954c-.007,2.273-1.5,4.544-4.486,6.278-6.009,3.492-15.781,3.492-21.826,0-3.043-1.757-4.563-4.063-4.557-6.366l.011-3.954c-.006,2.3,1.513,4.609,4.557,6.366,6.045,3.49,15.817,3.49,21.826,0C243.925,443.391,245.42,441.121,245.426,438.848Z" transform="translate(-214.546 -438.762)" fill="#fcca0d"/>
          </g>
          <g id="Group_179" data-name="Group 179" transform="translate(35.078 11.379)">
            <path id="Path_169" data-name="Path 169" d="M284.544,442.857v-.044q.005-1.977.011-3.954v.043C284.552,440.089,284.547,441.67,284.544,442.857Z" transform="translate(-284.544 -438.859)" fill="#ffd025"/>
          </g>
          <g id="Group_180" data-name="Group 180" transform="translate(4.22 2.439)">
            <path id="Path_170" data-name="Path 170" d="M240.886,421.206c6.045,3.49,6.077,9.15.068,12.642s-15.781,3.492-21.826,0-6.08-9.152-.071-12.644S234.838,417.715,240.886,421.206Z" transform="translate(-214.571 -418.587)" fill="#fcca0d"/>
          </g>
          <path id="Path_171" data-name="Path 171" d="M219.062,423.411c6.009-3.492,15.781-3.492,21.829,0,2.549,1.471,4.024,3.329,4.433,5.247.566-2.649-.911-5.419-4.433-7.452-6.048-3.492-15.82-3.492-21.829,0-3.475,2.019-4.925,4.764-4.364,7.395C215.1,426.7,216.555,424.868,219.062,423.411Z" transform="translate(-210.357 -416.148)" fill="#d99a32"/>
          <g id="Group_181" data-name="Group 181" transform="translate(0 11.322)">
            <path id="Path_172" data-name="Path 172" d="M244.3,438.841l-.011,3.954c-.008,2.894-1.91,5.783-5.71,7.991-7.645,4.443-20.083,4.443-27.778,0-3.874-2.236-5.808-5.172-5.8-8.1l.011-3.954c-.008,2.931,1.926,5.867,5.8,8.1,7.695,4.443,20.133,4.443,27.778,0C242.392,444.624,244.294,441.735,244.3,438.841Z" transform="translate(-205.002 -438.729)" fill="#d99a32"/>
          </g>
          <g id="Group_182" data-name="Group 182" transform="translate(0.011)">
            <path id="Path_173" data-name="Path 173" d="M238.519,416.389c7.695,4.443,7.736,11.648.088,16.092s-20.083,4.443-27.778,0-7.739-11.649-.094-16.092S230.821,411.945,238.519,416.389Zm-24.725,14.369c6.045,3.49,15.817,3.49,21.826,0s5.977-9.152-.068-12.642-15.82-3.492-21.829,0-5.977,9.152.071,12.644" transform="translate(-205.028 -413.056)" fill="#ffd025"/>
          </g>
        </g>
      </g>
      <g id="Group_193" data-name="Group 193" transform="translate(0 13.409)">
        <g id="Group_192" data-name="Group 192">
          <g id="Group_185" data-name="Group 185" transform="translate(4.482 2.439)">
            <path id="Path_174" data-name="Path 174" d="M215.378,414.025a8.811,8.811,0,0,0-4.213,4.615q.006-1.977.011-3.954a8.809,8.809,0,0,1,4.212-4.614c6.009-3.492,15.781-3.492,21.829,0,3.023,1.745,4.542,4.033,4.554,6.321q-.005,1.977-.011,3.954c-.013-2.288-1.532-4.576-4.555-6.321C231.158,410.533,221.386,410.533,215.378,414.025Z" transform="translate(-211.165 -407.452)" fill="#ffd025"/>
          </g>
          <g id="Group_186" data-name="Group 186" transform="translate(4.209 9.673)">
            <path id="Path_175" data-name="Path 175" d="M210.819,427.808a5.366,5.366,0,0,0-.273,1.663l.011-3.954a5.354,5.354,0,0,1,.273-1.663q0,.988-.006,1.977c0,.155,0,.362,0,.517l0,.756c0,.143,0,.334,0,.477A1.623,1.623,0,0,1,210.819,427.808Z" transform="translate(-210.546 -423.854)" fill="#ffd025"/>
          </g>
          <g id="Group_187" data-name="Group 187" transform="translate(4.209 11.336)">
            <path id="Path_176" data-name="Path 176" d="M241.426,427.712l-.011,3.954c-.007,2.273-1.5,4.544-4.486,6.278-6.009,3.492-15.781,3.492-21.826,0-3.043-1.757-4.563-4.063-4.557-6.366l.011-3.954c-.006,2.3,1.513,4.609,4.557,6.366,6.045,3.49,15.817,3.49,21.826,0C239.925,432.256,241.42,429.985,241.426,427.712Z" transform="translate(-210.546 -427.626)" fill="#fcca0d"/>
          </g>
          <g id="Group_188" data-name="Group 188" transform="translate(35.078 11.379)">
            <path id="Path_177" data-name="Path 177" d="M280.544,431.721v-.044q.005-1.977.011-3.954v.044C280.552,428.953,280.547,430.535,280.544,431.721Z" transform="translate(-280.544 -427.723)" fill="#ffd025"/>
          </g>
          <g id="Group_189" data-name="Group 189" transform="translate(4.22 2.439)">
            <path id="Path_178" data-name="Path 178" d="M236.886,410.07c6.045,3.49,6.077,9.151.068,12.642s-15.781,3.492-21.826,0-6.08-9.152-.071-12.644S230.838,406.579,236.886,410.07Z" transform="translate(-210.571 -407.452)" fill="#fcca0d"/>
          </g>
          <path id="Path_179" data-name="Path 179" d="M215.062,412.276c6.009-3.492,15.781-3.492,21.829,0,2.549,1.472,4.024,3.33,4.433,5.247.566-2.649-.911-5.419-4.433-7.452-6.048-3.492-15.82-3.492-21.829,0-3.475,2.019-4.925,4.763-4.364,7.394C211.1,415.568,212.555,413.733,215.062,412.276Z" transform="translate(-206.357 -405.012)" fill="#d99a32"/>
          <g id="Group_190" data-name="Group 190" transform="translate(0 11.322)">
            <path id="Path_180" data-name="Path 180" d="M240.3,427.706l-.011,3.954c-.008,2.893-1.91,5.783-5.71,7.991-7.645,4.443-20.083,4.443-27.778,0-3.874-2.237-5.808-5.172-5.8-8.1l.011-3.954c-.008,2.931,1.926,5.867,5.8,8.1,7.695,4.443,20.133,4.443,27.778,0C238.392,433.489,240.294,430.6,240.3,427.706Z" transform="translate(-201.002 -427.594)" fill="#d99a32"/>
          </g>
          <g id="Group_191" data-name="Group 191" transform="translate(0.011)">
            <path id="Path_181" data-name="Path 181" d="M234.519,405.254c7.695,4.443,7.736,11.648.088,16.092s-20.083,4.443-27.778,0-7.739-11.649-.094-16.092S226.821,400.809,234.519,405.254Zm-24.725,14.369c6.045,3.49,15.817,3.49,21.826,0s5.977-9.152-.068-12.642-15.82-3.492-21.829,0-5.977,9.152.071,12.644" transform="translate(-201.028 -401.92)" fill="#ffd025"/>
          </g>
        </g>
      </g>
      <g id="Group_202" data-name="Group 202" transform="translate(1.764 8.939)">
        <g id="Group_201" data-name="Group 201">
          <g id="Group_194" data-name="Group 194" transform="translate(4.482 2.439)">
            <path id="Path_182" data-name="Path 182" d="M219.378,403.89a8.812,8.812,0,0,0-4.213,4.614q.006-1.977.011-3.954a8.81,8.81,0,0,1,4.212-4.615c6.009-3.492,15.781-3.492,21.829,0,3.023,1.745,4.542,4.033,4.554,6.321q-.005,1.977-.011,3.954c-.013-2.288-1.532-4.576-4.555-6.321C235.158,400.4,225.386,400.4,219.378,403.89Z" transform="translate(-215.165 -397.316)" fill="#ffd025"/>
          </g>
          <g id="Group_195" data-name="Group 195" transform="translate(4.209 9.673)">
            <path id="Path_183" data-name="Path 183" d="M214.819,417.673a5.368,5.368,0,0,0-.273,1.663l.011-3.954a5.353,5.353,0,0,1,.273-1.663q0,.988-.006,1.977c0,.155,0,.362,0,.517l0,.756c0,.143,0,.334,0,.477A1.617,1.617,0,0,1,214.819,417.673Z" transform="translate(-214.546 -413.719)" fill="#ffd025"/>
          </g>
          <g id="Group_196" data-name="Group 196" transform="translate(4.209 11.336)">
            <path id="Path_184" data-name="Path 184" d="M245.426,417.577l-.011,3.954c-.007,2.274-1.5,4.544-4.486,6.278-6.009,3.492-15.781,3.492-21.826,0-3.043-1.757-4.563-4.063-4.557-6.366l.011-3.954c-.006,2.3,1.513,4.609,4.557,6.366,6.045,3.49,15.817,3.49,21.826,0C243.925,422.121,245.42,419.85,245.426,417.577Z" transform="translate(-214.546 -417.491)" fill="#fcca0d"/>
          </g>
          <g id="Group_197" data-name="Group 197" transform="translate(35.078 11.379)">
            <path id="Path_185" data-name="Path 185" d="M284.544,421.586v-.043q.005-1.977.011-3.954v.044C284.552,418.818,284.547,420.4,284.544,421.586Z" transform="translate(-284.544 -417.588)" fill="#ffd025"/>
          </g>
          <g id="Group_198" data-name="Group 198" transform="translate(4.22 2.439)">
            <path id="Path_186" data-name="Path 186" d="M240.886,399.935c6.045,3.49,6.077,9.151.068,12.642s-15.781,3.492-21.826,0-6.08-9.152-.071-12.644S234.838,396.444,240.886,399.935Z" transform="translate(-214.571 -397.316)" fill="#fcca0d"/>
          </g>
          <path id="Path_187" data-name="Path 187" d="M219.062,402.14c6.009-3.492,15.781-3.492,21.829,0,2.549,1.472,4.024,3.329,4.433,5.247.566-2.649-.911-5.419-4.433-7.452-6.048-3.492-15.82-3.492-21.829,0-3.475,2.019-4.925,4.764-4.364,7.395C215.1,405.433,216.555,403.6,219.062,402.14Z" transform="translate(-210.357 -394.877)" fill="#d99a32"/>
          <g id="Group_199" data-name="Group 199" transform="translate(0 11.322)">
            <path id="Path_188" data-name="Path 188" d="M244.3,417.571l-.011,3.954c-.008,2.893-1.91,5.783-5.71,7.991-7.645,4.443-20.083,4.443-27.778,0-3.874-2.237-5.808-5.172-5.8-8.1l.011-3.954c-.008,2.931,1.926,5.867,5.8,8.1,7.695,4.443,20.133,4.443,27.778,0C242.392,423.354,244.294,420.464,244.3,417.571Z" transform="translate(-205.002 -417.459)" fill="#d99a32"/>
          </g>
          <g id="Group_200" data-name="Group 200" transform="translate(0.011)">
            <path id="Path_189" data-name="Path 189" d="M238.519,395.119c7.695,4.443,7.736,11.648.088,16.092s-20.083,4.443-27.778,0-7.739-11.649-.094-16.092S230.821,390.674,238.519,395.119Zm-24.725,14.369c6.045,3.49,15.817,3.49,21.826,0s5.977-9.152-.068-12.642-15.82-3.492-21.829,0-5.977,9.152.071,12.644" transform="translate(-205.028 -391.785)" fill="#ffd025"/>
          </g>
        </g>
      </g>
      <g id="Group_211" data-name="Group 211" transform="translate(0.441 4.47)">
        <g id="Group_210" data-name="Group 210">
          <g id="Group_203" data-name="Group 203" transform="translate(4.482 2.439)">
            <path id="Path_190" data-name="Path 190" d="M216.378,393.755a8.812,8.812,0,0,0-4.213,4.614q.006-1.977.011-3.954a8.811,8.811,0,0,1,4.212-4.614c6.009-3.492,15.781-3.492,21.829,0,3.023,1.745,4.542,4.033,4.554,6.321q-.005,1.977-.011,3.954c-.013-2.288-1.532-4.575-4.555-6.321C232.158,390.263,222.386,390.263,216.378,393.755Z" transform="translate(-212.165 -387.181)" fill="#ffd025"/>
          </g>
          <g id="Group_204" data-name="Group 204" transform="translate(4.209 9.672)">
            <path id="Path_191" data-name="Path 191" d="M211.819,407.537a5.366,5.366,0,0,0-.273,1.663l.011-3.954a5.355,5.355,0,0,1,.273-1.663q0,.989-.006,1.977c0,.155,0,.362,0,.517l0,.756c0,.143,0,.334,0,.477A1.617,1.617,0,0,1,211.819,407.537Z" transform="translate(-211.546 -403.583)" fill="#ffd025"/>
          </g>
          <g id="Group_205" data-name="Group 205" transform="translate(4.209 11.336)">
            <path id="Path_192" data-name="Path 192" d="M242.426,407.442l-.011,3.954c-.007,2.273-1.5,4.544-4.486,6.278-6.009,3.492-15.781,3.492-21.826,0-3.043-1.757-4.563-4.063-4.557-6.366l.011-3.954c-.006,2.3,1.513,4.609,4.557,6.366,6.045,3.49,15.817,3.49,21.826,0C240.925,411.985,242.42,409.715,242.426,407.442Z" transform="translate(-211.546 -407.356)" fill="#fcca0d"/>
          </g>
          <g id="Group_206" data-name="Group 206" transform="translate(35.078 11.379)">
            <path id="Path_193" data-name="Path 193" d="M281.544,411.451v-.044q.005-1.977.011-3.954v.043C281.552,408.682,281.547,410.264,281.544,411.451Z" transform="translate(-281.544 -407.453)" fill="#ffd025"/>
          </g>
          <g id="Group_207" data-name="Group 207" transform="translate(4.22 2.439)">
            <path id="Path_194" data-name="Path 194" d="M237.886,389.8c6.045,3.49,6.077,9.15.068,12.642s-15.781,3.492-21.826,0-6.08-9.152-.071-12.644S231.838,386.309,237.886,389.8Z" transform="translate(-211.571 -387.181)" fill="#fcca0d"/>
          </g>
          <path id="Path_195" data-name="Path 195" d="M216.062,392.005c6.009-3.492,15.781-3.492,21.829,0,2.549,1.472,4.024,3.329,4.433,5.247.566-2.649-.911-5.419-4.433-7.452-6.048-3.492-15.82-3.492-21.829,0-3.475,2.019-4.925,4.764-4.364,7.395C212.1,395.3,213.555,393.462,216.062,392.005Z" transform="translate(-207.357 -384.742)" fill="#d99a32"/>
          <g id="Group_208" data-name="Group 208" transform="translate(0 11.321)">
            <path id="Path_196" data-name="Path 196" d="M241.3,407.435l-.011,3.954c-.008,2.894-1.91,5.783-5.71,7.991-7.645,4.443-20.083,4.443-27.778,0-3.874-2.237-5.808-5.172-5.8-8.1l.011-3.954c-.008,2.931,1.926,5.867,5.8,8.1,7.695,4.443,20.133,4.443,27.778,0C239.392,413.218,241.294,410.329,241.3,407.435Z" transform="translate(-202.002 -407.323)" fill="#d99a32"/>
          </g>
          <g id="Group_209" data-name="Group 209" transform="translate(0.011)">
            <path id="Path_197" data-name="Path 197" d="M235.519,384.984c7.695,4.443,7.736,11.647.088,16.091s-20.083,4.443-27.778,0-7.739-11.649-.094-16.092S227.821,380.539,235.519,384.984Zm-24.725,14.368c6.045,3.49,15.817,3.49,21.826,0s5.977-9.152-.068-12.642-15.82-3.492-21.829,0-5.977,9.152.071,12.644" transform="translate(-202.028 -381.651)" fill="#ffd025"/>
          </g>
        </g>
      </g>
      <g id="Group_220" data-name="Group 220" transform="translate(0.882 0)">
        <g id="Group_219" data-name="Group 219">
          <g id="Group_212" data-name="Group 212" transform="translate(4.482 2.439)">
            <path id="Path_198" data-name="Path 198" d="M217.378,383.619a8.813,8.813,0,0,0-4.213,4.615q.006-1.977.011-3.954a8.81,8.81,0,0,1,4.212-4.614c6.009-3.492,15.781-3.492,21.829,0,3.023,1.745,4.542,4.033,4.554,6.321q-.005,1.977-.011,3.954c-.013-2.288-1.532-4.576-4.555-6.321C233.158,380.127,223.386,380.127,217.378,383.619Z" transform="translate(-213.165 -377.046)" fill="#ffd025"/>
          </g>
          <g id="Group_213" data-name="Group 213" transform="translate(4.209 9.673)">
            <path id="Path_199" data-name="Path 199" d="M212.819,397.4a5.366,5.366,0,0,0-.273,1.663l.011-3.954a5.353,5.353,0,0,1,.273-1.663q0,.988-.006,1.977c0,.155,0,.362,0,.518l0,.756c0,.143,0,.334,0,.477A1.623,1.623,0,0,1,212.819,397.4Z" transform="translate(-212.546 -393.448)" fill="#ffd025"/>
          </g>
          <g id="Group_214" data-name="Group 214" transform="translate(4.209 11.336)">
            <path id="Path_200" data-name="Path 200" d="M243.426,397.306l-.011,3.954c-.007,2.273-1.5,4.544-4.486,6.278-6.009,3.492-15.781,3.492-21.826,0-3.043-1.757-4.563-4.063-4.557-6.366l.011-3.954c-.006,2.3,1.513,4.609,4.557,6.366,6.045,3.49,15.817,3.49,21.826,0C241.925,401.85,243.42,399.579,243.426,397.306Z" transform="translate(-212.546 -397.22)" fill="#fcca0d"/>
          </g>
          <g id="Group_215" data-name="Group 215" transform="translate(35.078 11.379)">
            <path id="Path_201" data-name="Path 201" d="M282.544,401.315v-.044q.005-1.977.011-3.954v.044C282.552,398.547,282.547,400.129,282.544,401.315Z" transform="translate(-282.544 -397.317)" fill="#ffd025"/>
          </g>
          <g id="Group_216" data-name="Group 216" transform="translate(4.22 2.439)">
            <path id="Path_202" data-name="Path 202" d="M238.886,379.665c6.045,3.49,6.077,9.151.068,12.642s-15.781,3.492-21.826,0-6.08-9.152-.071-12.644S232.838,376.173,238.886,379.665Z" transform="translate(-212.571 -377.046)" fill="#fcca0d"/>
          </g>
          <path id="Path_203" data-name="Path 203" d="M217.062,381.87c6.009-3.492,15.781-3.492,21.829,0,2.549,1.472,4.024,3.33,4.433,5.247.566-2.649-.911-5.418-4.433-7.452-6.048-3.491-15.82-3.491-21.829,0-3.475,2.019-4.925,4.763-4.364,7.394C213.1,385.162,214.555,383.327,217.062,381.87Z" transform="translate(-208.357 -374.607)" fill="#d99a32"/>
          <g id="Group_217" data-name="Group 217" transform="translate(0 11.322)">
            <path id="Path_204" data-name="Path 204" d="M242.3,397.3l-.011,3.954c-.008,2.894-1.91,5.783-5.71,7.991-7.645,4.443-20.083,4.443-27.778,0-3.874-2.237-5.808-5.172-5.8-8.1l.011-3.954c-.008,2.931,1.926,5.867,5.8,8.1,7.695,4.443,20.133,4.443,27.778,0C240.392,403.083,242.294,400.194,242.3,397.3Z" transform="translate(-203.002 -397.188)" fill="#d99a32"/>
          </g>
          <g id="Group_218" data-name="Group 218" transform="translate(0.011)">
            <path id="Path_205" data-name="Path 205" d="M236.519,374.848c7.695,4.443,7.736,11.648.088,16.092s-20.083,4.443-27.778,0-7.739-11.649-.094-16.091S228.821,370.4,236.519,374.848Zm-24.725,14.369c6.045,3.49,15.817,3.49,21.826,0s5.977-9.152-.068-12.642-15.82-3.491-21.829,0-5.977,9.152.071,12.644" transform="translate(-203.028 -371.515)" fill="#ffd025"/>
          </g>
        </g>
      </g>
    </g>
    <g id="Group_267" data-name="Group 267" transform="translate(999.933 389.995)">
      <g id="Group_230" data-name="Group 230" transform="translate(0.882 17.879)">
        <g id="Group_229" data-name="Group 229">
          <g id="Group_222" data-name="Group 222" transform="translate(4.481 2.439)">
            <path id="Path_208" data-name="Path 208" d="M278.669,526.562a8.812,8.812,0,0,0-4.213,4.614q.006-1.977.011-3.954a8.811,8.811,0,0,1,4.212-4.614c6.009-3.492,15.781-3.492,21.829,0,3.023,1.745,4.542,4.032,4.554,6.321l-.011,3.954c-.012-2.288-1.532-4.575-4.555-6.321C294.449,523.069,284.677,523.07,278.669,526.562Z" transform="translate(-274.456 -519.989)" fill="#ffd025"/>
          </g>
          <g id="Group_223" data-name="Group 223" transform="translate(4.208 9.672)">
            <path id="Path_209" data-name="Path 209" d="M274.11,540.344a5.365,5.365,0,0,0-.273,1.663l.011-3.954a5.354,5.354,0,0,1,.273-1.663q0,.989-.006,1.977v.518l0,.756c0,.143,0,.334,0,.477A1.629,1.629,0,0,1,274.11,540.344Z" transform="translate(-273.837 -536.39)" fill="#ffd025"/>
          </g>
          <g id="Group_224" data-name="Group 224" transform="translate(4.208 11.336)">
            <path id="Path_210" data-name="Path 210" d="M304.717,540.249l-.011,3.954c-.007,2.273-1.5,4.544-4.486,6.279-6.009,3.492-15.781,3.492-21.826,0-3.043-1.757-4.563-4.063-4.557-6.366l.011-3.954c-.007,2.3,1.513,4.609,4.557,6.366,6.045,3.49,15.817,3.49,21.826,0C303.216,544.792,304.711,542.522,304.717,540.249Z" transform="translate(-273.837 -540.163)" fill="#fcca0d"/>
          </g>
          <g id="Group_225" data-name="Group 225" transform="translate(35.077 11.379)">
            <path id="Path_211" data-name="Path 211" d="M343.835,544.258v-.044q.005-1.977.011-3.954v.043C343.843,541.49,343.838,543.071,343.835,544.258Z" transform="translate(-343.835 -540.26)" fill="#ffd025"/>
          </g>
          <g id="Group_226" data-name="Group 226" transform="translate(4.22 2.439)">
            <path id="Path_212" data-name="Path 212" d="M300.177,522.607c6.045,3.49,6.077,9.15.068,12.642s-15.781,3.492-21.826,0-6.08-9.152-.071-12.644S294.129,519.116,300.177,522.607Z" transform="translate(-273.863 -519.989)" fill="#fcca0d"/>
          </g>
          <path id="Path_213" data-name="Path 213" d="M278.353,524.812c6.009-3.492,15.781-3.492,21.829,0,2.549,1.472,4.024,3.329,4.433,5.247.566-2.649-.911-5.419-4.433-7.452-6.048-3.492-15.82-3.492-21.829,0-3.475,2.019-4.925,4.764-4.364,7.395C274.395,528.1,275.846,526.269,278.353,524.812Z" transform="translate(-269.648 -517.549)" fill="#d99a32"/>
          <g id="Group_227" data-name="Group 227" transform="translate(0 11.321)">
            <path id="Path_214" data-name="Path 214" d="M303.593,540.242l-.011,3.954c-.008,2.894-1.91,5.783-5.71,7.991-7.645,4.443-20.083,4.443-27.778,0-3.874-2.236-5.809-5.172-5.8-8.1l.011-3.954c-.008,2.931,1.926,5.867,5.8,8.1,7.695,4.443,20.133,4.443,27.778,0C301.683,546.025,303.585,543.136,303.593,540.242Z" transform="translate(-264.294 -540.13)" fill="#d99a32"/>
          </g>
          <g id="Group_228" data-name="Group 228" transform="translate(0.011)">
            <path id="Path_215" data-name="Path 215" d="M297.81,517.791c7.695,4.443,7.735,11.647.088,16.091s-20.083,4.443-27.778,0-7.739-11.649-.093-16.092S290.112,513.346,297.81,517.791Zm-24.725,14.369c6.045,3.49,15.817,3.49,21.826,0s5.977-9.152-.068-12.642-15.82-3.492-21.829,0-5.976,9.152.071,12.644" transform="translate(-264.319 -514.458)" fill="#ffd025"/>
          </g>
        </g>
      </g>
      <g id="Group_239" data-name="Group 239" transform="translate(0.882 13.409)">
        <g id="Group_238" data-name="Group 238">
          <g id="Group_231" data-name="Group 231" transform="translate(4.481 2.439)">
            <path id="Path_216" data-name="Path 216" d="M278.669,516.426a8.813,8.813,0,0,0-4.213,4.615q.006-1.977.011-3.954a8.81,8.81,0,0,1,4.212-4.614c6.009-3.492,15.781-3.492,21.829,0,3.023,1.745,4.542,4.033,4.554,6.321l-.011,3.954c-.012-2.288-1.532-4.576-4.555-6.321C294.449,512.934,284.677,512.934,278.669,516.426Z" transform="translate(-274.456 -509.853)" fill="#ffd025"/>
          </g>
          <g id="Group_232" data-name="Group 232" transform="translate(4.208 9.673)">
            <path id="Path_217" data-name="Path 217" d="M274.11,530.209a5.365,5.365,0,0,0-.273,1.663l.011-3.954a5.354,5.354,0,0,1,.273-1.663q0,.988-.006,1.977v.518l0,.756c0,.143,0,.334,0,.477A1.63,1.63,0,0,1,274.11,530.209Z" transform="translate(-273.837 -526.255)" fill="#ffd025"/>
          </g>
          <g id="Group_233" data-name="Group 233" transform="translate(4.208 11.336)">
            <path id="Path_218" data-name="Path 218" d="M304.717,530.113l-.011,3.954c-.007,2.273-1.5,4.544-4.486,6.279-6.009,3.492-15.781,3.492-21.826,0-3.043-1.757-4.563-4.063-4.557-6.366l.011-3.954c-.007,2.3,1.513,4.609,4.557,6.366,6.045,3.49,15.817,3.49,21.826,0C303.216,534.657,304.711,532.386,304.717,530.113Z" transform="translate(-273.837 -530.027)" fill="#fcca0d"/>
          </g>
          <g id="Group_234" data-name="Group 234" transform="translate(35.077 11.379)">
            <path id="Path_219" data-name="Path 219" d="M343.835,534.122v-.044q.005-1.977.011-3.954v.044C343.843,531.354,343.838,532.936,343.835,534.122Z" transform="translate(-343.835 -530.124)" fill="#ffd025"/>
          </g>
          <g id="Group_235" data-name="Group 235" transform="translate(4.22 2.439)">
            <path id="Path_220" data-name="Path 220" d="M300.177,512.472c6.045,3.49,6.077,9.151.068,12.642s-15.781,3.492-21.826,0-6.08-9.152-.071-12.644S294.129,508.98,300.177,512.472Z" transform="translate(-273.863 -509.853)" fill="#fcca0d"/>
          </g>
          <path id="Path_221" data-name="Path 221" d="M278.353,514.677c6.009-3.492,15.781-3.492,21.829,0,2.549,1.472,4.024,3.329,4.433,5.247.566-2.649-.911-5.419-4.433-7.452-6.048-3.492-15.82-3.491-21.829,0-3.475,2.019-4.925,4.763-4.364,7.394C274.395,517.969,275.846,516.134,278.353,514.677Z" transform="translate(-269.648 -507.414)" fill="#d99a32"/>
          <g id="Group_236" data-name="Group 236" transform="translate(0 11.322)">
            <path id="Path_222" data-name="Path 222" d="M303.593,530.107l-.011,3.954c-.008,2.893-1.91,5.783-5.71,7.991-7.645,4.443-20.083,4.443-27.778,0-3.874-2.237-5.809-5.172-5.8-8.1l.011-3.954c-.008,2.931,1.926,5.867,5.8,8.1,7.695,4.443,20.133,4.443,27.778,0C301.683,535.89,303.585,533,303.593,530.107Z" transform="translate(-264.294 -529.995)" fill="#d99a32"/>
          </g>
          <g id="Group_237" data-name="Group 237" transform="translate(0.011)">
            <path id="Path_223" data-name="Path 223" d="M297.81,507.655c7.695,4.443,7.735,11.648.088,16.092s-20.083,4.443-27.778,0-7.739-11.649-.093-16.091S290.112,503.21,297.81,507.655Zm-24.725,14.369c6.045,3.49,15.817,3.49,21.826,0s5.977-9.152-.068-12.642-15.82-3.491-21.829,0-5.976,9.152.071,12.644" transform="translate(-264.319 -504.322)" fill="#ffd025"/>
          </g>
        </g>
      </g>
      <g id="Group_248" data-name="Group 248" transform="translate(0 8.939)">
        <g id="Group_247" data-name="Group 247">
          <g id="Group_240" data-name="Group 240" transform="translate(4.481 2.439)">
            <path id="Path_224" data-name="Path 224" d="M276.669,506.291a8.814,8.814,0,0,0-4.213,4.614q.006-1.977.011-3.954a8.81,8.81,0,0,1,4.212-4.615c6.009-3.492,15.781-3.492,21.829,0,3.023,1.745,4.542,4.033,4.554,6.321l-.011,3.954c-.012-2.288-1.532-4.576-4.555-6.321C292.449,502.8,282.677,502.8,276.669,506.291Z" transform="translate(-272.456 -499.717)" fill="#ffd025"/>
          </g>
          <g id="Group_241" data-name="Group 241" transform="translate(4.208 9.673)">
            <path id="Path_225" data-name="Path 225" d="M272.11,520.074a5.366,5.366,0,0,0-.273,1.663l.011-3.954a5.354,5.354,0,0,1,.273-1.663q0,.988-.006,1.977v.517l0,.756c0,.143,0,.334,0,.477A1.624,1.624,0,0,1,272.11,520.074Z" transform="translate(-271.837 -516.12)" fill="#ffd025"/>
          </g>
          <g id="Group_242" data-name="Group 242" transform="translate(4.208 11.336)">
            <path id="Path_226" data-name="Path 226" d="M302.717,519.978l-.011,3.954c-.007,2.274-1.5,4.544-4.486,6.279-6.009,3.492-15.781,3.492-21.826,0-3.043-1.757-4.563-4.063-4.557-6.366l.011-3.954c-.007,2.3,1.513,4.609,4.557,6.366,6.045,3.49,15.817,3.49,21.826,0C301.216,524.522,302.711,522.251,302.717,519.978Z" transform="translate(-271.837 -519.892)" fill="#fcca0d"/>
          </g>
          <g id="Group_243" data-name="Group 243" transform="translate(35.077 11.379)">
            <path id="Path_227" data-name="Path 227" d="M341.835,523.987v-.043q.005-1.977.011-3.954v.044C341.843,521.219,341.838,522.8,341.835,523.987Z" transform="translate(-341.835 -519.989)" fill="#ffd025"/>
          </g>
          <g id="Group_244" data-name="Group 244" transform="translate(4.22 2.439)">
            <path id="Path_228" data-name="Path 228" d="M298.177,502.336c6.045,3.49,6.077,9.151.068,12.642s-15.781,3.492-21.826,0-6.08-9.152-.071-12.644S292.129,498.845,298.177,502.336Z" transform="translate(-271.863 -499.717)" fill="#fcca0d"/>
          </g>
          <path id="Path_229" data-name="Path 229" d="M276.354,504.541c6.009-3.492,15.781-3.492,21.829,0,2.549,1.472,4.024,3.329,4.433,5.247.566-2.649-.911-5.419-4.433-7.452-6.048-3.492-15.82-3.492-21.829,0-3.475,2.019-4.925,4.764-4.364,7.395C272.395,507.834,273.846,506,276.354,504.541Z" transform="translate(-267.648 -497.278)" fill="#d99a32"/>
          <g id="Group_245" data-name="Group 245" transform="translate(0 11.322)">
            <path id="Path_230" data-name="Path 230" d="M301.593,519.972l-.011,3.954c-.008,2.893-1.91,5.783-5.71,7.991-7.645,4.443-20.083,4.443-27.778,0-3.874-2.237-5.809-5.172-5.8-8.1l.011-3.954c-.008,2.931,1.926,5.867,5.8,8.1,7.695,4.443,20.133,4.443,27.778,0C299.683,525.755,301.585,522.865,301.593,519.972Z" transform="translate(-262.294 -519.86)" fill="#d99a32"/>
          </g>
          <g id="Group_246" data-name="Group 246" transform="translate(0.011)">
            <path id="Path_231" data-name="Path 231" d="M295.81,497.52c7.695,4.443,7.735,11.648.088,16.092s-20.083,4.443-27.778,0-7.739-11.649-.093-16.092S288.112,493.075,295.81,497.52Zm-24.725,14.369c6.045,3.49,15.817,3.49,21.826,0s5.977-9.152-.068-12.642-15.82-3.492-21.829,0-5.976,9.152.071,12.644" transform="translate(-262.319 -494.187)" fill="#ffd025"/>
          </g>
        </g>
      </g>
      <g id="Group_257" data-name="Group 257" transform="translate(1.764 4.47)">
        <g id="Group_256" data-name="Group 256">
          <g id="Group_249" data-name="Group 249" transform="translate(4.481 2.439)">
            <path id="Path_232" data-name="Path 232" d="M280.669,496.156a8.814,8.814,0,0,0-4.213,4.614q.006-1.977.011-3.954a8.811,8.811,0,0,1,4.212-4.614c6.009-3.492,15.781-3.492,21.829,0,3.023,1.745,4.542,4.033,4.554,6.321l-.011,3.954c-.012-2.288-1.532-4.576-4.555-6.321C296.449,492.664,286.677,492.664,280.669,496.156Z" transform="translate(-276.456 -489.582)" fill="#ffd025"/>
          </g>
          <g id="Group_250" data-name="Group 250" transform="translate(4.208 9.672)">
            <path id="Path_233" data-name="Path 233" d="M276.11,509.938a5.366,5.366,0,0,0-.273,1.663l.011-3.954a5.355,5.355,0,0,1,.273-1.663q0,.989-.006,1.977v.517l0,.756c0,.143,0,.334,0,.477A1.624,1.624,0,0,1,276.11,509.938Z" transform="translate(-275.837 -505.984)" fill="#ffd025"/>
          </g>
          <g id="Group_251" data-name="Group 251" transform="translate(4.208 11.336)">
            <path id="Path_234" data-name="Path 234" d="M306.717,509.843l-.011,3.954c-.007,2.273-1.5,4.544-4.486,6.278-6.009,3.492-15.781,3.492-21.826,0-3.043-1.757-4.563-4.063-4.557-6.366l.011-3.954c-.007,2.3,1.513,4.609,4.557,6.366,6.045,3.49,15.817,3.49,21.826,0C305.216,514.386,306.711,512.116,306.717,509.843Z" transform="translate(-275.837 -509.757)" fill="#fcca0d"/>
          </g>
          <g id="Group_252" data-name="Group 252" transform="translate(35.077 11.379)">
            <path id="Path_235" data-name="Path 235" d="M345.835,513.852v-.044q.005-1.977.011-3.954v.043C345.843,511.083,345.838,512.665,345.835,513.852Z" transform="translate(-345.835 -509.854)" fill="#ffd025"/>
          </g>
          <g id="Group_253" data-name="Group 253" transform="translate(4.22 2.439)">
            <path id="Path_236" data-name="Path 236" d="M302.177,492.2c6.045,3.49,6.077,9.15.068,12.642s-15.781,3.492-21.826,0-6.08-9.152-.071-12.644S296.129,488.71,302.177,492.2Z" transform="translate(-275.863 -489.582)" fill="#fcca0d"/>
          </g>
          <path id="Path_237" data-name="Path 237" d="M280.353,494.406c6.009-3.492,15.781-3.492,21.829,0,2.549,1.472,4.024,3.329,4.433,5.247.566-2.649-.911-5.419-4.433-7.452-6.048-3.492-15.82-3.492-21.829,0-3.475,2.019-4.925,4.764-4.364,7.395C276.395,497.7,277.846,495.863,280.353,494.406Z" transform="translate(-271.648 -487.143)" fill="#d99a32"/>
          <g id="Group_254" data-name="Group 254" transform="translate(0 11.321)">
            <path id="Path_238" data-name="Path 238" d="M305.593,509.836l-.011,3.954c-.008,2.894-1.91,5.783-5.71,7.991-7.645,4.443-20.083,4.443-27.778,0-3.874-2.237-5.809-5.172-5.8-8.1l.011-3.954c-.008,2.931,1.926,5.867,5.8,8.1,7.695,4.443,20.133,4.443,27.778,0C303.683,515.619,305.585,512.73,305.593,509.836Z" transform="translate(-266.294 -509.724)" fill="#d99a32"/>
          </g>
          <g id="Group_255" data-name="Group 255" transform="translate(0.011)">
            <path id="Path_239" data-name="Path 239" d="M299.81,487.385c7.695,4.443,7.735,11.647.088,16.092s-20.083,4.443-27.778,0-7.739-11.649-.093-16.092S292.112,482.94,299.81,487.385Zm-24.725,14.369c6.045,3.49,15.817,3.49,21.826,0s5.977-9.152-.068-12.642-15.82-3.492-21.829,0-5.976,9.152.071,12.644" transform="translate(-266.319 -484.052)" fill="#ffd025"/>
          </g>
        </g>
      </g>
      <g id="Group_266" data-name="Group 266" transform="translate(0 0)">
        <g id="Group_265" data-name="Group 265">
          <g id="Group_258" data-name="Group 258" transform="translate(4.481 2.439)">
            <path id="Path_240" data-name="Path 240" d="M276.669,486.02a8.814,8.814,0,0,0-4.213,4.615q.006-1.977.011-3.954a8.809,8.809,0,0,1,4.212-4.614c6.009-3.492,15.781-3.492,21.829,0,3.023,1.745,4.542,4.033,4.554,6.321l-.011,3.954c-.012-2.288-1.532-4.576-4.555-6.321C292.449,482.528,282.677,482.528,276.669,486.02Z" transform="translate(-272.456 -479.447)" fill="#ffd025"/>
          </g>
          <g id="Group_259" data-name="Group 259" transform="translate(4.208 9.673)">
            <path id="Path_241" data-name="Path 241" d="M272.11,499.8a5.365,5.365,0,0,0-.273,1.663l.011-3.954a5.354,5.354,0,0,1,.273-1.663q0,.988-.006,1.977v.518l0,.756c0,.143,0,.334,0,.477A1.63,1.63,0,0,1,272.11,499.8Z" transform="translate(-271.837 -495.849)" fill="#ffd025"/>
          </g>
          <g id="Group_260" data-name="Group 260" transform="translate(4.208 11.336)">
            <path id="Path_242" data-name="Path 242" d="M302.717,499.707l-.011,3.954c-.007,2.273-1.5,4.544-4.486,6.278-6.009,3.492-15.781,3.492-21.826,0-3.043-1.757-4.563-4.063-4.557-6.366l.011-3.954c-.007,2.3,1.513,4.609,4.557,6.366,6.045,3.49,15.817,3.49,21.826,0C301.216,504.251,302.711,501.98,302.717,499.707Z" transform="translate(-271.837 -499.621)" fill="#fcca0d"/>
          </g>
          <g id="Group_261" data-name="Group 261" transform="translate(35.077 11.379)">
            <path id="Path_243" data-name="Path 243" d="M341.835,503.716v-.044q.005-1.977.011-3.954v.044C341.843,500.948,341.838,502.53,341.835,503.716Z" transform="translate(-341.835 -499.718)" fill="#ffd025"/>
          </g>
          <g id="Group_262" data-name="Group 262" transform="translate(4.22 2.439)">
            <path id="Path_244" data-name="Path 244" d="M298.177,482.066c6.045,3.49,6.077,9.151.068,12.642s-15.781,3.492-21.826,0-6.08-9.152-.071-12.644S292.129,478.574,298.177,482.066Z" transform="translate(-271.863 -479.447)" fill="#fcca0d"/>
          </g>
          <path id="Path_245" data-name="Path 245" d="M276.354,484.271c6.009-3.492,15.781-3.492,21.829,0,2.549,1.472,4.024,3.33,4.433,5.247.566-2.649-.911-5.419-4.433-7.452-6.048-3.491-15.82-3.491-21.829,0-3.475,2.019-4.925,4.764-4.364,7.394C272.395,487.563,273.846,485.728,276.354,484.271Z" transform="translate(-267.648 -477.008)" fill="#d99a32"/>
          <g id="Group_263" data-name="Group 263" transform="translate(0 11.322)">
            <path id="Path_246" data-name="Path 246" d="M301.593,499.7l-.011,3.954c-.008,2.894-1.91,5.783-5.71,7.991-7.645,4.443-20.083,4.443-27.778,0-3.874-2.237-5.809-5.172-5.8-8.1l.011-3.954c-.008,2.931,1.926,5.867,5.8,8.1,7.695,4.443,20.133,4.443,27.778,0C299.683,505.484,301.585,502.595,301.593,499.7Z" transform="translate(-262.294 -499.589)" fill="#d99a32"/>
          </g>
          <g id="Group_264" data-name="Group 264" transform="translate(0.011)">
            <path id="Path_247" data-name="Path 247" d="M295.81,477.249c7.695,4.443,7.735,11.648.088,16.092s-20.083,4.443-27.778,0-7.739-11.649-.093-16.092S288.112,472.8,295.81,477.249Zm-24.725,14.369c6.045,3.49,15.817,3.49,21.826,0s5.977-9.152-.068-12.642-15.82-3.491-21.829,0-5.976,9.152.071,12.644" transform="translate(-262.319 -473.916)" fill="#ffd025"/>
          </g>
        </g>
      </g>
    </g>
    <g id="Group_286" data-name="Group 286" transform="translate(960.203 413.351)">
      <g id="Group_276" data-name="Group 276" transform="translate(1.323 5.44)">
        <g id="Group_275" data-name="Group 275">
          <g id="Group_268" data-name="Group 268" transform="translate(4.482 2.439)">
            <path id="Path_249" data-name="Path 249" d="M189.578,551.319a8.811,8.811,0,0,0-4.212,4.614q.005-1.977.011-3.954a8.812,8.812,0,0,1,4.213-4.615c6.009-3.492,15.781-3.492,21.828,0,3.023,1.745,4.542,4.033,4.555,6.321l-.011,3.954c-.012-2.288-1.532-4.576-4.554-6.321C205.359,547.827,195.587,547.827,189.578,551.319Z" transform="translate(-185.366 -544.745)" fill="#ffd025"/>
          </g>
          <g id="Group_269" data-name="Group 269" transform="translate(4.209 9.673)">
            <path id="Path_250" data-name="Path 250" d="M185.02,565.1a5.358,5.358,0,0,0-.273,1.664l.011-3.954a5.366,5.366,0,0,1,.273-1.663l-.005,1.977c0,.155,0,.362,0,.517l0,.756c0,.143,0,.334,0,.477A1.554,1.554,0,0,1,185.02,565.1Z" transform="translate(-184.747 -561.148)" fill="#ffd025"/>
          </g>
          <g id="Group_270" data-name="Group 270" transform="translate(4.209 11.336)">
            <path id="Path_251" data-name="Path 251" d="M215.627,565.006l-.011,3.954c-.007,2.273-1.5,4.544-4.486,6.278-6.009,3.492-15.781,3.492-21.826,0-3.043-1.757-4.563-4.063-4.557-6.366l.011-3.954c-.007,2.3,1.513,4.609,4.557,6.366,6.045,3.49,15.817,3.49,21.826,0C214.126,569.55,215.62,567.279,215.627,565.006Z" transform="translate(-184.747 -564.92)" fill="#fcca0d"/>
          </g>
          <g id="Group_271" data-name="Group 271" transform="translate(35.077 11.379)">
            <path id="Path_252" data-name="Path 252" d="M254.744,569.015c0-.015,0-.029,0-.044q.006-1.977.011-3.954v.044C254.752,566.247,254.748,567.829,254.744,569.015Z" transform="translate(-254.744 -565.017)" fill="#ffd025"/>
          </g>
          <g id="Group_272" data-name="Group 272" transform="translate(4.22 2.439)">
            <path id="Path_253" data-name="Path 253" d="M211.086,547.364c6.045,3.49,6.077,9.151.068,12.642s-15.781,3.492-21.826,0-6.08-9.152-.071-12.644S205.038,543.873,211.086,547.364Z" transform="translate(-184.772 -544.745)" fill="#fcca0d"/>
          </g>
          <path id="Path_254" data-name="Path 254" d="M189.263,549.569c6.009-3.492,15.781-3.492,21.828,0,2.549,1.472,4.025,3.33,4.433,5.247.566-2.649-.911-5.419-4.433-7.452-6.048-3.492-15.82-3.492-21.828,0-3.475,2.019-4.925,4.764-4.365,7.395C185.3,552.862,186.756,551.027,189.263,549.569Z" transform="translate(-180.557 -542.306)" fill="#d99a32"/>
          <g id="Group_273" data-name="Group 273" transform="translate(0 11.322)">
            <path id="Path_255" data-name="Path 255" d="M214.5,565l-.011,3.954c-.008,2.893-1.91,5.783-5.71,7.991-7.645,4.443-20.083,4.443-27.778,0-3.874-2.237-5.809-5.172-5.8-8.1l.011-3.954c-.008,2.931,1.926,5.867,5.8,8.1,7.695,4.443,20.133,4.443,27.778,0C212.593,570.783,214.494,567.894,214.5,565Z" transform="translate(-175.203 -564.888)" fill="#d99a32"/>
          </g>
          <g id="Group_274" data-name="Group 274" transform="translate(0.011)">
            <path id="Path_256" data-name="Path 256" d="M208.719,542.548c7.7,4.443,7.736,11.648.088,16.092s-20.083,4.443-27.778,0-7.739-11.649-.093-16.092S201.022,538.1,208.719,542.548Zm-24.725,14.369c6.045,3.49,15.817,3.49,21.826,0s5.977-9.152-.068-12.642-15.82-3.492-21.828,0-5.977,9.152.071,12.644" transform="translate(-175.229 -539.214)" fill="#ffd025"/>
          </g>
        </g>
      </g>
      <g id="Group_285" data-name="Group 285" transform="translate(0 0)">
        <g id="Group_284" data-name="Group 284">
          <g id="Group_277" data-name="Group 277" transform="translate(4.482 2.439)">
            <path id="Path_257" data-name="Path 257" d="M186.578,538.983a8.812,8.812,0,0,0-4.212,4.615q.005-1.977.011-3.954a8.811,8.811,0,0,1,4.213-4.614c6.009-3.492,15.781-3.492,21.828,0,3.023,1.745,4.542,4.033,4.555,6.321l-.011,3.954c-.012-2.288-1.532-4.576-4.554-6.321C202.359,535.491,192.587,535.491,186.578,538.983Z" transform="translate(-182.366 -532.41)" fill="#ffd025"/>
          </g>
          <g id="Group_278" data-name="Group 278" transform="translate(4.209 9.673)">
            <path id="Path_258" data-name="Path 258" d="M182.02,552.766a5.353,5.353,0,0,0-.273,1.663l.011-3.954a5.366,5.366,0,0,1,.273-1.663l-.005,1.977c0,.155,0,.362,0,.518l0,.756c0,.143,0,.334,0,.477A1.56,1.56,0,0,1,182.02,552.766Z" transform="translate(-181.747 -548.812)" fill="#ffd025"/>
          </g>
          <g id="Group_279" data-name="Group 279" transform="translate(4.209 11.336)">
            <path id="Path_259" data-name="Path 259" d="M212.627,552.67l-.011,3.954c-.007,2.273-1.5,4.544-4.486,6.278-6.009,3.492-15.781,3.492-21.826,0-3.043-1.757-4.563-4.063-4.557-6.366l.011-3.954c-.007,2.3,1.513,4.609,4.557,6.366,6.045,3.49,15.817,3.49,21.826,0C211.126,557.214,212.62,554.943,212.627,552.67Z" transform="translate(-181.747 -552.584)" fill="#fcca0d"/>
          </g>
          <g id="Group_280" data-name="Group 280" transform="translate(35.077 11.379)">
            <path id="Path_260" data-name="Path 260" d="M251.744,556.679c0-.015,0-.029,0-.044q.006-1.977.011-3.954v.044C251.752,553.911,251.748,555.493,251.744,556.679Z" transform="translate(-251.744 -552.681)" fill="#ffd025"/>
          </g>
          <g id="Group_281" data-name="Group 281" transform="translate(4.22 2.439)">
            <path id="Path_261" data-name="Path 261" d="M208.086,535.029c6.045,3.49,6.077,9.151.068,12.642s-15.781,3.492-21.826,0-6.08-9.152-.071-12.644S202.038,531.537,208.086,535.029Z" transform="translate(-181.772 -532.41)" fill="#fcca0d"/>
          </g>
          <path id="Path_262" data-name="Path 262" d="M186.263,537.234c6.009-3.492,15.781-3.492,21.828,0,2.549,1.472,4.025,3.33,4.433,5.247.566-2.649-.911-5.419-4.433-7.452-6.048-3.492-15.82-3.492-21.828,0-3.475,2.019-4.925,4.763-4.365,7.394C182.3,540.526,183.756,538.691,186.263,537.234Z" transform="translate(-177.557 -529.97)" fill="#d99a32"/>
          <g id="Group_282" data-name="Group 282" transform="translate(0 11.322)">
            <path id="Path_263" data-name="Path 263" d="M211.5,552.664l-.011,3.954c-.008,2.893-1.91,5.783-5.71,7.991-7.645,4.443-20.083,4.443-27.778,0-3.874-2.237-5.809-5.172-5.8-8.1l.011-3.954c-.008,2.931,1.926,5.867,5.8,8.1,7.695,4.443,20.133,4.443,27.778,0C209.593,558.447,211.494,555.558,211.5,552.664Z" transform="translate(-172.203 -552.552)" fill="#d99a32"/>
          </g>
          <g id="Group_283" data-name="Group 283" transform="translate(0.011)">
            <path id="Path_264" data-name="Path 264" d="M205.719,530.212c7.7,4.443,7.736,11.648.088,16.092s-20.083,4.443-27.778,0-7.739-11.649-.093-16.092S198.022,525.767,205.719,530.212Zm-24.725,14.369c6.045,3.49,15.817,3.49,21.826,0s5.977-9.152-.068-12.642-15.82-3.491-21.828,0-5.977,9.152.071,12.644" transform="translate(-172.229 -526.879)" fill="#ffd025"/>
          </g>
        </g>
      </g>
    </g>
    <g id="Group_350" data-name="Group 350" transform="translate(999.653 423.918)">
      <g id="Group_295" data-name="Group 295" transform="translate(1.233 18.569)">
        <g id="Group_294" data-name="Group 294">
          <g id="Group_287" data-name="Group 287" transform="translate(2.983 1.624)">
            <path id="Path_265" data-name="Path 265" d="M274.026,601.005a5.868,5.868,0,0,0-2.8,3.072q0-1.316.008-2.632a5.866,5.866,0,0,1,2.8-3.072,16.011,16.011,0,0,1,14.531,0c2.012,1.161,3.023,2.685,3.032,4.208q0,1.316-.007,2.632c-.008-1.523-1.02-3.046-3.032-4.208A16.011,16.011,0,0,0,274.026,601.005Z" transform="translate(-271.222 -596.63)" fill="#def2ec"/>
          </g>
          <g id="Group_288" data-name="Group 288" transform="translate(2.802 6.438)">
            <path id="Path_266" data-name="Path 266" d="M270.992,610.18a3.568,3.568,0,0,0-.182,1.107l.008-2.632a3.568,3.568,0,0,1,.182-1.107l0,1.316c0,.1,0,.241,0,.344v.821A1.077,1.077,0,0,1,270.992,610.18Z" transform="translate(-270.81 -607.548)" fill="#def2ec"/>
          </g>
          <g id="Group_289" data-name="Group 289" transform="translate(2.802 7.546)">
            <path id="Path_267" data-name="Path 267" d="M291.366,610.117l-.008,2.632c0,1.513-1,3.025-2.986,4.18a16.011,16.011,0,0,1-14.529,0c-2.026-1.169-3.038-2.7-3.033-4.238l.007-2.632c0,1.533,1.007,3.068,3.033,4.237a16.01,16.01,0,0,0,14.529,0C290.367,613.142,291.362,611.63,291.366,610.117Z" transform="translate(-270.81 -610.06)" fill="#def2ec"/>
          </g>
          <g id="Group_290" data-name="Group 290" transform="translate(23.35 7.575)">
            <path id="Path_268" data-name="Path 268" d="M317.406,612.785v-.029q0-1.316.008-2.632v.029C317.411,610.943,317.408,612,317.406,612.785Z" transform="translate(-317.406 -610.124)" fill="#def2ec"/>
          </g>
          <g id="Group_291" data-name="Group 291" transform="translate(2.809 1.624)">
            <path id="Path_269" data-name="Path 269" d="M288.344,598.373c4.024,2.323,4.046,6.091.045,8.416a16.01,16.01,0,0,1-14.529,0c-4.026-2.325-4.047-6.092-.047-8.417A16.011,16.011,0,0,1,288.344,598.373Z" transform="translate(-270.827 -596.63)" fill="#def2ec"/>
          </g>
          <path id="Path_270" data-name="Path 270" d="M273.816,599.841a16.012,16.012,0,0,1,14.531,0,5.622,5.622,0,0,1,2.951,3.493c.377-1.763-.606-3.607-2.951-4.961a16.011,16.011,0,0,0-14.531,0c-2.313,1.344-3.278,3.171-2.905,4.922A5.565,5.565,0,0,1,273.816,599.841Z" transform="translate(-268.021 -595.006)" fill="#b3b3b3"/>
          <g id="Group_292" data-name="Group 292" transform="translate(0 7.537)">
            <path id="Path_271" data-name="Path 271" d="M290.618,610.113l-.007,2.632c-.005,1.926-1.271,3.85-3.8,5.32-5.089,2.958-13.369,2.958-18.492,0-2.579-1.489-3.867-3.443-3.861-5.394l.008-2.632c-.006,1.951,1.282,3.905,3.861,5.394,5.123,2.958,13.4,2.958,18.492,0C289.347,613.962,290.612,612.039,290.618,610.113Z" transform="translate(-264.457 -610.038)" fill="#b3b3b3"/>
          </g>
          <g id="Group_293" data-name="Group 293" transform="translate(0.007)">
            <path id="Path_272" data-name="Path 272" d="M286.768,595.167c5.123,2.958,5.149,7.754.059,10.712s-13.369,2.958-18.492,0-5.151-7.754-.062-10.712S281.643,592.208,286.768,595.167Zm-16.459,9.565a16.01,16.01,0,0,0,14.529,0c4-2.325,3.979-6.093-.045-8.416a16.011,16.011,0,0,0-14.531,0c-4,2.324-3.979,6.092.047,8.417" transform="translate(-264.473 -592.948)" fill="#def2ec"/>
          </g>
        </g>
      </g>
      <g id="Group_304" data-name="Group 304" transform="translate(1.233 15.594)">
        <g id="Group_303" data-name="Group 303">
          <g id="Group_296" data-name="Group 296" transform="translate(2.983 1.624)">
            <path id="Path_273" data-name="Path 273" d="M274.026,594.258a5.867,5.867,0,0,0-2.8,3.072q0-1.316.008-2.633a5.868,5.868,0,0,1,2.8-3.072,16.011,16.011,0,0,1,14.531,0c2.012,1.162,3.023,2.685,3.032,4.208q0,1.316-.007,2.632c-.008-1.523-1.02-3.046-3.032-4.208A16.011,16.011,0,0,0,274.026,594.258Z" transform="translate(-271.222 -589.883)" fill="#def2ec"/>
          </g>
          <g id="Group_297" data-name="Group 297" transform="translate(2.802 6.439)">
            <path id="Path_274" data-name="Path 274" d="M270.992,603.434a3.564,3.564,0,0,0-.182,1.107l.008-2.632A3.569,3.569,0,0,1,271,600.8l0,1.316c0,.1,0,.241,0,.344v.821A1.084,1.084,0,0,1,270.992,603.434Z" transform="translate(-270.81 -600.801)" fill="#def2ec"/>
          </g>
          <g id="Group_298" data-name="Group 298" transform="translate(2.802 7.546)">
            <path id="Path_275" data-name="Path 275" d="M291.366,603.37,291.359,606c0,1.513-1,3.025-2.986,4.18a16.011,16.011,0,0,1-14.529,0c-2.026-1.17-3.038-2.7-3.033-4.238l.007-2.632c0,1.533,1.007,3.068,3.033,4.238a16.01,16.01,0,0,0,14.529,0C290.367,606.395,291.362,604.883,291.366,603.37Z" transform="translate(-270.81 -603.313)" fill="#def2ec"/>
          </g>
          <g id="Group_299" data-name="Group 299" transform="translate(23.35 7.575)">
            <path id="Path_276" data-name="Path 276" d="M317.406,606.038v-.029q0-1.316.008-2.632v.029C317.411,604.2,317.408,605.249,317.406,606.038Z" transform="translate(-317.406 -603.377)" fill="#def2ec"/>
          </g>
          <g id="Group_300" data-name="Group 300" transform="translate(2.809 1.624)">
            <path id="Path_277" data-name="Path 277" d="M288.344,591.626c4.024,2.323,4.046,6.091.045,8.416a16.01,16.01,0,0,1-14.529,0c-4.026-2.324-4.047-6.092-.047-8.417A16.011,16.011,0,0,1,288.344,591.626Z" transform="translate(-270.827 -589.883)" fill="#def2ec"/>
          </g>
          <path id="Path_278" data-name="Path 278" d="M273.816,593.094a16.012,16.012,0,0,1,14.531,0,5.621,5.621,0,0,1,2.951,3.493c.377-1.763-.606-3.607-2.951-4.961a16.011,16.011,0,0,0-14.531,0c-2.313,1.344-3.278,3.171-2.905,4.922A5.565,5.565,0,0,1,273.816,593.094Z" transform="translate(-268.021 -588.259)" fill="#b3b3b3"/>
          <g id="Group_301" data-name="Group 301" transform="translate(0 7.537)">
            <path id="Path_279" data-name="Path 279" d="M290.618,603.366,290.611,606c-.005,1.926-1.271,3.849-3.8,5.319-5.089,2.958-13.369,2.958-18.492,0-2.579-1.489-3.867-3.443-3.861-5.394l.008-2.632c-.006,1.951,1.282,3.905,3.861,5.394,5.123,2.958,13.4,2.958,18.492,0C289.347,607.215,290.612,605.292,290.618,603.366Z" transform="translate(-264.457 -603.291)" fill="#b3b3b3"/>
          </g>
          <g id="Group_302" data-name="Group 302" transform="translate(0.007)">
            <path id="Path_280" data-name="Path 280" d="M286.768,588.42c5.123,2.958,5.149,7.754.059,10.712s-13.369,2.958-18.492,0-5.151-7.755-.062-10.712S281.643,585.461,286.768,588.42Zm-16.459,9.565a16.01,16.01,0,0,0,14.529,0c4-2.324,3.979-6.093-.045-8.416a16.011,16.011,0,0,0-14.531,0c-4,2.325-3.979,6.092.047,8.417" transform="translate(-264.473 -586.201)" fill="#def2ec"/>
          </g>
        </g>
      </g>
      <g id="Group_313" data-name="Group 313" transform="translate(0.646 12.619)">
        <g id="Group_312" data-name="Group 312">
          <g id="Group_305" data-name="Group 305" transform="translate(2.984 1.624)">
            <path id="Path_281" data-name="Path 281" d="M272.7,587.511a5.864,5.864,0,0,0-2.8,3.072q0-1.316.008-2.632a5.863,5.863,0,0,1,2.8-3.072,16.011,16.011,0,0,1,14.531,0c2.012,1.162,3.023,2.685,3.032,4.208q0,1.316-.007,2.632c-.008-1.523-1.02-3.046-3.032-4.208A16.011,16.011,0,0,0,272.7,587.511Z" transform="translate(-269.891 -583.136)" fill="#def2ec"/>
          </g>
          <g id="Group_306" data-name="Group 306" transform="translate(2.802 6.439)">
            <path id="Path_282" data-name="Path 282" d="M269.66,596.687a3.565,3.565,0,0,0-.182,1.107l.007-2.632a3.566,3.566,0,0,1,.182-1.107q0,.658,0,1.316c0,.1,0,.241,0,.344q0,.251,0,.5c0,.1,0,.222,0,.318A1.158,1.158,0,0,1,269.66,596.687Z" transform="translate(-269.478 -594.055)" fill="#def2ec"/>
          </g>
          <g id="Group_307" data-name="Group 307" transform="translate(2.802 7.546)">
            <path id="Path_283" data-name="Path 283" d="M290.035,596.623l-.008,2.632c0,1.513-1,3.025-2.986,4.18a16.01,16.01,0,0,1-14.529,0c-2.026-1.169-3.038-2.7-3.034-4.238l.008-2.632c0,1.533,1.008,3.068,3.034,4.237a16.01,16.01,0,0,0,14.529,0C289.036,599.648,290.03,598.136,290.035,596.623Z" transform="translate(-269.478 -596.566)" fill="#def2ec"/>
          </g>
          <g id="Group_308" data-name="Group 308" transform="translate(23.351 7.574)">
            <path id="Path_284" data-name="Path 284" d="M316.075,599.291v-.029q0-1.316.008-2.632v.029C316.08,597.449,316.077,598.5,316.075,599.291Z" transform="translate(-316.075 -596.63)" fill="#def2ec"/>
          </g>
          <g id="Group_309" data-name="Group 309" transform="translate(2.809 1.624)">
            <path id="Path_285" data-name="Path 285" d="M287.013,584.879c4.024,2.324,4.045,6.091.045,8.416a16.01,16.01,0,0,1-14.529,0c-4.026-2.324-4.047-6.092-.047-8.417A16.011,16.011,0,0,1,287.013,584.879Z" transform="translate(-269.496 -583.136)" fill="#def2ec"/>
          </g>
          <path id="Path_286" data-name="Path 286" d="M272.485,586.347a16.011,16.011,0,0,1,14.531,0,5.621,5.621,0,0,1,2.951,3.493c.377-1.763-.606-3.607-2.951-4.961a16.011,16.011,0,0,0-14.531,0c-2.313,1.344-3.279,3.171-2.905,4.922A5.564,5.564,0,0,1,272.485,586.347Z" transform="translate(-266.69 -581.512)" fill="#b3b3b3"/>
          <g id="Group_310" data-name="Group 310" transform="translate(0 7.537)">
            <path id="Path_287" data-name="Path 287" d="M289.286,596.619l-.007,2.632c-.006,1.926-1.272,3.849-3.8,5.319-5.09,2.958-13.369,2.958-18.492,0-2.579-1.489-3.867-3.443-3.861-5.395l.008-2.632c-.005,1.951,1.282,3.905,3.861,5.395,5.123,2.957,13.4,2.957,18.492,0C288.015,600.468,289.281,598.545,289.286,596.619Z" transform="translate(-263.125 -596.544)" fill="#b3b3b3"/>
          </g>
          <g id="Group_311" data-name="Group 311" transform="translate(0.008)">
            <path id="Path_288" data-name="Path 288" d="M285.437,581.673c5.123,2.957,5.149,7.753.059,10.712s-13.369,2.958-18.492,0-5.151-7.755-.062-10.712S280.312,578.715,285.437,581.673Zm-16.459,9.565a16.01,16.01,0,0,0,14.529,0c4-2.324,3.979-6.092-.045-8.416a16.011,16.011,0,0,0-14.531,0c-4,2.324-3.979,6.093.047,8.417" transform="translate(-263.142 -579.454)" fill="#def2ec"/>
          </g>
        </g>
      </g>
      <g id="Group_322" data-name="Group 322" transform="translate(1.82 9.643)">
        <g id="Group_321" data-name="Group 321">
          <g id="Group_314" data-name="Group 314" transform="translate(2.983 1.624)">
            <path id="Path_289" data-name="Path 289" d="M275.357,580.764a5.867,5.867,0,0,0-2.8,3.072q0-1.316.007-2.632a5.867,5.867,0,0,1,2.8-3.072,16.012,16.012,0,0,1,14.531,0c2.012,1.162,3.023,2.685,3.031,4.208q0,1.316-.007,2.633c-.008-1.523-1.02-3.046-3.032-4.208A16.013,16.013,0,0,0,275.357,580.764Z" transform="translate(-272.553 -576.389)" fill="#def2ec"/>
          </g>
          <g id="Group_315" data-name="Group 315" transform="translate(2.802 6.439)">
            <path id="Path_290" data-name="Path 290" d="M272.323,589.94a3.579,3.579,0,0,0-.182,1.107l.008-2.632a3.564,3.564,0,0,1,.182-1.107q0,.658,0,1.316c0,.1,0,.241,0,.344q0,.252,0,.5c0,.1,0,.222,0,.318A1.017,1.017,0,0,1,272.323,589.94Z" transform="translate(-272.141 -587.308)" fill="#def2ec"/>
          </g>
          <g id="Group_316" data-name="Group 316" transform="translate(2.802 7.546)">
            <path id="Path_291" data-name="Path 291" d="M292.7,589.876l-.007,2.633c0,1.513-1,3.024-2.986,4.179a16.011,16.011,0,0,1-14.529,0c-2.026-1.17-3.038-2.705-3.034-4.238l.007-2.632c0,1.533,1.008,3.068,3.034,4.238a16.01,16.01,0,0,0,14.529,0C291.7,592.9,292.693,591.389,292.7,589.876Z" transform="translate(-272.141 -589.819)" fill="#def2ec"/>
          </g>
          <g id="Group_317" data-name="Group 317" transform="translate(23.351 7.574)">
            <path id="Path_292" data-name="Path 292" d="M318.738,592.544v-.029q0-1.316.007-2.633v.029C318.743,590.7,318.74,591.755,318.738,592.544Z" transform="translate(-318.738 -589.883)" fill="#def2ec"/>
          </g>
          <g id="Group_318" data-name="Group 318" transform="translate(2.809 1.624)">
            <path id="Path_293" data-name="Path 293" d="M289.675,578.132c4.024,2.324,4.045,6.092.045,8.416a16.01,16.01,0,0,1-14.529,0c-4.026-2.324-4.047-6.092-.048-8.417A16.012,16.012,0,0,1,289.675,578.132Z" transform="translate(-272.158 -576.389)" fill="#def2ec"/>
          </g>
          <path id="Path_294" data-name="Path 294" d="M275.147,579.6a16.011,16.011,0,0,1,14.531,0,5.62,5.62,0,0,1,2.951,3.493c.377-1.763-.606-3.607-2.951-4.961a16.012,16.012,0,0,0-14.531,0c-2.313,1.345-3.278,3.171-2.905,4.922A5.565,5.565,0,0,1,275.147,579.6Z" transform="translate(-269.352 -574.765)" fill="#b3b3b3"/>
          <g id="Group_319" data-name="Group 319" transform="translate(0 7.536)">
            <path id="Path_295" data-name="Path 295" d="M291.949,589.872l-.007,2.632c-.005,1.926-1.271,3.849-3.8,5.319-5.089,2.958-13.369,2.958-18.491,0-2.579-1.489-3.867-3.443-3.861-5.395l.008-2.632c-.005,1.951,1.282,3.906,3.861,5.395,5.122,2.957,13.4,2.957,18.491,0C290.678,593.721,291.944,591.8,291.949,589.872Z" transform="translate(-265.788 -589.797)" fill="#b3b3b3"/>
          </g>
          <g id="Group_320" data-name="Group 320" transform="translate(0.008)">
            <path id="Path_296" data-name="Path 296" d="M288.1,574.926c5.122,2.957,5.15,7.753.058,10.712s-13.369,2.958-18.491,0-5.151-7.755-.062-10.712S282.975,571.968,288.1,574.926Zm-16.459,9.565a16.009,16.009,0,0,0,14.529,0c4-2.324,3.979-6.092-.045-8.416a16.011,16.011,0,0,0-14.531,0c-4,2.325-3.979,6.093.048,8.417" transform="translate(-265.805 -572.707)" fill="#def2ec"/>
          </g>
        </g>
      </g>
      <g id="Group_331" data-name="Group 331" transform="translate(0.646 6.668)">
        <g id="Group_330" data-name="Group 330">
          <g id="Group_323" data-name="Group 323" transform="translate(2.984 1.624)">
            <path id="Path_297" data-name="Path 297" d="M272.7,574.018a5.861,5.861,0,0,0-2.8,3.072q0-1.316.008-2.632a5.863,5.863,0,0,1,2.8-3.072,16.012,16.012,0,0,1,14.531,0c2.012,1.162,3.023,2.685,3.032,4.208q0,1.316-.007,2.632c-.008-1.523-1.02-3.046-3.032-4.208A16.012,16.012,0,0,0,272.7,574.018Z" transform="translate(-269.891 -569.642)" fill="#def2ec"/>
          </g>
          <g id="Group_324" data-name="Group 324" transform="translate(2.802 6.439)">
            <path id="Path_298" data-name="Path 298" d="M269.66,583.193a3.568,3.568,0,0,0-.182,1.107l.007-2.632a3.57,3.57,0,0,1,.182-1.107q0,.658,0,1.316c0,.1,0,.241,0,.344q0,.252,0,.5c0,.1,0,.222,0,.318A1.159,1.159,0,0,1,269.66,583.193Z" transform="translate(-269.478 -580.561)" fill="#def2ec"/>
          </g>
          <g id="Group_325" data-name="Group 325" transform="translate(2.802 7.546)">
            <path id="Path_299" data-name="Path 299" d="M290.035,583.129l-.008,2.632c0,1.513-1,3.024-2.986,4.179a16.011,16.011,0,0,1-14.529,0c-2.026-1.17-3.038-2.705-3.034-4.238l.008-2.632c0,1.533,1.008,3.068,3.034,4.238a16.011,16.011,0,0,0,14.529,0C289.036,586.154,290.03,584.642,290.035,583.129Z" transform="translate(-269.478 -583.072)" fill="#def2ec"/>
          </g>
          <g id="Group_326" data-name="Group 326" transform="translate(23.351 7.575)">
            <path id="Path_300" data-name="Path 300" d="M316.075,585.8v-.029q0-1.316.008-2.632v.029C316.08,583.955,316.077,585.009,316.075,585.8Z" transform="translate(-316.075 -583.137)" fill="#def2ec"/>
          </g>
          <g id="Group_327" data-name="Group 327" transform="translate(2.809 1.624)">
            <path id="Path_301" data-name="Path 301" d="M287.013,571.385c4.024,2.324,4.045,6.092.045,8.416a16.011,16.011,0,0,1-14.529,0c-4.026-2.325-4.047-6.093-.047-8.417A16.012,16.012,0,0,1,287.013,571.385Z" transform="translate(-269.496 -569.642)" fill="#def2ec"/>
          </g>
          <path id="Path_302" data-name="Path 302" d="M272.485,572.853a16.011,16.011,0,0,1,14.531,0,5.621,5.621,0,0,1,2.951,3.493c.377-1.763-.606-3.607-2.951-4.961a16.012,16.012,0,0,0-14.531,0c-2.313,1.345-3.279,3.171-2.905,4.922A5.566,5.566,0,0,1,272.485,572.853Z" transform="translate(-266.69 -568.018)" fill="#b3b3b3"/>
          <g id="Group_328" data-name="Group 328" transform="translate(0 7.537)">
            <path id="Path_303" data-name="Path 303" d="M289.286,583.126l-.007,2.632c-.006,1.926-1.272,3.849-3.8,5.32-5.09,2.957-13.369,2.957-18.492,0-2.579-1.489-3.867-3.443-3.861-5.394l.008-2.632c-.005,1.951,1.282,3.905,3.861,5.394,5.123,2.957,13.4,2.957,18.492,0C288.015,586.975,289.281,585.052,289.286,583.126Z" transform="translate(-263.125 -583.051)" fill="#b3b3b3"/>
          </g>
          <g id="Group_329" data-name="Group 329" transform="translate(0.008)">
            <path id="Path_304" data-name="Path 304" d="M285.437,568.179c5.123,2.957,5.149,7.754.059,10.712s-13.369,2.958-18.492,0-5.151-7.755-.062-10.712S280.312,565.221,285.437,568.179Zm-16.459,9.565a16.011,16.011,0,0,0,14.529,0c4-2.325,3.979-6.092-.045-8.416a16.012,16.012,0,0,0-14.531,0c-4,2.325-3.979,6.093.047,8.417" transform="translate(-263.142 -565.96)" fill="#def2ec"/>
          </g>
        </g>
      </g>
      <g id="Group_340" data-name="Group 340" transform="translate(1.322 3.3)">
        <g id="Group_339" data-name="Group 339">
          <g id="Group_332" data-name="Group 332" transform="translate(2.983 1.624)">
            <path id="Path_305" data-name="Path 305" d="M274.228,566.38a5.865,5.865,0,0,0-2.8,3.072q0-1.316.008-2.632a5.865,5.865,0,0,1,2.8-3.072,16.013,16.013,0,0,1,14.531,0c2.012,1.162,3.023,2.685,3.031,4.208q0,1.316-.007,2.632c-.008-1.523-1.02-3.046-3.032-4.208A16.012,16.012,0,0,0,274.228,566.38Z" transform="translate(-271.424 -562.005)" fill="#def2ec"/>
          </g>
          <g id="Group_333" data-name="Group 333" transform="translate(2.802 6.439)">
            <path id="Path_306" data-name="Path 306" d="M271.194,575.555a3.581,3.581,0,0,0-.182,1.107l.007-2.632a3.583,3.583,0,0,1,.182-1.107q0,.658,0,1.316c0,.1,0,.241,0,.344,0,.168,0,.336,0,.5,0,.1,0,.222,0,.317A1.021,1.021,0,0,1,271.194,575.555Z" transform="translate(-271.012 -572.923)" fill="#def2ec"/>
          </g>
          <g id="Group_334" data-name="Group 334" transform="translate(2.802 7.546)">
            <path id="Path_307" data-name="Path 307" d="M291.569,575.491l-.008,2.632c0,1.513-1,3.024-2.986,4.179a16.011,16.011,0,0,1-14.529,0c-2.026-1.17-3.038-2.705-3.034-4.238l.008-2.632c0,1.533,1.008,3.068,3.034,4.238a16.011,16.011,0,0,0,14.529,0C290.569,578.516,291.564,577,291.569,575.491Z" transform="translate(-271.012 -575.434)" fill="#def2ec"/>
          </g>
          <g id="Group_335" data-name="Group 335" transform="translate(23.351 7.575)">
            <path id="Path_308" data-name="Path 308" d="M317.609,578.16v-.029q0-1.316.007-2.632c0,.01,0,.019,0,.029C317.614,576.318,317.611,577.371,317.609,578.16Z" transform="translate(-317.609 -575.499)" fill="#def2ec"/>
          </g>
          <g id="Group_336" data-name="Group 336" transform="translate(2.809 1.624)">
            <path id="Path_309" data-name="Path 309" d="M288.546,563.748c4.024,2.323,4.045,6.091.045,8.416a16.011,16.011,0,0,1-14.529,0c-4.026-2.325-4.047-6.092-.048-8.417A16.012,16.012,0,0,1,288.546,563.748Z" transform="translate(-271.029 -562.005)" fill="#def2ec"/>
          </g>
          <path id="Path_310" data-name="Path 310" d="M274.018,565.216a16.012,16.012,0,0,1,14.531,0,5.62,5.62,0,0,1,2.951,3.493c.377-1.764-.606-3.607-2.951-4.961a16.012,16.012,0,0,0-14.531,0c-2.313,1.344-3.278,3.171-2.905,4.922A5.567,5.567,0,0,1,274.018,565.216Z" transform="translate(-268.223 -560.381)" fill="#b3b3b3"/>
          <g id="Group_337" data-name="Group 337" transform="translate(0 7.537)">
            <path id="Path_311" data-name="Path 311" d="M290.82,575.488l-.008,2.632c-.005,1.926-1.271,3.85-3.8,5.32-5.089,2.957-13.369,2.957-18.491,0-2.579-1.489-3.867-3.443-3.861-5.394l.008-2.632c-.005,1.951,1.282,3.905,3.861,5.394,5.122,2.957,13.4,2.957,18.491,0C289.549,579.337,290.815,577.414,290.82,575.488Z" transform="translate(-264.659 -575.413)" fill="#b3b3b3"/>
          </g>
          <g id="Group_338" data-name="Group 338" transform="translate(0.008)">
            <path id="Path_312" data-name="Path 312" d="M286.971,560.541c5.123,2.957,5.15,7.754.058,10.712s-13.369,2.957-18.491,0-5.151-7.755-.062-10.712S281.846,557.583,286.971,560.541Zm-16.459,9.565a16.011,16.011,0,0,0,14.529,0c4-2.324,3.979-6.092-.045-8.416a16.013,16.013,0,0,0-14.531,0c-4,2.325-3.979,6.092.048,8.417" transform="translate(-264.676 -558.322)" fill="#def2ec"/>
          </g>
        </g>
      </g>
      <g id="Group_349" data-name="Group 349" transform="translate(0 0)">
        <g id="Group_348" data-name="Group 348">
          <g id="Group_341" data-name="Group 341" transform="translate(2.983 1.624)">
            <path id="Path_313" data-name="Path 313" d="M271.23,558.9a5.865,5.865,0,0,0-2.8,3.072q0-1.316.007-2.632a5.865,5.865,0,0,1,2.8-3.072,16.013,16.013,0,0,1,14.531,0c2.012,1.162,3.023,2.685,3.031,4.208q0,1.316-.008,2.632c-.008-1.523-1.02-3.046-3.031-4.208A16.013,16.013,0,0,0,271.23,558.9Z" transform="translate(-268.426 -554.523)" fill="#def2ec"/>
          </g>
          <g id="Group_342" data-name="Group 342" transform="translate(2.802 6.439)">
            <path id="Path_314" data-name="Path 314" d="M268.2,568.073a3.569,3.569,0,0,0-.182,1.107l.007-2.632a3.569,3.569,0,0,1,.182-1.107q0,.658,0,1.316c0,.1,0,.241,0,.344q0,.252,0,.5c0,.1,0,.222,0,.318A1.017,1.017,0,0,1,268.2,568.073Z" transform="translate(-268.014 -565.441)" fill="#def2ec"/>
          </g>
          <g id="Group_343" data-name="Group 343" transform="translate(2.802 7.546)">
            <path id="Path_315" data-name="Path 315" d="M288.57,568.009l-.008,2.632c0,1.513-1,3.024-2.986,4.179a16.011,16.011,0,0,1-14.529,0c-2.026-1.17-3.038-2.705-3.034-4.238l.008-2.632c0,1.533,1.008,3.068,3.034,4.238a16.011,16.011,0,0,0,14.529,0C287.571,571.034,288.566,569.522,288.57,568.009Z" transform="translate(-268.014 -567.952)" fill="#def2ec"/>
          </g>
          <g id="Group_344" data-name="Group 344" transform="translate(23.35 7.575)">
            <path id="Path_316" data-name="Path 316" d="M314.61,570.678c0-.01,0-.019,0-.029q0-1.316.008-2.632v.029C314.615,568.835,314.613,569.889,314.61,570.678Z" transform="translate(-314.61 -568.017)" fill="#def2ec"/>
          </g>
          <g id="Group_345" data-name="Group 345" transform="translate(2.809 1.624)">
            <path id="Path_317" data-name="Path 317" d="M285.548,556.266c4.024,2.324,4.045,6.091.045,8.416a16.011,16.011,0,0,1-14.529,0c-4.026-2.325-4.047-6.093-.048-8.417A16.013,16.013,0,0,1,285.548,556.266Z" transform="translate(-268.031 -554.523)" fill="#def2ec"/>
          </g>
          <path id="Path_318" data-name="Path 318" d="M271.02,557.734a16.012,16.012,0,0,1,14.531,0,5.62,5.62,0,0,1,2.951,3.493c.377-1.764-.606-3.607-2.951-4.961a16.013,16.013,0,0,0-14.531,0c-2.313,1.344-3.278,3.171-2.905,4.922A5.567,5.567,0,0,1,271.02,557.734Z" transform="translate(-265.225 -552.899)" fill="#b3b3b3"/>
          <g id="Group_346" data-name="Group 346" transform="translate(0 7.537)">
            <path id="Path_319" data-name="Path 319" d="M287.822,568.005l-.008,2.632c-.005,1.926-1.271,3.849-3.8,5.32-5.089,2.957-13.369,2.957-18.491,0-2.579-1.489-3.867-3.443-3.861-5.394l.008-2.632c-.006,1.951,1.282,3.905,3.861,5.394,5.122,2.957,13.4,2.957,18.491,0C286.551,571.855,287.817,569.932,287.822,568.005Z" transform="translate(-261.661 -567.931)" fill="#b3b3b3"/>
          </g>
          <g id="Group_347" data-name="Group 347" transform="translate(0.007)">
            <path id="Path_320" data-name="Path 320" d="M283.972,553.059c5.122,2.957,5.15,7.754.058,10.712s-13.369,2.957-18.491,0-5.152-7.755-.062-10.712S278.848,550.1,283.972,553.059Zm-16.459,9.565a16.011,16.011,0,0,0,14.529,0c4-2.324,3.979-6.092-.045-8.416a16.013,16.013,0,0,0-14.531,0c-4,2.324-3.979,6.092.048,8.417" transform="translate(-261.678 -550.84)" fill="#def2ec"/>
          </g>
        </g>
      </g>
    </g>
  </g>
</svg>
