<svg xmlns="http://www.w3.org/2000/svg" width="130.573" height="99.532" viewBox="0 0 130.573 99.532">
  <g id="Group_490" data-name="Group 490" transform="translate(-898.511 -468.289)">
    <g id="Group_74" data-name="Group 74" transform="translate(938.451 439.305)">
      <g id="Group_49" data-name="Group 49" transform="translate(0.743 38.274)">
        <path id="Path_44" data-name="Path 44" d="M277.892,356.934l-29.855,17.35-.043,8.457,59.991,34.636,29.855-17.35.043-8.457" transform="translate(-247.994 -356.934)" fill="#406325"/>
        <g id="Group_44" data-name="Group 44" transform="translate(32.31 18.639)">
          <ellipse id="Ellipse_8" data-name="Ellipse 8" cx="7.319" cy="12.635" rx="7.319" ry="12.635" transform="matrix(0.003, -1, 1, 0.003, 0, 14.637)" fill="#7dab4e"/>
        </g>
        <g id="Group_45" data-name="Group 45" transform="translate(13.157 7.609)">
          <path id="Path_45" data-name="Path 45" d="M346.977,400.482c-3.76,2.185-3.74,5.727.042,7.913l-9.952,5.783a15.06,15.06,0,0,0-13.661,0l-39.96-23.071c3.762-2.186,3.74-5.73-.044-7.915l9.951-5.783a15.057,15.057,0,0,0,13.664,0Zm-40.672.488c4.951,2.859,12.952,2.858,17.868,0s4.893-7.491-.058-10.35-12.952-2.857-17.868,0-4.891,7.493.058,10.35" transform="translate(-283.402 -377.411)" fill="#a7bd56"/>
        </g>
        <g id="Group_46" data-name="Group 46" transform="translate(0.043)">
          <path id="Path_46" data-name="Path 46" d="M277.965,356.934l59.991,34.636L308.1,408.92,248.11,374.284ZM314.89,401.31l9.952-5.783c-3.782-2.186-3.8-5.728-.042-7.913l-39.96-23.071a15.057,15.057,0,0,1-13.664,0l-9.951,5.784c3.784,2.185,3.806,5.728.044,7.915l39.96,23.071a15.06,15.06,0,0,1,13.661,0" transform="translate(-248.11 -356.934)" fill="#7dab4e"/>
        </g>
        <g id="Group_47" data-name="Group 47" transform="translate(25.014 14.403)">
          <path id="Path_47" data-name="Path 47" d="M354.3,400.969l-29.855,17.35-9.139-5.276,29.855-17.35Z" transform="translate(-315.309 -395.693)" fill="#dac89d"/>
        </g>
        <g id="Group_48" data-name="Group 48" transform="translate(24.944 31.761)">
          <path id="Path_48" data-name="Path 48" d="M324.3,447.682l-.043,8.457-9.139-5.276.043-8.457Z" transform="translate(-315.122 -442.406)" fill="#877c61"/>
        </g>
        <path id="Path_49" data-name="Path 49" d="M409.552,467.493v8.457l29.812-17.35v-8.457Z" transform="translate(-349.518 -415.507)" fill="#598d2e"/>
      </g>
      <g id="Group_55" data-name="Group 55" transform="translate(0 28.984)">
        <path id="Path_50" data-name="Path 50" d="M275.892,331.934l-29.855,17.35-.043,8.457,59.991,34.636,29.855-17.35.043-8.457" transform="translate(-245.994 -331.934)" fill="#406325"/>
        <g id="Group_50" data-name="Group 50" transform="translate(32.31 18.639)">
          <ellipse id="Ellipse_9" data-name="Ellipse 9" cx="7.319" cy="12.635" rx="7.319" ry="12.635" transform="translate(0 14.637) rotate(-89.837)" fill="#7dab4e"/>
        </g>
        <g id="Group_51" data-name="Group 51" transform="translate(13.157 7.609)">
          <path id="Path_51" data-name="Path 51" d="M344.977,375.482c-3.76,2.185-3.74,5.727.042,7.913l-9.952,5.783a15.06,15.06,0,0,0-13.661,0l-39.96-23.071c3.762-2.186,3.74-5.73-.044-7.915l9.951-5.783a15.057,15.057,0,0,0,13.664,0Zm-40.672.488c4.951,2.859,12.952,2.858,17.868,0s4.893-7.491-.058-10.35-12.952-2.857-17.868,0-4.891,7.493.058,10.35" transform="translate(-281.402 -352.411)" fill="#a7bd56"/>
        </g>
        <g id="Group_52" data-name="Group 52" transform="translate(0.043)">
          <path id="Path_52" data-name="Path 52" d="M275.965,331.934l59.991,34.636L306.1,383.92,246.11,349.284ZM312.89,376.31l9.952-5.783c-3.782-2.186-3.8-5.728-.042-7.913l-39.96-23.071a15.057,15.057,0,0,1-13.664,0l-9.951,5.783c3.784,2.185,3.806,5.728.044,7.915l39.96,23.071a15.06,15.06,0,0,1,13.661,0" transform="translate(-246.11 -331.934)" fill="#7dab4e"/>
        </g>
        <g id="Group_53" data-name="Group 53" transform="translate(25.014 14.403)">
          <path id="Path_53" data-name="Path 53" d="M352.3,375.969l-29.855,17.35-9.139-5.276,29.855-17.35Z" transform="translate(-313.309 -370.693)" fill="#dac89d"/>
        </g>
        <g id="Group_54" data-name="Group 54" transform="translate(24.944 31.761)">
          <path id="Path_54" data-name="Path 54" d="M322.3,422.682l-.043,8.457-9.139-5.276.043-8.457Z" transform="translate(-313.122 -417.406)" fill="#877c61"/>
        </g>
        <path id="Path_55" data-name="Path 55" d="M407.552,442.493v8.457l29.812-17.35v-8.457Z" transform="translate(-347.518 -390.507)" fill="#598d2e"/>
      </g>
    </g>
    <g id="Group_121" data-name="Group 121" transform="translate(898.511 502.218)">
      <g id="Group_102" data-name="Group 102" transform="translate(0.743 7.532)">
        <g id="Group_101" data-name="Group 101">
          <g id="Group_94" data-name="Group 94" transform="translate(3.777 2.055)">
            <path id="Path_94" data-name="Path 94" d="M154.224,454.58a7.423,7.423,0,0,0-3.55,3.888q0-1.666.009-3.332a7.425,7.425,0,0,1,3.55-3.888c5.063-2.942,13.3-2.942,18.393,0,2.547,1.47,3.827,3.4,3.838,5.326q-.005,1.666-.01,3.332c-.01-1.928-1.291-3.855-3.837-5.326C167.521,451.638,159.287,451.638,154.224,454.58Z" transform="translate(-150.674 -449.042)" fill="#ffd025"/>
          </g>
          <g id="Group_95" data-name="Group 95" transform="translate(3.547 8.15)">
            <path id="Path_95" data-name="Path 95" d="M150.285,468.775a4.511,4.511,0,0,0-.23,1.4l.009-3.332a4.521,4.521,0,0,1,.23-1.4q0,.833,0,1.666v.436q0,.318,0,.637c0,.12,0,.281,0,.4A1.315,1.315,0,0,1,150.285,468.775Z" transform="translate(-150.055 -465.443)" fill="#ffd025"/>
          </g>
          <g id="Group_96" data-name="Group 96" transform="translate(3.546 9.552)">
            <path id="Path_96" data-name="Path 96" d="M176.075,469.288l-.01,3.332c-.005,1.916-1.264,3.829-3.78,5.29-5.063,2.942-13.3,2.942-18.391,0-2.564-1.48-3.845-3.424-3.84-5.364l.009-3.332c-.006,1.94,1.275,3.884,3.84,5.364,5.094,2.941,13.328,2.941,18.391,0C174.811,473.117,176.07,471.2,176.075,469.288Z" transform="translate(-150.055 -469.216)" fill="#fcca0d"/>
          </g>
          <g id="Group_97" data-name="Group 97" transform="translate(29.557 9.588)">
            <path id="Path_97" data-name="Path 97" d="M220.052,472.681q0-.018,0-.037.005-1.666.01-3.332v.036C220.059,470.349,220.055,471.682,220.052,472.681Z" transform="translate(-220.052 -469.313)" fill="#ffd025"/>
          </g>
          <g id="Group_98" data-name="Group 98" transform="translate(3.556 2.055)">
            <path id="Path_98" data-name="Path 98" d="M172.253,451.248c5.094,2.941,5.121,7.71.058,10.652s-13.3,2.942-18.391,0-5.123-7.712-.06-10.654S167.157,448.306,172.253,451.248Z" transform="translate(-150.08 -449.042)" fill="#fcca0d"/>
          </g>
          <path id="Path_99" data-name="Path 99" d="M153.866,453.106c5.063-2.942,13.3-2.942,18.393,0a7.115,7.115,0,0,1,3.736,4.421c.477-2.232-.768-4.566-3.736-6.279-5.1-2.942-13.33-2.942-18.393,0-2.928,1.7-4.15,4.014-3.678,6.231A7.046,7.046,0,0,1,153.866,453.106Z" transform="translate(-146.53 -446.986)" fill="#d99a32"/>
          <g id="Group_99" data-name="Group 99" transform="translate(0 9.54)">
            <path id="Path_100" data-name="Path 100" d="M173.626,469.277l-.009,3.332c-.007,2.438-1.61,4.873-4.811,6.734-6.442,3.744-16.923,3.744-23.407,0-3.264-1.884-4.895-4.358-4.888-6.828l.01-3.332c-.007,2.47,1.623,4.944,4.888,6.828,6.484,3.743,16.965,3.743,23.407,0C172.017,474.15,173.619,471.716,173.626,469.277Z" transform="translate(-140.511 -469.183)" fill="#d99a32"/>
          </g>
          <g id="Group_100" data-name="Group 100" transform="translate(0.01)">
            <path id="Path_101" data-name="Path 101" d="M168.757,446.319c6.484,3.744,6.519,9.815.074,13.559s-16.923,3.744-23.407,0-6.521-9.816-.079-13.559S162.271,442.574,168.757,446.319Zm-20.834,12.108c5.094,2.941,13.328,2.941,18.391,0s5.036-7.712-.058-10.652-13.33-2.942-18.393,0-5.036,7.712.06,10.654" transform="translate(-140.537 -443.51)" fill="#ffd025"/>
          </g>
        </g>
      </g>
      <g id="Group_111" data-name="Group 111" transform="translate(0.743 3.766)">
        <g id="Group_110" data-name="Group 110">
          <g id="Group_103" data-name="Group 103" transform="translate(3.777 2.055)">
            <path id="Path_102" data-name="Path 102" d="M154.224,444.444a7.423,7.423,0,0,0-3.55,3.888q0-1.666.009-3.332a7.424,7.424,0,0,1,3.55-3.888c5.063-2.943,13.3-2.943,18.393,0,2.547,1.471,3.827,3.4,3.838,5.326q-.005,1.666-.01,3.332c-.01-1.928-1.291-3.856-3.837-5.326C167.521,441.5,159.287,441.5,154.224,444.444Z" transform="translate(-150.674 -438.906)" fill="#ffd025"/>
          </g>
          <g id="Group_104" data-name="Group 104" transform="translate(3.547 8.15)">
            <path id="Path_103" data-name="Path 103" d="M150.285,458.64a4.511,4.511,0,0,0-.23,1.4l.009-3.332a4.521,4.521,0,0,1,.23-1.4q0,.833,0,1.666v.436q0,.319,0,.637c0,.12,0,.281,0,.4A1.315,1.315,0,0,1,150.285,458.64Z" transform="translate(-150.055 -455.308)" fill="#ffd025"/>
          </g>
          <g id="Group_105" data-name="Group 105" transform="translate(3.546 9.552)">
            <path id="Path_104" data-name="Path 104" d="M176.075,459.152l-.01,3.332c-.005,1.916-1.264,3.829-3.78,5.29-5.063,2.942-13.3,2.942-18.391,0-2.564-1.481-3.845-3.424-3.84-5.364l.009-3.332c-.006,1.94,1.275,3.884,3.84,5.364,5.094,2.941,13.328,2.941,18.391,0C174.811,462.981,176.07,461.068,176.075,459.152Z" transform="translate(-150.055 -459.08)" fill="#fcca0d"/>
          </g>
          <g id="Group_106" data-name="Group 106" transform="translate(29.557 9.588)">
            <path id="Path_105" data-name="Path 105" d="M220.052,462.546q0-.018,0-.037.005-1.666.01-3.332v.037C220.059,460.213,220.055,461.546,220.052,462.546Z" transform="translate(-220.052 -459.177)" fill="#ffd025"/>
          </g>
          <g id="Group_107" data-name="Group 107" transform="translate(3.556 2.055)">
            <path id="Path_106" data-name="Path 106" d="M172.253,441.112c5.094,2.941,5.121,7.711.058,10.653s-13.3,2.942-18.391,0-5.123-7.712-.06-10.654S167.157,438.17,172.253,441.112Z" transform="translate(-150.08 -438.906)" fill="#fcca0d"/>
          </g>
          <path id="Path_107" data-name="Path 107" d="M153.866,442.971c5.063-2.943,13.3-2.943,18.393,0a7.116,7.116,0,0,1,3.736,4.422c.477-2.232-.768-4.566-3.736-6.28-5.1-2.942-13.33-2.942-18.393,0-2.928,1.7-4.15,4.014-3.678,6.23A7.046,7.046,0,0,1,153.866,442.971Z" transform="translate(-146.53 -436.85)" fill="#d99a32"/>
          <g id="Group_108" data-name="Group 108" transform="translate(0 9.54)">
            <path id="Path_108" data-name="Path 108" d="M173.626,459.142l-.009,3.332c-.007,2.438-1.61,4.873-4.811,6.734-6.442,3.743-16.923,3.743-23.407,0-3.264-1.885-4.895-4.358-4.888-6.828l.01-3.332c-.007,2.47,1.623,4.943,4.888,6.828,6.484,3.744,16.965,3.744,23.407,0C172.017,464.015,173.619,461.581,173.626,459.142Z" transform="translate(-140.511 -459.048)" fill="#d99a32"/>
          </g>
          <g id="Group_109" data-name="Group 109" transform="translate(0.01)">
            <path id="Path_109" data-name="Path 109" d="M168.757,436.183c6.484,3.744,6.519,9.815.074,13.559s-16.923,3.744-23.407,0-6.521-9.816-.079-13.559S162.271,432.438,168.757,436.183Zm-20.834,12.108c5.094,2.941,13.328,2.941,18.391,0s5.036-7.712-.058-10.653-13.33-2.942-18.393,0-5.036,7.712.06,10.654" transform="translate(-140.537 -433.375)" fill="#ffd025"/>
          </g>
        </g>
      </g>
      <g id="Group_120" data-name="Group 120" transform="translate(0 0)">
        <g id="Group_119" data-name="Group 119">
          <g id="Group_112" data-name="Group 112" transform="translate(3.777 2.055)">
            <path id="Path_110" data-name="Path 110" d="M152.224,434.309a7.424,7.424,0,0,0-3.55,3.888q0-1.666.009-3.332a7.424,7.424,0,0,1,3.55-3.888c5.063-2.942,13.3-2.942,18.393,0,2.547,1.47,3.827,3.4,3.838,5.326q-.005,1.666-.01,3.332c-.01-1.928-1.291-3.856-3.837-5.326C165.521,431.367,157.287,431.367,152.224,434.309Z" transform="translate(-148.674 -428.77)" fill="#ffd025"/>
          </g>
          <g id="Group_113" data-name="Group 113" transform="translate(3.547 8.15)">
            <path id="Path_111" data-name="Path 111" d="M148.285,448.5a4.513,4.513,0,0,0-.23,1.4l.009-3.332a4.521,4.521,0,0,1,.23-1.4q0,.833,0,1.666v.436q0,.319,0,.637c0,.121,0,.281,0,.4A1.308,1.308,0,0,1,148.285,448.5Z" transform="translate(-148.055 -445.173)" fill="#ffd025"/>
          </g>
          <g id="Group_114" data-name="Group 114" transform="translate(3.546 9.552)">
            <path id="Path_112" data-name="Path 112" d="M174.075,449.017l-.01,3.332c-.005,1.916-1.264,3.829-3.78,5.29-5.063,2.943-13.3,2.943-18.391,0-2.564-1.48-3.845-3.424-3.84-5.364l.009-3.332c-.006,1.94,1.275,3.884,3.84,5.364,5.094,2.941,13.328,2.941,18.391,0C172.811,452.846,174.07,450.933,174.075,449.017Z" transform="translate(-148.055 -448.945)" fill="#fcca0d"/>
          </g>
          <g id="Group_115" data-name="Group 115" transform="translate(29.557 9.588)">
            <path id="Path_113" data-name="Path 113" d="M218.052,452.41c0-.012,0-.024,0-.036q.005-1.666.01-3.332v.037C218.059,450.078,218.055,451.411,218.052,452.41Z" transform="translate(-218.052 -449.042)" fill="#ffd025"/>
          </g>
          <g id="Group_116" data-name="Group 116" transform="translate(3.556 2.055)">
            <path id="Path_114" data-name="Path 114" d="M170.253,430.977c5.094,2.941,5.121,7.711.058,10.653s-13.3,2.942-18.391,0-5.123-7.712-.06-10.654S165.157,428.035,170.253,430.977Z" transform="translate(-148.08 -428.77)" fill="#fcca0d"/>
          </g>
          <path id="Path_115" data-name="Path 115" d="M151.866,432.835c5.063-2.942,13.3-2.942,18.393,0a7.115,7.115,0,0,1,3.736,4.422c.477-2.232-.768-4.566-3.736-6.28-5.1-2.942-13.33-2.942-18.393,0-2.928,1.7-4.15,4.014-3.678,6.231A7.048,7.048,0,0,1,151.866,432.835Z" transform="translate(-144.53 -426.715)" fill="#d99a32"/>
          <g id="Group_117" data-name="Group 117" transform="translate(0 9.54)">
            <path id="Path_116" data-name="Path 116" d="M171.626,449.007l-.009,3.332c-.007,2.438-1.61,4.873-4.811,6.734-6.442,3.743-16.923,3.743-23.407,0-3.264-1.885-4.895-4.358-4.888-6.828l.01-3.332c-.007,2.47,1.623,4.943,4.888,6.828,6.484,3.743,16.965,3.743,23.407,0C170.017,453.88,171.619,451.445,171.626,449.007Z" transform="translate(-138.511 -448.913)" fill="#d99a32"/>
          </g>
          <g id="Group_118" data-name="Group 118" transform="translate(0.01)">
            <path id="Path_117" data-name="Path 117" d="M166.757,426.048c6.484,3.743,6.519,9.815.074,13.559s-16.923,3.743-23.407,0-6.521-9.816-.079-13.559S160.271,422.3,166.757,426.048Zm-20.834,12.108c5.094,2.941,13.328,2.941,18.391,0s5.036-7.712-.058-10.653-13.33-2.942-18.393,0-5.036,7.712.06,10.654" transform="translate(-138.537 -423.24)" fill="#ffd025"/>
          </g>
        </g>
      </g>
    </g>
    <g id="Group_221" data-name="Group 221" transform="translate(921.732 482.997)">
      <g id="Group_130" data-name="Group 130" transform="translate(0.743 37.662)">
        <g id="Group_129" data-name="Group 129">
          <g id="Group_122" data-name="Group 122" transform="translate(3.777 2.055)">
            <path id="Path_118" data-name="Path 118" d="M216.715,483.937a7.424,7.424,0,0,0-3.55,3.888q.005-1.666.01-3.332a7.423,7.423,0,0,1,3.549-3.888c5.063-2.943,13.3-2.943,18.394,0,2.547,1.471,3.827,3.4,3.837,5.326q0,1.666-.009,3.332c-.011-1.928-1.291-3.856-3.838-5.326C230.012,481,221.778,481,216.715,483.937Z" transform="translate(-213.165 -478.399)" fill="#ffd025"/>
          </g>
          <g id="Group_123" data-name="Group 123" transform="translate(3.547 8.15)">
            <path id="Path_119" data-name="Path 119" d="M212.776,498.133a4.521,4.521,0,0,0-.23,1.4l.009-3.332a4.511,4.511,0,0,1,.23-1.4q0,.833,0,1.666c0,.131,0,.305,0,.436l0,.637c0,.12,0,.281,0,.4A1.368,1.368,0,0,1,212.776,498.133Z" transform="translate(-212.546 -494.801)" fill="#ffd025"/>
          </g>
          <g id="Group_124" data-name="Group 124" transform="translate(3.547 9.552)">
            <path id="Path_120" data-name="Path 120" d="M238.566,498.645l-.009,3.332c-.006,1.916-1.265,3.829-3.78,5.29-5.063,2.942-13.3,2.942-18.391,0-2.564-1.481-3.845-3.424-3.84-5.364l.009-3.332c-.005,1.94,1.275,3.884,3.84,5.364,5.093,2.941,13.328,2.941,18.391,0C237.3,502.474,238.561,500.561,238.566,498.645Z" transform="translate(-212.546 -498.573)" fill="#fcca0d"/>
          </g>
          <g id="Group_125" data-name="Group 125" transform="translate(29.557 9.588)">
            <path id="Path_121" data-name="Path 121" d="M282.544,502.039V502q0-1.666.009-3.332v.037C282.551,499.706,282.547,501.039,282.544,502.039Z" transform="translate(-282.544 -498.67)" fill="#ffd025"/>
          </g>
          <g id="Group_126" data-name="Group 126" transform="translate(3.556 2.055)">
            <path id="Path_122" data-name="Path 122" d="M234.745,480.605c5.094,2.941,5.121,7.711.058,10.653s-13.3,2.942-18.391,0-5.123-7.712-.06-10.654S229.648,477.663,234.745,480.605Z" transform="translate(-212.571 -478.399)" fill="#fcca0d"/>
          </g>
          <path id="Path_123" data-name="Path 123" d="M216.357,482.464c5.063-2.943,13.3-2.943,18.394,0a7.116,7.116,0,0,1,3.735,4.422c.477-2.232-.768-4.566-3.735-6.28-5.1-2.942-13.331-2.942-18.394,0-2.928,1.7-4.15,4.014-3.677,6.23A7.044,7.044,0,0,1,216.357,482.464Z" transform="translate(-209.021 -476.343)" fill="#d99a32"/>
          <g id="Group_127" data-name="Group 127" transform="translate(0 9.54)">
            <path id="Path_124" data-name="Path 124" d="M236.117,498.635l-.009,3.332c-.007,2.438-1.609,4.873-4.811,6.734-6.442,3.743-16.922,3.743-23.407,0-3.264-1.885-4.894-4.358-4.888-6.828l.01-3.332c-.007,2.47,1.623,4.944,4.888,6.828,6.484,3.744,16.965,3.744,23.407,0C234.508,503.508,236.11,501.074,236.117,498.635Z" transform="translate(-203.002 -498.541)" fill="#d99a32"/>
          </g>
          <g id="Group_128" data-name="Group 128" transform="translate(0.01)">
            <path id="Path_125" data-name="Path 125" d="M231.248,475.676c6.484,3.744,6.518,9.815.074,13.559s-16.923,3.744-23.407,0-6.521-9.816-.079-13.559S224.762,471.931,231.248,475.676Zm-20.834,12.108c5.093,2.941,13.328,2.941,18.391,0s5.036-7.712-.058-10.653-13.331-2.942-18.394,0-5.036,7.712.06,10.654" transform="translate(-203.028 -472.867)" fill="#ffd025"/>
          </g>
        </g>
      </g>
      <g id="Group_139" data-name="Group 139" transform="translate(0.743 33.896)">
        <g id="Group_138" data-name="Group 138">
          <g id="Group_131" data-name="Group 131" transform="translate(3.777 2.055)">
            <path id="Path_126" data-name="Path 126" d="M216.715,473.8a7.425,7.425,0,0,0-3.55,3.888q.005-1.666.01-3.332a7.424,7.424,0,0,1,3.549-3.888c5.063-2.942,13.3-2.942,18.394,0,2.547,1.47,3.827,3.4,3.837,5.326q0,1.666-.009,3.332c-.011-1.928-1.291-3.856-3.838-5.326C230.012,470.86,221.778,470.86,216.715,473.8Z" transform="translate(-213.165 -468.263)" fill="#ffd025"/>
          </g>
          <g id="Group_132" data-name="Group 132" transform="translate(3.547 8.15)">
            <path id="Path_127" data-name="Path 127" d="M212.776,488a4.523,4.523,0,0,0-.23,1.4l.009-3.332a4.511,4.511,0,0,1,.23-1.4q0,.833,0,1.666c0,.131,0,.305,0,.436l0,.637c0,.121,0,.281,0,.4A1.364,1.364,0,0,1,212.776,488Z" transform="translate(-212.546 -484.666)" fill="#ffd025"/>
          </g>
          <g id="Group_133" data-name="Group 133" transform="translate(3.547 9.552)">
            <path id="Path_128" data-name="Path 128" d="M238.566,488.51l-.009,3.332c-.006,1.916-1.265,3.829-3.78,5.291-5.063,2.942-13.3,2.942-18.391,0-2.564-1.48-3.845-3.424-3.84-5.364l.009-3.332c-.005,1.94,1.275,3.884,3.84,5.364,5.093,2.941,13.328,2.941,18.391,0C237.3,492.339,238.561,490.426,238.566,488.51Z" transform="translate(-212.546 -488.438)" fill="#fcca0d"/>
          </g>
          <g id="Group_134" data-name="Group 134" transform="translate(29.557 9.588)">
            <path id="Path_129" data-name="Path 129" d="M282.544,491.9v-.036q0-1.666.009-3.332v.037C282.551,489.571,282.547,490.9,282.544,491.9Z" transform="translate(-282.544 -488.535)" fill="#ffd025"/>
          </g>
          <g id="Group_135" data-name="Group 135" transform="translate(3.556 2.055)">
            <path id="Path_130" data-name="Path 130" d="M234.745,470.47c5.094,2.941,5.121,7.711.058,10.653s-13.3,2.942-18.391,0-5.123-7.712-.06-10.654S229.648,467.528,234.745,470.47Z" transform="translate(-212.571 -468.263)" fill="#fcca0d"/>
          </g>
          <path id="Path_131" data-name="Path 131" d="M216.357,472.328c5.063-2.942,13.3-2.942,18.394,0a7.115,7.115,0,0,1,3.735,4.422c.477-2.232-.768-4.566-3.735-6.28-5.1-2.942-13.331-2.942-18.394,0-2.928,1.7-4.15,4.014-3.677,6.231A7.046,7.046,0,0,1,216.357,472.328Z" transform="translate(-209.021 -466.208)" fill="#d99a32"/>
          <g id="Group_136" data-name="Group 136" transform="translate(0 9.54)">
            <path id="Path_132" data-name="Path 132" d="M236.117,488.5l-.009,3.332c-.007,2.438-1.609,4.873-4.811,6.734-6.442,3.743-16.922,3.743-23.407,0-3.264-1.885-4.894-4.358-4.888-6.828l.01-3.332c-.007,2.47,1.623,4.943,4.888,6.828,6.484,3.743,16.965,3.743,23.407,0C234.508,493.373,236.11,490.938,236.117,488.5Z" transform="translate(-203.002 -488.406)" fill="#d99a32"/>
          </g>
          <g id="Group_137" data-name="Group 137" transform="translate(0.01)">
            <path id="Path_133" data-name="Path 133" d="M231.248,465.541c6.484,3.743,6.518,9.815.074,13.559s-16.923,3.743-23.407,0-6.521-9.816-.079-13.559S224.762,461.8,231.248,465.541Zm-20.834,12.108c5.093,2.941,13.328,2.941,18.391,0s5.036-7.712-.058-10.653-13.331-2.942-18.394,0-5.036,7.712.06,10.654" transform="translate(-203.028 -462.732)" fill="#ffd025"/>
          </g>
        </g>
      </g>
      <g id="Group_148" data-name="Group 148" transform="translate(0 30.13)">
        <g id="Group_147" data-name="Group 147">
          <g id="Group_140" data-name="Group 140" transform="translate(3.777 2.055)">
            <path id="Path_134" data-name="Path 134" d="M214.715,463.667a7.425,7.425,0,0,0-3.55,3.888q.005-1.666.01-3.332a7.424,7.424,0,0,1,3.549-3.888c5.063-2.942,13.3-2.942,18.394,0,2.547,1.47,3.827,3.4,3.837,5.326q0,1.666-.009,3.332c-.011-1.928-1.291-3.855-3.838-5.326C228.012,460.725,219.778,460.725,214.715,463.667Z" transform="translate(-211.165 -458.128)" fill="#ffd025"/>
          </g>
          <g id="Group_141" data-name="Group 141" transform="translate(3.547 8.15)">
            <path id="Path_135" data-name="Path 135" d="M210.776,477.862a4.521,4.521,0,0,0-.23,1.4l.009-3.332a4.512,4.512,0,0,1,.23-1.4q0,.833,0,1.666c0,.131,0,.305,0,.436l0,.637c0,.121,0,.281,0,.4A1.363,1.363,0,0,1,210.776,477.862Z" transform="translate(-210.546 -474.53)" fill="#ffd025"/>
          </g>
          <g id="Group_142" data-name="Group 142" transform="translate(3.547 9.552)">
            <path id="Path_136" data-name="Path 136" d="M236.566,478.375l-.009,3.332c-.006,1.916-1.265,3.828-3.78,5.29-5.063,2.942-13.3,2.942-18.391,0-2.564-1.48-3.845-3.424-3.84-5.364l.009-3.332c-.005,1.94,1.275,3.884,3.84,5.364,5.093,2.941,13.328,2.941,18.391,0C235.3,482.2,236.561,480.291,236.566,478.375Z" transform="translate(-210.546 -478.303)" fill="#fcca0d"/>
          </g>
          <g id="Group_143" data-name="Group 143" transform="translate(29.557 9.588)">
            <path id="Path_137" data-name="Path 137" d="M280.544,481.768v-.037q0-1.666.009-3.332v.036C280.551,479.436,280.547,480.769,280.544,481.768Z" transform="translate(-280.544 -478.4)" fill="#ffd025"/>
          </g>
          <g id="Group_144" data-name="Group 144" transform="translate(3.556 2.055)">
            <path id="Path_138" data-name="Path 138" d="M232.745,460.335c5.094,2.941,5.121,7.71.058,10.652s-13.3,2.943-18.391,0-5.123-7.712-.06-10.654S227.648,457.393,232.745,460.335Z" transform="translate(-210.571 -458.128)" fill="#fcca0d"/>
          </g>
          <path id="Path_139" data-name="Path 139" d="M214.357,462.193c5.063-2.942,13.3-2.942,18.394,0a7.116,7.116,0,0,1,3.735,4.421c.477-2.232-.768-4.566-3.735-6.279-5.1-2.942-13.331-2.942-18.394,0-2.928,1.7-4.15,4.014-3.677,6.231A7.044,7.044,0,0,1,214.357,462.193Z" transform="translate(-207.021 -456.073)" fill="#d99a32"/>
          <g id="Group_145" data-name="Group 145" transform="translate(0 9.54)">
            <path id="Path_140" data-name="Path 140" d="M234.117,478.365l-.009,3.332c-.007,2.438-1.609,4.873-4.811,6.734-6.442,3.744-16.922,3.744-23.407,0-3.264-1.885-4.894-4.358-4.888-6.828l.01-3.332c-.007,2.47,1.623,4.944,4.888,6.828,6.484,3.743,16.965,3.743,23.407,0C232.508,483.237,234.11,480.8,234.117,478.365Z" transform="translate(-201.002 -478.27)" fill="#d99a32"/>
          </g>
          <g id="Group_146" data-name="Group 146" transform="translate(0.01)">
            <path id="Path_141" data-name="Path 141" d="M229.248,455.406c6.484,3.743,6.518,9.814.074,13.559s-16.923,3.744-23.407,0-6.521-9.816-.079-13.559S222.762,451.661,229.248,455.406Zm-20.834,12.107c5.093,2.941,13.328,2.941,18.391,0s5.036-7.712-.058-10.652-13.331-2.942-18.394,0-5.036,7.712.06,10.654" transform="translate(-201.028 -452.597)" fill="#ffd025"/>
          </g>
        </g>
      </g>
      <g id="Group_157" data-name="Group 157" transform="translate(1.486 26.363)">
        <g id="Group_156" data-name="Group 156">
          <g id="Group_149" data-name="Group 149" transform="translate(3.777 2.056)">
            <path id="Path_142" data-name="Path 142" d="M218.715,453.532a7.426,7.426,0,0,0-3.55,3.888q.005-1.666.01-3.332a7.423,7.423,0,0,1,3.549-3.888c5.063-2.942,13.3-2.942,18.394,0,2.547,1.471,3.827,3.4,3.837,5.326q0,1.666-.009,3.332c-.011-1.928-1.291-3.856-3.838-5.326C232.012,450.59,223.778,450.59,218.715,453.532Z" transform="translate(-215.165 -447.993)" fill="#ffd025"/>
          </g>
          <g id="Group_150" data-name="Group 150" transform="translate(3.547 8.15)">
            <path id="Path_143" data-name="Path 143" d="M214.776,467.727a4.521,4.521,0,0,0-.23,1.4l.009-3.332a4.511,4.511,0,0,1,.23-1.4q0,.833,0,1.666c0,.131,0,.305,0,.436l0,.637c0,.12,0,.281,0,.4A1.369,1.369,0,0,1,214.776,467.727Z" transform="translate(-214.546 -464.395)" fill="#ffd025"/>
          </g>
          <g id="Group_151" data-name="Group 151" transform="translate(3.547 9.552)">
            <path id="Path_144" data-name="Path 144" d="M240.566,468.239l-.009,3.332c-.006,1.916-1.265,3.828-3.78,5.29-5.063,2.942-13.3,2.942-18.391,0-2.564-1.481-3.845-3.424-3.84-5.364l.009-3.332c-.005,1.94,1.275,3.884,3.84,5.364,5.093,2.941,13.328,2.941,18.391,0C239.3,472.068,240.561,470.155,240.566,468.239Z" transform="translate(-214.546 -468.167)" fill="#fcca0d"/>
          </g>
          <g id="Group_152" data-name="Group 152" transform="translate(29.557 9.588)">
            <path id="Path_145" data-name="Path 145" d="M284.544,471.633V471.6q0-1.666.009-3.332v.037C284.551,469.3,284.547,470.633,284.544,471.633Z" transform="translate(-284.544 -468.264)" fill="#ffd025"/>
          </g>
          <g id="Group_153" data-name="Group 153" transform="translate(3.556 2.056)">
            <path id="Path_146" data-name="Path 146" d="M236.745,450.2c5.094,2.941,5.121,7.711.058,10.653s-13.3,2.942-18.391,0-5.123-7.712-.06-10.654S231.648,447.258,236.745,450.2Z" transform="translate(-214.571 -447.993)" fill="#fcca0d"/>
          </g>
          <path id="Path_147" data-name="Path 147" d="M218.357,452.058c5.063-2.942,13.3-2.942,18.394,0a7.116,7.116,0,0,1,3.735,4.422c.477-2.232-.768-4.566-3.735-6.28-5.1-2.942-13.331-2.942-18.394,0-2.928,1.7-4.15,4.014-3.677,6.231A7.044,7.044,0,0,1,218.357,452.058Z" transform="translate(-211.021 -445.938)" fill="#d99a32"/>
          <g id="Group_154" data-name="Group 154" transform="translate(0 9.54)">
            <path id="Path_148" data-name="Path 148" d="M238.117,468.229l-.009,3.332C238.1,474,236.5,476.435,233.3,478.3c-6.442,3.743-16.922,3.744-23.407,0-3.264-1.885-4.894-4.358-4.888-6.828l.01-3.332c-.007,2.47,1.623,4.944,4.888,6.828,6.484,3.744,16.965,3.744,23.407,0C236.508,473.1,238.11,470.668,238.117,468.229Z" transform="translate(-205.002 -468.135)" fill="#d99a32"/>
          </g>
          <g id="Group_155" data-name="Group 155" transform="translate(0.01)">
            <path id="Path_149" data-name="Path 149" d="M233.248,445.27c6.484,3.744,6.518,9.815.074,13.559s-16.923,3.744-23.407,0-6.521-9.816-.079-13.559S226.762,441.525,233.248,445.27Zm-20.834,12.108c5.093,2.941,13.328,2.941,18.391,0s5.036-7.712-.058-10.653-13.331-2.942-18.394,0-5.036,7.712.06,10.654" transform="translate(-205.028 -442.462)" fill="#ffd025"/>
          </g>
        </g>
      </g>
      <g id="Group_166" data-name="Group 166" transform="translate(0 22.597)">
        <g id="Group_165" data-name="Group 165">
          <g id="Group_158" data-name="Group 158" transform="translate(3.777 2.055)">
            <path id="Path_150" data-name="Path 150" d="M214.715,443.4a7.425,7.425,0,0,0-3.55,3.888q.005-1.666.01-3.332a7.425,7.425,0,0,1,3.549-3.888c5.063-2.942,13.3-2.942,18.394,0,2.547,1.47,3.827,3.4,3.837,5.326q0,1.666-.009,3.332c-.011-1.928-1.291-3.856-3.838-5.326C228.012,440.454,219.778,440.454,214.715,443.4Z" transform="translate(-211.165 -437.857)" fill="#ffd025"/>
          </g>
          <g id="Group_159" data-name="Group 159" transform="translate(3.547 8.15)">
            <path id="Path_151" data-name="Path 151" d="M210.776,457.592a4.525,4.525,0,0,0-.23,1.4l.009-3.332a4.511,4.511,0,0,1,.23-1.4q0,.833,0,1.666c0,.131,0,.305,0,.436l0,.637c0,.121,0,.282,0,.4A1.364,1.364,0,0,1,210.776,457.592Z" transform="translate(-210.546 -454.26)" fill="#ffd025"/>
          </g>
          <g id="Group_160" data-name="Group 160" transform="translate(3.547 9.552)">
            <path id="Path_152" data-name="Path 152" d="M236.566,458.1l-.009,3.332c-.006,1.916-1.265,3.829-3.78,5.29-5.063,2.942-13.3,2.942-18.391,0-2.564-1.481-3.845-3.424-3.84-5.364l.009-3.332c-.005,1.94,1.275,3.884,3.84,5.364,5.093,2.941,13.328,2.941,18.391,0C235.3,461.933,236.561,460.02,236.566,458.1Z" transform="translate(-210.546 -458.032)" fill="#fcca0d"/>
          </g>
          <g id="Group_161" data-name="Group 161" transform="translate(29.557 9.588)">
            <path id="Path_153" data-name="Path 153" d="M280.544,461.5v-.037q0-1.666.009-3.332v.037C280.551,459.165,280.547,460.5,280.544,461.5Z" transform="translate(-280.544 -458.129)" fill="#ffd025"/>
          </g>
          <g id="Group_162" data-name="Group 162" transform="translate(3.556 2.055)">
            <path id="Path_154" data-name="Path 154" d="M232.745,440.064c5.094,2.941,5.121,7.711.058,10.653s-13.3,2.942-18.391,0-5.123-7.712-.06-10.654S227.648,437.122,232.745,440.064Z" transform="translate(-210.571 -437.857)" fill="#fcca0d"/>
          </g>
          <path id="Path_155" data-name="Path 155" d="M214.357,441.922c5.063-2.942,13.3-2.942,18.394,0a7.115,7.115,0,0,1,3.735,4.422c.477-2.232-.768-4.566-3.735-6.28-5.1-2.942-13.331-2.942-18.394,0-2.928,1.7-4.15,4.014-3.677,6.231A7.046,7.046,0,0,1,214.357,441.922Z" transform="translate(-207.021 -435.802)" fill="#d99a32"/>
          <g id="Group_163" data-name="Group 163" transform="translate(0 9.54)">
            <path id="Path_156" data-name="Path 156" d="M234.117,458.094l-.009,3.332c-.007,2.438-1.609,4.873-4.811,6.734-6.442,3.743-16.922,3.743-23.407,0-3.264-1.885-4.894-4.358-4.888-6.828l.01-3.332c-.007,2.47,1.623,4.943,4.888,6.828,6.484,3.743,16.965,3.743,23.407,0C232.508,462.967,234.11,460.533,234.117,458.094Z" transform="translate(-201.002 -458)" fill="#d99a32"/>
          </g>
          <g id="Group_164" data-name="Group 164" transform="translate(0.01)">
            <path id="Path_157" data-name="Path 157" d="M229.248,435.135c6.484,3.743,6.518,9.815.074,13.559s-16.923,3.743-23.407,0-6.521-9.816-.079-13.559S222.762,431.39,229.248,435.135Zm-20.834,12.108c5.093,2.941,13.328,2.941,18.391,0s5.036-7.712-.058-10.653-13.331-2.942-18.394,0-5.036,7.712.06,10.654" transform="translate(-201.028 -432.326)" fill="#ffd025"/>
          </g>
        </g>
      </g>
      <g id="Group_175" data-name="Group 175" transform="translate(0.743 18.831)">
        <g id="Group_174" data-name="Group 174">
          <g id="Group_167" data-name="Group 167" transform="translate(3.777 2.055)">
            <path id="Path_158" data-name="Path 158" d="M216.715,433.261a7.425,7.425,0,0,0-3.55,3.888q.005-1.666.01-3.332a7.424,7.424,0,0,1,3.549-3.888c5.063-2.942,13.3-2.942,18.394,0,2.547,1.47,3.827,3.4,3.837,5.326q0,1.666-.009,3.332c-.011-1.928-1.291-3.856-3.838-5.326C230.012,430.319,221.778,430.319,216.715,433.261Z" transform="translate(-213.165 -427.723)" fill="#ffd025"/>
          </g>
          <g id="Group_168" data-name="Group 168" transform="translate(3.547 8.15)">
            <path id="Path_159" data-name="Path 159" d="M212.776,447.456a4.524,4.524,0,0,0-.23,1.4l.009-3.332a4.513,4.513,0,0,1,.23-1.4q0,.833,0,1.666c0,.131,0,.305,0,.436l0,.637c0,.121,0,.281,0,.4A1.363,1.363,0,0,1,212.776,447.456Z" transform="translate(-212.546 -444.124)" fill="#ffd025"/>
          </g>
          <g id="Group_169" data-name="Group 169" transform="translate(3.547 9.552)">
            <path id="Path_160" data-name="Path 160" d="M238.566,447.969l-.009,3.332c-.006,1.916-1.265,3.829-3.78,5.29-5.063,2.942-13.3,2.942-18.391,0-2.564-1.48-3.845-3.424-3.84-5.364l.009-3.332c-.005,1.94,1.275,3.884,3.84,5.364,5.093,2.941,13.328,2.941,18.391,0C237.3,451.8,238.561,449.885,238.566,447.969Z" transform="translate(-212.546 -447.897)" fill="#fcca0d"/>
          </g>
          <g id="Group_170" data-name="Group 170" transform="translate(29.557 9.588)">
            <path id="Path_161" data-name="Path 161" d="M282.544,451.362v-.036q0-1.666.009-3.332v.037C282.551,449.03,282.547,450.363,282.544,451.362Z" transform="translate(-282.544 -447.994)" fill="#ffd025"/>
          </g>
          <g id="Group_171" data-name="Group 171" transform="translate(3.556 2.055)">
            <path id="Path_162" data-name="Path 162" d="M234.745,429.929c5.094,2.941,5.121,7.711.058,10.653s-13.3,2.942-18.391,0-5.123-7.712-.06-10.654S229.648,426.987,234.745,429.929Z" transform="translate(-212.571 -427.723)" fill="#fcca0d"/>
          </g>
          <path id="Path_163" data-name="Path 163" d="M216.357,431.787c5.063-2.942,13.3-2.942,18.394,0a7.116,7.116,0,0,1,3.735,4.421c.477-2.232-.768-4.566-3.735-6.279-5.1-2.942-13.331-2.942-18.394,0-2.928,1.7-4.15,4.014-3.677,6.231A7.045,7.045,0,0,1,216.357,431.787Z" transform="translate(-209.021 -425.667)" fill="#d99a32"/>
          <g id="Group_172" data-name="Group 172" transform="translate(0 9.54)">
            <path id="Path_164" data-name="Path 164" d="M236.117,447.959l-.009,3.332c-.007,2.438-1.609,4.873-4.811,6.733-6.442,3.744-16.922,3.744-23.407,0C204.625,456.14,203,453.667,203,451.2l.01-3.332c-.007,2.47,1.623,4.943,4.888,6.828,6.484,3.743,16.965,3.743,23.407,0C234.508,452.832,236.11,450.4,236.117,447.959Z" transform="translate(-203.002 -447.865)" fill="#d99a32"/>
          </g>
          <g id="Group_173" data-name="Group 173" transform="translate(0.01)">
            <path id="Path_165" data-name="Path 165" d="M231.248,425c6.484,3.743,6.518,9.814.074,13.559s-16.923,3.743-23.407,0-6.521-9.816-.079-13.559S224.762,421.255,231.248,425Zm-20.834,12.107c5.093,2.941,13.328,2.941,18.391,0s5.036-7.712-.058-10.653-13.331-2.942-18.394,0-5.036,7.712.06,10.654" transform="translate(-203.028 -422.191)" fill="#ffd025"/>
          </g>
        </g>
      </g>
      <g id="Group_184" data-name="Group 184" transform="translate(1.486 15.437)">
        <g id="Group_183" data-name="Group 183">
          <g id="Group_176" data-name="Group 176" transform="translate(3.777 2.055)">
            <path id="Path_166" data-name="Path 166" d="M218.715,424.126a7.424,7.424,0,0,0-3.55,3.888q.005-1.666.01-3.332a7.424,7.424,0,0,1,3.549-3.888c5.063-2.942,13.3-2.942,18.394,0,2.547,1.47,3.827,3.4,3.837,5.326q0,1.666-.009,3.332c-.011-1.928-1.291-3.855-3.838-5.326C232.012,421.184,223.778,421.184,218.715,424.126Z" transform="translate(-215.165 -418.587)" fill="#ffd025"/>
          </g>
          <g id="Group_177" data-name="Group 177" transform="translate(3.547 8.15)">
            <path id="Path_167" data-name="Path 167" d="M214.776,438.321a4.521,4.521,0,0,0-.23,1.4l.009-3.332a4.511,4.511,0,0,1,.23-1.4q0,.833,0,1.666c0,.131,0,.305,0,.436l0,.637c0,.12,0,.281,0,.4A1.369,1.369,0,0,1,214.776,438.321Z" transform="translate(-214.546 -434.989)" fill="#ffd025"/>
          </g>
          <g id="Group_178" data-name="Group 178" transform="translate(3.547 9.552)">
            <path id="Path_168" data-name="Path 168" d="M240.566,438.834l-.009,3.332c-.006,1.916-1.265,3.829-3.78,5.29-5.063,2.942-13.3,2.942-18.391,0-2.564-1.48-3.845-3.424-3.84-5.364l.009-3.332c-.005,1.94,1.275,3.884,3.84,5.364,5.093,2.941,13.328,2.941,18.391,0C239.3,442.663,240.561,440.75,240.566,438.834Z" transform="translate(-214.546 -438.762)" fill="#fcca0d"/>
          </g>
          <g id="Group_179" data-name="Group 179" transform="translate(29.557 9.588)">
            <path id="Path_169" data-name="Path 169" d="M284.544,442.227v-.037q0-1.666.009-3.332v.036C284.551,439.895,284.547,441.228,284.544,442.227Z" transform="translate(-284.544 -438.859)" fill="#ffd025"/>
          </g>
          <g id="Group_180" data-name="Group 180" transform="translate(3.556 2.055)">
            <path id="Path_170" data-name="Path 170" d="M236.745,420.794c5.094,2.941,5.121,7.71.058,10.652s-13.3,2.942-18.391,0-5.123-7.712-.06-10.654S231.648,417.852,236.745,420.794Z" transform="translate(-214.571 -418.587)" fill="#fcca0d"/>
          </g>
          <path id="Path_171" data-name="Path 171" d="M218.357,422.652c5.063-2.942,13.3-2.942,18.394,0a7.115,7.115,0,0,1,3.735,4.421c.477-2.232-.768-4.566-3.735-6.279-5.1-2.942-13.331-2.942-18.394,0-2.928,1.7-4.15,4.014-3.677,6.231A7.044,7.044,0,0,1,218.357,422.652Z" transform="translate(-211.021 -416.532)" fill="#d99a32"/>
          <g id="Group_181" data-name="Group 181" transform="translate(0 9.54)">
            <path id="Path_172" data-name="Path 172" d="M238.117,438.823l-.009,3.332c-.007,2.438-1.609,4.873-4.811,6.734-6.442,3.744-16.922,3.744-23.407,0C206.625,447,205,444.531,205,442.061l.01-3.332c-.007,2.47,1.623,4.944,4.888,6.828,6.484,3.743,16.965,3.743,23.407,0C236.508,443.7,238.11,441.262,238.117,438.823Z" transform="translate(-205.002 -438.729)" fill="#d99a32"/>
          </g>
          <g id="Group_182" data-name="Group 182" transform="translate(0.01)">
            <path id="Path_173" data-name="Path 173" d="M233.248,415.864c6.484,3.744,6.518,9.815.074,13.559s-16.923,3.744-23.407,0-6.521-9.816-.079-13.559S226.762,412.12,233.248,415.864Zm-20.834,12.108c5.093,2.941,13.328,2.941,18.391,0s5.036-7.712-.058-10.652-13.331-2.942-18.394,0-5.036,7.712.06,10.654" transform="translate(-205.028 -413.056)" fill="#ffd025"/>
          </g>
        </g>
      </g>
      <g id="Group_193" data-name="Group 193" transform="translate(0 11.299)">
        <g id="Group_192" data-name="Group 192">
          <g id="Group_185" data-name="Group 185" transform="translate(3.777 2.055)">
            <path id="Path_174" data-name="Path 174" d="M214.715,412.99a7.424,7.424,0,0,0-3.55,3.888q.005-1.666.01-3.332a7.423,7.423,0,0,1,3.549-3.888c5.063-2.943,13.3-2.943,18.394,0,2.547,1.471,3.827,3.4,3.837,5.326q0,1.666-.009,3.332c-.011-1.928-1.291-3.856-3.838-5.326C228.012,410.048,219.778,410.048,214.715,412.99Z" transform="translate(-211.165 -407.452)" fill="#ffd025"/>
          </g>
          <g id="Group_186" data-name="Group 186" transform="translate(3.547 8.15)">
            <path id="Path_175" data-name="Path 175" d="M210.776,427.186a4.521,4.521,0,0,0-.23,1.4l.009-3.332a4.511,4.511,0,0,1,.23-1.4q0,.833,0,1.666c0,.131,0,.305,0,.436l0,.637c0,.12,0,.281,0,.4A1.37,1.37,0,0,1,210.776,427.186Z" transform="translate(-210.546 -423.854)" fill="#ffd025"/>
          </g>
          <g id="Group_187" data-name="Group 187" transform="translate(3.547 9.552)">
            <path id="Path_176" data-name="Path 176" d="M236.566,427.7l-.009,3.332c-.006,1.916-1.265,3.828-3.78,5.29-5.063,2.942-13.3,2.942-18.391,0-2.564-1.481-3.845-3.424-3.84-5.364l.009-3.332c-.005,1.94,1.275,3.884,3.84,5.364,5.093,2.941,13.328,2.941,18.391,0C235.3,431.527,236.561,429.614,236.566,427.7Z" transform="translate(-210.546 -427.626)" fill="#fcca0d"/>
          </g>
          <g id="Group_188" data-name="Group 188" transform="translate(29.557 9.588)">
            <path id="Path_177" data-name="Path 177" d="M280.544,431.092v-.037q0-1.666.009-3.332v.037C280.551,428.759,280.547,430.092,280.544,431.092Z" transform="translate(-280.544 -427.723)" fill="#ffd025"/>
          </g>
          <g id="Group_189" data-name="Group 189" transform="translate(3.556 2.055)">
            <path id="Path_178" data-name="Path 178" d="M232.745,409.658c5.094,2.941,5.121,7.711.058,10.653s-13.3,2.942-18.391,0-5.123-7.712-.06-10.654S227.648,406.716,232.745,409.658Z" transform="translate(-210.571 -407.452)" fill="#fcca0d"/>
          </g>
          <path id="Path_179" data-name="Path 179" d="M214.357,411.517c5.063-2.943,13.3-2.943,18.394,0a7.116,7.116,0,0,1,3.735,4.422c.477-2.232-.768-4.566-3.735-6.28-5.1-2.942-13.331-2.942-18.394,0-2.928,1.7-4.15,4.014-3.677,6.231A7.044,7.044,0,0,1,214.357,411.517Z" transform="translate(-207.021 -405.396)" fill="#d99a32"/>
          <g id="Group_190" data-name="Group 190" transform="translate(0 9.54)">
            <path id="Path_180" data-name="Path 180" d="M234.117,427.688l-.009,3.332c-.007,2.438-1.609,4.873-4.811,6.734-6.442,3.743-16.922,3.743-23.407,0-3.264-1.885-4.894-4.358-4.888-6.828l.01-3.332c-.007,2.47,1.623,4.943,4.888,6.828,6.484,3.744,16.965,3.744,23.407,0C232.508,432.561,234.11,430.127,234.117,427.688Z" transform="translate(-201.002 -427.594)" fill="#d99a32"/>
          </g>
          <g id="Group_191" data-name="Group 191" transform="translate(0.01)">
            <path id="Path_181" data-name="Path 181" d="M229.248,404.729c6.484,3.744,6.518,9.815.074,13.559s-16.923,3.744-23.407,0-6.521-9.816-.079-13.559S222.762,400.984,229.248,404.729Zm-20.834,12.108c5.093,2.941,13.328,2.941,18.391,0s5.036-7.712-.058-10.653-13.331-2.942-18.394,0-5.036,7.712.06,10.654" transform="translate(-201.028 -401.92)" fill="#ffd025"/>
          </g>
        </g>
      </g>
      <g id="Group_202" data-name="Group 202" transform="translate(1.486 7.533)">
        <g id="Group_201" data-name="Group 201">
          <g id="Group_194" data-name="Group 194" transform="translate(3.777 2.055)">
            <path id="Path_182" data-name="Path 182" d="M218.715,402.855a7.425,7.425,0,0,0-3.55,3.888q.005-1.666.01-3.332a7.424,7.424,0,0,1,3.549-3.888c5.063-2.942,13.3-2.942,18.394,0,2.547,1.47,3.827,3.4,3.837,5.326q0,1.666-.009,3.332c-.011-1.928-1.291-3.856-3.838-5.326C232.012,399.913,223.778,399.913,218.715,402.855Z" transform="translate(-215.165 -397.316)" fill="#ffd025"/>
          </g>
          <g id="Group_195" data-name="Group 195" transform="translate(3.547 8.15)">
            <path id="Path_183" data-name="Path 183" d="M214.776,417.051a4.523,4.523,0,0,0-.23,1.4l.009-3.332a4.511,4.511,0,0,1,.23-1.4q0,.833,0,1.666c0,.131,0,.305,0,.436l0,.637c0,.121,0,.281,0,.4A1.364,1.364,0,0,1,214.776,417.051Z" transform="translate(-214.546 -413.719)" fill="#ffd025"/>
          </g>
          <g id="Group_196" data-name="Group 196" transform="translate(3.547 9.552)">
            <path id="Path_184" data-name="Path 184" d="M240.566,417.563l-.009,3.332c-.006,1.916-1.265,3.828-3.78,5.29-5.063,2.943-13.3,2.943-18.391,0-2.564-1.48-3.845-3.424-3.84-5.364l.009-3.332c-.005,1.94,1.275,3.884,3.84,5.364,5.093,2.941,13.328,2.941,18.391,0C239.3,421.392,240.561,419.479,240.566,417.563Z" transform="translate(-214.546 -417.491)" fill="#fcca0d"/>
          </g>
          <g id="Group_197" data-name="Group 197" transform="translate(29.557 9.588)">
            <path id="Path_185" data-name="Path 185" d="M284.544,420.956v-.036q0-1.666.009-3.332v.037C284.551,418.624,284.547,419.957,284.544,420.956Z" transform="translate(-284.544 -417.588)" fill="#ffd025"/>
          </g>
          <g id="Group_198" data-name="Group 198" transform="translate(3.556 2.055)">
            <path id="Path_186" data-name="Path 186" d="M236.745,399.523c5.094,2.941,5.121,7.711.058,10.653s-13.3,2.942-18.391,0-5.123-7.712-.06-10.654S231.648,396.581,236.745,399.523Z" transform="translate(-214.571 -397.316)" fill="#fcca0d"/>
          </g>
          <path id="Path_187" data-name="Path 187" d="M218.357,401.381c5.063-2.942,13.3-2.942,18.394,0a7.115,7.115,0,0,1,3.735,4.422c.477-2.232-.768-4.566-3.735-6.28-5.1-2.942-13.331-2.942-18.394,0-2.928,1.7-4.15,4.014-3.677,6.231A7.046,7.046,0,0,1,218.357,401.381Z" transform="translate(-211.021 -395.261)" fill="#d99a32"/>
          <g id="Group_199" data-name="Group 199" transform="translate(0 9.54)">
            <path id="Path_188" data-name="Path 188" d="M238.117,417.553l-.009,3.332c-.007,2.438-1.609,4.873-4.811,6.734-6.442,3.743-16.922,3.743-23.407,0-3.264-1.885-4.894-4.358-4.888-6.828l.01-3.332c-.007,2.47,1.623,4.943,4.888,6.828,6.484,3.743,16.965,3.743,23.407,0C236.508,422.426,238.11,419.991,238.117,417.553Z" transform="translate(-205.002 -417.459)" fill="#d99a32"/>
          </g>
          <g id="Group_200" data-name="Group 200" transform="translate(0.01)">
            <path id="Path_189" data-name="Path 189" d="M233.248,394.594c6.484,3.743,6.518,9.815.074,13.559s-16.923,3.743-23.407,0-6.521-9.816-.079-13.559S226.762,390.849,233.248,394.594ZM212.414,406.7c5.093,2.941,13.328,2.941,18.391,0s5.036-7.712-.058-10.653-13.331-2.942-18.394,0-5.036,7.712.06,10.654" transform="translate(-205.028 -391.785)" fill="#ffd025"/>
          </g>
        </g>
      </g>
      <g id="Group_211" data-name="Group 211" transform="translate(0.372 3.766)">
        <g id="Group_210" data-name="Group 210">
          <g id="Group_203" data-name="Group 203" transform="translate(3.777 2.055)">
            <path id="Path_190" data-name="Path 190" d="M215.715,392.72a7.425,7.425,0,0,0-3.55,3.888q.005-1.666.01-3.332a7.424,7.424,0,0,1,3.549-3.888c5.063-2.942,13.3-2.942,18.394,0,2.547,1.47,3.827,3.4,3.837,5.326q0,1.666-.009,3.332c-.011-1.928-1.291-3.855-3.838-5.326C229.012,389.778,220.778,389.778,215.715,392.72Z" transform="translate(-212.165 -387.181)" fill="#ffd025"/>
          </g>
          <g id="Group_204" data-name="Group 204" transform="translate(3.547 8.15)">
            <path id="Path_191" data-name="Path 191" d="M211.776,406.915a4.521,4.521,0,0,0-.23,1.4l.009-3.332a4.513,4.513,0,0,1,.23-1.4q0,.833,0,1.666c0,.131,0,.305,0,.436l0,.637c0,.12,0,.281,0,.4A1.364,1.364,0,0,1,211.776,406.915Z" transform="translate(-211.546 -403.583)" fill="#ffd025"/>
          </g>
          <g id="Group_205" data-name="Group 205" transform="translate(3.547 9.552)">
            <path id="Path_192" data-name="Path 192" d="M237.566,407.428l-.009,3.332c-.006,1.916-1.265,3.829-3.78,5.29-5.063,2.942-13.3,2.942-18.391,0-2.564-1.48-3.845-3.424-3.84-5.364l.009-3.332c-.005,1.94,1.275,3.884,3.84,5.364,5.093,2.941,13.328,2.941,18.391,0C236.3,411.257,237.561,409.344,237.566,407.428Z" transform="translate(-211.546 -407.356)" fill="#fcca0d"/>
          </g>
          <g id="Group_206" data-name="Group 206" transform="translate(29.557 9.588)">
            <path id="Path_193" data-name="Path 193" d="M281.544,410.821v-.037q0-1.666.009-3.332v.036C281.551,408.489,281.547,409.822,281.544,410.821Z" transform="translate(-281.544 -407.453)" fill="#ffd025"/>
          </g>
          <g id="Group_207" data-name="Group 207" transform="translate(3.556 2.055)">
            <path id="Path_194" data-name="Path 194" d="M233.745,389.388c5.094,2.941,5.121,7.71.058,10.652s-13.3,2.943-18.391,0-5.123-7.712-.06-10.654S228.648,386.446,233.745,389.388Z" transform="translate(-211.571 -387.181)" fill="#fcca0d"/>
          </g>
          <path id="Path_195" data-name="Path 195" d="M215.357,391.246c5.063-2.942,13.3-2.942,18.394,0a7.116,7.116,0,0,1,3.735,4.421c.477-2.232-.768-4.566-3.735-6.279-5.1-2.942-13.331-2.942-18.394,0-2.928,1.7-4.15,4.014-3.677,6.231A7.044,7.044,0,0,1,215.357,391.246Z" transform="translate(-208.021 -385.126)" fill="#d99a32"/>
          <g id="Group_208" data-name="Group 208" transform="translate(0 9.54)">
            <path id="Path_196" data-name="Path 196" d="M235.117,407.418l-.009,3.332c-.007,2.438-1.609,4.873-4.811,6.734-6.442,3.744-16.922,3.744-23.407,0-3.264-1.885-4.894-4.358-4.888-6.828l.01-3.332c-.007,2.47,1.623,4.944,4.888,6.828,6.484,3.743,16.965,3.743,23.407,0C233.508,412.29,235.11,409.856,235.117,407.418Z" transform="translate(-202.002 -407.323)" fill="#d99a32"/>
          </g>
          <g id="Group_209" data-name="Group 209" transform="translate(0.01)">
            <path id="Path_197" data-name="Path 197" d="M230.248,384.459c6.484,3.743,6.518,9.814.074,13.559s-16.923,3.744-23.407,0-6.521-9.816-.079-13.559S223.762,380.714,230.248,384.459Zm-20.834,12.107c5.093,2.941,13.328,2.941,18.391,0s5.036-7.712-.058-10.652-13.331-2.942-18.394,0-5.036,7.712.06,10.654" transform="translate(-202.028 -381.651)" fill="#ffd025"/>
          </g>
        </g>
      </g>
      <g id="Group_220" data-name="Group 220" transform="translate(0.743 0)">
        <g id="Group_219" data-name="Group 219">
          <g id="Group_212" data-name="Group 212" transform="translate(3.777 2.055)">
            <path id="Path_198" data-name="Path 198" d="M216.715,382.585a7.426,7.426,0,0,0-3.55,3.888q.005-1.666.01-3.332a7.423,7.423,0,0,1,3.549-3.888c5.063-2.942,13.3-2.943,18.394,0,2.547,1.471,3.827,3.4,3.837,5.326q0,1.666-.009,3.332c-.011-1.928-1.291-3.856-3.838-5.326C230.012,379.642,221.778,379.642,216.715,382.585Z" transform="translate(-213.165 -377.046)" fill="#ffd025"/>
          </g>
          <g id="Group_213" data-name="Group 213" transform="translate(3.547 8.15)">
            <path id="Path_199" data-name="Path 199" d="M212.776,396.78a4.521,4.521,0,0,0-.23,1.4l.009-3.332a4.511,4.511,0,0,1,.23-1.4q0,.833,0,1.666c0,.131,0,.305,0,.436l0,.637c0,.12,0,.281,0,.4A1.369,1.369,0,0,1,212.776,396.78Z" transform="translate(-212.546 -393.448)" fill="#ffd025"/>
          </g>
          <g id="Group_214" data-name="Group 214" transform="translate(3.547 9.552)">
            <path id="Path_200" data-name="Path 200" d="M238.566,397.292l-.009,3.332c-.006,1.916-1.265,3.829-3.78,5.29-5.063,2.942-13.3,2.942-18.391,0-2.564-1.481-3.845-3.424-3.84-5.364l.009-3.332c-.005,1.94,1.275,3.884,3.84,5.364,5.093,2.941,13.328,2.941,18.391,0C237.3,401.121,238.561,399.208,238.566,397.292Z" transform="translate(-212.546 -397.22)" fill="#fcca0d"/>
          </g>
          <g id="Group_215" data-name="Group 215" transform="translate(29.557 9.588)">
            <path id="Path_201" data-name="Path 201" d="M282.544,400.686v-.037q0-1.666.009-3.332v.037C282.551,398.353,282.547,399.686,282.544,400.686Z" transform="translate(-282.544 -397.317)" fill="#ffd025"/>
          </g>
          <g id="Group_216" data-name="Group 216" transform="translate(3.556 2.056)">
            <path id="Path_202" data-name="Path 202" d="M234.745,379.253c5.094,2.941,5.121,7.711.058,10.653s-13.3,2.942-18.391,0-5.123-7.712-.06-10.654S229.648,376.311,234.745,379.253Z" transform="translate(-212.571 -377.046)" fill="#fcca0d"/>
          </g>
          <path id="Path_203" data-name="Path 203" d="M216.357,381.111c5.063-2.942,13.3-2.942,18.394,0a7.116,7.116,0,0,1,3.735,4.422c.477-2.232-.768-4.566-3.735-6.28-5.1-2.942-13.331-2.942-18.394,0-2.928,1.7-4.15,4.014-3.677,6.231A7.044,7.044,0,0,1,216.357,381.111Z" transform="translate(-209.021 -374.991)" fill="#d99a32"/>
          <g id="Group_217" data-name="Group 217" transform="translate(0 9.54)">
            <path id="Path_204" data-name="Path 204" d="M236.117,397.282l-.009,3.332c-.007,2.438-1.609,4.873-4.811,6.734-6.442,3.743-16.922,3.744-23.407,0-3.264-1.885-4.894-4.358-4.888-6.828l.01-3.332c-.007,2.47,1.623,4.944,4.888,6.828,6.484,3.744,16.965,3.744,23.407,0C234.508,402.155,236.11,399.721,236.117,397.282Z" transform="translate(-203.002 -397.188)" fill="#d99a32"/>
          </g>
          <g id="Group_218" data-name="Group 218" transform="translate(0.01)">
            <path id="Path_205" data-name="Path 205" d="M231.248,374.323c6.484,3.744,6.518,9.815.074,13.559s-16.923,3.744-23.407,0-6.521-9.816-.079-13.559S224.762,370.578,231.248,374.323Zm-20.834,12.108c5.093,2.941,13.328,2.941,18.391,0s5.036-7.712-.058-10.653-13.331-2.942-18.394,0-5.036,7.712.06,10.654" transform="translate(-203.028 -371.515)" fill="#ffd025"/>
          </g>
        </g>
      </g>
    </g>
    <g id="Group_267" data-name="Group 267" transform="translate(944.508 521.049)">
      <g id="Group_230" data-name="Group 230" transform="translate(0.743 15.065)">
        <g id="Group_229" data-name="Group 229">
          <g id="Group_222" data-name="Group 222" transform="translate(3.776 2.055)">
            <path id="Path_208" data-name="Path 208" d="M278.006,525.527a7.425,7.425,0,0,0-3.55,3.888q.005-1.666.01-3.332a7.425,7.425,0,0,1,3.549-3.888c5.063-2.942,13.3-2.942,18.394,0,2.547,1.47,3.827,3.4,3.837,5.326l-.009,3.332c-.01-1.928-1.291-3.855-3.838-5.326C291.3,522.585,283.069,522.585,278.006,525.527Z" transform="translate(-274.456 -519.989)" fill="#ffd025"/>
          </g>
          <g id="Group_223" data-name="Group 223" transform="translate(3.546 8.15)">
            <path id="Path_209" data-name="Path 209" d="M274.067,539.722a4.521,4.521,0,0,0-.23,1.4l.01-3.332a4.511,4.511,0,0,1,.23-1.4q0,.833,0,1.666v.436l0,.637c0,.12,0,.281,0,.4A1.371,1.371,0,0,1,274.067,539.722Z" transform="translate(-273.837 -536.39)" fill="#ffd025"/>
          </g>
          <g id="Group_224" data-name="Group 224" transform="translate(3.546 9.552)">
            <path id="Path_210" data-name="Path 210" d="M299.857,540.235l-.009,3.332c-.006,1.916-1.265,3.829-3.78,5.29-5.063,2.942-13.3,2.942-18.391,0-2.564-1.48-3.845-3.424-3.84-5.364l.01-3.332c-.006,1.94,1.275,3.883,3.84,5.364,5.094,2.941,13.328,2.941,18.391,0C298.593,544.064,299.852,542.151,299.857,540.235Z" transform="translate(-273.837 -540.163)" fill="#fcca0d"/>
          </g>
          <g id="Group_225" data-name="Group 225" transform="translate(29.557 9.588)">
            <path id="Path_211" data-name="Path 211" d="M343.835,543.628v-.037q0-1.666.009-3.332v.036C343.842,541.3,343.838,542.629,343.835,543.628Z" transform="translate(-343.835 -540.26)" fill="#ffd025"/>
          </g>
          <g id="Group_226" data-name="Group 226" transform="translate(3.556 2.055)">
            <path id="Path_212" data-name="Path 212" d="M296.036,522.2c5.094,2.941,5.121,7.71.058,10.652s-13.3,2.942-18.391,0-5.123-7.712-.06-10.654S290.94,519.253,296.036,522.2Z" transform="translate(-273.863 -519.989)" fill="#fcca0d"/>
          </g>
          <path id="Path_213" data-name="Path 213" d="M277.648,524.053c5.063-2.942,13.3-2.942,18.394,0a7.114,7.114,0,0,1,3.735,4.421c.477-2.232-.768-4.566-3.735-6.279-5.1-2.942-13.331-2.942-18.394,0-2.928,1.7-4.15,4.014-3.677,6.231A7.044,7.044,0,0,1,277.648,524.053Z" transform="translate(-270.313 -517.933)" fill="#d99a32"/>
          <g id="Group_227" data-name="Group 227" transform="translate(0 9.54)">
            <path id="Path_214" data-name="Path 214" d="M297.409,540.224l-.009,3.332c-.007,2.438-1.609,4.873-4.811,6.734-6.442,3.744-16.922,3.744-23.406,0-3.264-1.884-4.895-4.358-4.888-6.828l.009-3.332c-.007,2.47,1.623,4.944,4.888,6.828,6.484,3.743,16.965,3.743,23.407,0C295.8,545.1,297.4,542.663,297.409,540.224Z" transform="translate(-264.294 -540.13)" fill="#d99a32"/>
          </g>
          <g id="Group_228" data-name="Group 228" transform="translate(0.009)">
            <path id="Path_215" data-name="Path 215" d="M292.539,517.266c6.484,3.743,6.518,9.814.074,13.559s-16.923,3.744-23.407,0-6.521-9.816-.079-13.559S286.053,513.521,292.539,517.266Zm-20.834,12.107c5.094,2.941,13.328,2.941,18.391,0s5.036-7.712-.058-10.653-13.331-2.942-18.393,0-5.036,7.712.06,10.654" transform="translate(-264.319 -514.457)" fill="#ffd025"/>
          </g>
        </g>
      </g>
      <g id="Group_239" data-name="Group 239" transform="translate(0.743 11.299)">
        <g id="Group_238" data-name="Group 238">
          <g id="Group_231" data-name="Group 231" transform="translate(3.776 2.055)">
            <path id="Path_216" data-name="Path 216" d="M278.006,515.392a7.426,7.426,0,0,0-3.55,3.888q.005-1.666.01-3.332a7.423,7.423,0,0,1,3.549-3.888c5.063-2.942,13.3-2.943,18.394,0,2.547,1.471,3.827,3.4,3.837,5.326l-.009,3.332c-.01-1.928-1.291-3.856-3.838-5.326C291.3,512.449,283.069,512.449,278.006,515.392Z" transform="translate(-274.456 -509.853)" fill="#ffd025"/>
          </g>
          <g id="Group_232" data-name="Group 232" transform="translate(3.546 8.15)">
            <path id="Path_217" data-name="Path 217" d="M274.067,529.587a4.521,4.521,0,0,0-.23,1.4l.01-3.332a4.51,4.51,0,0,1,.23-1.4q0,.833,0,1.666v.436l0,.637c0,.12,0,.281,0,.4A1.371,1.371,0,0,1,274.067,529.587Z" transform="translate(-273.837 -526.255)" fill="#ffd025"/>
          </g>
          <g id="Group_233" data-name="Group 233" transform="translate(3.546 9.552)">
            <path id="Path_218" data-name="Path 218" d="M299.857,530.1l-.009,3.332c-.006,1.916-1.265,3.828-3.78,5.29-5.063,2.942-13.3,2.942-18.391,0-2.564-1.481-3.845-3.424-3.84-5.364l.01-3.332c-.006,1.94,1.275,3.884,3.84,5.364,5.094,2.941,13.328,2.941,18.391,0C298.593,533.928,299.852,532.015,299.857,530.1Z" transform="translate(-273.837 -530.027)" fill="#fcca0d"/>
          </g>
          <g id="Group_234" data-name="Group 234" transform="translate(29.557 9.588)">
            <path id="Path_219" data-name="Path 219" d="M343.835,533.493v-.037q0-1.666.009-3.332v.037C343.842,531.16,343.838,532.493,343.835,533.493Z" transform="translate(-343.835 -530.124)" fill="#ffd025"/>
          </g>
          <g id="Group_235" data-name="Group 235" transform="translate(3.556 2.055)">
            <path id="Path_220" data-name="Path 220" d="M296.036,512.059c5.094,2.941,5.121,7.711.058,10.653s-13.3,2.942-18.391,0-5.123-7.712-.06-10.654S290.94,509.117,296.036,512.059Z" transform="translate(-273.863 -509.853)" fill="#fcca0d"/>
          </g>
          <path id="Path_221" data-name="Path 221" d="M277.648,513.918c5.063-2.942,13.3-2.943,18.394,0a7.115,7.115,0,0,1,3.735,4.422c.477-2.232-.768-4.566-3.735-6.28-5.1-2.942-13.331-2.942-18.394,0-2.928,1.7-4.15,4.014-3.677,6.231A7.044,7.044,0,0,1,277.648,513.918Z" transform="translate(-270.313 -507.798)" fill="#d99a32"/>
          <g id="Group_236" data-name="Group 236" transform="translate(0 9.54)">
            <path id="Path_222" data-name="Path 222" d="M297.409,530.089l-.009,3.332c-.007,2.438-1.609,4.873-4.811,6.734-6.442,3.743-16.922,3.743-23.406,0-3.264-1.885-4.895-4.358-4.888-6.828l.009-3.332c-.007,2.47,1.623,4.943,4.888,6.828,6.484,3.744,16.965,3.744,23.407,0C295.8,534.962,297.4,532.528,297.409,530.089Z" transform="translate(-264.294 -529.995)" fill="#d99a32"/>
          </g>
          <g id="Group_237" data-name="Group 237" transform="translate(0.009)">
            <path id="Path_223" data-name="Path 223" d="M292.539,507.13c6.484,3.744,6.518,9.814.074,13.559s-16.923,3.744-23.407,0-6.521-9.816-.079-13.559S286.053,503.385,292.539,507.13Zm-20.834,12.108c5.094,2.941,13.328,2.941,18.391,0s5.036-7.712-.058-10.653-13.331-2.942-18.393,0-5.036,7.712.06,10.654" transform="translate(-264.319 -504.322)" fill="#ffd025"/>
          </g>
        </g>
      </g>
      <g id="Group_248" data-name="Group 248" transform="translate(0 7.533)">
        <g id="Group_247" data-name="Group 247">
          <g id="Group_240" data-name="Group 240" transform="translate(3.776 2.055)">
            <path id="Path_224" data-name="Path 224" d="M276.006,505.256a7.427,7.427,0,0,0-3.55,3.888q.005-1.666.01-3.332a7.424,7.424,0,0,1,3.549-3.888c5.063-2.942,13.3-2.942,18.394,0,2.547,1.47,3.827,3.4,3.837,5.326l-.009,3.332c-.01-1.928-1.291-3.856-3.838-5.326C289.3,502.314,281.069,502.314,276.006,505.256Z" transform="translate(-272.456 -499.717)" fill="#ffd025"/>
          </g>
          <g id="Group_241" data-name="Group 241" transform="translate(3.546 8.15)">
            <path id="Path_225" data-name="Path 225" d="M272.067,519.452a4.522,4.522,0,0,0-.23,1.4l.01-3.332a4.51,4.51,0,0,1,.23-1.4q0,.833,0,1.666v.436l0,.637c0,.121,0,.281,0,.4A1.367,1.367,0,0,1,272.067,519.452Z" transform="translate(-271.837 -516.12)" fill="#ffd025"/>
          </g>
          <g id="Group_242" data-name="Group 242" transform="translate(3.546 9.552)">
            <path id="Path_226" data-name="Path 226" d="M297.857,519.964l-.009,3.332c-.006,1.916-1.265,3.829-3.78,5.291-5.063,2.942-13.3,2.942-18.391,0-2.564-1.48-3.845-3.424-3.84-5.364l.01-3.332c-.006,1.94,1.275,3.883,3.84,5.364,5.094,2.941,13.328,2.941,18.391,0C296.593,523.793,297.852,521.88,297.857,519.964Z" transform="translate(-271.837 -519.892)" fill="#fcca0d"/>
          </g>
          <g id="Group_243" data-name="Group 243" transform="translate(29.557 9.588)">
            <path id="Path_227" data-name="Path 227" d="M341.835,523.357v-.036q0-1.666.009-3.332v.037C341.842,521.025,341.838,522.358,341.835,523.357Z" transform="translate(-341.835 -519.989)" fill="#ffd025"/>
          </g>
          <g id="Group_244" data-name="Group 244" transform="translate(3.556 2.055)">
            <path id="Path_228" data-name="Path 228" d="M294.036,501.924c5.094,2.941,5.121,7.711.058,10.653s-13.3,2.942-18.391,0-5.123-7.712-.06-10.654S288.94,498.982,294.036,501.924Z" transform="translate(-271.863 -499.717)" fill="#fcca0d"/>
          </g>
          <path id="Path_229" data-name="Path 229" d="M275.648,503.782c5.063-2.942,13.3-2.942,18.394,0a7.114,7.114,0,0,1,3.735,4.422c.477-2.232-.768-4.566-3.735-6.28-5.1-2.942-13.331-2.942-18.394,0-2.928,1.7-4.15,4.014-3.677,6.231A7.046,7.046,0,0,1,275.648,503.782Z" transform="translate(-268.313 -497.662)" fill="#d99a32"/>
          <g id="Group_245" data-name="Group 245" transform="translate(0 9.54)">
            <path id="Path_230" data-name="Path 230" d="M295.409,519.954l-.009,3.332c-.007,2.438-1.609,4.873-4.811,6.734-6.442,3.743-16.923,3.743-23.407,0-3.264-1.885-4.895-4.358-4.888-6.828l.009-3.332c-.007,2.47,1.623,4.943,4.888,6.828,6.484,3.743,16.965,3.743,23.407,0C293.8,524.827,295.4,522.392,295.409,519.954Z" transform="translate(-262.294 -519.86)" fill="#d99a32"/>
          </g>
          <g id="Group_246" data-name="Group 246" transform="translate(0.009)">
            <path id="Path_231" data-name="Path 231" d="M290.539,497c6.484,3.743,6.518,9.815.074,13.559s-16.923,3.743-23.407,0-6.521-9.816-.079-13.559S284.053,493.25,290.539,497ZM269.705,509.1c5.094,2.941,13.328,2.941,18.391,0s5.036-7.712-.058-10.653-13.331-2.942-18.394,0-5.036,7.712.06,10.654" transform="translate(-262.319 -494.186)" fill="#ffd025"/>
          </g>
        </g>
      </g>
      <g id="Group_257" data-name="Group 257" transform="translate(1.486 3.766)">
        <g id="Group_256" data-name="Group 256">
          <g id="Group_249" data-name="Group 249" transform="translate(3.776 2.055)">
            <path id="Path_232" data-name="Path 232" d="M280.006,495.121a7.427,7.427,0,0,0-3.55,3.888q.005-1.666.01-3.332a7.424,7.424,0,0,1,3.549-3.888c5.063-2.942,13.3-2.942,18.393,0,2.547,1.47,3.827,3.4,3.837,5.326l-.009,3.332c-.01-1.928-1.291-3.856-3.838-5.326C293.3,492.179,285.069,492.179,280.006,495.121Z" transform="translate(-276.456 -489.582)" fill="#ffd025"/>
          </g>
          <g id="Group_250" data-name="Group 250" transform="translate(3.546 8.15)">
            <path id="Path_233" data-name="Path 233" d="M276.067,509.316a4.522,4.522,0,0,0-.23,1.4l.01-3.332a4.511,4.511,0,0,1,.23-1.4q0,.833,0,1.666v.436l0,.637c0,.121,0,.281,0,.4A1.371,1.371,0,0,1,276.067,509.316Z" transform="translate(-275.837 -505.984)" fill="#ffd025"/>
          </g>
          <g id="Group_251" data-name="Group 251" transform="translate(3.546 9.552)">
            <path id="Path_234" data-name="Path 234" d="M301.857,509.829l-.009,3.332c-.006,1.916-1.265,3.829-3.78,5.29-5.063,2.942-13.3,2.942-18.391,0-2.564-1.48-3.845-3.424-3.84-5.364l.01-3.332c-.006,1.94,1.275,3.884,3.84,5.364,5.094,2.941,13.328,2.941,18.391,0C300.593,513.658,301.852,511.745,301.857,509.829Z" transform="translate(-275.837 -509.757)" fill="#fcca0d"/>
          </g>
          <g id="Group_252" data-name="Group 252" transform="translate(29.557 9.588)">
            <path id="Path_235" data-name="Path 235" d="M345.835,513.222v-.037q0-1.666.009-3.332v.036C345.842,510.89,345.838,512.223,345.835,513.222Z" transform="translate(-345.835 -509.854)" fill="#ffd025"/>
          </g>
          <g id="Group_253" data-name="Group 253" transform="translate(3.556 2.055)">
            <path id="Path_236" data-name="Path 236" d="M298.036,491.789c5.094,2.941,5.121,7.71.058,10.652s-13.3,2.943-18.391,0-5.123-7.712-.06-10.654S292.94,488.847,298.036,491.789Z" transform="translate(-275.863 -489.582)" fill="#fcca0d"/>
          </g>
          <path id="Path_237" data-name="Path 237" d="M279.648,493.647c5.063-2.942,13.3-2.942,18.394,0a7.114,7.114,0,0,1,3.735,4.421c.477-2.232-.768-4.566-3.735-6.279-5.1-2.942-13.331-2.942-18.394,0-2.928,1.7-4.15,4.014-3.677,6.231A7.044,7.044,0,0,1,279.648,493.647Z" transform="translate(-272.313 -487.527)" fill="#d99a32"/>
          <g id="Group_254" data-name="Group 254" transform="translate(0 9.54)">
            <path id="Path_238" data-name="Path 238" d="M299.409,509.819l-.009,3.332c-.007,2.438-1.609,4.873-4.811,6.734-6.442,3.744-16.922,3.744-23.406,0-3.264-1.885-4.895-4.358-4.888-6.828l.009-3.332c-.007,2.47,1.623,4.944,4.888,6.828,6.484,3.743,16.965,3.743,23.407,0C297.8,514.691,299.4,512.257,299.409,509.819Z" transform="translate(-266.294 -509.724)" fill="#d99a32"/>
          </g>
          <g id="Group_255" data-name="Group 255" transform="translate(0.009)">
            <path id="Path_239" data-name="Path 239" d="M294.539,486.86c6.484,3.743,6.518,9.814.074,13.559s-16.923,3.744-23.407,0-6.521-9.816-.079-13.559S288.053,483.115,294.539,486.86Zm-20.834,12.107c5.094,2.941,13.328,2.941,18.391,0s5.036-7.712-.058-10.652-13.331-2.942-18.393,0-5.036,7.712.06,10.654" transform="translate(-266.319 -484.051)" fill="#ffd025"/>
          </g>
        </g>
      </g>
      <g id="Group_266" data-name="Group 266" transform="translate(0 0)">
        <g id="Group_265" data-name="Group 265">
          <g id="Group_258" data-name="Group 258" transform="translate(3.776 2.056)">
            <path id="Path_240" data-name="Path 240" d="M276.006,484.986a7.427,7.427,0,0,0-3.55,3.888q.005-1.666.01-3.332a7.423,7.423,0,0,1,3.549-3.888c5.063-2.942,13.3-2.942,18.394,0,2.547,1.471,3.827,3.4,3.837,5.326l-.009,3.332c-.01-1.928-1.291-3.856-3.838-5.326C289.3,482.044,281.069,482.044,276.006,484.986Z" transform="translate(-272.456 -479.447)" fill="#ffd025"/>
          </g>
          <g id="Group_259" data-name="Group 259" transform="translate(3.546 8.15)">
            <path id="Path_241" data-name="Path 241" d="M272.067,499.181a4.521,4.521,0,0,0-.23,1.4l.01-3.332a4.51,4.51,0,0,1,.23-1.4q0,.833,0,1.666v.436l0,.637c0,.12,0,.281,0,.4A1.371,1.371,0,0,1,272.067,499.181Z" transform="translate(-271.837 -495.849)" fill="#ffd025"/>
          </g>
          <g id="Group_260" data-name="Group 260" transform="translate(3.546 9.552)">
            <path id="Path_242" data-name="Path 242" d="M297.857,499.693l-.009,3.332c-.006,1.916-1.265,3.829-3.78,5.29-5.063,2.942-13.3,2.942-18.391,0-2.564-1.481-3.845-3.424-3.84-5.364l.01-3.332c-.006,1.94,1.275,3.884,3.84,5.364,5.094,2.941,13.328,2.941,18.391,0C296.593,503.522,297.852,501.609,297.857,499.693Z" transform="translate(-271.837 -499.621)" fill="#fcca0d"/>
          </g>
          <g id="Group_261" data-name="Group 261" transform="translate(29.557 9.588)">
            <path id="Path_243" data-name="Path 243" d="M341.835,503.087v-.037q0-1.666.009-3.332v.037C341.842,500.754,341.838,502.087,341.835,503.087Z" transform="translate(-341.835 -499.718)" fill="#ffd025"/>
          </g>
          <g id="Group_262" data-name="Group 262" transform="translate(3.556 2.056)">
            <path id="Path_244" data-name="Path 244" d="M294.036,481.654c5.094,2.941,5.121,7.711.058,10.653s-13.3,2.942-18.391,0-5.123-7.712-.06-10.654S288.94,478.712,294.036,481.654Z" transform="translate(-271.863 -479.447)" fill="#fcca0d"/>
          </g>
          <path id="Path_245" data-name="Path 245" d="M275.648,483.512c5.063-2.942,13.3-2.942,18.394,0a7.115,7.115,0,0,1,3.735,4.422c.477-2.232-.768-4.566-3.735-6.28-5.1-2.942-13.331-2.942-18.394,0-2.928,1.7-4.15,4.014-3.677,6.231A7.044,7.044,0,0,1,275.648,483.512Z" transform="translate(-268.313 -477.392)" fill="#d99a32"/>
          <g id="Group_263" data-name="Group 263" transform="translate(0 9.54)">
            <path id="Path_246" data-name="Path 246" d="M295.409,499.683l-.009,3.332c-.007,2.438-1.609,4.873-4.811,6.734-6.442,3.743-16.923,3.744-23.407,0-3.264-1.885-4.895-4.358-4.888-6.828l.009-3.332c-.007,2.47,1.623,4.944,4.888,6.828,6.484,3.743,16.965,3.743,23.407,0C293.8,504.556,295.4,502.122,295.409,499.683Z" transform="translate(-262.294 -499.589)" fill="#d99a32"/>
          </g>
          <g id="Group_264" data-name="Group 264" transform="translate(0.009)">
            <path id="Path_247" data-name="Path 247" d="M290.539,476.724c6.484,3.744,6.518,9.815.074,13.559s-16.923,3.744-23.407,0-6.521-9.816-.079-13.559S284.053,472.979,290.539,476.724Zm-20.834,12.108c5.094,2.941,13.328,2.941,18.391,0s5.036-7.712-.058-10.653-13.331-2.942-18.394,0-5.036,7.712.06,10.654" transform="translate(-262.319 -473.916)" fill="#ffd025"/>
          </g>
        </g>
      </g>
    </g>
    <g id="Group_286" data-name="Group 286" transform="translate(911.031 540.729)">
      <g id="Group_276" data-name="Group 276" transform="translate(1.115 4.584)">
        <g id="Group_275" data-name="Group 275">
          <g id="Group_268" data-name="Group 268" transform="translate(3.777 2.055)">
            <path id="Path_249" data-name="Path 249" d="M188.915,550.284a7.425,7.425,0,0,0-3.549,3.888q0-1.666.009-3.332a7.426,7.426,0,0,1,3.55-3.888c5.063-2.942,13.3-2.942,18.393,0,2.547,1.47,3.827,3.4,3.838,5.326l-.01,3.332c-.01-1.928-1.291-3.856-3.837-5.326C202.213,547.342,193.979,547.342,188.915,550.284Z" transform="translate(-185.366 -544.745)" fill="#ffd025"/>
          </g>
          <g id="Group_269" data-name="Group 269" transform="translate(3.547 8.15)">
            <path id="Path_250" data-name="Path 250" d="M184.977,564.48a4.515,4.515,0,0,0-.23,1.4l.009-3.332a4.522,4.522,0,0,1,.23-1.4q0,.833,0,1.666c0,.131,0,.305,0,.436l0,.637c0,.12,0,.281,0,.4A1.312,1.312,0,0,1,184.977,564.48Z" transform="translate(-184.747 -561.148)" fill="#ffd025"/>
          </g>
          <g id="Group_270" data-name="Group 270" transform="translate(3.546 9.552)">
            <path id="Path_251" data-name="Path 251" d="M210.767,564.992l-.009,3.332c-.006,1.916-1.265,3.828-3.78,5.29-5.063,2.942-13.3,2.942-18.391,0-2.564-1.481-3.845-3.424-3.84-5.364l.009-3.332c-.006,1.94,1.275,3.883,3.84,5.364,5.094,2.941,13.328,2.941,18.391,0C209.5,568.821,210.762,566.908,210.767,564.992Z" transform="translate(-184.747 -564.92)" fill="#fcca0d"/>
          </g>
          <g id="Group_271" data-name="Group 271" transform="translate(29.557 9.588)">
            <path id="Path_252" data-name="Path 252" d="M254.744,568.386c0-.012,0-.025,0-.037q.005-1.666.01-3.332v.037C254.751,566.053,254.747,567.386,254.744,568.386Z" transform="translate(-254.744 -565.017)" fill="#ffd025"/>
          </g>
          <g id="Group_272" data-name="Group 272" transform="translate(3.556 2.055)">
            <path id="Path_253" data-name="Path 253" d="M206.945,546.952c5.094,2.941,5.121,7.711.058,10.653s-13.3,2.942-18.391,0-5.123-7.712-.06-10.654S201.849,544.01,206.945,546.952Z" transform="translate(-184.772 -544.745)" fill="#fcca0d"/>
          </g>
          <path id="Path_254" data-name="Path 254" d="M188.558,548.81c5.063-2.942,13.3-2.942,18.393,0a7.115,7.115,0,0,1,3.736,4.422c.477-2.232-.768-4.566-3.736-6.28-5.1-2.942-13.33-2.942-18.393,0-2.928,1.7-4.15,4.014-3.678,6.231A7.048,7.048,0,0,1,188.558,548.81Z" transform="translate(-181.222 -542.69)" fill="#d99a32"/>
          <g id="Group_273" data-name="Group 273" transform="translate(0 9.54)">
            <path id="Path_255" data-name="Path 255" d="M208.318,564.982l-.009,3.332c-.007,2.438-1.61,4.873-4.811,6.734-6.442,3.743-16.923,3.743-23.407,0-3.264-1.885-4.895-4.358-4.888-6.828l.01-3.332c-.007,2.47,1.623,4.943,4.888,6.828,6.484,3.744,16.965,3.743,23.407,0C206.709,569.855,208.311,567.421,208.318,564.982Z" transform="translate(-175.203 -564.888)" fill="#d99a32"/>
          </g>
          <g id="Group_274" data-name="Group 274" transform="translate(0.01)">
            <path id="Path_256" data-name="Path 256" d="M203.449,542.023c6.484,3.743,6.518,9.815.074,13.559s-16.923,3.744-23.407,0-6.521-9.816-.079-13.559S196.963,538.278,203.449,542.023Zm-20.834,12.108c5.094,2.941,13.328,2.941,18.391,0s5.036-7.712-.058-10.653-13.33-2.942-18.393,0-5.036,7.712.06,10.654" transform="translate(-175.229 -539.214)" fill="#ffd025"/>
          </g>
        </g>
      </g>
      <g id="Group_285" data-name="Group 285" transform="translate(0 0)">
        <g id="Group_284" data-name="Group 284">
          <g id="Group_277" data-name="Group 277" transform="translate(3.777 2.055)">
            <path id="Path_257" data-name="Path 257" d="M185.915,537.949a7.425,7.425,0,0,0-3.549,3.888q0-1.666.009-3.332a7.424,7.424,0,0,1,3.55-3.888c5.063-2.942,13.3-2.943,18.393,0,2.547,1.471,3.827,3.4,3.838,5.326l-.01,3.332c-.01-1.928-1.291-3.856-3.837-5.326C199.213,535.006,190.979,535.006,185.915,537.949Z" transform="translate(-182.366 -532.41)" fill="#ffd025"/>
          </g>
          <g id="Group_278" data-name="Group 278" transform="translate(3.547 8.15)">
            <path id="Path_258" data-name="Path 258" d="M181.977,552.144a4.51,4.51,0,0,0-.23,1.4l.009-3.332a4.521,4.521,0,0,1,.23-1.4q0,.833,0,1.666c0,.131,0,.305,0,.436l0,.637c0,.12,0,.281,0,.4A1.318,1.318,0,0,1,181.977,552.144Z" transform="translate(-181.747 -548.812)" fill="#ffd025"/>
          </g>
          <g id="Group_279" data-name="Group 279" transform="translate(3.546 9.552)">
            <path id="Path_259" data-name="Path 259" d="M207.767,552.656l-.009,3.332c-.006,1.916-1.265,3.829-3.78,5.29-5.063,2.942-13.3,2.942-18.391,0-2.564-1.481-3.845-3.424-3.84-5.364l.009-3.332c-.006,1.94,1.275,3.884,3.84,5.364,5.094,2.941,13.328,2.941,18.391,0C206.5,556.485,207.762,554.572,207.767,552.656Z" transform="translate(-181.747 -552.584)" fill="#fcca0d"/>
          </g>
          <g id="Group_280" data-name="Group 280" transform="translate(29.557 9.588)">
            <path id="Path_260" data-name="Path 260" d="M251.744,556.05c0-.012,0-.025,0-.037q.005-1.666.01-3.332v.037C251.751,553.717,251.747,555.05,251.744,556.05Z" transform="translate(-251.744 -552.681)" fill="#ffd025"/>
          </g>
          <g id="Group_281" data-name="Group 281" transform="translate(3.556 2.055)">
            <path id="Path_261" data-name="Path 261" d="M203.945,534.617c5.094,2.941,5.121,7.711.058,10.653s-13.3,2.942-18.391,0-5.123-7.712-.06-10.654S198.849,531.674,203.945,534.617Z" transform="translate(-181.772 -532.41)" fill="#fcca0d"/>
          </g>
          <path id="Path_262" data-name="Path 262" d="M185.558,536.475c5.063-2.943,13.3-2.943,18.393,0a7.116,7.116,0,0,1,3.736,4.422c.477-2.232-.768-4.566-3.736-6.28-5.1-2.942-13.33-2.942-18.393,0-2.928,1.7-4.15,4.014-3.678,6.231A7.046,7.046,0,0,1,185.558,536.475Z" transform="translate(-178.222 -530.354)" fill="#d99a32"/>
          <g id="Group_282" data-name="Group 282" transform="translate(0 9.54)">
            <path id="Path_263" data-name="Path 263" d="M205.318,552.646l-.009,3.332c-.007,2.438-1.61,4.873-4.811,6.734-6.442,3.743-16.923,3.743-23.407,0-3.264-1.885-4.895-4.358-4.888-6.828l.01-3.332c-.007,2.47,1.623,4.943,4.888,6.828,6.484,3.744,16.965,3.744,23.407,0C203.709,557.519,205.311,555.085,205.318,552.646Z" transform="translate(-172.203 -552.552)" fill="#d99a32"/>
          </g>
          <g id="Group_283" data-name="Group 283" transform="translate(0.01)">
            <path id="Path_264" data-name="Path 264" d="M200.449,529.687c6.484,3.744,6.518,9.815.074,13.56s-16.923,3.744-23.407,0-6.521-9.816-.079-13.56S193.963,525.942,200.449,529.687Zm-20.834,12.108c5.094,2.941,13.328,2.941,18.391,0s5.036-7.712-.058-10.653-13.33-2.942-18.393,0-5.036,7.712.06,10.654" transform="translate(-172.229 -526.878)" fill="#ffd025"/>
          </g>
        </g>
      </g>
    </g>
  </g>
</svg>
