<svg xmlns="http://www.w3.org/2000/svg" width="117.251" height="113.786" viewBox="0 0 117.251 113.786">
  <g id="Group_556" data-name="Group 556" transform="translate(-1277.511 -345)">
    <g id="Group_74" data-name="Group 74" transform="translate(1312.873 345)">
      <g id="Group_49" data-name="Group 49" transform="translate(0.658 33.887)">
        <path id="Path_44" data-name="Path 44" d="M274.465,356.934,248.032,372.3l-.038,7.487,53.115,30.666,26.433-15.361.038-7.487" transform="translate(-247.994 -356.934)" fill="#406325"/>
        <g id="Group_44" data-name="Group 44" transform="translate(28.607 16.502)">
          <ellipse id="Ellipse_8" data-name="Ellipse 8" cx="6.48" cy="11.187" rx="6.48" ry="11.187" transform="matrix(0.003, -1, 1, 0.003, 0, 12.959)" fill="#7dab4e"/>
        </g>
        <g id="Group_45" data-name="Group 45" transform="translate(11.649 6.737)">
          <path id="Path_45" data-name="Path 45" d="M339.69,397.838c-3.329,1.934-3.311,5.071.037,7.006l-8.811,5.12a13.334,13.334,0,0,0-12.1,0l-35.38-20.426c3.331-1.936,3.311-5.073-.039-7.007l8.811-5.121a13.332,13.332,0,0,0,12.1,0Zm-36.01.432c4.384,2.531,11.467,2.53,15.82,0s4.332-6.633-.052-9.164-11.467-2.53-15.82,0-4.33,6.634.052,9.164" transform="translate(-283.402 -377.411)" fill="#a7bd56"/>
        </g>
        <g id="Group_46" data-name="Group 46" transform="translate(0.038)">
          <path id="Path_46" data-name="Path 46" d="M274.543,356.934,327.658,387.6l-26.433,15.361L248.11,372.3Zm32.693,39.29,8.811-5.12c-3.348-1.936-3.366-5.072-.037-7.006l-35.38-20.427a13.331,13.331,0,0,1-12.1,0l-8.811,5.121c3.35,1.934,3.37,5.072.039,7.007l35.38,20.426a13.334,13.334,0,0,1,12.1,0" transform="translate(-248.11 -356.934)" fill="#7dab4e"/>
        </g>
        <g id="Group_47" data-name="Group 47" transform="translate(22.147 12.752)">
          <path id="Path_47" data-name="Path 47" d="M349.833,400.364,323.4,415.725l-8.091-4.672,26.433-15.361Z" transform="translate(-315.309 -395.693)" fill="#dac89d"/>
        </g>
        <g id="Group_48" data-name="Group 48" transform="translate(22.085 28.12)">
          <path id="Path_48" data-name="Path 48" d="M323.251,447.077l-.038,7.487-8.091-4.672.038-7.487Z" transform="translate(-315.122 -442.406)" fill="#877c61"/>
        </g>
        <path id="Path_49" data-name="Path 49" d="M409.552,465.5v7.487l26.395-15.361v-7.487Z" transform="translate(-356.399 -419.477)" fill="#598d2e"/>
      </g>
      <g id="Group_55" data-name="Group 55" transform="translate(0 25.662)">
        <path id="Path_50" data-name="Path 50" d="M272.465,331.934,246.032,347.3l-.038,7.487,53.115,30.666,26.433-15.361.038-7.487" transform="translate(-245.994 -331.934)" fill="#406325"/>
        <g id="Group_50" data-name="Group 50" transform="translate(28.607 16.502)">
          <ellipse id="Ellipse_9" data-name="Ellipse 9" cx="6.48" cy="11.187" rx="6.48" ry="11.187" transform="translate(0 12.959) rotate(-89.837)" fill="#7dab4e"/>
        </g>
        <g id="Group_51" data-name="Group 51" transform="translate(11.649 6.737)">
          <path id="Path_51" data-name="Path 51" d="M337.69,372.838c-3.329,1.934-3.311,5.071.037,7.006l-8.811,5.12a13.334,13.334,0,0,0-12.1,0l-35.38-20.426c3.331-1.936,3.311-5.073-.039-7.007l8.811-5.121a13.332,13.332,0,0,0,12.1,0Zm-36.01.432c4.384,2.531,11.467,2.53,15.82,0s4.332-6.633-.052-9.164-11.467-2.53-15.82,0-4.33,6.634.052,9.164" transform="translate(-281.402 -352.411)" fill="#a7bd56"/>
        </g>
        <g id="Group_52" data-name="Group 52" transform="translate(0.038)">
          <path id="Path_52" data-name="Path 52" d="M272.543,331.934,325.658,362.6l-26.433,15.361L246.11,347.3Zm32.693,39.29,8.811-5.12c-3.348-1.935-3.366-5.072-.037-7.006l-35.38-20.427a13.332,13.332,0,0,1-12.1,0l-8.811,5.121c3.35,1.934,3.37,5.072.039,7.007l35.38,20.426a13.334,13.334,0,0,1,12.1,0" transform="translate(-246.11 -331.934)" fill="#7dab4e"/>
        </g>
        <g id="Group_53" data-name="Group 53" transform="translate(22.147 12.752)">
          <path id="Path_53" data-name="Path 53" d="M347.833,375.364,321.4,390.725l-8.091-4.672,26.433-15.361Z" transform="translate(-313.309 -370.693)" fill="#dac89d"/>
        </g>
        <g id="Group_54" data-name="Group 54" transform="translate(22.085 28.12)">
          <path id="Path_54" data-name="Path 54" d="M321.251,422.077l-.038,7.487-8.091-4.672.038-7.487Z" transform="translate(-313.122 -417.406)" fill="#877c61"/>
        </g>
        <path id="Path_55" data-name="Path 55" d="M407.552,440.5v7.487l26.395-15.361v-7.487Z" transform="translate(-354.399 -394.477)" fill="#598d2e"/>
      </g>
      <g id="Group_61" data-name="Group 61" transform="translate(0 17.108)">
        <path id="Path_56" data-name="Path 56" d="M272.465,305.934,246.032,321.3l-.038,7.487,53.115,30.666,26.433-15.361.038-7.487" transform="translate(-245.994 -305.934)" fill="#406325"/>
        <g id="Group_56" data-name="Group 56" transform="translate(28.607 16.502)">
          <ellipse id="Ellipse_10" data-name="Ellipse 10" cx="6.48" cy="11.187" rx="6.48" ry="11.187" transform="matrix(0.003, -1, 1, 0.003, 0, 12.959)" fill="#7dab4e"/>
        </g>
        <g id="Group_57" data-name="Group 57" transform="translate(11.649 6.737)">
          <path id="Path_57" data-name="Path 57" d="M337.69,346.838c-3.329,1.934-3.311,5.071.037,7.006l-8.811,5.12a13.334,13.334,0,0,0-12.1,0l-35.38-20.426c3.331-1.936,3.311-5.073-.039-7.007l8.811-5.121a13.332,13.332,0,0,0,12.1,0Zm-36.01.432c4.384,2.531,11.467,2.53,15.82,0s4.332-6.633-.052-9.164-11.467-2.53-15.82,0-4.33,6.634.052,9.164" transform="translate(-281.402 -326.411)" fill="#a7bd56"/>
        </g>
        <g id="Group_58" data-name="Group 58" transform="translate(0.038)">
          <path id="Path_58" data-name="Path 58" d="M272.543,305.934,325.658,336.6l-26.433,15.361L246.11,321.3Zm32.693,39.29,8.811-5.12c-3.348-1.936-3.366-5.072-.037-7.006l-35.38-20.427a13.332,13.332,0,0,1-12.1,0l-8.811,5.121c3.35,1.934,3.37,5.072.039,7.007l35.38,20.426a13.334,13.334,0,0,1,12.1,0" transform="translate(-246.11 -305.934)" fill="#7dab4e"/>
        </g>
        <g id="Group_59" data-name="Group 59" transform="translate(22.147 12.752)">
          <path id="Path_59" data-name="Path 59" d="M347.833,349.364,321.4,364.725l-8.091-4.672,26.433-15.361Z" transform="translate(-313.309 -344.693)" fill="#dac89d"/>
        </g>
        <g id="Group_60" data-name="Group 60" transform="translate(22.085 28.12)">
          <path id="Path_60" data-name="Path 60" d="M321.251,396.077l-.038,7.487-8.091-4.671.038-7.487Z" transform="translate(-313.122 -391.406)" fill="#877c61"/>
        </g>
        <path id="Path_61" data-name="Path 61" d="M407.552,414.5v7.487l26.395-15.361v-7.487Z" transform="translate(-354.399 -368.477)" fill="#598d2e"/>
      </g>
      <g id="Group_67" data-name="Group 67" transform="translate(2.303 8.225)">
        <path id="Path_62" data-name="Path 62" d="M279.465,278.934,253.033,294.3l-.038,7.487,53.115,30.666,26.433-15.361.038-7.487" transform="translate(-252.995 -278.934)" fill="#406325"/>
        <g id="Group_62" data-name="Group 62" transform="translate(28.607 16.502)">
          <ellipse id="Ellipse_11" data-name="Ellipse 11" cx="6.48" cy="11.187" rx="6.48" ry="11.187" transform="matrix(0.003, -1, 1, 0.003, 0, 12.959)" fill="#7dab4e"/>
        </g>
        <g id="Group_63" data-name="Group 63" transform="translate(11.649 6.737)">
          <path id="Path_63" data-name="Path 63" d="M344.69,319.838c-3.329,1.934-3.311,5.071.037,7.006l-8.811,5.12a13.333,13.333,0,0,0-12.1,0l-35.38-20.426c3.331-1.936,3.311-5.073-.039-7.007l8.811-5.121a13.332,13.332,0,0,0,12.1,0Zm-36.01.432c4.384,2.531,11.467,2.53,15.82,0s4.332-6.633-.052-9.164-11.467-2.53-15.82,0-4.33,6.634.052,9.164" transform="translate(-288.402 -299.411)" fill="#a7bd56"/>
        </g>
        <g id="Group_64" data-name="Group 64" transform="translate(0.038)">
          <path id="Path_64" data-name="Path 64" d="M279.543,278.934,332.658,309.6l-26.433,15.361L253.11,294.3Zm32.693,39.29,8.811-5.12c-3.348-1.936-3.366-5.072-.037-7.006l-35.38-20.427a13.331,13.331,0,0,1-12.1,0l-8.811,5.121c3.35,1.934,3.37,5.072.039,7.007l35.38,20.426a13.334,13.334,0,0,1,12.1,0" transform="translate(-253.11 -278.934)" fill="#7dab4e"/>
        </g>
        <g id="Group_65" data-name="Group 65" transform="translate(22.146 12.752)">
          <path id="Path_65" data-name="Path 65" d="M354.833,322.364,328.4,337.725l-8.091-4.672,26.433-15.361Z" transform="translate(-320.309 -317.693)" fill="#dac89d"/>
        </g>
        <g id="Group_66" data-name="Group 66" transform="translate(22.085 28.12)">
          <path id="Path_66" data-name="Path 66" d="M328.251,369.077l-.038,7.487-8.091-4.672.038-7.487Z" transform="translate(-320.122 -364.406)" fill="#877c61"/>
        </g>
        <path id="Path_67" data-name="Path 67" d="M414.552,387.5v7.487l26.395-15.361v-7.487Z" transform="translate(-361.4 -341.477)" fill="#598d2e"/>
      </g>
      <g id="Group_73" data-name="Group 73" transform="translate(1.316 0)">
        <path id="Path_68" data-name="Path 68" d="M276.465,253.934,250.032,269.3l-.038,7.487,53.115,30.666,26.433-15.361.038-7.487" transform="translate(-249.994 -253.934)" fill="#406325"/>
        <g id="Group_68" data-name="Group 68" transform="translate(28.607 16.502)">
          <ellipse id="Ellipse_12" data-name="Ellipse 12" cx="6.48" cy="11.187" rx="6.48" ry="11.187" transform="matrix(0.003, -1, 1, 0.003, 0, 12.959)" fill="#7dab4e"/>
        </g>
        <g id="Group_69" data-name="Group 69" transform="translate(11.649 6.737)">
          <path id="Path_69" data-name="Path 69" d="M341.69,294.838c-3.329,1.934-3.311,5.071.037,7.006l-8.811,5.12a13.334,13.334,0,0,0-12.1,0l-35.38-20.426c3.331-1.936,3.311-5.073-.039-7.007l8.811-5.121a13.331,13.331,0,0,0,12.1,0Zm-36.01.432c4.384,2.531,11.467,2.53,15.82,0s4.332-6.633-.052-9.164-11.467-2.53-15.82,0-4.33,6.634.052,9.164" transform="translate(-285.402 -274.411)" fill="#a7bd56"/>
        </g>
        <g id="Group_70" data-name="Group 70" transform="translate(0.038)">
          <path id="Path_70" data-name="Path 70" d="M276.543,253.934,329.658,284.6l-26.433,15.361L250.11,269.3Zm32.693,39.29,8.811-5.12c-3.348-1.936-3.366-5.072-.037-7.006l-35.38-20.427a13.331,13.331,0,0,1-12.1,0l-8.811,5.121c3.35,1.934,3.37,5.072.039,7.007l35.38,20.426a13.334,13.334,0,0,1,12.1,0" transform="translate(-250.11 -253.934)" fill="#7dab4e"/>
        </g>
        <g id="Group_71" data-name="Group 71" transform="translate(22.147 12.752)">
          <path id="Path_71" data-name="Path 71" d="M351.833,297.364,325.4,312.725l-8.091-4.672,26.433-15.361Z" transform="translate(-317.309 -292.693)" fill="#dac89d"/>
        </g>
        <g id="Group_72" data-name="Group 72" transform="translate(22.085 28.12)">
          <path id="Path_72" data-name="Path 72" d="M325.251,344.077l-.038,7.487-8.091-4.672.038-7.487Z" transform="translate(-317.122 -339.406)" fill="#877c61"/>
        </g>
        <path id="Path_73" data-name="Path 73" d="M411.552,362.5v7.487l26.395-15.361v-7.487Z" transform="translate(-358.399 -316.477)" fill="#598d2e"/>
      </g>
    </g>
    <g id="Group_121" data-name="Group 121" transform="translate(1277.511 400.702)">
      <g id="Group_102" data-name="Group 102" transform="translate(0.658 6.669)">
        <g id="Group_101" data-name="Group 101">
          <g id="Group_94" data-name="Group 94" transform="translate(3.344 1.82)">
            <path id="Path_94" data-name="Path 94" d="M153.817,453.945a6.571,6.571,0,0,0-3.143,3.442q0-1.475.008-2.95A6.574,6.574,0,0,1,153.825,451c4.483-2.605,11.773-2.605,16.285,0,2.255,1.3,3.389,3.008,3.4,4.716q0,1.475-.009,2.95c-.009-1.707-1.143-3.413-3.4-4.716C165.59,451.34,158.3,451.34,153.817,453.945Z" transform="translate(-150.674 -449.042)" fill="#ffd025"/>
          </g>
          <g id="Group_95" data-name="Group 95" transform="translate(3.14 7.216)">
            <path id="Path_95" data-name="Path 95" d="M150.259,468.393a3.994,3.994,0,0,0-.2,1.241l.008-2.95a4,4,0,0,1,.2-1.241q0,.738,0,1.475v.386q0,.282,0,.564c0,.107,0,.249,0,.356A1.165,1.165,0,0,1,150.259,468.393Z" transform="translate(-150.055 -465.443)" fill="#ffd025"/>
          </g>
          <g id="Group_96" data-name="Group 96" transform="translate(3.14 8.457)">
            <path id="Path_96" data-name="Path 96" d="M173.093,469.28l-.009,2.95c0,1.7-1.119,3.39-3.347,4.684-4.483,2.6-11.773,2.6-16.283,0-2.27-1.311-3.4-3.031-3.4-4.749l.008-2.95c0,1.718,1.129,3.438,3.4,4.749,4.51,2.6,11.8,2.6,16.283,0C171.973,472.67,173.088,470.976,173.093,469.28Z" transform="translate(-150.055 -469.216)" fill="#fcca0d"/>
          </g>
          <g id="Group_97" data-name="Group 97" transform="translate(26.169 8.489)">
            <path id="Path_97" data-name="Path 97" d="M220.052,472.3c0-.011,0-.022,0-.033q0-1.475.009-2.95v.032C220.058,470.23,220.055,471.41,220.052,472.3Z" transform="translate(-220.052 -469.313)" fill="#ffd025"/>
          </g>
          <g id="Group_98" data-name="Group 98" transform="translate(3.148 1.82)">
            <path id="Path_98" data-name="Path 98" d="M169.712,451c4.51,2.6,4.534,6.826.051,9.431s-11.773,2.605-16.283,0-4.536-6.828-.053-9.433S165.2,448.39,169.712,451Z" transform="translate(-150.08 -449.042)" fill="#fcca0d"/>
          </g>
          <path id="Path_99" data-name="Path 99" d="M153.433,452.64c4.483-2.605,11.773-2.605,16.285,0a6.3,6.3,0,0,1,3.307,3.914c.422-1.976-.68-4.042-3.307-5.559-4.512-2.605-11.8-2.605-16.285,0-2.592,1.506-3.674,3.554-3.256,5.517A6.238,6.238,0,0,1,153.433,452.64Z" transform="translate(-146.938 -447.222)" fill="#d99a32"/>
          <g id="Group_99" data-name="Group 99" transform="translate(0 8.446)">
            <path id="Path_100" data-name="Path 100" d="M169.83,469.267l-.008,2.95c-.006,2.159-1.425,4.315-4.26,5.962-5.7,3.315-14.983,3.315-20.724,0-2.89-1.668-4.334-3.859-4.327-6.045l.009-2.95c-.006,2.187,1.437,4.377,4.327,6.046,5.741,3.314,15.02,3.314,20.724,0C168.405,473.581,169.824,471.425,169.83,469.267Z" transform="translate(-140.511 -469.183)" fill="#d99a32"/>
          </g>
          <g id="Group_100" data-name="Group 100" transform="translate(0.008)">
            <path id="Path_101" data-name="Path 101" d="M165.522,446c5.741,3.315,5.771,8.69.066,12.005s-14.983,3.315-20.724,0-5.773-8.691-.07-12.005S159.779,442.681,165.522,446Zm-18.446,10.72c4.51,2.6,11.8,2.6,16.283,0s4.459-6.828-.051-9.432-11.8-2.605-16.285,0-4.459,6.828.053,9.433" transform="translate(-140.537 -443.51)" fill="#ffd025"/>
          </g>
        </g>
      </g>
      <g id="Group_111" data-name="Group 111" transform="translate(0.658 3.334)">
        <g id="Group_110" data-name="Group 110">
          <g id="Group_103" data-name="Group 103" transform="translate(3.344 1.82)">
            <path id="Path_102" data-name="Path 102" d="M153.817,443.81a6.572,6.572,0,0,0-3.143,3.443q0-1.475.008-2.95a6.573,6.573,0,0,1,3.143-3.442c4.483-2.605,11.773-2.605,16.285,0,2.255,1.3,3.389,3.009,3.4,4.716q0,1.475-.009,2.95c-.009-1.707-1.143-3.414-3.4-4.716C165.59,441.2,158.3,441.2,153.817,443.81Z" transform="translate(-150.674 -438.906)" fill="#ffd025"/>
          </g>
          <g id="Group_104" data-name="Group 104" transform="translate(3.14 7.216)">
            <path id="Path_103" data-name="Path 103" d="M150.259,458.258a3.994,3.994,0,0,0-.2,1.241l.008-2.95a4,4,0,0,1,.2-1.241q0,.737,0,1.475v.386q0,.282,0,.564c0,.107,0,.249,0,.356A1.165,1.165,0,0,1,150.259,458.258Z" transform="translate(-150.055 -455.308)" fill="#ffd025"/>
          </g>
          <g id="Group_105" data-name="Group 105" transform="translate(3.14 8.457)">
            <path id="Path_104" data-name="Path 104" d="M173.093,459.144l-.009,2.95c0,1.7-1.119,3.39-3.347,4.684-4.483,2.6-11.773,2.6-16.283,0-2.27-1.311-3.4-3.031-3.4-4.749l.008-2.95c0,1.718,1.129,3.439,3.4,4.749,4.51,2.6,11.8,2.6,16.283,0C171.973,462.534,173.088,460.84,173.093,459.144Z" transform="translate(-150.055 -459.08)" fill="#fcca0d"/>
          </g>
          <g id="Group_106" data-name="Group 106" transform="translate(26.169 8.489)">
            <path id="Path_105" data-name="Path 105" d="M220.052,462.16c0-.011,0-.022,0-.033q0-1.475.009-2.95v.033C220.058,460.095,220.055,461.275,220.052,462.16Z" transform="translate(-220.052 -459.177)" fill="#ffd025"/>
          </g>
          <g id="Group_107" data-name="Group 107" transform="translate(3.148 1.82)">
            <path id="Path_106" data-name="Path 106" d="M169.712,440.859c4.51,2.6,4.534,6.827.051,9.432s-11.773,2.605-16.283,0-4.536-6.828-.053-9.433S165.2,438.254,169.712,440.859Z" transform="translate(-150.08 -438.906)" fill="#fcca0d"/>
          </g>
          <path id="Path_107" data-name="Path 107" d="M153.433,442.5c4.483-2.605,11.773-2.605,16.285,0a6.3,6.3,0,0,1,3.307,3.915c.422-1.976-.68-4.043-3.307-5.56-4.512-2.605-11.8-2.605-16.285,0-2.592,1.506-3.674,3.554-3.256,5.516A6.238,6.238,0,0,1,153.433,442.5Z" transform="translate(-146.938 -437.086)" fill="#d99a32"/>
          <g id="Group_108" data-name="Group 108" transform="translate(0 8.447)">
            <path id="Path_108" data-name="Path 108" d="M169.83,459.132l-.008,2.95c-.006,2.159-1.425,4.315-4.26,5.962-5.7,3.314-14.983,3.314-20.724,0-2.89-1.669-4.334-3.859-4.327-6.045l.009-2.95c-.006,2.187,1.437,4.377,4.327,6.045,5.741,3.315,15.02,3.315,20.724,0C168.405,463.446,169.824,461.29,169.83,459.132Z" transform="translate(-140.511 -459.048)" fill="#d99a32"/>
          </g>
          <g id="Group_109" data-name="Group 109" transform="translate(0.008)">
            <path id="Path_109" data-name="Path 109" d="M165.522,435.861c5.741,3.315,5.771,8.69.066,12.005s-14.983,3.315-20.724,0-5.773-8.691-.07-12.005S159.779,432.546,165.522,435.861Zm-18.446,10.72c4.51,2.6,11.8,2.6,16.283,0s4.459-6.828-.051-9.432-11.8-2.605-16.285,0-4.459,6.828.053,9.433" transform="translate(-140.537 -433.374)" fill="#ffd025"/>
          </g>
        </g>
      </g>
      <g id="Group_120" data-name="Group 120" transform="translate(0 0)">
        <g id="Group_119" data-name="Group 119">
          <g id="Group_112" data-name="Group 112" transform="translate(3.344 1.82)">
            <path id="Path_110" data-name="Path 110" d="M151.817,433.674a6.573,6.573,0,0,0-3.143,3.442q0-1.475.008-2.95a6.573,6.573,0,0,1,3.143-3.443c4.483-2.605,11.773-2.605,16.285,0,2.255,1.3,3.389,3.009,3.4,4.716q0,1.475-.009,2.95c-.009-1.707-1.143-3.414-3.4-4.716C163.59,431.069,156.3,431.069,151.817,433.674Z" transform="translate(-148.674 -428.771)" fill="#ffd025"/>
          </g>
          <g id="Group_113" data-name="Group 113" transform="translate(3.14 7.216)">
            <path id="Path_111" data-name="Path 111" d="M148.259,448.123a4,4,0,0,0-.2,1.241l.008-2.95a4,4,0,0,1,.2-1.241q0,.737,0,1.475v.386q0,.282,0,.564c0,.107,0,.249,0,.356A1.159,1.159,0,0,1,148.259,448.123Z" transform="translate(-148.055 -445.173)" fill="#ffd025"/>
          </g>
          <g id="Group_114" data-name="Group 114" transform="translate(3.14 8.457)">
            <path id="Path_112" data-name="Path 112" d="M171.093,449.009l-.009,2.95c0,1.7-1.119,3.39-3.347,4.684-4.483,2.605-11.773,2.605-16.283,0-2.27-1.311-3.4-3.031-3.4-4.749l.008-2.95c0,1.718,1.129,3.438,3.4,4.749,4.51,2.6,11.8,2.6,16.283,0C169.973,452.4,171.088,450.705,171.093,449.009Z" transform="translate(-148.055 -448.945)" fill="#fcca0d"/>
          </g>
          <g id="Group_115" data-name="Group 115" transform="translate(26.169 8.489)">
            <path id="Path_113" data-name="Path 113" d="M218.052,452.024c0-.01,0-.021,0-.032q0-1.475.009-2.95v.033C218.058,449.96,218.055,451.139,218.052,452.024Z" transform="translate(-218.052 -449.042)" fill="#ffd025"/>
          </g>
          <g id="Group_116" data-name="Group 116" transform="translate(3.148 1.82)">
            <path id="Path_114" data-name="Path 114" d="M167.712,430.724c4.51,2.6,4.534,6.827.051,9.432s-11.773,2.605-16.283,0-4.536-6.828-.053-9.433S163.2,428.119,167.712,430.724Z" transform="translate(-148.08 -428.771)" fill="#fcca0d"/>
          </g>
          <path id="Path_115" data-name="Path 115" d="M151.433,432.369c4.483-2.605,11.773-2.605,16.285,0a6.3,6.3,0,0,1,3.307,3.915c.422-1.976-.68-4.043-3.307-5.56-4.512-2.605-11.8-2.605-16.285,0-2.592,1.507-3.674,3.554-3.256,5.517A6.24,6.24,0,0,1,151.433,432.369Z" transform="translate(-144.938 -426.951)" fill="#d99a32"/>
          <g id="Group_117" data-name="Group 117" transform="translate(0 8.447)">
            <path id="Path_116" data-name="Path 116" d="M167.83,449l-.008,2.95c-.006,2.159-1.425,4.314-4.26,5.962-5.7,3.314-14.983,3.314-20.724,0-2.89-1.669-4.334-3.859-4.327-6.046l.009-2.95c-.006,2.187,1.437,4.377,4.327,6.045,5.741,3.314,15.02,3.314,20.724,0C166.405,453.311,167.824,451.155,167.83,449Z" transform="translate(-138.511 -448.913)" fill="#d99a32"/>
          </g>
          <g id="Group_118" data-name="Group 118" transform="translate(0.008)">
            <path id="Path_117" data-name="Path 117" d="M163.522,425.726c5.741,3.314,5.771,8.69.066,12.005s-14.983,3.314-20.724,0-5.773-8.691-.07-12.005S157.779,422.411,163.522,425.726Zm-18.446,10.72c4.51,2.6,11.8,2.6,16.283,0s4.459-6.828-.051-9.432-11.8-2.605-16.285,0-4.459,6.828.053,9.433" transform="translate(-138.537 -423.239)" fill="#ffd025"/>
          </g>
        </g>
      </g>
    </g>
    <g id="Group_221" data-name="Group 221" transform="translate(1298.07 383.684)">
      <g id="Group_130" data-name="Group 130" transform="translate(0.658 33.345)">
        <g id="Group_129" data-name="Group 129">
          <g id="Group_122" data-name="Group 122" transform="translate(3.344 1.82)">
            <path id="Path_118" data-name="Path 118" d="M216.308,483.3a6.573,6.573,0,0,0-3.143,3.443q0-1.475.009-2.95a6.572,6.572,0,0,1,3.143-3.442c4.483-2.605,11.773-2.605,16.285,0,2.255,1.3,3.388,3.009,3.4,4.716q0,1.475-.008,2.95c-.01-1.707-1.143-3.414-3.4-4.716C228.081,480.7,220.791,480.7,216.308,483.3Z" transform="translate(-213.165 -478.399)" fill="#ffd025"/>
          </g>
          <g id="Group_123" data-name="Group 123" transform="translate(3.14 7.216)">
            <path id="Path_119" data-name="Path 119" d="M212.75,497.751a4,4,0,0,0-.2,1.241l.008-2.95a4,4,0,0,1,.2-1.241q0,.737,0,1.475c0,.116,0,.27,0,.386l0,.564c0,.107,0,.249,0,.356A1.214,1.214,0,0,1,212.75,497.751Z" transform="translate(-212.546 -494.801)" fill="#ffd025"/>
          </g>
          <g id="Group_124" data-name="Group 124" transform="translate(3.14 8.457)">
            <path id="Path_120" data-name="Path 120" d="M235.584,498.637l-.008,2.95c0,1.7-1.12,3.39-3.347,4.684-4.483,2.605-11.773,2.605-16.283,0-2.27-1.311-3.4-3.031-3.4-4.749l.008-2.95c0,1.718,1.129,3.439,3.4,4.749,4.51,2.6,11.8,2.6,16.283,0C234.464,502.027,235.579,500.333,235.584,498.637Z" transform="translate(-212.546 -498.573)" fill="#fcca0d"/>
          </g>
          <g id="Group_125" data-name="Group 125" transform="translate(26.169 8.489)">
            <path id="Path_121" data-name="Path 121" d="M282.544,501.653v-.033q0-1.475.008-2.95v.033C282.55,499.588,282.546,500.768,282.544,501.653Z" transform="translate(-282.544 -498.67)" fill="#ffd025"/>
          </g>
          <g id="Group_126" data-name="Group 126" transform="translate(3.148 1.82)">
            <path id="Path_122" data-name="Path 122" d="M232.2,480.352c4.51,2.6,4.534,6.827.051,9.432s-11.773,2.6-16.283,0-4.536-6.828-.053-9.433S227.691,477.747,232.2,480.352Z" transform="translate(-212.571 -478.399)" fill="#fcca0d"/>
          </g>
          <path id="Path_123" data-name="Path 123" d="M215.924,482c4.483-2.605,11.773-2.605,16.285,0a6.3,6.3,0,0,1,3.307,3.915c.422-1.976-.68-4.043-3.307-5.56-4.512-2.605-11.8-2.605-16.285,0-2.592,1.506-3.674,3.554-3.256,5.516A6.237,6.237,0,0,1,215.924,482Z" transform="translate(-209.429 -476.579)" fill="#d99a32"/>
          <g id="Group_127" data-name="Group 127" transform="translate(0 8.447)">
            <path id="Path_124" data-name="Path 124" d="M232.321,498.625l-.008,2.95c-.006,2.159-1.425,4.315-4.26,5.962-5.7,3.314-14.983,3.314-20.724,0-2.89-1.669-4.333-3.859-4.327-6.045l.009-2.95c-.006,2.187,1.437,4.377,4.327,6.045,5.741,3.315,15.02,3.315,20.724,0C230.9,502.939,232.315,500.783,232.321,498.625Z" transform="translate(-203.002 -498.541)" fill="#d99a32"/>
          </g>
          <g id="Group_128" data-name="Group 128" transform="translate(0.008)">
            <path id="Path_125" data-name="Path 125" d="M228.014,475.354c5.741,3.315,5.771,8.69.065,12.005s-14.983,3.315-20.724,0-5.773-8.691-.07-12.005S222.27,472.039,228.014,475.354Zm-18.446,10.72c4.51,2.6,11.8,2.6,16.283,0s4.459-6.828-.051-9.432-11.8-2.605-16.285,0-4.459,6.828.053,9.433" transform="translate(-203.028 -472.867)" fill="#ffd025"/>
          </g>
        </g>
      </g>
      <g id="Group_139" data-name="Group 139" transform="translate(0.658 30.011)">
        <g id="Group_138" data-name="Group 138">
          <g id="Group_131" data-name="Group 131" transform="translate(3.344 1.82)">
            <path id="Path_126" data-name="Path 126" d="M216.308,473.167a6.574,6.574,0,0,0-3.143,3.442q0-1.475.009-2.95a6.573,6.573,0,0,1,3.143-3.443c4.483-2.605,11.773-2.605,16.285,0,2.255,1.3,3.388,3.009,3.4,4.716q0,1.475-.008,2.95c-.01-1.707-1.143-3.414-3.4-4.716C228.081,470.562,220.791,470.562,216.308,473.167Z" transform="translate(-213.165 -468.263)" fill="#ffd025"/>
          </g>
          <g id="Group_132" data-name="Group 132" transform="translate(3.14 7.216)">
            <path id="Path_127" data-name="Path 127" d="M212.75,487.616a4,4,0,0,0-.2,1.241l.008-2.95a4,4,0,0,1,.2-1.241q0,.737,0,1.475c0,.116,0,.27,0,.386l0,.564c0,.107,0,.249,0,.356A1.21,1.21,0,0,1,212.75,487.616Z" transform="translate(-212.546 -484.666)" fill="#ffd025"/>
          </g>
          <g id="Group_133" data-name="Group 133" transform="translate(3.14 8.457)">
            <path id="Path_128" data-name="Path 128" d="M235.584,488.5l-.008,2.95c0,1.7-1.12,3.39-3.347,4.684-4.483,2.605-11.773,2.605-16.283,0-2.27-1.311-3.4-3.031-3.4-4.749l.008-2.95c0,1.718,1.129,3.438,3.4,4.749,4.51,2.6,11.8,2.6,16.283,0C234.464,491.892,235.579,490.2,235.584,488.5Z" transform="translate(-212.546 -488.438)" fill="#fcca0d"/>
          </g>
          <g id="Group_134" data-name="Group 134" transform="translate(26.169 8.489)">
            <path id="Path_129" data-name="Path 129" d="M282.544,491.517v-.032q0-1.475.008-2.95v.033C282.55,489.453,282.546,490.632,282.544,491.517Z" transform="translate(-282.544 -488.535)" fill="#ffd025"/>
          </g>
          <g id="Group_135" data-name="Group 135" transform="translate(3.148 1.82)">
            <path id="Path_130" data-name="Path 130" d="M232.2,470.217c4.51,2.6,4.534,6.827.051,9.432s-11.773,2.605-16.283,0-4.536-6.828-.053-9.433S227.691,467.612,232.2,470.217Z" transform="translate(-212.571 -468.263)" fill="#fcca0d"/>
          </g>
          <path id="Path_131" data-name="Path 131" d="M215.924,471.862c4.483-2.605,11.773-2.605,16.285,0a6.3,6.3,0,0,1,3.307,3.915c.422-1.976-.68-4.043-3.307-5.56-4.512-2.605-11.8-2.605-16.285,0-2.592,1.507-3.674,3.554-3.256,5.517A6.238,6.238,0,0,1,215.924,471.862Z" transform="translate(-209.429 -466.444)" fill="#d99a32"/>
          <g id="Group_136" data-name="Group 136" transform="translate(0 8.447)">
            <path id="Path_132" data-name="Path 132" d="M232.321,488.49l-.008,2.95c-.006,2.159-1.425,4.314-4.26,5.962-5.7,3.314-14.983,3.314-20.724,0-2.89-1.669-4.333-3.859-4.327-6.046l.009-2.95c-.006,2.187,1.437,4.377,4.327,6.045,5.741,3.314,15.02,3.314,20.724,0C230.9,492.8,232.315,490.648,232.321,488.49Z" transform="translate(-203.002 -488.406)" fill="#d99a32"/>
          </g>
          <g id="Group_137" data-name="Group 137" transform="translate(0.008)">
            <path id="Path_133" data-name="Path 133" d="M228.014,465.219c5.741,3.314,5.771,8.69.065,12.005s-14.983,3.314-20.724,0-5.773-8.691-.07-12.005S222.27,461.9,228.014,465.219Zm-18.446,10.72c4.51,2.6,11.8,2.6,16.283,0s4.459-6.828-.051-9.432-11.8-2.605-16.285,0-4.459,6.828.053,9.433" transform="translate(-203.028 -462.733)" fill="#ffd025"/>
          </g>
        </g>
      </g>
      <g id="Group_148" data-name="Group 148" transform="translate(0 26.676)">
        <g id="Group_147" data-name="Group 147">
          <g id="Group_140" data-name="Group 140" transform="translate(3.344 1.82)">
            <path id="Path_134" data-name="Path 134" d="M214.308,463.032a6.574,6.574,0,0,0-3.143,3.442q0-1.475.009-2.95a6.573,6.573,0,0,1,3.143-3.442c4.483-2.605,11.773-2.605,16.285,0,2.255,1.3,3.388,3.009,3.4,4.716q0,1.475-.008,2.95c-.01-1.707-1.143-3.413-3.4-4.715C226.081,460.427,218.791,460.427,214.308,463.032Z" transform="translate(-211.165 -458.128)" fill="#ffd025"/>
          </g>
          <g id="Group_141" data-name="Group 141" transform="translate(3.14 7.216)">
            <path id="Path_135" data-name="Path 135" d="M210.75,477.48a4,4,0,0,0-.2,1.241l.008-2.95a4,4,0,0,1,.2-1.241q0,.738,0,1.475c0,.116,0,.27,0,.386l0,.564c0,.107,0,.249,0,.356A1.207,1.207,0,0,1,210.75,477.48Z" transform="translate(-210.546 -474.53)" fill="#ffd025"/>
          </g>
          <g id="Group_142" data-name="Group 142" transform="translate(3.14 8.457)">
            <path id="Path_136" data-name="Path 136" d="M233.584,478.367l-.008,2.95c0,1.7-1.12,3.39-3.347,4.684-4.483,2.605-11.773,2.605-16.283,0-2.27-1.311-3.4-3.031-3.4-4.749l.008-2.95c0,1.718,1.129,3.438,3.4,4.749,4.51,2.6,11.8,2.6,16.283,0C232.464,481.757,233.579,480.063,233.584,478.367Z" transform="translate(-210.546 -478.303)" fill="#fcca0d"/>
          </g>
          <g id="Group_143" data-name="Group 143" transform="translate(26.169 8.489)">
            <path id="Path_137" data-name="Path 137" d="M280.544,481.382v-.033q0-1.475.008-2.95v.032C280.55,479.317,280.546,480.5,280.544,481.382Z" transform="translate(-280.544 -478.4)" fill="#ffd025"/>
          </g>
          <g id="Group_144" data-name="Group 144" transform="translate(3.148 1.82)">
            <path id="Path_138" data-name="Path 138" d="M230.2,460.082c4.51,2.6,4.534,6.826.051,9.431s-11.773,2.605-16.283,0-4.536-6.828-.053-9.433S225.691,457.477,230.2,460.082Z" transform="translate(-210.571 -458.128)" fill="#fcca0d"/>
          </g>
          <path id="Path_139" data-name="Path 139" d="M213.924,461.727c4.483-2.605,11.773-2.605,16.285,0a6.3,6.3,0,0,1,3.307,3.914c.422-1.976-.68-4.042-3.307-5.559-4.512-2.605-11.8-2.605-16.285,0-2.592,1.507-3.674,3.554-3.256,5.517A6.237,6.237,0,0,1,213.924,461.727Z" transform="translate(-207.429 -456.309)" fill="#d99a32"/>
          <g id="Group_145" data-name="Group 145" transform="translate(0 8.446)">
            <path id="Path_140" data-name="Path 140" d="M230.321,478.354l-.008,2.95c-.006,2.159-1.425,4.315-4.26,5.962-5.7,3.315-14.983,3.315-20.724,0-2.89-1.669-4.333-3.859-4.327-6.046l.009-2.95c-.006,2.187,1.437,4.377,4.327,6.046,5.741,3.314,15.02,3.314,20.724,0C228.9,482.668,230.315,480.512,230.321,478.354Z" transform="translate(-201.002 -478.27)" fill="#d99a32"/>
          </g>
          <g id="Group_146" data-name="Group 146" transform="translate(0.008)">
            <path id="Path_141" data-name="Path 141" d="M226.014,455.084c5.741,3.314,5.771,8.689.065,12s-14.983,3.315-20.724,0-5.773-8.691-.07-12.005S220.27,451.769,226.014,455.084ZM207.567,465.8c4.51,2.6,11.8,2.6,16.283,0s4.459-6.828-.051-9.431-11.8-2.605-16.285,0-4.459,6.828.053,9.433" transform="translate(-201.028 -452.598)" fill="#ffd025"/>
          </g>
        </g>
      </g>
      <g id="Group_157" data-name="Group 157" transform="translate(1.316 23.342)">
        <g id="Group_156" data-name="Group 156">
          <g id="Group_149" data-name="Group 149" transform="translate(3.344 1.82)">
            <path id="Path_142" data-name="Path 142" d="M218.308,452.9a6.575,6.575,0,0,0-3.143,3.443q0-1.475.009-2.95a6.572,6.572,0,0,1,3.143-3.442c4.483-2.605,11.773-2.605,16.285,0,2.255,1.3,3.388,3.009,3.4,4.716q0,1.475-.008,2.95c-.01-1.707-1.143-3.414-3.4-4.716C230.081,450.292,222.791,450.292,218.308,452.9Z" transform="translate(-215.165 -447.993)" fill="#ffd025"/>
          </g>
          <g id="Group_150" data-name="Group 150" transform="translate(3.14 7.216)">
            <path id="Path_143" data-name="Path 143" d="M214.75,467.345a4,4,0,0,0-.2,1.241l.008-2.95a4,4,0,0,1,.2-1.241q0,.737,0,1.475c0,.116,0,.27,0,.386l0,.564c0,.107,0,.249,0,.356A1.212,1.212,0,0,1,214.75,467.345Z" transform="translate(-214.546 -464.395)" fill="#ffd025"/>
          </g>
          <g id="Group_151" data-name="Group 151" transform="translate(3.14 8.457)">
            <path id="Path_144" data-name="Path 144" d="M237.584,468.231l-.008,2.95c0,1.7-1.12,3.39-3.347,4.684-4.483,2.605-11.773,2.605-16.283,0-2.27-1.311-3.4-3.031-3.4-4.75l.008-2.95c0,1.718,1.129,3.439,3.4,4.75,4.51,2.6,11.8,2.6,16.283,0C236.464,471.621,237.579,469.927,237.584,468.231Z" transform="translate(-214.546 -468.167)" fill="#fcca0d"/>
          </g>
          <g id="Group_152" data-name="Group 152" transform="translate(26.169 8.489)">
            <path id="Path_145" data-name="Path 145" d="M284.544,471.247v-.033q0-1.475.008-2.95v.033C284.55,469.182,284.546,470.362,284.544,471.247Z" transform="translate(-284.544 -468.264)" fill="#ffd025"/>
          </g>
          <g id="Group_153" data-name="Group 153" transform="translate(3.148 1.82)">
            <path id="Path_146" data-name="Path 146" d="M234.2,449.947c4.51,2.6,4.534,6.827.051,9.432s-11.773,2.605-16.283,0-4.536-6.828-.053-9.433S229.691,447.342,234.2,449.947Z" transform="translate(-214.571 -447.993)" fill="#fcca0d"/>
          </g>
          <path id="Path_147" data-name="Path 147" d="M217.924,451.592c4.483-2.605,11.773-2.605,16.285,0a6.3,6.3,0,0,1,3.307,3.915c.422-1.976-.68-4.042-3.307-5.56-4.512-2.6-11.8-2.6-16.285,0-2.592,1.506-3.674,3.554-3.256,5.516A6.237,6.237,0,0,1,217.924,451.592Z" transform="translate(-211.429 -446.173)" fill="#d99a32"/>
          <g id="Group_154" data-name="Group 154" transform="translate(0 8.447)">
            <path id="Path_148" data-name="Path 148" d="M234.321,468.219l-.008,2.95c-.006,2.159-1.425,4.315-4.26,5.962-5.7,3.314-14.983,3.315-20.724,0-2.89-1.669-4.333-3.859-4.327-6.045l.009-2.95c-.006,2.187,1.437,4.377,4.327,6.045,5.741,3.315,15.02,3.315,20.724,0C232.9,472.533,234.315,470.377,234.321,468.219Z" transform="translate(-205.002 -468.135)" fill="#d99a32"/>
          </g>
          <g id="Group_155" data-name="Group 155" transform="translate(0.008)">
            <path id="Path_149" data-name="Path 149" d="M230.014,444.948c5.741,3.315,5.771,8.69.065,12.005s-14.983,3.315-20.724,0-5.773-8.691-.07-12S224.27,441.633,230.014,444.948Zm-18.446,10.72c4.51,2.6,11.8,2.6,16.283,0s4.459-6.828-.051-9.432-11.8-2.6-16.285,0-4.459,6.828.053,9.433" transform="translate(-205.028 -442.462)" fill="#ffd025"/>
          </g>
        </g>
      </g>
      <g id="Group_166" data-name="Group 166" transform="translate(0 20.007)">
        <g id="Group_165" data-name="Group 165">
          <g id="Group_158" data-name="Group 158" transform="translate(3.344 1.82)">
            <path id="Path_150" data-name="Path 150" d="M214.308,442.761a6.574,6.574,0,0,0-3.143,3.442q0-1.475.009-2.95a6.574,6.574,0,0,1,3.143-3.443c4.483-2.605,11.773-2.605,16.285,0,2.255,1.3,3.388,3.009,3.4,4.716q0,1.475-.008,2.95c-.01-1.707-1.143-3.414-3.4-4.716C226.081,440.156,218.791,440.156,214.308,442.761Z" transform="translate(-211.165 -437.857)" fill="#ffd025"/>
          </g>
          <g id="Group_159" data-name="Group 159" transform="translate(3.14 7.216)">
            <path id="Path_151" data-name="Path 151" d="M210.75,457.21a4.006,4.006,0,0,0-.2,1.241l.008-2.95a3.994,3.994,0,0,1,.2-1.241q0,.737,0,1.475c0,.116,0,.27,0,.386l0,.564c0,.107,0,.249,0,.356A1.207,1.207,0,0,1,210.75,457.21Z" transform="translate(-210.546 -454.26)" fill="#ffd025"/>
          </g>
          <g id="Group_160" data-name="Group 160" transform="translate(3.14 8.457)">
            <path id="Path_152" data-name="Path 152" d="M233.584,458.1l-.008,2.95c0,1.7-1.12,3.39-3.347,4.684-4.483,2.605-11.773,2.605-16.283,0-2.27-1.311-3.4-3.031-3.4-4.749l.008-2.95c0,1.718,1.129,3.438,3.4,4.749,4.51,2.6,11.8,2.6,16.283,0C232.464,461.486,233.579,459.792,233.584,458.1Z" transform="translate(-210.546 -458.032)" fill="#fcca0d"/>
          </g>
          <g id="Group_161" data-name="Group 161" transform="translate(26.169 8.489)">
            <path id="Path_153" data-name="Path 153" d="M280.544,461.112v-.033q0-1.475.008-2.95v.033C280.55,459.047,280.546,460.227,280.544,461.112Z" transform="translate(-280.544 -458.129)" fill="#ffd025"/>
          </g>
          <g id="Group_162" data-name="Group 162" transform="translate(3.148 1.82)">
            <path id="Path_154" data-name="Path 154" d="M230.2,439.811c4.51,2.6,4.534,6.827.051,9.432s-11.773,2.605-16.283,0-4.536-6.828-.053-9.433S225.691,437.206,230.2,439.811Z" transform="translate(-210.571 -437.857)" fill="#fcca0d"/>
          </g>
          <path id="Path_155" data-name="Path 155" d="M213.924,441.456c4.483-2.605,11.773-2.605,16.285,0a6.3,6.3,0,0,1,3.307,3.915c.422-1.976-.68-4.043-3.307-5.56-4.512-2.605-11.8-2.605-16.285,0-2.592,1.507-3.674,3.554-3.256,5.517A6.238,6.238,0,0,1,213.924,441.456Z" transform="translate(-207.429 -436.038)" fill="#d99a32"/>
          <g id="Group_163" data-name="Group 163" transform="translate(0 8.447)">
            <path id="Path_156" data-name="Path 156" d="M230.321,458.084l-.008,2.95c-.006,2.159-1.425,4.314-4.26,5.962-5.7,3.314-14.983,3.314-20.724,0-2.89-1.669-4.333-3.859-4.327-6.045l.009-2.95c-.006,2.187,1.437,4.377,4.327,6.045,5.741,3.314,15.02,3.314,20.724,0C228.9,462.4,230.315,460.242,230.321,458.084Z" transform="translate(-201.002 -458)" fill="#d99a32"/>
          </g>
          <g id="Group_164" data-name="Group 164" transform="translate(0.008)">
            <path id="Path_157" data-name="Path 157" d="M226.014,434.813c5.741,3.314,5.771,8.69.065,12.005s-14.983,3.314-20.724,0-5.773-8.691-.07-12.005S220.27,431.5,226.014,434.813Zm-18.446,10.72c4.51,2.6,11.8,2.6,16.283,0s4.459-6.828-.051-9.432-11.8-2.605-16.285,0-4.459,6.828.053,9.433" transform="translate(-201.028 -432.327)" fill="#ffd025"/>
          </g>
        </g>
      </g>
      <g id="Group_175" data-name="Group 175" transform="translate(0.658 16.673)">
        <g id="Group_174" data-name="Group 174">
          <g id="Group_167" data-name="Group 167" transform="translate(3.344 1.82)">
            <path id="Path_158" data-name="Path 158" d="M216.308,432.626a6.574,6.574,0,0,0-3.143,3.442q0-1.475.009-2.95a6.573,6.573,0,0,1,3.143-3.442c4.483-2.605,11.773-2.605,16.285,0,2.255,1.3,3.388,3.009,3.4,4.716q0,1.475-.008,2.95c-.01-1.707-1.143-3.414-3.4-4.716C228.081,430.021,220.791,430.021,216.308,432.626Z" transform="translate(-213.165 -427.722)" fill="#ffd025"/>
          </g>
          <g id="Group_168" data-name="Group 168" transform="translate(3.14 7.216)">
            <path id="Path_159" data-name="Path 159" d="M212.75,447.074a4,4,0,0,0-.2,1.241l.008-2.95a4,4,0,0,1,.2-1.241q0,.738,0,1.475c0,.116,0,.27,0,.386l0,.564c0,.107,0,.249,0,.356A1.21,1.21,0,0,1,212.75,447.074Z" transform="translate(-212.546 -444.124)" fill="#ffd025"/>
          </g>
          <g id="Group_169" data-name="Group 169" transform="translate(3.14 8.457)">
            <path id="Path_160" data-name="Path 160" d="M235.584,447.961l-.008,2.95c0,1.7-1.12,3.39-3.347,4.684-4.483,2.605-11.773,2.605-16.283,0-2.27-1.311-3.4-3.031-3.4-4.749l.008-2.95c0,1.718,1.129,3.438,3.4,4.749,4.51,2.6,11.8,2.6,16.283,0C234.464,451.351,235.579,449.657,235.584,447.961Z" transform="translate(-212.546 -447.897)" fill="#fcca0d"/>
          </g>
          <g id="Group_170" data-name="Group 170" transform="translate(26.169 8.489)">
            <path id="Path_161" data-name="Path 161" d="M282.544,450.976v-.032q0-1.475.008-2.95v.033C282.55,448.912,282.546,450.091,282.544,450.976Z" transform="translate(-282.544 -447.994)" fill="#ffd025"/>
          </g>
          <g id="Group_171" data-name="Group 171" transform="translate(3.148 1.82)">
            <path id="Path_162" data-name="Path 162" d="M232.2,429.676c4.51,2.6,4.534,6.827.051,9.432s-11.773,2.605-16.283,0-4.536-6.828-.053-9.433S227.691,427.071,232.2,429.676Z" transform="translate(-212.571 -427.722)" fill="#fcca0d"/>
          </g>
          <path id="Path_163" data-name="Path 163" d="M215.924,431.321c4.483-2.605,11.773-2.605,16.285,0a6.3,6.3,0,0,1,3.307,3.914c.422-1.976-.68-4.042-3.307-5.559-4.512-2.605-11.8-2.605-16.285,0-2.592,1.507-3.674,3.554-3.256,5.517A6.237,6.237,0,0,1,215.924,431.321Z" transform="translate(-209.429 -425.903)" fill="#d99a32"/>
          <g id="Group_172" data-name="Group 172" transform="translate(0 8.447)">
            <path id="Path_164" data-name="Path 164" d="M232.321,447.949l-.008,2.95c-.006,2.159-1.425,4.314-4.26,5.961-5.7,3.315-14.983,3.315-20.724,0C204.439,455.192,203,453,203,450.815l.009-2.95c-.006,2.187,1.437,4.377,4.327,6.045,5.741,3.314,15.02,3.314,20.724,0C230.9,452.263,232.315,450.107,232.321,447.949Z" transform="translate(-203.002 -447.865)" fill="#d99a32"/>
          </g>
          <g id="Group_173" data-name="Group 173" transform="translate(0.008)">
            <path id="Path_165" data-name="Path 165" d="M228.014,424.678c5.741,3.314,5.771,8.689.065,12.005s-14.983,3.314-20.724,0-5.773-8.691-.07-12.005S222.27,421.363,228.014,424.678ZM209.567,435.4c4.51,2.6,11.8,2.6,16.283,0s4.459-6.828-.051-9.432-11.8-2.605-16.285,0-4.459,6.828.053,9.433" transform="translate(-203.028 -422.191)" fill="#ffd025"/>
          </g>
        </g>
      </g>
      <g id="Group_184" data-name="Group 184" transform="translate(1.316 13.667)">
        <g id="Group_183" data-name="Group 183">
          <g id="Group_176" data-name="Group 176" transform="translate(3.344 1.82)">
            <path id="Path_166" data-name="Path 166" d="M218.308,423.491a6.573,6.573,0,0,0-3.143,3.442q0-1.475.009-2.95a6.573,6.573,0,0,1,3.143-3.442c4.483-2.605,11.773-2.605,16.285,0,2.255,1.3,3.388,3.008,3.4,4.716q0,1.475-.008,2.95c-.01-1.707-1.143-3.413-3.4-4.716C230.081,420.886,222.791,420.886,218.308,423.491Z" transform="translate(-215.165 -418.587)" fill="#ffd025"/>
          </g>
          <g id="Group_177" data-name="Group 177" transform="translate(3.14 7.216)">
            <path id="Path_167" data-name="Path 167" d="M214.75,437.939a4,4,0,0,0-.2,1.241l.008-2.95a3.994,3.994,0,0,1,.2-1.241q0,.738,0,1.475c0,.116,0,.27,0,.386l0,.564c0,.107,0,.249,0,.356A1.212,1.212,0,0,1,214.75,437.939Z" transform="translate(-214.546 -434.989)" fill="#ffd025"/>
          </g>
          <g id="Group_178" data-name="Group 178" transform="translate(3.14 8.457)">
            <path id="Path_168" data-name="Path 168" d="M237.584,438.826l-.008,2.95c0,1.7-1.12,3.39-3.347,4.684-4.483,2.605-11.773,2.605-16.283,0-2.27-1.311-3.4-3.031-3.4-4.749l.008-2.95c0,1.718,1.129,3.438,3.4,4.749,4.51,2.6,11.8,2.6,16.283,0C236.464,442.216,237.579,440.522,237.584,438.826Z" transform="translate(-214.546 -438.762)" fill="#fcca0d"/>
          </g>
          <g id="Group_179" data-name="Group 179" transform="translate(26.169 8.489)">
            <path id="Path_169" data-name="Path 169" d="M284.544,441.841v-.033q0-1.475.008-2.95v.032C284.55,439.776,284.546,440.956,284.544,441.841Z" transform="translate(-284.544 -438.859)" fill="#ffd025"/>
          </g>
          <g id="Group_180" data-name="Group 180" transform="translate(3.148 1.82)">
            <path id="Path_170" data-name="Path 170" d="M234.2,420.541c4.51,2.6,4.534,6.826.051,9.431s-11.773,2.605-16.283,0-4.536-6.828-.053-9.433S229.691,417.936,234.2,420.541Z" transform="translate(-214.571 -418.587)" fill="#fcca0d"/>
          </g>
          <path id="Path_171" data-name="Path 171" d="M217.924,422.186c4.483-2.605,11.773-2.605,16.285,0a6.3,6.3,0,0,1,3.307,3.914c.422-1.976-.68-4.042-3.307-5.559-4.512-2.605-11.8-2.605-16.285,0-2.592,1.507-3.674,3.554-3.256,5.517A6.237,6.237,0,0,1,217.924,422.186Z" transform="translate(-211.429 -416.768)" fill="#d99a32"/>
          <g id="Group_181" data-name="Group 181" transform="translate(0 8.446)">
            <path id="Path_172" data-name="Path 172" d="M234.321,438.813l-.008,2.95c-.006,2.159-1.425,4.315-4.26,5.962-5.7,3.315-14.983,3.315-20.724,0-2.89-1.668-4.333-3.859-4.327-6.045l.009-2.95c-.006,2.187,1.437,4.377,4.327,6.046,5.741,3.314,15.02,3.314,20.724,0C232.9,443.127,234.315,440.971,234.321,438.813Z" transform="translate(-205.002 -438.729)" fill="#d99a32"/>
          </g>
          <g id="Group_182" data-name="Group 182" transform="translate(0.008)">
            <path id="Path_173" data-name="Path 173" d="M230.014,415.543c5.741,3.315,5.771,8.69.065,12.005s-14.983,3.315-20.724,0-5.773-8.691-.07-12.005S224.27,412.227,230.014,415.543Zm-18.446,10.72c4.51,2.6,11.8,2.6,16.283,0s4.459-6.828-.051-9.431-11.8-2.605-16.285,0-4.459,6.828.053,9.433" transform="translate(-205.028 -413.056)" fill="#ffd025"/>
          </g>
        </g>
      </g>
      <g id="Group_193" data-name="Group 193" transform="translate(0 10.004)">
        <g id="Group_192" data-name="Group 192">
          <g id="Group_185" data-name="Group 185" transform="translate(3.344 1.82)">
            <path id="Path_174" data-name="Path 174" d="M214.308,412.355a6.574,6.574,0,0,0-3.143,3.443q0-1.475.009-2.95a6.572,6.572,0,0,1,3.143-3.442c4.483-2.605,11.773-2.605,16.285,0,2.255,1.3,3.388,3.009,3.4,4.716q0,1.475-.008,2.95c-.01-1.707-1.143-3.414-3.4-4.716C226.081,409.75,218.791,409.75,214.308,412.355Z" transform="translate(-211.165 -407.452)" fill="#ffd025"/>
          </g>
          <g id="Group_186" data-name="Group 186" transform="translate(3.14 7.216)">
            <path id="Path_175" data-name="Path 175" d="M210.75,426.8a4,4,0,0,0-.2,1.241l.008-2.95a3.994,3.994,0,0,1,.2-1.241q0,.737,0,1.475c0,.116,0,.27,0,.386l0,.564c0,.107,0,.249,0,.356A1.211,1.211,0,0,1,210.75,426.8Z" transform="translate(-210.546 -423.854)" fill="#ffd025"/>
          </g>
          <g id="Group_187" data-name="Group 187" transform="translate(3.14 8.457)">
            <path id="Path_176" data-name="Path 176" d="M233.584,427.69l-.008,2.95c0,1.7-1.12,3.39-3.347,4.684-4.483,2.605-11.773,2.605-16.283,0-2.27-1.311-3.4-3.031-3.4-4.749l.008-2.95c0,1.718,1.129,3.438,3.4,4.749,4.51,2.6,11.8,2.6,16.283,0C232.464,431.08,233.579,429.386,233.584,427.69Z" transform="translate(-210.546 -427.626)" fill="#fcca0d"/>
          </g>
          <g id="Group_188" data-name="Group 188" transform="translate(26.169 8.489)">
            <path id="Path_177" data-name="Path 177" d="M280.544,430.706v-.033q0-1.475.008-2.95v.033C280.55,428.641,280.546,429.821,280.544,430.706Z" transform="translate(-280.544 -427.723)" fill="#ffd025"/>
          </g>
          <g id="Group_189" data-name="Group 189" transform="translate(3.148 1.82)">
            <path id="Path_178" data-name="Path 178" d="M230.2,409.405c4.51,2.6,4.534,6.827.051,9.432s-11.773,2.605-16.283,0-4.536-6.828-.053-9.433S225.691,406.8,230.2,409.405Z" transform="translate(-210.571 -407.452)" fill="#fcca0d"/>
          </g>
          <path id="Path_179" data-name="Path 179" d="M213.924,411.051c4.483-2.605,11.773-2.605,16.285,0a6.3,6.3,0,0,1,3.307,3.915c.422-1.976-.68-4.043-3.307-5.56-4.512-2.605-11.8-2.605-16.285,0-2.592,1.506-3.674,3.554-3.256,5.516A6.237,6.237,0,0,1,213.924,411.051Z" transform="translate(-207.429 -405.632)" fill="#d99a32"/>
          <g id="Group_190" data-name="Group 190" transform="translate(0 8.447)">
            <path id="Path_180" data-name="Path 180" d="M230.321,427.678l-.008,2.95c-.006,2.159-1.425,4.315-4.26,5.962-5.7,3.314-14.983,3.314-20.724,0-2.89-1.669-4.333-3.859-4.327-6.045l.009-2.95c-.006,2.187,1.437,4.377,4.327,6.045,5.741,3.315,15.02,3.315,20.724,0C228.9,431.992,230.315,429.836,230.321,427.678Z" transform="translate(-201.002 -427.594)" fill="#d99a32"/>
          </g>
          <g id="Group_191" data-name="Group 191" transform="translate(0.008)">
            <path id="Path_181" data-name="Path 181" d="M226.014,404.407c5.741,3.315,5.771,8.69.065,12.005s-14.983,3.315-20.724,0-5.773-8.691-.07-12.005S220.27,401.092,226.014,404.407Zm-18.446,10.72c4.51,2.6,11.8,2.6,16.283,0s4.459-6.828-.051-9.432-11.8-2.605-16.285,0-4.459,6.828.053,9.433" transform="translate(-201.028 -401.92)" fill="#ffd025"/>
          </g>
        </g>
      </g>
      <g id="Group_202" data-name="Group 202" transform="translate(1.316 6.669)">
        <g id="Group_201" data-name="Group 201">
          <g id="Group_194" data-name="Group 194" transform="translate(3.344 1.82)">
            <path id="Path_182" data-name="Path 182" d="M218.308,402.22a6.574,6.574,0,0,0-3.143,3.442q0-1.475.009-2.95a6.573,6.573,0,0,1,3.143-3.443c4.483-2.605,11.773-2.605,16.285,0,2.255,1.3,3.388,3.009,3.4,4.716q0,1.475-.008,2.95c-.01-1.707-1.143-3.414-3.4-4.716C230.081,399.615,222.791,399.615,218.308,402.22Z" transform="translate(-215.165 -397.316)" fill="#ffd025"/>
          </g>
          <g id="Group_195" data-name="Group 195" transform="translate(3.14 7.216)">
            <path id="Path_183" data-name="Path 183" d="M214.75,416.669a4,4,0,0,0-.2,1.241l.008-2.95a3.994,3.994,0,0,1,.2-1.241q0,.737,0,1.475c0,.116,0,.27,0,.386l0,.564c0,.107,0,.249,0,.356A1.207,1.207,0,0,1,214.75,416.669Z" transform="translate(-214.546 -413.719)" fill="#ffd025"/>
          </g>
          <g id="Group_196" data-name="Group 196" transform="translate(3.14 8.457)">
            <path id="Path_184" data-name="Path 184" d="M237.584,417.555l-.008,2.95c0,1.7-1.12,3.39-3.347,4.684-4.483,2.605-11.773,2.605-16.283,0-2.27-1.311-3.4-3.031-3.4-4.749l.008-2.95c0,1.718,1.129,3.438,3.4,4.749,4.51,2.6,11.8,2.6,16.283,0C236.464,420.945,237.579,419.251,237.584,417.555Z" transform="translate(-214.546 -417.491)" fill="#fcca0d"/>
          </g>
          <g id="Group_197" data-name="Group 197" transform="translate(26.169 8.489)">
            <path id="Path_185" data-name="Path 185" d="M284.544,420.57v-.032q0-1.475.008-2.95v.033C284.55,418.506,284.546,419.685,284.544,420.57Z" transform="translate(-284.544 -417.588)" fill="#ffd025"/>
          </g>
          <g id="Group_198" data-name="Group 198" transform="translate(3.148 1.82)">
            <path id="Path_186" data-name="Path 186" d="M234.2,399.27c4.51,2.6,4.534,6.827.051,9.432s-11.773,2.605-16.283,0-4.536-6.828-.053-9.433S229.691,396.665,234.2,399.27Z" transform="translate(-214.571 -397.316)" fill="#fcca0d"/>
          </g>
          <path id="Path_187" data-name="Path 187" d="M217.924,400.915c4.483-2.605,11.773-2.605,16.285,0a6.3,6.3,0,0,1,3.307,3.915c.422-1.976-.68-4.043-3.307-5.56-4.512-2.605-11.8-2.605-16.285,0-2.592,1.507-3.674,3.554-3.256,5.517A6.238,6.238,0,0,1,217.924,400.915Z" transform="translate(-211.429 -395.497)" fill="#d99a32"/>
          <g id="Group_199" data-name="Group 199" transform="translate(0 8.447)">
            <path id="Path_188" data-name="Path 188" d="M234.321,417.543l-.008,2.95c-.006,2.159-1.425,4.314-4.26,5.962-5.7,3.314-14.983,3.314-20.724,0-2.89-1.669-4.333-3.859-4.327-6.046l.009-2.95c-.006,2.187,1.437,4.377,4.327,6.045,5.741,3.314,15.02,3.314,20.724,0C232.9,421.857,234.315,419.7,234.321,417.543Z" transform="translate(-205.002 -417.459)" fill="#d99a32"/>
          </g>
          <g id="Group_200" data-name="Group 200" transform="translate(0.008)">
            <path id="Path_189" data-name="Path 189" d="M230.014,394.272c5.741,3.314,5.771,8.69.065,12.005s-14.983,3.314-20.724,0-5.773-8.691-.07-12.005S224.27,390.957,230.014,394.272Zm-18.446,10.72c4.51,2.6,11.8,2.6,16.283,0s4.459-6.828-.051-9.432-11.8-2.605-16.285,0-4.459,6.828.053,9.433" transform="translate(-205.028 -391.785)" fill="#ffd025"/>
          </g>
        </g>
      </g>
      <g id="Group_211" data-name="Group 211" transform="translate(0.329 3.335)">
        <g id="Group_210" data-name="Group 210">
          <g id="Group_203" data-name="Group 203" transform="translate(3.344 1.82)">
            <path id="Path_190" data-name="Path 190" d="M215.308,392.085a6.574,6.574,0,0,0-3.143,3.442q0-1.475.009-2.95a6.573,6.573,0,0,1,3.143-3.442c4.483-2.605,11.773-2.605,16.285,0,2.255,1.3,3.388,3.009,3.4,4.716q0,1.475-.008,2.95c-.01-1.707-1.143-3.413-3.4-4.716C227.081,389.48,219.791,389.48,215.308,392.085Z" transform="translate(-212.165 -387.181)" fill="#ffd025"/>
          </g>
          <g id="Group_204" data-name="Group 204" transform="translate(3.14 7.216)">
            <path id="Path_191" data-name="Path 191" d="M211.75,406.533a4,4,0,0,0-.2,1.241l.008-2.95a4,4,0,0,1,.2-1.241q0,.738,0,1.475c0,.116,0,.27,0,.386l0,.564c0,.107,0,.249,0,.356A1.2,1.2,0,0,1,211.75,406.533Z" transform="translate(-211.546 -403.583)" fill="#ffd025"/>
          </g>
          <g id="Group_205" data-name="Group 205" transform="translate(3.14 8.457)">
            <path id="Path_192" data-name="Path 192" d="M234.584,407.42l-.008,2.95c0,1.7-1.12,3.39-3.347,4.684-4.483,2.6-11.773,2.6-16.283,0-2.27-1.311-3.4-3.031-3.4-4.749l.008-2.95c0,1.718,1.129,3.438,3.4,4.749,4.51,2.6,11.8,2.6,16.283,0C233.464,410.81,234.579,409.116,234.584,407.42Z" transform="translate(-211.546 -407.356)" fill="#fcca0d"/>
          </g>
          <g id="Group_206" data-name="Group 206" transform="translate(26.169 8.489)">
            <path id="Path_193" data-name="Path 193" d="M281.544,410.435V410.4q0-1.475.008-2.95v.032C281.55,408.37,281.546,409.55,281.544,410.435Z" transform="translate(-281.544 -407.453)" fill="#ffd025"/>
          </g>
          <g id="Group_207" data-name="Group 207" transform="translate(3.148 1.82)">
            <path id="Path_194" data-name="Path 194" d="M231.2,389.135c4.51,2.6,4.534,6.826.051,9.431s-11.773,2.605-16.283,0-4.536-6.828-.053-9.433S226.691,386.53,231.2,389.135Z" transform="translate(-211.571 -387.181)" fill="#fcca0d"/>
          </g>
          <path id="Path_195" data-name="Path 195" d="M214.924,390.78c4.483-2.605,11.773-2.605,16.285,0a6.3,6.3,0,0,1,3.307,3.914c.422-1.976-.68-4.042-3.307-5.559-4.512-2.605-11.8-2.605-16.285,0-2.592,1.506-3.674,3.554-3.256,5.517A6.237,6.237,0,0,1,214.924,390.78Z" transform="translate(-208.429 -385.362)" fill="#d99a32"/>
          <g id="Group_208" data-name="Group 208" transform="translate(0 8.446)">
            <path id="Path_196" data-name="Path 196" d="M231.321,407.407l-.008,2.95c-.006,2.159-1.425,4.315-4.26,5.962-5.7,3.315-14.983,3.315-20.724,0-2.89-1.669-4.333-3.859-4.327-6.046l.009-2.95c-.006,2.187,1.437,4.377,4.327,6.046,5.741,3.314,15.02,3.314,20.724,0C229.9,411.721,231.315,409.565,231.321,407.407Z" transform="translate(-202.002 -407.323)" fill="#d99a32"/>
          </g>
          <g id="Group_209" data-name="Group 209" transform="translate(0.008)">
            <path id="Path_197" data-name="Path 197" d="M227.014,384.137c5.741,3.314,5.771,8.689.065,12s-14.983,3.315-20.724,0-5.773-8.691-.07-12.005S221.27,380.822,227.014,384.137Zm-18.446,10.719c4.51,2.6,11.8,2.6,16.283,0s4.459-6.828-.051-9.432-11.8-2.6-16.285,0-4.459,6.828.053,9.433" transform="translate(-202.028 -381.651)" fill="#ffd025"/>
          </g>
        </g>
      </g>
      <g id="Group_220" data-name="Group 220" transform="translate(0.658 0)">
        <g id="Group_219" data-name="Group 219">
          <g id="Group_212" data-name="Group 212" transform="translate(3.344 1.82)">
            <path id="Path_198" data-name="Path 198" d="M216.308,381.95a6.575,6.575,0,0,0-3.143,3.443q0-1.475.009-2.95A6.572,6.572,0,0,1,216.316,379c4.483-2.605,11.773-2.605,16.285,0,2.255,1.3,3.388,3.009,3.4,4.716q0,1.475-.008,2.95c-.01-1.707-1.143-3.414-3.4-4.716C228.081,379.345,220.791,379.345,216.308,381.95Z" transform="translate(-213.165 -377.046)" fill="#ffd025"/>
          </g>
          <g id="Group_213" data-name="Group 213" transform="translate(3.14 7.216)">
            <path id="Path_199" data-name="Path 199" d="M212.75,396.4a4,4,0,0,0-.2,1.241l.008-2.95a4,4,0,0,1,.2-1.241q0,.737,0,1.475c0,.116,0,.27,0,.386l0,.564c0,.107,0,.249,0,.356A1.213,1.213,0,0,1,212.75,396.4Z" transform="translate(-212.546 -393.448)" fill="#ffd025"/>
          </g>
          <g id="Group_214" data-name="Group 214" transform="translate(3.14 8.457)">
            <path id="Path_200" data-name="Path 200" d="M235.584,397.284l-.008,2.95c0,1.7-1.12,3.39-3.347,4.684-4.483,2.605-11.773,2.605-16.283,0-2.27-1.311-3.4-3.031-3.4-4.749l.008-2.95c0,1.718,1.129,3.439,3.4,4.749,4.51,2.6,11.8,2.6,16.283,0C234.464,400.674,235.579,398.98,235.584,397.284Z" transform="translate(-212.546 -397.22)" fill="#fcca0d"/>
          </g>
          <g id="Group_215" data-name="Group 215" transform="translate(26.169 8.489)">
            <path id="Path_201" data-name="Path 201" d="M282.544,400.3v-.033q0-1.475.008-2.95v.033C282.55,398.235,282.546,399.415,282.544,400.3Z" transform="translate(-282.544 -397.317)" fill="#ffd025"/>
          </g>
          <g id="Group_216" data-name="Group 216" transform="translate(3.148 1.82)">
            <path id="Path_202" data-name="Path 202" d="M232.2,379c4.51,2.6,4.534,6.827.051,9.432s-11.773,2.605-16.283,0-4.536-6.828-.053-9.433S227.691,376.4,232.2,379Z" transform="translate(-212.571 -377.046)" fill="#fcca0d"/>
          </g>
          <path id="Path_203" data-name="Path 203" d="M215.924,380.645c4.483-2.605,11.773-2.605,16.285,0a6.3,6.3,0,0,1,3.307,3.915c.422-1.976-.68-4.042-3.307-5.56-4.512-2.6-11.8-2.6-16.285,0-2.592,1.506-3.674,3.554-3.256,5.516A6.237,6.237,0,0,1,215.924,380.645Z" transform="translate(-209.429 -375.226)" fill="#d99a32"/>
          <g id="Group_217" data-name="Group 217" transform="translate(0 8.447)">
            <path id="Path_204" data-name="Path 204" d="M232.321,397.272l-.008,2.95c-.006,2.159-1.425,4.315-4.26,5.962-5.7,3.314-14.983,3.315-20.724,0-2.89-1.669-4.333-3.859-4.327-6.045l.009-2.95c-.006,2.187,1.437,4.377,4.327,6.045,5.741,3.315,15.02,3.315,20.724,0C230.9,401.586,232.315,399.43,232.321,397.272Z" transform="translate(-203.002 -397.188)" fill="#d99a32"/>
          </g>
          <g id="Group_218" data-name="Group 218" transform="translate(0.008)">
            <path id="Path_205" data-name="Path 205" d="M228.014,374c5.741,3.315,5.771,8.69.065,12.005s-14.983,3.315-20.724,0-5.773-8.691-.07-12S222.27,370.686,228.014,374Zm-18.446,10.72c4.51,2.6,11.8,2.6,16.283,0s4.459-6.828-.051-9.432-11.8-2.6-16.285,0-4.459,6.828.053,9.433" transform="translate(-203.028 -371.515)" fill="#ffd025"/>
          </g>
        </g>
      </g>
    </g>
    <g id="Group_267" data-name="Group 267" transform="translate(1318.236 417.374)">
      <g id="Group_230" data-name="Group 230" transform="translate(0.658 13.338)">
        <g id="Group_229" data-name="Group 229">
          <g id="Group_222" data-name="Group 222" transform="translate(3.343 1.82)">
            <path id="Path_208" data-name="Path 208" d="M277.6,524.892a6.575,6.575,0,0,0-3.143,3.442q0-1.475.009-2.95a6.573,6.573,0,0,1,3.143-3.442c4.483-2.605,11.773-2.605,16.285,0,2.255,1.3,3.388,3.008,3.4,4.716l-.008,2.95c-.009-1.707-1.143-3.413-3.4-4.716C289.372,522.287,282.082,522.287,277.6,524.892Z" transform="translate(-274.456 -519.988)" fill="#ffd025"/>
          </g>
          <g id="Group_223" data-name="Group 223" transform="translate(3.14 7.216)">
            <path id="Path_209" data-name="Path 209" d="M274.041,539.34a4,4,0,0,0-.2,1.241l.009-2.95a3.994,3.994,0,0,1,.2-1.241q0,.738,0,1.475v.386l0,.564c0,.107,0,.249,0,.356A1.216,1.216,0,0,1,274.041,539.34Z" transform="translate(-273.837 -536.39)" fill="#ffd025"/>
          </g>
          <g id="Group_224" data-name="Group 224" transform="translate(3.14 8.457)">
            <path id="Path_210" data-name="Path 210" d="M296.875,540.227l-.008,2.95c0,1.7-1.12,3.39-3.347,4.684-4.483,2.605-11.773,2.605-16.283,0-2.27-1.311-3.4-3.031-3.4-4.749l.009-2.95c0,1.718,1.129,3.438,3.4,4.749,4.51,2.6,11.8,2.6,16.283,0C295.755,543.617,296.87,541.923,296.875,540.227Z" transform="translate(-273.837 -540.163)" fill="#fcca0d"/>
          </g>
          <g id="Group_225" data-name="Group 225" transform="translate(26.169 8.489)">
            <path id="Path_211" data-name="Path 211" d="M343.835,543.242v-.033q0-1.475.008-2.95v.032C343.841,541.177,343.837,542.357,343.835,543.242Z" transform="translate(-343.835 -540.26)" fill="#ffd025"/>
          </g>
          <g id="Group_226" data-name="Group 226" transform="translate(3.148 1.82)">
            <path id="Path_212" data-name="Path 212" d="M293.494,521.942c4.51,2.6,4.534,6.826.051,9.431s-11.773,2.605-16.283,0-4.536-6.828-.053-9.433S288.982,519.337,293.494,521.942Z" transform="translate(-273.863 -519.988)" fill="#fcca0d"/>
          </g>
          <path id="Path_213" data-name="Path 213" d="M277.215,523.587c4.483-2.605,11.773-2.605,16.285,0a6.3,6.3,0,0,1,3.307,3.914c.422-1.976-.68-4.042-3.307-5.559-4.512-2.605-11.8-2.605-16.285,0-2.592,1.506-3.674,3.554-3.256,5.517A6.236,6.236,0,0,1,277.215,523.587Z" transform="translate(-270.721 -518.169)" fill="#d99a32"/>
          <g id="Group_227" data-name="Group 227" transform="translate(0 8.446)">
            <path id="Path_214" data-name="Path 214" d="M293.613,540.214l-.008,2.95c-.006,2.159-1.425,4.315-4.26,5.962-5.7,3.315-14.983,3.315-20.723,0-2.89-1.668-4.334-3.859-4.327-6.045l.008-2.95c-.006,2.187,1.437,4.377,4.327,6.046,5.741,3.314,15.02,3.314,20.724,0C292.188,544.528,293.607,542.372,293.613,540.214Z" transform="translate(-264.294 -540.13)" fill="#d99a32"/>
          </g>
          <g id="Group_228" data-name="Group 228" transform="translate(0.008)">
            <path id="Path_215" data-name="Path 215" d="M289.3,516.944c5.741,3.314,5.771,8.689.065,12s-14.983,3.315-20.724,0-5.773-8.691-.07-12.005S283.561,513.629,289.3,516.944Zm-18.446,10.719c4.51,2.6,11.8,2.6,16.283,0s4.459-6.828-.051-9.432-11.8-2.6-16.285,0-4.459,6.828.053,9.433" transform="translate(-264.319 -514.458)" fill="#ffd025"/>
          </g>
        </g>
      </g>
      <g id="Group_239" data-name="Group 239" transform="translate(0.658 10.004)">
        <g id="Group_238" data-name="Group 238">
          <g id="Group_231" data-name="Group 231" transform="translate(3.343 1.82)">
            <path id="Path_216" data-name="Path 216" d="M277.6,514.757a6.575,6.575,0,0,0-3.143,3.443q0-1.475.009-2.95a6.572,6.572,0,0,1,3.143-3.442c4.483-2.6,11.773-2.605,16.285,0,2.255,1.3,3.388,3.009,3.4,4.716l-.008,2.95c-.009-1.707-1.143-3.414-3.4-4.716C289.372,512.152,282.082,512.152,277.6,514.757Z" transform="translate(-274.456 -509.853)" fill="#ffd025"/>
          </g>
          <g id="Group_232" data-name="Group 232" transform="translate(3.14 7.216)">
            <path id="Path_217" data-name="Path 217" d="M274.041,529.205a4,4,0,0,0-.2,1.241l.009-2.95a3.994,3.994,0,0,1,.2-1.241q0,.737,0,1.475v.386l0,.564c0,.107,0,.249,0,.356A1.217,1.217,0,0,1,274.041,529.205Z" transform="translate(-273.837 -526.255)" fill="#ffd025"/>
          </g>
          <g id="Group_233" data-name="Group 233" transform="translate(3.14 8.457)">
            <path id="Path_218" data-name="Path 218" d="M296.875,530.091l-.008,2.95c0,1.7-1.12,3.39-3.347,4.684-4.483,2.605-11.773,2.605-16.283,0-2.27-1.311-3.4-3.031-3.4-4.75l.009-2.95c0,1.718,1.129,3.439,3.4,4.749,4.51,2.6,11.8,2.6,16.283,0C295.755,533.481,296.87,531.787,296.875,530.091Z" transform="translate(-273.837 -530.027)" fill="#fcca0d"/>
          </g>
          <g id="Group_234" data-name="Group 234" transform="translate(26.169 8.489)">
            <path id="Path_219" data-name="Path 219" d="M343.835,533.107v-.033q0-1.475.008-2.95v.033C343.841,531.042,343.837,532.222,343.835,533.107Z" transform="translate(-343.835 -530.124)" fill="#ffd025"/>
          </g>
          <g id="Group_235" data-name="Group 235" transform="translate(3.148 1.82)">
            <path id="Path_220" data-name="Path 220" d="M293.494,511.807c4.51,2.6,4.534,6.827.051,9.432s-11.773,2.605-16.283,0-4.536-6.828-.053-9.433S288.982,509.2,293.494,511.807Z" transform="translate(-273.863 -509.853)" fill="#fcca0d"/>
          </g>
          <path id="Path_221" data-name="Path 221" d="M277.215,513.452c4.483-2.6,11.773-2.605,16.285,0a6.3,6.3,0,0,1,3.307,3.915c.422-1.976-.68-4.043-3.307-5.56-4.512-2.605-11.8-2.6-16.285,0-2.592,1.507-3.674,3.554-3.256,5.516A6.237,6.237,0,0,1,277.215,513.452Z" transform="translate(-270.721 -508.033)" fill="#d99a32"/>
          <g id="Group_236" data-name="Group 236" transform="translate(0 8.447)">
            <path id="Path_222" data-name="Path 222" d="M293.613,530.079l-.008,2.95c-.006,2.159-1.425,4.315-4.26,5.962-5.7,3.314-14.983,3.314-20.723,0-2.89-1.669-4.334-3.859-4.327-6.045l.008-2.95c-.006,2.187,1.437,4.377,4.327,6.045,5.741,3.315,15.02,3.315,20.724,0C292.188,534.393,293.607,532.237,293.613,530.079Z" transform="translate(-264.294 -529.995)" fill="#d99a32"/>
          </g>
          <g id="Group_237" data-name="Group 237" transform="translate(0.008)">
            <path id="Path_223" data-name="Path 223" d="M289.3,506.808c5.741,3.315,5.771,8.69.065,12.005s-14.983,3.315-20.724,0-5.773-8.691-.07-12S283.561,503.493,289.3,506.808Zm-18.446,10.72c4.51,2.6,11.8,2.6,16.283,0s4.459-6.828-.051-9.432-11.8-2.6-16.285,0-4.459,6.828.053,9.433" transform="translate(-264.319 -504.322)" fill="#ffd025"/>
          </g>
        </g>
      </g>
      <g id="Group_248" data-name="Group 248" transform="translate(0 6.669)">
        <g id="Group_247" data-name="Group 247">
          <g id="Group_240" data-name="Group 240" transform="translate(3.343 1.82)">
            <path id="Path_224" data-name="Path 224" d="M275.6,504.621a6.575,6.575,0,0,0-3.143,3.442q0-1.475.009-2.95a6.573,6.573,0,0,1,3.143-3.443c4.483-2.605,11.773-2.605,16.285,0,2.255,1.3,3.388,3.009,3.4,4.716l-.008,2.95c-.009-1.707-1.143-3.414-3.4-4.716C287.372,502.016,280.082,502.016,275.6,504.621Z" transform="translate(-272.456 -499.717)" fill="#ffd025"/>
          </g>
          <g id="Group_241" data-name="Group 241" transform="translate(3.14 7.216)">
            <path id="Path_225" data-name="Path 225" d="M272.041,519.07a4,4,0,0,0-.2,1.241l.009-2.95a3.994,3.994,0,0,1,.2-1.241q0,.737,0,1.475v.386l0,.564c0,.107,0,.249,0,.356A1.207,1.207,0,0,1,272.041,519.07Z" transform="translate(-271.837 -516.12)" fill="#ffd025"/>
          </g>
          <g id="Group_242" data-name="Group 242" transform="translate(3.14 8.457)">
            <path id="Path_226" data-name="Path 226" d="M294.875,519.956l-.008,2.95c0,1.7-1.12,3.39-3.347,4.684-4.483,2.605-11.773,2.605-16.283,0-2.27-1.311-3.4-3.031-3.4-4.749l.009-2.95c0,1.718,1.129,3.438,3.4,4.749,4.51,2.6,11.8,2.6,16.283,0C293.755,523.346,294.87,521.652,294.875,519.956Z" transform="translate(-271.837 -519.892)" fill="#fcca0d"/>
          </g>
          <g id="Group_243" data-name="Group 243" transform="translate(26.169 8.489)">
            <path id="Path_227" data-name="Path 227" d="M341.835,522.971v-.032q0-1.475.008-2.95v.033C341.841,520.907,341.837,522.086,341.835,522.971Z" transform="translate(-341.835 -519.989)" fill="#ffd025"/>
          </g>
          <g id="Group_244" data-name="Group 244" transform="translate(3.148 1.82)">
            <path id="Path_228" data-name="Path 228" d="M291.494,501.671c4.51,2.6,4.534,6.827.051,9.432s-11.773,2.605-16.283,0-4.536-6.828-.053-9.433S286.982,499.066,291.494,501.671Z" transform="translate(-271.863 -499.717)" fill="#fcca0d"/>
          </g>
          <path id="Path_229" data-name="Path 229" d="M275.216,503.316c4.483-2.605,11.773-2.605,16.285,0a6.3,6.3,0,0,1,3.307,3.915c.422-1.976-.68-4.043-3.307-5.56-4.512-2.605-11.8-2.605-16.285,0-2.592,1.506-3.674,3.554-3.256,5.517A6.238,6.238,0,0,1,275.216,503.316Z" transform="translate(-268.721 -497.898)" fill="#d99a32"/>
          <g id="Group_245" data-name="Group 245" transform="translate(0 8.447)">
            <path id="Path_230" data-name="Path 230" d="M291.613,519.944l-.008,2.95c-.006,2.159-1.425,4.314-4.26,5.962-5.7,3.314-14.983,3.314-20.724,0-2.89-1.669-4.334-3.859-4.327-6.046l.008-2.95c-.006,2.187,1.437,4.377,4.327,6.045,5.741,3.314,15.02,3.314,20.724,0C290.188,524.258,291.607,522.1,291.613,519.944Z" transform="translate(-262.294 -519.86)" fill="#d99a32"/>
          </g>
          <g id="Group_246" data-name="Group 246" transform="translate(0.008)">
            <path id="Path_231" data-name="Path 231" d="M287.3,496.673c5.741,3.314,5.771,8.69.065,12.005s-14.983,3.314-20.724,0-5.773-8.691-.07-12.005S281.561,493.358,287.3,496.673Zm-18.446,10.72c4.51,2.6,11.8,2.6,16.283,0s4.459-6.828-.051-9.432-11.8-2.605-16.285,0-4.459,6.828.053,9.433" transform="translate(-262.319 -494.186)" fill="#ffd025"/>
          </g>
        </g>
      </g>
      <g id="Group_257" data-name="Group 257" transform="translate(1.316 3.335)">
        <g id="Group_256" data-name="Group 256">
          <g id="Group_249" data-name="Group 249" transform="translate(3.343 1.82)">
            <path id="Path_232" data-name="Path 232" d="M279.6,494.486a6.576,6.576,0,0,0-3.143,3.442q0-1.475.009-2.95a6.573,6.573,0,0,1,3.143-3.442c4.483-2.605,11.773-2.605,16.285,0,2.255,1.3,3.388,3.009,3.4,4.716l-.008,2.95c-.009-1.707-1.143-3.414-3.4-4.716C291.372,491.881,284.082,491.881,279.6,494.486Z" transform="translate(-276.456 -489.582)" fill="#ffd025"/>
          </g>
          <g id="Group_250" data-name="Group 250" transform="translate(3.14 7.216)">
            <path id="Path_233" data-name="Path 233" d="M276.041,508.934a4,4,0,0,0-.2,1.241l.009-2.95a3.994,3.994,0,0,1,.2-1.241q0,.738,0,1.475v.386l0,.564c0,.107,0,.249,0,.356A1.207,1.207,0,0,1,276.041,508.934Z" transform="translate(-275.837 -505.984)" fill="#ffd025"/>
          </g>
          <g id="Group_251" data-name="Group 251" transform="translate(3.14 8.457)">
            <path id="Path_234" data-name="Path 234" d="M298.875,509.821l-.008,2.95c0,1.7-1.12,3.39-3.347,4.684-4.483,2.605-11.773,2.605-16.283,0-2.27-1.311-3.4-3.031-3.4-4.749l.009-2.95c0,1.718,1.129,3.438,3.4,4.749,4.51,2.6,11.8,2.6,16.283,0C297.755,513.211,298.87,511.517,298.875,509.821Z" transform="translate(-275.837 -509.757)" fill="#fcca0d"/>
          </g>
          <g id="Group_252" data-name="Group 252" transform="translate(26.169 8.489)">
            <path id="Path_235" data-name="Path 235" d="M345.835,512.836V512.8q0-1.475.008-2.95v.032C345.841,510.771,345.837,511.951,345.835,512.836Z" transform="translate(-345.835 -509.854)" fill="#ffd025"/>
          </g>
          <g id="Group_253" data-name="Group 253" transform="translate(3.148 1.82)">
            <path id="Path_236" data-name="Path 236" d="M295.494,491.536c4.51,2.6,4.534,6.826.051,9.431s-11.773,2.605-16.283,0-4.536-6.828-.053-9.433S290.982,488.931,295.494,491.536Z" transform="translate(-275.863 -489.582)" fill="#fcca0d"/>
          </g>
          <path id="Path_237" data-name="Path 237" d="M279.215,493.181c4.483-2.605,11.773-2.605,16.285,0a6.3,6.3,0,0,1,3.307,3.914c.422-1.976-.68-4.042-3.307-5.559-4.512-2.605-11.8-2.605-16.285,0-2.592,1.506-3.674,3.554-3.256,5.517A6.237,6.237,0,0,1,279.215,493.181Z" transform="translate(-272.721 -487.763)" fill="#d99a32"/>
          <g id="Group_254" data-name="Group 254" transform="translate(0 8.446)">
            <path id="Path_238" data-name="Path 238" d="M295.613,509.808l-.008,2.95c-.006,2.159-1.425,4.315-4.26,5.962-5.7,3.315-14.983,3.315-20.723,0-2.89-1.669-4.334-3.859-4.327-6.046l.008-2.95c-.006,2.187,1.437,4.377,4.327,6.046,5.741,3.314,15.02,3.314,20.724,0C294.188,514.122,295.607,511.966,295.613,509.808Z" transform="translate(-266.294 -509.724)" fill="#d99a32"/>
          </g>
          <g id="Group_255" data-name="Group 255" transform="translate(0.008)">
            <path id="Path_239" data-name="Path 239" d="M291.3,486.538c5.741,3.314,5.771,8.689.065,12s-14.983,3.315-20.724,0-5.773-8.691-.07-12.005S285.561,483.223,291.3,486.538Zm-18.446,10.719c4.51,2.6,11.8,2.6,16.283,0s4.459-6.828-.051-9.432-11.8-2.6-16.285,0-4.459,6.828.053,9.433" transform="translate(-266.319 -484.052)" fill="#ffd025"/>
          </g>
        </g>
      </g>
      <g id="Group_266" data-name="Group 266" transform="translate(0 0)">
        <g id="Group_265" data-name="Group 265">
          <g id="Group_258" data-name="Group 258" transform="translate(3.343 1.82)">
            <path id="Path_240" data-name="Path 240" d="M275.6,484.351a6.576,6.576,0,0,0-3.143,3.443q0-1.475.009-2.95a6.572,6.572,0,0,1,3.143-3.442c4.483-2.605,11.773-2.605,16.285,0,2.255,1.3,3.388,3.009,3.4,4.716l-.008,2.95c-.009-1.707-1.143-3.414-3.4-4.716C287.372,481.746,280.082,481.746,275.6,484.351Z" transform="translate(-272.456 -479.447)" fill="#ffd025"/>
          </g>
          <g id="Group_259" data-name="Group 259" transform="translate(3.14 7.216)">
            <path id="Path_241" data-name="Path 241" d="M272.041,498.8a4,4,0,0,0-.2,1.241l.009-2.95a3.994,3.994,0,0,1,.2-1.241q0,.737,0,1.475v.386l0,.564c0,.107,0,.249,0,.356A1.212,1.212,0,0,1,272.041,498.8Z" transform="translate(-271.837 -495.849)" fill="#ffd025"/>
          </g>
          <g id="Group_260" data-name="Group 260" transform="translate(3.14 8.457)">
            <path id="Path_242" data-name="Path 242" d="M294.875,499.685l-.008,2.95c0,1.7-1.12,3.39-3.347,4.684-4.483,2.605-11.773,2.605-16.283,0-2.27-1.311-3.4-3.031-3.4-4.75l.009-2.95c0,1.718,1.129,3.439,3.4,4.749,4.51,2.6,11.8,2.6,16.283,0C293.755,503.075,294.87,501.381,294.875,499.685Z" transform="translate(-271.837 -499.621)" fill="#fcca0d"/>
          </g>
          <g id="Group_261" data-name="Group 261" transform="translate(26.169 8.489)">
            <path id="Path_243" data-name="Path 243" d="M341.835,502.7v-.033q0-1.475.008-2.95v.033C341.841,500.636,341.837,501.816,341.835,502.7Z" transform="translate(-341.835 -499.718)" fill="#ffd025"/>
          </g>
          <g id="Group_262" data-name="Group 262" transform="translate(3.148 1.82)">
            <path id="Path_244" data-name="Path 244" d="M291.494,481.4c4.51,2.6,4.534,6.827.051,9.432s-11.773,2.605-16.283,0-4.536-6.828-.053-9.433S286.982,478.8,291.494,481.4Z" transform="translate(-271.863 -479.447)" fill="#fcca0d"/>
          </g>
          <path id="Path_245" data-name="Path 245" d="M275.216,483.046c4.483-2.6,11.773-2.6,16.285,0a6.3,6.3,0,0,1,3.307,3.915c.422-1.976-.68-4.042-3.307-5.56-4.512-2.6-11.8-2.6-16.285,0-2.592,1.506-3.674,3.554-3.256,5.516A6.237,6.237,0,0,1,275.216,483.046Z" transform="translate(-268.721 -477.627)" fill="#d99a32"/>
          <g id="Group_263" data-name="Group 263" transform="translate(0 8.447)">
            <path id="Path_246" data-name="Path 246" d="M291.613,499.673l-.008,2.95c-.006,2.159-1.425,4.315-4.26,5.962-5.7,3.314-14.983,3.315-20.724,0-2.89-1.669-4.334-3.859-4.327-6.045l.008-2.95c-.006,2.187,1.437,4.377,4.327,6.046,5.741,3.314,15.02,3.314,20.724,0C290.188,503.987,291.607,501.831,291.613,499.673Z" transform="translate(-262.294 -499.589)" fill="#d99a32"/>
          </g>
          <g id="Group_264" data-name="Group 264" transform="translate(0.008)">
            <path id="Path_247" data-name="Path 247" d="M287.3,476.4c5.741,3.315,5.771,8.69.065,12.005s-14.983,3.315-20.724,0-5.773-8.691-.07-12.005S281.561,473.087,287.3,476.4Zm-18.446,10.72c4.51,2.6,11.8,2.6,16.283,0s4.459-6.828-.051-9.432-11.8-2.6-16.285,0-4.459,6.828.053,9.433" transform="translate(-262.319 -473.916)" fill="#ffd025"/>
          </g>
        </g>
      </g>
    </g>
    <g id="Group_286" data-name="Group 286" transform="translate(1288.596 434.799)">
      <g id="Group_276" data-name="Group 276" transform="translate(0.987 4.059)">
        <g id="Group_275" data-name="Group 275">
          <g id="Group_268" data-name="Group 268" transform="translate(3.344 1.82)">
            <path id="Path_249" data-name="Path 249" d="M188.509,549.649a6.573,6.573,0,0,0-3.143,3.442q0-1.475.008-2.95a6.574,6.574,0,0,1,3.143-3.443c4.483-2.605,11.773-2.605,16.285,0,2.255,1.3,3.389,3.009,3.4,4.716l-.009,2.95c-.009-1.707-1.143-3.414-3.4-4.716C200.282,547.044,192.992,547.044,188.509,549.649Z" transform="translate(-185.366 -544.745)" fill="#ffd025"/>
          </g>
          <g id="Group_269" data-name="Group 269" transform="translate(3.14 7.216)">
            <path id="Path_250" data-name="Path 250" d="M184.951,564.1a4,4,0,0,0-.2,1.241l.008-2.95a4,4,0,0,1,.2-1.241q0,.737,0,1.475c0,.116,0,.27,0,.386l0,.564c0,.107,0,.249,0,.356A1.162,1.162,0,0,1,184.951,564.1Z" transform="translate(-184.747 -561.148)" fill="#ffd025"/>
          </g>
          <g id="Group_270" data-name="Group 270" transform="translate(3.14 8.457)">
            <path id="Path_251" data-name="Path 251" d="M207.785,564.984l-.008,2.95c0,1.7-1.12,3.39-3.347,4.684-4.483,2.605-11.773,2.605-16.283,0-2.27-1.311-3.4-3.031-3.4-4.749l.008-2.95c0,1.718,1.129,3.438,3.4,4.749,4.51,2.6,11.8,2.6,16.283,0C206.665,568.374,207.78,566.68,207.785,564.984Z" transform="translate(-184.747 -564.92)" fill="#fcca0d"/>
          </g>
          <g id="Group_271" data-name="Group 271" transform="translate(26.169 8.489)">
            <path id="Path_252" data-name="Path 252" d="M254.744,568c0-.011,0-.022,0-.033q0-1.475.009-2.95v.033C254.75,565.935,254.747,567.115,254.744,568Z" transform="translate(-254.744 -565.017)" fill="#ffd025"/>
          </g>
          <g id="Group_272" data-name="Group 272" transform="translate(3.148 1.82)">
            <path id="Path_253" data-name="Path 253" d="M204.4,546.7c4.51,2.6,4.534,6.827.051,9.432s-11.773,2.6-16.283,0-4.536-6.828-.053-9.433S199.892,544.094,204.4,546.7Z" transform="translate(-184.772 -544.745)" fill="#fcca0d"/>
          </g>
          <path id="Path_254" data-name="Path 254" d="M188.125,548.344c4.483-2.605,11.773-2.605,16.285,0a6.3,6.3,0,0,1,3.307,3.915c.422-1.976-.68-4.043-3.307-5.56-4.512-2.605-11.8-2.605-16.285,0-2.592,1.506-3.674,3.554-3.256,5.517A6.24,6.24,0,0,1,188.125,548.344Z" transform="translate(-181.63 -542.926)" fill="#d99a32"/>
          <g id="Group_273" data-name="Group 273" transform="translate(0 8.447)">
            <path id="Path_255" data-name="Path 255" d="M204.522,564.972l-.008,2.95c-.006,2.159-1.425,4.314-4.26,5.962-5.7,3.314-14.983,3.314-20.724,0-2.89-1.669-4.334-3.859-4.327-6.045l.009-2.95c-.006,2.187,1.437,4.377,4.327,6.045,5.741,3.315,15.02,3.314,20.724,0C203.1,569.286,204.516,567.13,204.522,564.972Z" transform="translate(-175.203 -564.888)" fill="#d99a32"/>
          </g>
          <g id="Group_274" data-name="Group 274" transform="translate(0.008)">
            <path id="Path_256" data-name="Path 256" d="M200.214,541.7c5.741,3.314,5.771,8.69.066,12.005s-14.983,3.315-20.724,0-5.773-8.69-.07-12.005S194.471,538.385,200.214,541.7Zm-18.446,10.72c4.51,2.6,11.8,2.6,16.283,0s4.459-6.828-.051-9.432-11.8-2.605-16.285,0-4.459,6.828.053,9.433" transform="translate(-175.229 -539.214)" fill="#ffd025"/>
          </g>
        </g>
      </g>
      <g id="Group_285" data-name="Group 285" transform="translate(0 0)">
        <g id="Group_284" data-name="Group 284">
          <g id="Group_277" data-name="Group 277" transform="translate(3.344 1.82)">
            <path id="Path_257" data-name="Path 257" d="M185.509,537.314a6.573,6.573,0,0,0-3.143,3.443q0-1.475.008-2.95a6.573,6.573,0,0,1,3.143-3.442c4.483-2.605,11.773-2.605,16.285,0,2.255,1.3,3.389,3.009,3.4,4.716l-.009,2.95c-.009-1.707-1.143-3.414-3.4-4.716C197.282,534.709,189.992,534.709,185.509,537.314Z" transform="translate(-182.366 -532.41)" fill="#ffd025"/>
          </g>
          <g id="Group_278" data-name="Group 278" transform="translate(3.14 7.216)">
            <path id="Path_258" data-name="Path 258" d="M181.951,551.762a3.994,3.994,0,0,0-.2,1.241l.008-2.95a4,4,0,0,1,.2-1.241q0,.737,0,1.475c0,.116,0,.27,0,.386l0,.564c0,.107,0,.249,0,.356A1.164,1.164,0,0,1,181.951,551.762Z" transform="translate(-181.747 -548.812)" fill="#ffd025"/>
          </g>
          <g id="Group_279" data-name="Group 279" transform="translate(3.14 8.457)">
            <path id="Path_259" data-name="Path 259" d="M204.785,552.648l-.008,2.95c0,1.7-1.12,3.39-3.347,4.684-4.483,2.605-11.773,2.605-16.283,0-2.27-1.311-3.4-3.031-3.4-4.75l.008-2.95c0,1.718,1.129,3.439,3.4,4.75,4.51,2.6,11.8,2.6,16.283,0C203.665,556.038,204.78,554.344,204.785,552.648Z" transform="translate(-181.747 -552.584)" fill="#fcca0d"/>
          </g>
          <g id="Group_280" data-name="Group 280" transform="translate(26.169 8.489)">
            <path id="Path_260" data-name="Path 260" d="M251.744,555.664c0-.011,0-.022,0-.033q0-1.475.009-2.95v.033C251.75,553.6,251.747,554.779,251.744,555.664Z" transform="translate(-251.744 -552.681)" fill="#ffd025"/>
          </g>
          <g id="Group_281" data-name="Group 281" transform="translate(3.148 1.82)">
            <path id="Path_261" data-name="Path 261" d="M201.4,534.364c4.51,2.6,4.534,6.827.051,9.432s-11.773,2.605-16.283,0-4.536-6.828-.053-9.433S196.892,531.759,201.4,534.364Z" transform="translate(-181.772 -532.41)" fill="#fcca0d"/>
          </g>
          <path id="Path_262" data-name="Path 262" d="M185.125,536.009c4.483-2.605,11.773-2.605,16.285,0a6.3,6.3,0,0,1,3.307,3.915c.422-1.976-.68-4.043-3.307-5.56-4.512-2.605-11.8-2.605-16.285,0-2.592,1.506-3.674,3.554-3.256,5.516A6.239,6.239,0,0,1,185.125,536.009Z" transform="translate(-178.63 -530.59)" fill="#d99a32"/>
          <g id="Group_282" data-name="Group 282" transform="translate(0 8.447)">
            <path id="Path_263" data-name="Path 263" d="M201.522,552.636l-.008,2.95c-.006,2.159-1.425,4.315-4.26,5.962-5.7,3.314-14.983,3.314-20.724,0-2.89-1.669-4.334-3.859-4.327-6.045l.009-2.95c-.006,2.187,1.437,4.377,4.327,6.045,5.741,3.315,15.02,3.315,20.724,0C200.1,556.95,201.516,554.794,201.522,552.636Z" transform="translate(-172.203 -552.552)" fill="#d99a32"/>
          </g>
          <g id="Group_283" data-name="Group 283" transform="translate(0.008)">
            <path id="Path_264" data-name="Path 264" d="M197.214,529.365c5.741,3.315,5.771,8.69.066,12.005s-14.983,3.315-20.724,0-5.773-8.691-.07-12.005S191.471,526.05,197.214,529.365Zm-18.446,10.72c4.51,2.6,11.8,2.6,16.283,0s4.459-6.828-.051-9.432-11.8-2.6-16.285,0-4.459,6.828.053,9.433" transform="translate(-172.229 -526.879)" fill="#ffd025"/>
          </g>
        </g>
      </g>
    </g>
  </g>
</svg>
